<svg width="147" height="144" viewBox="0 0 147 144" fill="none" xmlns="http://www.w3.org/2000/svg"><path d="M97.651 103.367a7.541 7.541 0 01-.888-.213c-.814-.214-1.623.09-1.984.835-.288.744-.65 1.34-1.459 1.718a.963.963 0 00-.581.895c.007.741-.207 1.484-.644 2.081-.072.149.005.445.225.369.516-.08.888.139 1.332.282.666.142 1.256.136 1.916-.315.66-.377.951-.751.87-1.491-.08-.592-.007-.666.51-.672.443-.004.22-.224.218-.372-.001-.074-.002-.223.071-.223.807-.527.652-1.266.35-1.93a4.58 4.58 0 00.064-.964zm2.327-3.432c-.587.303-1.248.606-1.836.908-.514.228-.436.671-.58 1.043-.144.298-.141.594.157.888.223.146.225.368.08.592l.073-.001c.446.292.744.511 1.186.506.37-.003.592.143.817.437.299.367.445.292.588-.228.071-.223.143-.446.438-.449.368-.078.439-.375.509-.746-.005-.519-.23-.887-.455-1.255-.375-.589-.383-1.33-.977-1.695zm22.484 26.594a1.767 1.767 0 00-.526-.958c-.297-.219-.667-.29-.967-.731-.222-.072-.369.003-.442.078-.142.594-.51.672-1.027.603-.37-.07-.738.008-1.106.16-.146.075-.219.224-.143.372.152.443.304.886.529 1.254.15.295.447.44.816.436.664-.081 1.401-.162 2.064-.243.591-.006.882-.379.802-.971zm-50.63-80.394c.736-.156 1.025-.752 1.539-1.053.22-.15.067-.668-.155-.74-.592-.142-1.184-.284-1.701-.353-.518-.069-1.101.604-.95.973.153.517.38 1.107 1.267 1.173zM60.394 31.729c.223.146.371.218.594.364.893.732 1.261.654 1.767-.388.073-.075.073-.15.07-.371-.003-.297-.005-.519-.226-.517-.59.006-1.033.01-1.553-.28-.371-.219-.738.007-.882.379-.218.299-.142.594.23.813zm16.954 5.237c.44-.227.583-.747.431-1.19a1.091 1.091 0 00-.672-.734c-.665-.141-1.106.085-1.323.532-.217.447.008.815.233 1.11.374.514.892.583 1.331.282zm30.441 61.705c-.52-.29-1.181.012-1.249.605-.068.52.231.887.75 1.178.666.142 1.033-.084 1.101-.603.143-.447-.157-.962-.602-1.18zm.198-2.299c-.591-.068-.883.306-.656.822.154.591.601 1.031.969.953.148-.001.368-.151.441-.226.293-.226.289-.596.211-.966-.299-.441-.595-.512-.965-.583zm14.762 43.934c-.221.003-.441.153-.586.451-.072.223-.071.297-.07.371-.07.371.007.667.303.812.372.218.738-.008 1.031-.233.293-.225.436-.745.284-1.114-.076-.222-.446-.366-.962-.287zm-16.992-1.68c-.371-.145-.74-.141-1.034.01-.22.076-.366.226-.289.596.225.294.448.514.671.66.372.292.813.14 1.031-.233a.853.853 0 00-.379-1.033zm9.707 3.828c.004.371.08.666.158 1.036 1.247-.753 1.247-.753.941-1.862-1.034.011-1.18.16-1.099.826zm-25.762-22.263c-.222-.071-.443-.069-.663.081-.219.299-.288.744-.138 1.039.226.368.593.216.96.064.29-.67.212-1.039-.159-1.184zM58.1 75.02c-.08-.518-.45-.662-.817-.51-.442.078-.511.523-.213.89.225.295.52.218 1.03-.38zm20.47-11.987c.075 0 .075 0 .149-.002.005.519.157.962.53 1.403 1.195 1.321 1.49 1.392 3.106.561.514-.227.953-.602.872-1.342l.074-.001c.07-.371.289-.596.509-.746.147-.076.367-.226.29-.447-.228-.74.215-.744.731-.749.295-.003.44-.227.438-.523l.147-.001c.664-.007 1.104-.308 1.247-.828l.221-.002c.22-.076.367-.152.44-.227.286-.966.424-1.93-.03-2.963-.3-.59-.529-1.254-1.195-1.47-.444-.143-.89-.435-1.407-.43.147-.076.22-.15.366-.3.292-.3.216-.595.065-.89-.15-.22-.227-.516-.377-.737-.225-.442-.743-.585-1.183-.284-.367.226-.51.598-.728 1.044.445.218.964.435 1.19.951a.566.566 0 00.297.146c-.22.076-.44.152-.66.377-.146.15-.442.078-.663.154-.22.077-.441.153-.586.451v-.074c-.44.227-.438.523-.288.744 0 .074-.072.149-.072.149a3.62 3.62 0 00-.287.818h-.074c-.145.224-.144.372.078.444l.002.148c.001.148.001.148.076.296l.001.074-.074-.074c.002.223.076.296.225.369 0 .074.074.073.149.146 0 .074.001.148.076.222l-.073.075c.004.37-.067.667-.286.966-.073 0-.074-.074-.148-.073-1.772-.056-2.358.394-2.57 1.285-.295.004-.441.153-.586.451-.44.375-.287.818.009.889zm-7.84 71.353c-.37-.145-.74-.215-1.106.159-.143.446.08.666.377.811.297.145.591.068.884-.157.22-.224.141-.668-.156-.813zm16.016 7.321c-.296.003-.367.226-.363.596.077.37.152.517.375.663.223.072.442-.078.589-.228.146-.149.218-.298.29-.447.073-.075-.003-.297-.077-.37-.151-.295-.52-.291-.814-.214zm5.933-48.366c.219-.224.215-.595.064-.89-.15-.294-.446-.365-.666-.215a1.702 1.702 0 00-.513.376c.005.518.229.738.6.883.147-.002.368-.078.515-.154zm-22.511-7.33c.294-.077.44-.226.585-.45.072-.223.07-.445-.153-.591a.566.566 0 00-.739-.067c-.22.15-.292.3-.29.596.077.221.3.441.597.512zm-6.785-43.347c-.074 0-.074.075-.074.075v-.075c-.222.003-.368.078-.367.226.002.223.15.221.371.219.001.074.001.074.076.147.002.222.002.297.079.518l-.148.002c-.218.372-.215.669-.21 1.039.004.519.303.812.967.88l.001.073c.593.29 1.11.211 1.7.205l.003.297c-.074 0-.148.001-.22.076-.296.003-.444-.07-.59.08a.713.713 0 00-.141.668c.154.666 1.046 1.323 1.784 1.316.295-.003.587-.376.436-.671-.225-.368-.598-.735-.603-1.328l.147-.001c.146-.15.22-.225.219-.299.071-.223.069-.445-.155-.665.657-.748.648-1.637.491-2.524-.081-.74-1.713-1.613-2.45-1.383-.146.076-.367.152-.44.3a1.02 1.02 0 01-.292.226v-.074c-.005-.37-.227-.516-.67-.586-.148.002-.222.076-.441.227-.072.223-.144.372-.144.446.226.442.45.662.67.586zm37.119 87.272c-.294.077-.439.301-.51.598.002.222.078.444.301.59.223.146.443-.005.663-.155.22-.151.366-.3.288-.67-.225-.368-.448-.514-.742-.363zM66.98 128.57c-.37-.07-.737.008-.88.528.151.369.374.515.67.586.296.071.59-.08.66-.377.072-.297-.154-.665-.45-.737zM50.698 21.75c.298.22.591.069.882-.379.073-.075-.001-.148-.004-.37-.15-.221-.225-.369-.446-.366-.295.003-.515.153-.66.45-.146.15-.07.446.228.665zm33.808 29.665c.296.071.515-.153.586-.376l-.003-.37c-.151-.295-.374-.441-.594-.365-.221.076-.294.151-.366.374-.07.371.081.74.377.737zm21.605 41.939c-.222-.072-.442.004-.662.155-.221.076-.292.299-.289.67.151.294.3.44.594.364.295-.077.589-.229.659-.6.071-.223-.153-.517-.302-.59zM52.572 75.816c.15.221.3.442.523.588.297.145.591.068.663-.155.145-.224.069-.445-.154-.591-.297-.22-.594-.365-.965-.583.002.222-.07.445-.067.741zm43.83 50.087c-.442.004-.81.082-1.102.455-.072.149.003.297.077.37.149.073.223.072.519.143.368-.004.516-.005.735-.23.145-.223.067-.667-.229-.738zM58.886 28.558c.293-.151.44-.3.436-.597-.002-.222-.152-.443-.3-.59-.224-.146-.444-.07-.59.154-.217.373-.141.595.306 1.035l.148-.002zm19.845 101.524c-.074.001-.074.001-.22.076-.22.225-.218.373-.143.52.075.148.224.294.372.293.222.072.589-.154.587-.377.218-.298-.006-.518-.596-.512zm-7.865-69.935c.443-.004.662-.229.509-.746-.739-.067-.885.083-.881.454.075.147.225.368.372.292zm20.574 78.697a.572.572 0 00-.066.742c.15.221.445.218.738-.008.073-.074.145-.223.143-.446-.075-.147-.15-.22-.224-.294-.15-.146-.37-.144-.59.006zm3.608-8.186c-.291.373-.215.595.523.662.291-.448.067-.742-.012-1.186-.145.224-.365.374-.511.524zm14.818-30.97c-.294.15-.291.447-.141.668.15.22.372.292.665.141.219-.298.217-.52.068-.667-.15-.147-.298-.22-.592-.142zM58.562 33.007c.146-.076.292-.226.291-.374-.002-.222-.15-.295-.447-.44-.148.002-.295.077-.369.078-.22.15-.291.373-.141.594.15.22.445.218.666.142zm.173 39.117c.221-.002.368-.078.44-.227.073-.149-.003-.37-.079-.518-.074-.073-.222-.146-.444-.143-.294.15-.365.374-.29.595.002.148.151.295.373.293zm-.348 16.673a1.023 1.023 0 00-.225-.294c-.297-.145-.591-.068-.663.155-.071.223.005.445.228.59.298.294.444.144.66-.45zm46.494 21.61c.073-.075.146-.224.143-.446-.15-.295-.372-.367-.592-.217-.22.151-.292.374-.142.594.223.146.371.219.591.069zM48.06 38.299c.074-.075.072-.223.07-.371-.075-.222-.224-.368-.519-.291a.577.577 0 00-.292.299c.076.221.077.37.226.442.15.22.37.145.516-.08zm46.205 95.182c-.222.003-.368.152-.366.3 0 .074.076.222.151.369.15.147.297.145.517-.005.146-.076.219-.224.142-.52-.223-.146-.297-.145-.444-.144zM58.748 29.597c-.148-.073-.295.003-.293.15-.071.298.078.445.3.516 0 0 .074 0 .22-.076.072-.297.07-.445-.227-.59zm48.647 22.698c-.592-.068-.666-.141-.524-.661.07-.445-.15-.295-.298-.293-.074 0-.222-.072-.223-.146-.304-.886-1.042-.879-1.779-.797-.295.003-.664.006-.96-.065-.144.372-.29.596-.435.82-.435.745-.353 1.56.391 2.144.669.512 1.19.951 1.347 1.839a.95.95 0 00.745.733c.74.215 1.335.58 1.856 1.093.15.146.445.143.442-.153.068-.52.361-.818.577-1.265.289-.67.431-1.19.128-2.002-.23-.813-.529-1.18-1.267-1.247zm-3.86-2.183l-.001-.074c.365-.374.657-.674.727-1.045.07-.371.29-.522.584-.673.441-.226.44-.3-.081-.666-.222-.146-.371-.218-.374-.514-.003-.37-.226-.517-.597-.661-.518-.143-.959.01-1.327.161-.588.229-1.327.088-1.765.61l.463 1.997c.079.517.596.586.894.806.297.219.593.29.886.065.219-.225.441-.227.591-.006zm28.301-18.586c-.369.004-.738.008-1.03.307-.293.225-.437.597-.878.75-.145.223-.07.37.004.444.52.291.598.66.308 1.182-.144.372-.214.743-.063 1.112.001.149.15.221.297.22.442-.079.885-.083 1.327-.236.294-.077.587-.302.583-.673.067-.667.207-1.41.274-2.077.068-.593-.231-.96-.822-1.029zM40.559 62.824c.59-.08 1.179-.16 1.466-.978-.008-.74-.455-1.18-.682-1.771-.076-.222-.593-.217-.738.007-.29.522-.58 1.043-.796 1.564-.143.52.308 1.257.75 1.178zm11.035-10.78c.152.369.45.662.822.955.365-.375.582-.821 1.245-.976.439-.375.288-.67.137-1.039a.736.736 0 00-.815-.288c-.294.077-.516.08-.81.157-.587.302-.804.748-.579 1.19zM25.917 67.343c-.075-.073-.149-.073-.37-.145-.297-.07-.519-.142-.59.08-.143.52-.285 1.04-.65 1.489-.292.3-.14.668.158.962.074.073.148.072.223.145-.073.075-.073.15-.146.224-.145.298-.215.595-.36.967.298.145.667.141 1.036.212.222-.002.442-.079.662-.23.367-.225.512-.449.361-.818-.152-.443-.45-.662-.819-.658l.366-.374c.95-.825.948-1.121.129-1.854zm7.999-11.861c.514-.227.73-.674.577-1.265a1.042 1.042 0 00-1.04-.73c-.37.003-.59.154-.88.527-.29.595-.21 1.113.236 1.48.299.367.74.214 1.107-.012zm76.166 14.419c.516-.005.811-.082 1.028-.528.071-.224.069-.446.139-.817-.081-.666-.599-.809-1.042-.878a.798.798 0 00-.515.227c-.365.374-.509.746-.356 1.263.078.444.377.737.746.733zm-24.378 5.211c.219-.299.363-.597.507-.969a1.02 1.02 0 00-.007-.666c-.152-.444-.3-.59-.67-.586-.516.005-.81.23-.879.675-.07.371.007.667.305.886.15.295.373.441.744.66zM42.71 71.174c.146-.075.294-.077.514-.153.221-.076.369-.078.516-.153.66-.303.732-.526.504-1.191-.076-.222-.152-.443-.302-.664-.15-.295-.52-.29-.812-.066-.585.525-.577 1.34-.718 2.008.002.222.15.295.297.22zm59.031-30.602c.519.217.885-.009 1.25-.457.289-.595.138-.964-.308-1.256-.371-.219-.959.01-1.252.309-.437.523-.283 1.188.31 1.404zm-1.857-1.166c.664-.007 1.104-.308 1.173-.753-.001-.148-.004-.37-.153-.517-.15-.295-.446-.366-.89-.436-.515.154-.66.451-.803.823-.143.52.082.889.673.883zm11.829 31.22a.454.454 0 00-.516.08c-.513.375-.729.896-.871 1.49-.071.297.227.516.521.44.221-.077.367-.227.661-.378.365-.374.51-.672.506-1.042.071-.297-.079-.518-.301-.59zm35.134-36.362c-.152-.369-.597-.587-1.04-.582-.295.003-.513.301-.582.82.002.223.078.444.302.664.148.073.223.146.371.145.296.145.665.141.884-.083.293-.3.215-.67.065-.964zM22.595 74.637c.367-.226.436-.671.134-1.335-.296-.145-.518-.217-.738-.066-.441.226-.656.821-.431 1.19.15.22.668.363 1.035.211zm117.036-24.001c-.218.299-.288.67-.211 1.04.076.221.152.443.521.44.368-.153.588-.303.808-.454.366-.3.361-.744-.011-1.037-.372-.292-.888-.287-1.107.011zM40.276 71.421c.514-.301.585-.599.06-1.334-.37-.07-.664.007-.809.23a.808.808 0 00.011 1.112c.224.22.445.143.738-.008zm104.792-30.545c-.212.965-.136 1.113.603 1.253.37.07.665.068 1.034.064-.456-1.329-.456-1.329-1.637-1.317zm-26.273 22.121c.367-.151.29-.521.286-.892-.52-.365-.89-.435-1.181-.062-.146.15-.217.447-.067.668.223.22.667.363.962.286zM66.002 82.793c.004.445.376.663.816.437.44-.227.438-.523-.085-1.11-.591-.069-.736.229-.731.673zm-5.994-23.499a.676.676 0 00-.083-.889c-.224-.22-.519-.217-.886-.065-.365.448-.214.743.084 1.037.297.219.74.214.885-.083zm67.19 24.586c-.218.298-.362.67-.136 1.113.446.291.666.14.884-.158.218-.298.215-.594.065-.89-.225-.367-.594-.364-.813-.065zm11.661-14.64c-.074-.073-.295-.07-.369-.07-.294.151-.365.448-.435.82.003.296.151.369.522.513.369-.004.59-.006.662-.229.145-.224.069-.445-.081-.666-.075-.147-.15-.295-.299-.367zm-47.172-15.6c.519.142.812-.009.956-.38a.635.635 0 00-.005-.52c-.15-.22-.52-.364-.815-.287-.294.077-.44.3-.363.596.002.222.078.37.227.59zM80.294 72.87c-.003-.297-.08-.518-.302-.664-.223-.146-.444-.144-.665-.068-.294.151-.364.448-.288.744a.667.667 0 00.448.44c.37.07.59-.08.807-.453zm-44.168-3.185c.442-.005.662-.23.584-.599-.003-.296-.153-.517-.523-.587-.295-.071-.59.08-.659.525.002.148.077.296.153.443.149.147.297.22.445.218zM130.43 53.1c-.367.152-.587.303-.583.673.003.296.152.517.449.662.222.072.443-.004.663-.155a.558.558 0 00-.007-.666c-.076-.222-.152-.443-.522-.514zm-9.473 34.029c.369-.078.589-.229.733-.526.146-.224.068-.594-.155-.74-.223-.146-.665-.067-.809.23-.144.373-.214.744.231 1.036zM13.39 76.656c.292-.299.215-.594-.158-.961-.074-.073-.148-.073-.37-.07-.294.077-.44.152-.512.375-.07.297.079.518.229.739.297.219.592.142.81-.083zM49.368 50.88c.371.145.74.142.81-.156.145-.297-.004-.518-.227-.664-.075-.073-.149-.073-.37-.07-.295.077-.514.227-.511.523.001.148.076.296.298.368zM96.354 40.7c.295-.076.514-.227.512-.449-.003-.296-.08-.592-.45-.81-.15-.073-.517.005-.59.154-.071.223-.069.445-.067.667.15.295.3.442.595.439zm28.726 16.085c-.144.372-.14.816.159 1.183.075.074.296.071.369-.003.073-.075.145-.224.217-.447.071-.297.069-.52-.081-.74-.151-.295-.593-.216-.664.007zm.547 17.627c-.297-.145-.591.006-.733.526.001.074.001.074.076.222.15.22.299.367.519.29a1.54 1.54 0 00.44-.3c.072-.223-.08-.592-.302-.738zm-84.581-7.148l-.001-.148a1.023 1.023 0 00-.225-.294c-.223-.146-.519-.217-.738.007-.218.3-.215.595.082.815.15.146.372.218.52.217l.001.222c-.07.297-.143.446-.067.667.15.221.372.293.594.29.664-.006 1.542-.756 1.683-1.424.07-.297-.228-.664-.597-.587-.294.078-.66.303-1.252.235zm13.941-.881c.221-.002.368-.078.44-.227.07-.371-.08-.666-.598-.735-.288.67-.212.891.158.962zm81.9-2.457c-.147.076-.295.077-.368.152-.22.15-.291.373-.141.594.15.22.446.366.74.215.221-.076.291-.374.14-.742-.001-.075-.149-.147-.371-.219zm-7.877-5.329c.149.22.225.442.375.663.3.442.52.291.735-.378-.3-.441-.741-.215-1.11-.285zm-25.453-20.858c.221-.077.366-.3.29-.596-.225-.294-.446-.292-.667-.215-.221.076-.366.3-.29.521.077.296.373.367.667.29zM25.883 71.27c-.223-.072-.369.078-.514.302l.004.37c.076.222.299.367.52.291.22-.076.291-.3.29-.522a.5.5 0 00-.3-.441zm38.101 9.025a.356.356 0 00-.517.005c-.073.075-.145.224-.291.373.077.37.226.443.52.44a.499.499 0 00.44-.301c-.002-.222-.003-.37-.152-.517zm16.441 5.539c.293-.226.217-.447-.304-.812-.146.075-.294.077-.293.15-.219.3-.216.596.006.668.224.22.445.143.59-.006zm31.246-41.287c-.295.077-.441.227-.364.522.076.222.225.368.52.291.294-.077.366-.3.216-.52-.075-.148-.149-.147-.372-.293zM28.813 83.761c.22-.15.218-.372.068-.593a.563.563 0 00-.37-.144c-.222.002-.442.152-.365.448.002.148.076.221.225.368.222-.002.37-.004.442-.079zM132.126 60.27c-.146.15-.219.224-.291.373-.072.223.077.37.226.442.074.074.295-.003.368-.078.147-.075.218-.298.143-.445-.075-.148-.15-.295-.446-.292zm-21.939 5.481c.07-.37-.005-.518-.227-.59-.222-.072-.368.078-.441.227-.071.223-.069.445.08.592.224.22.37.07.588-.229zm-87.189 4.955c-.072.15-.07.297.078.37.223.146.443.07.589-.154l-.002-.222c-.372-.219-.52-.217-.665.006zm35.555-16.658c-.15-.147-.297-.145-.443.005-.146.15.003.296.226.442.368-.078.44-.227.217-.447zm-5.555 27.321a7.658 7.658 0 01-.888-.213c-.814-.215-1.622.164-1.91.908-.072.223-.216.52-.362.744l-.147.002c.144-.298.215-.67.284-1.114-.004-.37.14-.743.136-1.113.071-.297-.079-.518-.302-.664-.222-.072-.444-.144-.74-.215v-.074c.293-.15.437-.523.286-.818-.075-.147-.15-.22-.372-.292.074 0 .148-.002.22-.076.812-.083 1.324-.532 1.762-1.056.219-.224.216-.446-.156-.813-.075-.073-.223-.146-.445-.218l.147-.001.073-.075c.217-.447.36-.893-.012-1.26-.075-.073-.224-.22-.226-.368-.008-.889-.527-1.106-1.265-1.098-.222.002-.518-.069-.813-.066v-.074c-.001-.074-.076-.148-.15-.147v-.074c-.814-.214-1.552-.132-2.29-.125-.369.004-.662.155-.732.526-.288.744-.726 1.267-1.31 1.791-.147.15-.145.298-.216.595 0 0-.074.001-.075-.073-.287.744.012 1.185.46 1.625l1.343 1.543c.224.22.227.516.23.738.005.519-.361.819-.807.527-.446-.292-.89-.361-1.48-.355l-.001-.149c-1.26-.506-1.617.757-2.35 1.135-.441.227-.29.596-.139.965.077.296-.07.371-.215.595-.218.373-.14.668.156.813.52.365 1.114.656 1.634 1.021.594.364 1.258.358 1.844-.093 0 .074.075.074.075.148.517-.006 1.035.137 1.178-.309.29-.595.733-.526 1.249-.605 0 0 0 .074.074.073.296.072.445.144.592.143.37-.004.664-.007.885-.083.002.148.076.221.151.369a.843.843 0 00-.215.594c.007.741-.206 1.484-.569 2.155-.072.149.005.444.225.368.516-.08.888.14 1.331.209.666.141 1.255.061 1.915-.39.66-.451.951-.825.796-1.564-.08-.592-.08-.666.51-.746.442-.004.218-.224.217-.373 0-.074-.002-.222.072-.223.732-.526.577-1.265.275-1.929.146-.15.07-.445.067-.741zm3.757-.705c-.006-.519-.23-.887-.53-1.254-.374-.515-.455-1.255-1.049-1.545-.587.302-1.174.678-1.835.981-.44.227-.362.67-.506 1.043-.144.372-.067.667.23.886.223.146.3.368.08.592h.074c.446.291.816.436 1.259.431.369-.003.592.143.816.437.373.366.446.291.588-.228.072-.224.144-.447.365-.449.44-.227.511-.524.508-.894zm21.202 23.939c.59-.08.88-.527.727-1.119-.078-.369-.228-.664-.6-.883-.297-.219-.74-.214-.966-.657-.222-.072-.368.004-.367.152-.142.594-.51.746-1.027.603-.37-.07-.738.008-1.105.234-.147.075-.22.224-.144.372.152.443.378.885.603 1.253.15.295.448.44.816.436.663-.155 1.4-.236 2.063-.391zM24.975 25.196c.735-.23 1.025-.751 1.464-1.126.22-.15.067-.668-.154-.666-.592-.142-1.184-.284-1.775-.352-.517-.069-1.1.604-.876.972.228.59.528 1.106 1.34 1.172zm12.558 8.467c.446.292.74.141 1.032-.158.292-.3.215-.595-.009-.89-.15-.22-.227-.516-.376-.736-.3-.442-.744-.511-1.184-.21-.366.225-.51.597-.727 1.044.445.218.964.435 1.264.95zM13.025 11.24c.223.146.445.217.593.29.966.657 1.26.58 1.767-.462.073-.075.072-.15.07-.372-.003-.296-.005-.518-.227-.516-.59.08-1.033.01-1.552-.207-.371-.218-.738.008-.88.454-.22.299-.143.594.229.813zm17.169 4.568c.367-.226.583-.747.357-1.189-.077-.296-.3-.516-.746-.733-.665-.142-1.106.085-1.322.606-.217.446.008.814.306 1.108.448.44.891.51 1.405.208zM4.023 62.674c-.37.004-.737.082-1.029.455-.14.668.084 1.036.53 1.328.371.219.814.214 1.183.137.515-.154.66-.378.58-.895-.156-.888-.379-1.034-1.264-1.025zM36.74 93.906c.22-.003.442-.005.81-.083.661-.302.583-.746.505-1.19-.002-.148-.152-.369-.3-.441-.445-.218-.889-.288-1.328.013-.367.226-.585.524-.508.894.153.517.303.738.82.807zM18.436 28.225c-.668-.437-1.404-.208-2.141-.126-.148.001-.146.224-.07.371.075.147.15.22.3.442.15.22.15.368.225.442.523.587.744.585 1.257.21.22-.151.366-.3.512-.45.365-.375.215-.67-.083-.889zM63.66 77.409c.069-.446-.23-.887-.676-1.105-.52-.291-1.18.086-1.248.68-.068.593.23.886.823 1.103.592.142.959-.084 1.1-.678zm-.625-3.402c-.591-.068-.81.304-.655.895.227.59.6.957 1.042.879.147-.002.367-.152.44-.227.22-.224.216-.595.138-.964-.227-.517-.596-.587-.965-.583zM35.277 95.328c.221-.076.44-.227.439-.449a.674.674 0 00-.227-.516c-.521-.44-1.038-.508-1.702-.427-.295.002-.439.374-.288.67.15.22.298.293.595.512.52.217.815.288 1.183.21zM7.464 8.777a.808.808 0 00.012 1.11c.298.294.74.29 1.326-.235.07-.37.068-.593-.082-.74-.372-.366-.963-.435-1.256-.135zm55.038 107.54c-.37-.145-.739-.067-1.032.084-.22.077-.367.226-.29.596.225.294.449.514.672.66.372.293.813.14 1.03-.307.144-.372-.01-.889-.38-1.033zM16.19 24.988c-.372-.218-.813-.066-1.03.307-.145.298.005.518.154.74.448.44.742.362 1.326-.31-.004-.37-.154-.592-.45-.737zm56.163 94.786c.078.369.155.665.232 1.035 1.173-.827 1.173-.827.866-1.935-1.107.011-1.179.16-1.098.9zM45.949 99.592c.214-.67.137-.965-.234-1.183-.222-.072-.443-.07-.589.154-.218.298-.287.744-.063 1.038.225.368.519.217.886-.01zM11.537 54.004c-.44.153-.511.524-.212.891.299.368.593.29 1.03-.38-.08-.519-.45-.589-.818-.511zm21.647-12.517c.145-.298.069-.52-.156-.814-.519-.217-.812.008-.956.38-.144.298.008.741.304.812a.741.741 0 00.808-.378zm-5.917 71.926c-.37-.071-.74-.141-1.104.233-.143.52.08.666.45.811.297.071.666.067.884-.232.218-.298.14-.668-.23-.812zm19.875-41.765c.148-.001.37-.004.516-.153.219-.225.215-.595.064-.89-.15-.295-.445-.292-.74-.215-.147.076-.293.225-.513.376.006.593.23.813.673.882zm-22.804-7.105c.077.296.226.443.597.587.294-.077.44-.227.586-.45.071-.223.07-.446-.154-.591a.566.566 0 00-.739-.067c-.22.076-.366.226-.29.521zM16.602 22.02c.295-.077.44-.3.437-.597-.004-.37-.226-.516-.67-.511-.147.001-.22.076-.44.226-.071.223-.144.372-.068.52.151.368.448.514.741.362zm40.143 86.946c.223.146.443-.004.663-.155.22-.15.366-.3.288-.669-.224-.295-.447-.44-.742-.363-.294.077-.44.3-.51.597-.072.223.078.444.301.59zm-33.447-1.218c-.369.004-.737.007-.88.527.151.369.374.515.67.512.296.071.588-.154.66-.377.145-.224-.08-.592-.45-.662zM2.963 1.561c.298.22.591.069.808-.378.073-.075-.001-.148-.004-.37-.076-.223-.225-.37-.446-.368-.295.003-.514.228-.66.452-.145.223.006.592.302.663zm.733 58.005c.294-.152.363-.597.286-.892a.497.497 0 00-.445-.292c-.37.004-.588.228-.585.599.001.073.001.073.076.221.152.369.3.516.668.364zm34.243-29.611c.296.071.515-.153.586-.45l-.004-.371c-.224-.294-.374-.44-.594-.364-.22.076-.293.225-.365.374-.144.446.082.814.377.81zm23.447 41.624c.073-.15-.152-.518-.374-.515-.222-.072-.442.078-.663.155-.22.15-.292.299-.288.67.15.294.373.44.594.364.441-.153.661-.303.731-.674zM7.935 55.374c-.298-.22-.594-.365-.966-.583.003.296-.068.52-.065.816.15.22.3.441.522.513.296.145.59.068.662-.155.145-.298-.004-.444-.153-.591zm44.774 48.595c-.443.004-.811.082-1.103.455-.072.149.003.297.152.369.148.073.296.072.518.143.369-.003.516-.079.662-.229.145-.297-.008-.74-.229-.738zM11.148 8.147l.222-.002c.293-.152.439-.375.363-.597a.557.557 0 00-.375-.515c-.222-.146-.443-.07-.588.154-.145.298-.068.594.378.96zm24.043 100.592c-.074.001-.074.001-.22.076-.22.225-.218.373-.142.595.075.147.298.293.446.291.222.072.589-.154.586-.45.07-.297-.152-.443-.67-.512zM19.592 25.695l.147-.002c.146-.15.22-.224.219-.298.07-.297.068-.52-.228-.665-.297-.145-.665-.067-.81.305-.072.149-.07.37-.067.593-.074 0-.147.076-.22.076-.296.003-.443.005-.59.154-.072.15-.143.372-.067.594.154.665 1.12 1.248 1.784 1.241.295-.003.585-.45.435-.745-.225-.368-.597-.66-.603-1.253zM24.6 39.277c.442-.079.661-.303.508-.82-.738.007-.884.082-.88.453.075.221.15.369.372.367zm23.591 77.777c-.073.075-.145.224-.144.298-.001-.074-.076-.222-.077-.296-.076-.221-.005-.444.067-.667.14-.742-.087-1.259-.68-1.623-.446-.218-.892-.51-1.409-.579-.665-.067-1.257-.283-1.632-.872-.075-.074-.149-.073-.223-.072-.147.001-.146.149-.144.298.083.888.083.888-.655.969-.369.004-.738.008-1.106.086.076.221.15.294.226.442.374.515.375.589-.065.89-.22.15-.514.227-.658.599.225.368.599.809.456 1.329-.14.668.307 1.108.68 1.623.3.368.596.513.966.583l-.074.001c-.294.077-.366.3-.363.596.077.296.153.517.375.589.223.072.442-.078.589-.228.146-.15.218-.299.29-.448.073-.074-.003-.296-.077-.369-.15-.147-.224-.22-.372-.219.074-.001.148-.001.295-.077a2.043 2.043 0 011.328-.013c.592.142 1.183.136 1.697-.091-.01-1.038-.084-1.037.28-1.485.22-.225.364-.522.362-.745 0 .074.075.148.075.148.15.221.444.144.737-.082.073-.075.072-.223.143-.446-.075-.147-.15-.22-.224-.294-.221.002-.443.005-.663.155zm3.311-8.331c-.291.373-.141.594.524.661.29-.447-.008-.741-.012-1.185l-.512.524zm13.632-31.477c-.294.15-.29.447-.14.668.149.22.37.218.665.141.218-.298.142-.52-.007-.667-.076-.221-.298-.293-.518-.142zM11.193 12.592a.5.5 0 00.29-.448c-.001-.222-.15-.295-.446-.366-.147.002-.294.077-.368.078-.22.15-.291.373-.142.594.224.22.446.218.666.142zM21.966 70.79c.15.222.372.293.592.143.147-.075.219-.224.216-.52-.15-.147-.224-.295-.299-.368-.148-.073-.37-.07-.442.079a.667.667 0 00-.447-.44.573.573 0 00-.59.154c-.145.15-.216.446.007.592.298.294.52.291.96-.01-.146.224-.072.298.003.37zm-9.05-19.097c.222-.002.369-.078.44-.226.072-.224-.003-.37-.152-.517-.074-.074-.223-.147-.444-.144-.294.15-.365.374-.29.595.076.148.224.22.446.292zm-.57 16.602c-.072.223.004.444.227.59.298.22.518.143.66-.525a1.023 1.023 0 00-.225-.294c-.296-.071-.59.006-.662.229zM60.07 87.447c-.22.15-.291.373-.141.594.15.22.372.293.591.068.073-.075.145-.224.143-.446-.15-.295-.373-.367-.592-.216zM.469 17.664c-.147.075-.22.15-.292.373.076.222.15.295.225.368.223.146.444.07.59-.154.072-.075.07-.297.07-.37-.15-.222-.299-.294-.593-.217zm50.324 93.881c-.222.002-.368.152-.366.3 0 .074.076.222.151.369.15.147.37.071.517-.005.147-.076.219-.224.142-.52-.148-.073-.297-.145-.444-.144zM11.013 9.334c-.071.297.078.443.3.515.074 0 .074 0 .22-.076.145-.298.07-.52-.153-.591-.221.002-.369.003-.367.152zm25.467 29.6c.15.295.371.293.517.07.072-.15-.004-.371-.152-.444-.222-.072-.295.077-.366.374zm57.267 72.474c-.147.076-.37.004-.664.081-.59.006-.808.378-1.174.678-.146.15-.514.228-.438.449.077.37.37.071.59.069.148-.002.223.071.225.22.002.222.003.37.152.517.224.22.374.44.08.666-.219.15-.441.078-.664-.068-.148-.072-.223-.146-.371-.218-.222-.072-.442.078-.44.301-.07.445.009.889.38 1.107.668.364.972 1.25 1.93 1.018.073-.001.222.072.37.218.447.366.963.287 1.478.134.515-.154.88-.528.949-1.047 0-.074.072-.149.145-.224.365-.448.434-.893.208-1.41a.79.79 0 01.138-.89c.146-.224.143-.446-.08-.592-.745-.733-1.637-1.317-2.814-1.009zm-25.362 10.11c-.37-.219-.669-.512-1.115-.804-.517-.069-.96-.064-1.329-.061-.295.003-.515.154-.66.452-.07.297-.289.595-.508.82-.22.224-.29.595-.286.892-.062 1.186.983 2.361 2.018 2.498.666.142 1.33.209 1.918-.093.44-.227.36-.819.652-1.192.365-.448.136-1.113.131-1.631-.151-.369-.522-.588-.82-.881zm26.081-26.565c.075.073.076.147.076.221.45.737.972 1.176 1.857 1.167.886-.009 1.474-.237 1.612-1.127.88-.602.43-1.264.055-1.927-.3-.442-.672-.809-1.12-1.249-.074-.073-.296-.145-.37-.07-.44.153-.884.157-1.4.237-.22.002-.366.225-.512.45l-.289.595c-.145.224-.144.372-.217.447-.069.445-.138.89.308 1.256zm-18.43 2.112c.149.147.371.219.518.143.586-.45 1.325-.31 1.988-.464.22-.077.368-.152.438-.45h.148c.072-.224.144-.373.068-.594.074 0 .074 0 .147-.002.073-.148.145-.297.144-.446.073 0 .146-.075.146-.075.366-.3.586-.525.581-.97l-.011-1.11c.068-.52-.157-.888-.529-1.18l-.002-.223c-.079-.518-.303-.738-.82-.806 0 0 .074-.001.073-.075-.523-.662-1.189-.803-1.855-.945-.665-.141-1.254.013-1.691.61-.072.149-.145.224-.218.373-.073 0-.147.075-.22.076-.369.078-.44.3-.51.598l-.075-.073c-.073.074-.147.075-.294.15-.15-.146-.298-.219-.593-.216-.812-.066-1.032.085-1.245.902-.07.371-.067.742.16 1.184.37.218.74.215 1.034.138.077.37.156.813.307 1.182.228.664.603 1.253 1.343 1.468.372.219.67.512.968.805zm13.64 13.199c-.37-.145-.742-.363-1.11-.211l-.149-.147c-.37-.07-.665-.067-1.034-.064l-.001-.148c-.449-.588-1.043-.952-1.71-1.168l-.073.001v-.074c-.591.006-.96.009-1.406-.283-.52-.365-.666-.215-1.104.308a.57.57 0 00-.145.298l-.147.001c-.517.005-.96-.064-1.028.529l-.074.001c-.441.153-.585.525-.58.969l-.075-.073s-.075-.074-.148.001c-.368.078-.589.154-.659.525l-.073.075-.073.075s0 .074-.073.075v-.074c-.148.075-.147.15-.146.224-.074 0-.073.074-.147.075a4.996 4.996 0 00-.508.82l-.074.001c-.073.075-.072.223.003.296-.074.001-.074.001-.147.076-.218.373-.14.668.01 1.037.228.59.382 1.256.464 1.996l-.148.001c0 .074-.073.075-.072.149-.372-.218-.814-.214-1.257-.209-.295.003-.44.374-.29.595.15.221.3.368.523.588.445.217.741.289 1.11.211.22-.077.44-.227.438-.449l-.001-.074c.444.143.67.512.968.879.076.147.225.294.374.441l-.073.075c-.145.297-.291.447-.515.227l-.074-.073v-.074c-.078-.296-.448-.44-.964-.361a.405.405 0 00-.367.226c-.516.005-1.03.307-1.477-.133-.225-.294-.591-.069-.884.157-.293.299-.511.598-.358 1.115l-.148.001c-.662.229-.662.229-.508.82l-.146.15c.004.37-.067.667.01 1.037 0 0-.073.001-.073.075.005.518.083.888.16 1.258 0 0-.073.075-.072.149.076.221.152.443.3.515.372.219.523.588.602 1.106l.074-.001-.074.001c.818.584 1.628.428 2.439.271l.149.147c.595.438.885-.083 1.25-.383.074-.001.075.073.149.072 1.405.283 1.54-1.052 2.272-1.578.147-.076.07-.371-.005-.519-.299-.293-.302-.59-.158-1.036.071-.223.068-.519.064-.889l.074-.001c.218-.373-.078-.444-.3-.442l-.074-.073-.075-.073s.074-.001.074-.075c-.076-.222-.152-.369-.153-.517-.153-.517-.154-.591.507-.968 0 .074.001.148.075.147.297.219.521.439.818.659h-.073c.448.514.595.513.738-.007.073-.001.146-.076.22-.151a.672.672 0 00.216-.52l.221-.003c.738-.007 1.328-.013 1.918-.093.443-.004.516-.079.584-.673-.001-.074.073-.075.072-.149l.073-.074v.074c.37-.078.44-.301.365-.523-.001-.074.073-.074.072-.149.072-.148.07-.297.143-.446h.074v.074c.295-.077.443-.079.589-.228.073-.001.147-.076.147-.076a.578.578 0 00.292-.299l-.001-.074v.074c.367-.226.364-.523.362-.745-.004-.444-.082-.888.21-1.187.291-.374.36-.819.355-1.338-.002-.222-.004-.444.067-.667.072-.223.366-.374.216-.595-.37-.144-.595-.438-.817-.51zm-7.158 7.481c.073-.075 0-.074 0 0 .074-.001.074-.001 0 0zm.809-.305c0 .074 0 .074 0 0zm2.462-4.692l-.002-.148.001.074.001.074zm.217-.447c0-.074 0-.074 0 0 0-.074.073-.075 0 0zm4.75-11.976c-.298-.293-.443-.07-.663.081-.805.749-.944 1.565-.417 2.597.82.807 1.707.946 2.739.787.221-.002.293-.225.29-.447-.004-.519.212-.965.429-1.486.072-.149.144-.298.07-.371-.079-.444-.45-.737-.75-1.104-.15-.221-.444-.144-.665-.142-.368.078-.734.452-1.033.085zM66.597 53.967c-.52-.217-.968-.805-1.63-.65-.148.075-.368.151-.515.227-.146.15-.292.3-.512.45-.585.524-.58 1.043-.351 1.781.229.739.75 1.178 1.415 1.32.444.07.886-.01 1.402-.015.369-.077.366-.374.436-.745.068-.52.286-.892.282-1.336-.078-.37-.157-.888-.527-1.032zM55.149 31.263c.148.072.297.22.446.292.223.146.444.143.665.067.293-.151.588-.228.882-.305.514-.227.804-.75.725-1.267-.08-.74-.237-1.553-1.053-1.99-.148-.072-.223-.146-.445-.217-.297-.146-.444-.144-.591-.069-.293.226-.585.525-.879.676-.44.227-.51.598-.58 1.043-.14.817.089 1.481.83 1.77zM70.99 87.04c-.001-.074-.001-.074 0 0-.153-.517-.448-.44-.742-.363-.074.001-.075-.073-.148-.072-.445-.144-.817-.51-1.112-.434-.662.155-1.55-.058-2.062.466-.223-.146-.444-.144-.59.006-.293.225-.512.45-.804.749.222.072.37.144.518.217-.437.523-.504 1.19-.497 1.931.01.889.01.963 1.12 1.322 0 0 .001.074-.072.075.076.296.153.517.375.59 0 .073 0 .073.075.147a.667.667 0 00.519.216c.149.147.299.368.52.44.076.147.224.22.373.292l.221-.002c.147-.075.295-.077.368-.152.369-.004.736-.155 1.104-.307a.556.556 0 01.296.07 1.18 1.18 0 00.662-.228c.366-.226.512-.45.435-.745-.002-.148-.076-.222-.15-.295.144-.298.362-.597.507-.894.218-.373.215-.67.063-1.038a10.08 10.08 0 00-.98-1.99zm-1.827 1.797l-.075-.074c.074 0 .075.074.075.074zm-30.268 13.938l-2.73.027c-.738.008-1.177.457-1.168 1.272l.004.444c.008.741.606 1.55 1.271 1.617.665.068 1.62-.461 1.908-1.056.145-.298.068-.594-.01-.963-.153-.592-.08-.666.583-.821.147-.002.295-.003.442-.079.22-.076.367-.152.218-.372-.074 0-.296.003-.518-.069zm19.508-56.209c-.07.298-.067.668.084.963.15.22.37.218.594.364.297.22.595.439.966.657.512-.45 1.1-.603 1.54-1.052.291-.3.361-.67.431-1.042.075.073.15.22.225.294.373.44.742.437 1.325-.31-.003-.37-.153-.59-.45-.736-.297-.22-.813-.066-1.104.307 0 .075-.073.075-.072.15-.077-.296-.226-.443-.523-.588-.222-.072-.299-.367-.447-.44-.521-.44-1.554-.429-1.844.093-.366.3-.657.747-.725 1.34zM43.267 89.84c.44-.228.439-.376-.005-.445 0-.075 0-.075-.075-.148h-.074l.073-.074c0-.074-.001-.148-.076-.221l.074-.001c-.153-.517-.524-.736-.896-1.028 0 0 .073-.075-.002-.148-.225-.443-.594-.44-.89-.436-.663.08-1.255-.061-1.704-.65-.074-.073-.296-.145-.518-.143l-.001-.148a2.224 2.224 0 01-.302-.59v-.074h.074c-.005-.445-.155-.665-.45-.663-.075-.073-.075-.147-.149-.146-.076-.222-.151-.37-.226-.442-1.038-.509-1.998-.499-2.95.252-.219.224-.512.45-.732.6-.586.45-.726 1.118-.498 1.783.302.738.459 1.625 1.13 2.285h-.074c.3.516.742.364 1.036.287.074 0 .149.072.149.072l.516-.005.001.074c.445.218.59-.006.661-.303.074 0 .073-.075.147-.075l.073-.075v.074c.811-.156.811-.156 1.04.508.15.369.374.589.743.585l.002.148c.002.223.077.37.152.443-.073.075-.073.075-.072.15-.145.297.077.369.374.514.295-.003.442-.078.514-.227.592.142 1.108.063 1.622-.165.81-.156 1.248-.68 1.313-1.569zm16.266 24.803l-.001-.148c-.298-.22-.518-.143-.813-.066v-.074c-.444-.07-.664.081-.661.377-.074.001-.147.075-.22.076-.222.002-.295.077-.442.153v.074c0-.074-.074-.073-.075-.148-.661.229-.508.821-.652 1.192-.214.669-.065.89.456 1.255.296.146.52.366.817.511.223.146.518.143.814.214.222.072.3.515.742.437.144-.372.138-.965.652-1.192.735-.378.58-1.117.5-1.709-.005-.519-.378-.886-1.117-.952zm-42.873.877c-.228-.738-.451-.884-1.116-.952-.518-.069-1.033.011-1.473.311-.44.301-.658.674-.652 1.192.009.889.902 1.621 1.862 1.76.074-.001.147-.076.368-.152.366-.3.585-.525.805-.675.44-.301.584-.599.359-1.041-.076-.221-.152-.369-.152-.443zm11.796-8.639c.069-.519.212-.965.207-1.484-.002-.148-.224-.22-.445-.218l-.002-.148c-.151-.369-.301-.59-.597-.661-.37-.07-.74-.14-1.036-.286-.815-.288-1.256-.061-1.543.683-.144.372-.214.743-.359 1.041-.36.966-.36.966.386 1.626.223.146.373.44.742.437l.074-.001-.073.075c.443-.005.887.139 1.105-.16.074 0 .147-.075.147-.075l.073-.075.001.074c.147-.075.294-.151.367-.152.074 0 .074 0 .147-.075v-.074l.073-.001c.442-.153.662-.229.733-.526zm21.599 4.672c-.078-.37-.374-.515-.743-.437-.442.078-.733.452-1.248.605-.884.157-1.022 1.122-.353 1.633.298.294.67.512 1.115.73 1.62-.313 1.62-.387 1.383-1.866-.15-.221-.152-.443-.154-.665z" fill="#D2286F"/><path d="M41.89 77.776c-.085-1.184-.83-1.843-2.01-1.757-.886.009-1.47.533-1.61 1.424-.07.297.006.518.083.888l-.073.075c.008.74.235 1.33.974 1.472a3.411 3.411 0 001.919-.094c.588-.228.88-.602.651-1.266 0-.074.073-.075.072-.149l-.006-.593zm25.329-27.964c.068-.594-.231-.961-.822-1.03l-.59.007c-.222.002-.443.078-.515.227-.075-.073-.075-.147-.15-.147-.668-.438-1.404-.282-2.142-.2-.147.001-.145.223-.07.37.076.148.15.222.3.442.076.222.151.37.226.443.522.587.744.585 1.257.21.073-.076.146-.15.293-.226.001.148-.072.223-.07.371-.071.297.152.517.377.811.445.218.738-.007 1.033-.01.443-.005.662-.23.731-.674.072-.223.144-.372.142-.594zm-34.811 53.695c-.665-.067-1.406-.356-1.84.537-.068.594-.063 1.038.53 1.254.37.145.739.141 1.106-.011.295-.077.514-.301.511-.524.07-.371.14-.816-.159-1.183-.074 0-.148-.073-.148-.073zm60.034-40.91c-.586.45-.36.892-.06 1.334l.147-.002c-.073.001-.147.076-.22.077-.065.89.308 1.33.902 1.62.667.29 1.404.209 2.14.053.074 0 .22-.15.293-.3.145-.223.216-.52.435-.745.657-.747.207-1.483-.022-2.222-.23-.739-.822-.955-1.56-.947-.223-.146-.37-.145-.443.004-.073 0-.073 0-.146.075l-.073.075-.001-.074c-.37.004-.664.081-.733.526v-.074a1.6 1.6 0 00-.367.3l-.292.3zm-63.378 45.982c-.148.001-.22.224-.291.447-.515.154-.512.45-.582.821l-.075-.073c-.511.524-.51.598.083.888l.002.148s0 .074.074.073l-.073.075c.376.663.968.806 1.631.725.295-.003.515-.154.66-.451.288-.67.282-1.337.2-2.151l.073-.001c-.447-.44-1.038-.508-1.702-.501zm12.603 5.577c-.072.149.002.223.15.295.075-.001.149.073.223.072v-.074c-.002-.148-.002-.148-.077-.222-.075-.147-.224-.22-.296-.071zm52.861-27.724c.294-.077.662-.229.658-.6.073-.074.147-.075.146-.149.293-.225.438-.449.435-.745-.002-.222-.225-.442-.154-.665.359-1.041.054-1.927-.618-2.735-.075-.074-.075-.148-.076-.222-.15-.295-.445-.218-.813-.14l-.001-.074c-.15-.22-.224-.294-.226-.442-.3-.516-.448-.514-.738.007-.074.001-.147.076-.22.077-.591.005-1.034.01-1.476.088-.369.004-.589.155-.585.525-.074 0-.147.002-.147.076-.735.303-.735.303-1.035-.212-.001-.074.073-.075.072-.15.07-.37.29-.595.582-.82 0 0 .001.074.075.073.366-.3.365-.374-.078-.443-.001-.074-.076-.148-.076-.222-.596-.513-.97-1.027-1.126-1.767-.075-.221-.224-.294-.52-.365l-.001-.148c-.224-.22-.373-.367-.596-.513h.074c-.15-.295-.3-.442-.52-.291-.073 0-.074-.074-.148-.073-.518-.143-.598-.735-1.041-.804 0 0-.001-.075-.075-.074-.517.005-.96-.064-1.258-.358-.298-.219-.593-.216-.886.01-.66.45-1.245.975-1.98 1.279a.557.557 0 00-.364.522c.007.667-.284 1.114-.573 1.636-.219.298-.289.67-.285 1.04.004.37.007.74.086 1.185h-.074a.408.408 0 00.225.368v.075c.3.367.67.585.75 1.03.077.369.374.588.817.584v.074a.577.577 0 01.299.293l.149.147c0 .074.075.073.075.147.23.739.82.807 1.265 1.025.52.217 1.036.212 1.624-.017.22-.15.44-.3.807-.452 0 0 0 .074.075.073.443.07.812.066 1.181.062.37-.004.442-.078.437-.597-.005-.445.14-.816.505-1.116l.001.074c.517-.006.74.215.892.583 0 .075-.073.075-.073.15l.02 1.925c.005.519.23.887.748 1.03 1.037.36 2.003 1.017 3.103.265-.002-.222.367-.152.662-.229zm-2.606-2.27c-.001-.074-.076-.148-.076-.148l.075.074.074-.001-.073.075zm-5.58-18.985c-.291.374-.507.894-.428 1.412.08.666.088 1.407.463 1.996.374.589.158 1.036.31 1.553-.073 0-.073.075-.146.075-.07.371-.068.594-.138.965l-.001-.074c-.291.373-.365.448.079.517 0 .075.075.148.076.222.152.443.23.813.307 1.182.075.148.078.37.227.517.596.512 1.263.802 2.001.868.665-.006 1.402-.088 1.839-.685.218-.298.513-.301.664-.006.376.663.752 1.4 1.128 2.063.3.59.523.661 1.037.434.221-.077.44-.375.589-.229.741.363 1.474-.163 2.138-.17a.563.563 0 00.368-.151c.583-.747 1.165-1.494 1.304-2.384.14-.742.058-1.557.123-2.446v.074c.366-.374.365-.448-.077-.444-.001-.074-.075-.073-.076-.147l-.074-.074h.073c-.077-.37-.154-.666-.523-.662-.517-.069-.742-.363-.967-.805-.606-1.476-2.081-1.387-2.885-.638-.512.45-1.1.752-1.613 1.128-.293.225-.662.229-.805.675-.072.148-.22.076-.369.003-.148-.072-.297-.219-.445-.292-.149-.072-.225-.294-.152-.368.585-.525.207-1.484.792-2.009.146-.15.07-.445.067-.667 0 0 .074-.001.073-.075l-.002-.148.073-.075c.143-.52-.302-.664-.452-.959-.226-.442-.379-.96-.752-1.326-.372-.367-1.107.011-1.553-.355-.075-.073-.148-.072-.296-.07-.221.002-.517.005-.663.154-.291.374-.877.824-1.314 1.421zm6.183 5.643c0 .074.075.073.075.073l-.075-.073zm-3.913-.11c.073-.074.147-.075.22-.15 0 .075-.073.075-.146.15 0 0-.073.075-.074 0zm-.128 1.928c.074 0 .074 0 0 0l-.074.001h.074z" fill="#D2286F"/></svg>