<svg width="828" height="150" viewBox="0 0 828 150" fill="none" xmlns="http://www.w3.org/2000/svg">
<path d="M776.651 108.367C776.281 108.297 775.985 108.226 775.763 108.154C774.949 107.94 774.14 108.244 773.779 108.989C773.491 109.733 773.128 110.329 772.32 110.707C771.953 110.859 771.735 111.232 771.739 111.602C771.746 112.343 771.532 113.086 771.095 113.683C771.023 113.832 771.1 114.128 771.32 114.052C771.836 113.972 772.208 114.191 772.652 114.334C773.318 114.476 773.908 114.47 774.568 114.019C775.228 113.642 775.52 113.268 775.438 112.528C775.358 111.936 775.432 111.862 775.948 111.856C776.391 111.852 776.167 111.632 776.166 111.484C776.165 111.41 776.164 111.261 776.237 111.261C777.044 110.734 776.889 109.995 776.587 109.331C776.657 108.96 776.654 108.663 776.651 108.367Z" fill="#D2286F"/>
<path d="M778.978 104.935C778.391 105.238 777.73 105.541 777.142 105.843C776.628 106.071 776.706 106.514 776.562 106.886C776.418 107.184 776.421 107.48 776.719 107.774C776.942 107.92 776.944 108.142 776.799 108.366C776.799 108.366 776.799 108.366 776.872 108.365C777.318 108.657 777.616 108.876 778.058 108.871C778.427 108.868 778.65 109.014 778.875 109.308C779.174 109.675 779.32 109.6 779.463 109.08C779.534 108.857 779.606 108.634 779.901 108.631C780.269 108.553 780.34 108.256 780.41 107.885C780.405 107.366 780.18 106.998 779.955 106.63C779.58 106.041 779.572 105.3 778.978 104.935Z" fill="#D2286F"/>
<path d="M801.462 131.529C801.385 131.159 801.234 130.864 800.936 130.571C800.639 130.352 800.269 130.281 799.969 129.84C799.747 129.768 799.6 129.843 799.527 129.918C799.385 130.512 799.017 130.59 798.5 130.521C798.13 130.451 797.762 130.529 797.394 130.681C797.248 130.756 797.175 130.905 797.251 131.053C797.403 131.496 797.555 131.939 797.78 132.307C797.93 132.602 798.227 132.747 798.596 132.743C799.26 132.662 799.997 132.581 800.66 132.5C801.251 132.494 801.542 132.121 801.462 131.529Z" fill="#D2286F"/>
<path d="M750.832 51.1346C751.568 50.979 751.857 50.3834 752.371 50.0818C752.591 49.9314 752.438 49.4144 752.216 49.3425C751.624 49.2003 751.032 49.0581 750.515 48.9892C749.997 48.9204 749.414 49.5931 749.565 49.962C749.718 50.4791 749.945 51.0695 750.832 51.1346Z" fill="#D2286F"/>
<path d="M739.394 36.7286C739.617 36.8746 739.765 36.9471 739.988 37.0931C740.881 37.8249 741.249 37.7471 741.755 36.7048C741.828 36.63 741.828 36.5559 741.825 36.3336C741.822 36.0373 741.82 35.8151 741.599 35.8173C741.008 35.8233 740.566 35.8277 740.046 35.5366C739.675 35.3181 739.308 35.5441 739.164 35.916C738.946 36.2145 739.023 36.5101 739.394 36.7286Z" fill="#D2286F"/>
<path d="M756.348 41.966C756.789 41.7393 756.931 41.2192 756.779 40.7762C756.702 40.4806 756.478 40.1865 756.107 40.0421C755.442 39.9006 755.001 40.1274 754.784 40.5741C754.567 41.0208 754.793 41.389 755.017 41.6831C755.391 42.1979 755.908 42.2668 756.348 41.966Z" fill="#D2286F"/>
<path d="M786.789 103.671C786.269 103.38 785.608 103.683 785.54 104.276C785.472 104.796 785.771 105.163 786.29 105.454C786.956 105.596 787.323 105.37 787.391 104.851C787.534 104.405 787.234 103.889 786.789 103.671Z" fill="#D2286F"/>
<path d="M786.987 101.372C786.396 101.304 786.104 101.678 786.331 102.194C786.485 102.785 786.932 103.225 787.3 103.147C787.448 103.146 787.668 102.996 787.741 102.921C788.034 102.695 788.03 102.325 787.952 101.955C787.653 101.514 787.357 101.443 786.987 101.372Z" fill="#D2286F"/>
<path d="M801.749 145.306C801.528 145.309 801.308 145.459 801.163 145.757C801.091 145.98 801.092 146.054 801.093 146.128C801.023 146.499 801.1 146.795 801.396 146.94C801.768 147.158 802.134 146.932 802.427 146.707C802.72 146.482 802.863 145.962 802.711 145.593C802.635 145.371 802.265 145.227 801.749 145.306Z" fill="#D2286F"/>
<path d="M784.757 143.626C784.386 143.481 784.017 143.485 783.723 143.636C783.503 143.712 783.357 143.862 783.434 144.232C783.659 144.526 783.882 144.746 784.105 144.892C784.477 145.184 784.918 145.032 785.136 144.659C785.28 144.287 785.128 143.844 784.757 143.626Z" fill="#D2286F"/>
<path d="M794.464 147.454C794.468 147.825 794.544 148.12 794.622 148.49C795.869 147.737 795.869 147.737 795.563 146.628C794.529 146.639 794.383 146.788 794.464 147.454Z" fill="#D2286F"/>
<path d="M768.702 125.191C768.48 125.12 768.259 125.122 768.039 125.272C767.82 125.571 767.751 126.016 767.902 126.311C768.127 126.679 768.494 126.527 768.862 126.375C769.15 125.705 769.073 125.336 768.702 125.191Z" fill="#D2286F"/>
<path d="M737.1 80.0197C737.021 79.5019 736.65 79.3575 736.283 79.5094C735.841 79.5879 735.772 80.0331 736.07 80.4006C736.295 80.6947 736.589 80.6176 737.1 80.0197Z" fill="#D2286F"/>
<path d="M757.571 68.033C757.645 68.0322 757.645 68.0322 757.718 68.0315C757.724 68.55 757.876 68.993 758.249 69.4338C759.443 70.7553 759.739 70.8264 761.355 69.9952C761.869 69.7677 762.308 69.3928 762.227 68.6528L762.301 68.652C762.371 68.2809 762.59 68.0564 762.81 67.906C762.957 67.8304 763.177 67.68 763.101 67.4585C762.872 66.7199 763.314 66.7155 763.831 66.7103C764.126 66.7073 764.272 66.4835 764.269 66.1872C764.342 66.1865 764.342 66.1865 764.416 66.1857C765.08 66.179 765.52 65.8782 765.663 65.3582C765.736 65.3574 765.81 65.3567 765.884 65.3559C766.105 65.2796 766.251 65.204 766.324 65.1292C766.61 64.1632 766.748 63.1986 766.295 62.166C765.993 61.5763 765.765 60.9118 765.099 60.6963C764.655 60.5526 764.209 60.2607 763.692 60.2659C763.839 60.1903 763.912 60.1155 764.058 59.9659C764.35 59.6666 764.274 59.371 764.123 59.0761C763.973 58.8554 763.896 58.5598 763.747 58.3391C763.521 57.8968 763.003 57.7539 762.563 58.0546C762.196 58.2806 762.052 58.6525 761.835 59.0992C762.28 59.317 762.799 59.534 763.026 60.0504C763.1 60.1237 763.249 60.1963 763.322 60.1956C763.102 60.2719 762.881 60.3482 762.662 60.5727C762.516 60.7223 762.22 60.6512 761.999 60.7275C761.779 60.8039 761.558 60.8802 761.413 61.178L761.413 61.1039C760.972 61.3306 760.975 61.6269 761.125 61.8477C761.126 61.9218 761.053 61.9966 761.053 61.9966C760.908 62.2944 760.836 62.5174 760.766 62.8145C760.766 62.8145 760.766 62.8145 760.692 62.8152C760.547 63.039 760.548 63.1871 760.77 63.259C760.771 63.333 760.771 63.3331 760.772 63.4071C760.773 63.5553 760.773 63.5553 760.848 63.7027L760.849 63.7768L760.775 63.7035C760.777 63.9257 760.851 63.999 761 64.0716C761.001 64.1457 761.074 64.145 761.149 64.2183C761.15 64.2924 761.15 64.3665 761.225 64.4398C761.225 64.4398 761.225 64.4398 761.152 64.5146C761.156 64.885 761.085 65.1821 760.866 65.4807C760.793 65.4814 760.792 65.4073 760.718 65.4081C758.946 65.3519 758.36 65.8023 758.148 66.6935C757.853 66.6965 757.706 66.8462 757.562 67.144C757.123 67.5189 757.275 67.9619 757.571 68.033Z" fill="#D2286F"/>
<path d="M749.73 139.386C749.359 139.241 748.989 139.171 748.624 139.545C748.481 139.991 748.705 140.211 749.001 140.356C749.298 140.501 749.592 140.424 749.885 140.199C750.105 139.975 750.026 139.531 749.73 139.386Z" fill="#D2286F"/>
<path d="M765.746 146.707C765.45 146.71 765.379 146.933 765.383 147.303C765.46 147.673 765.535 147.82 765.758 147.966C765.98 148.038 766.2 147.888 766.346 147.738C766.493 147.589 766.565 147.44 766.637 147.291C766.71 147.216 766.634 146.994 766.56 146.921C766.409 146.626 766.04 146.63 765.746 146.707Z" fill="#D2286F"/>
<path d="M771.679 98.3411C771.898 98.1166 771.894 97.7462 771.743 97.4514C771.593 97.1566 771.297 97.0855 771.077 97.2359C770.93 97.3114 770.783 97.387 770.564 97.6115C770.569 98.13 770.793 98.3501 771.163 98.4945C771.311 98.493 771.532 98.4167 771.679 98.3411Z" fill="#D2286F"/>
<path d="M749.167 91.0113C749.462 90.9342 749.608 90.7846 749.753 90.5608C749.825 90.3378 749.823 90.1156 749.6 89.9697C749.376 89.7496 749.081 89.7526 748.861 89.903C748.641 90.0534 748.569 90.2023 748.572 90.4987C748.648 90.7202 748.872 90.9402 749.167 91.0113Z" fill="#D2286F"/>
<path d="M742.383 47.6636C742.309 47.6644 742.31 47.7385 742.31 47.7385L742.309 47.6644C742.087 47.6666 741.941 47.7422 741.942 47.8903C741.944 48.1126 742.092 48.1111 742.313 48.1089C742.314 48.1829 742.314 48.1829 742.389 48.2563C742.391 48.4785 742.392 48.5526 742.468 48.7741C742.394 48.7748 742.394 48.7748 742.32 48.7756C742.102 49.1482 742.105 49.4446 742.109 49.815C742.114 50.3335 742.412 50.6269 743.077 50.6943L743.078 50.7683C743.672 51.0587 744.187 50.9794 744.778 50.9734C744.779 51.0475 744.779 51.1216 744.781 51.2698C744.707 51.2705 744.633 51.2713 744.56 51.3461C744.265 51.3491 744.117 51.2765 743.97 51.4261C743.824 51.5758 743.754 51.8729 743.83 52.0944C743.984 52.7596 744.876 53.4174 745.614 53.4099C745.909 53.407 746.201 53.0336 746.05 52.7387C745.825 52.3706 745.452 52.0039 745.446 51.4112C745.52 51.4105 745.52 51.4105 745.594 51.4097C745.74 51.2601 745.813 51.1853 745.812 51.1112C745.884 50.8882 745.882 50.6659 745.658 50.4459C746.315 49.6984 746.306 48.8094 746.149 47.922C746.068 47.1819 744.435 46.3093 743.7 46.539C743.553 46.6146 743.332 46.6909 743.26 46.8398C743.187 46.9146 743.114 46.9894 742.967 47.065L742.966 46.9909C742.962 46.6205 742.74 46.4746 742.296 46.405C742.148 46.4065 742.075 46.4813 741.856 46.6317C741.784 46.8547 741.712 47.0036 741.712 47.0777C741.938 47.5199 742.162 47.7399 742.383 47.6636Z" fill="#D2286F"/>
<path d="M779.502 134.936C779.208 135.013 779.063 135.237 778.992 135.534C778.994 135.756 779.07 135.978 779.293 136.124C779.516 136.27 779.736 136.119 779.956 135.969C780.176 135.818 780.322 135.669 780.244 135.299C780.019 134.931 779.796 134.785 779.502 134.936Z" fill="#D2286F"/>
<path d="M745.981 133.57C745.611 133.5 745.243 133.578 745.1 134.098C745.252 134.467 745.474 134.613 745.77 134.684C746.066 134.755 746.36 134.604 746.431 134.307C746.502 134.01 746.276 133.642 745.981 133.57Z" fill="#D2286F"/>
<path d="M729.698 26.7504C729.996 26.9697 730.289 26.8185 730.58 26.371C730.653 26.2962 730.579 26.2229 730.576 26.0006C730.426 25.7799 730.351 25.6325 730.13 25.6347C729.835 25.6377 729.615 25.7881 729.47 26.0859C729.324 26.2355 729.401 26.5311 729.698 26.7504Z" fill="#D2286F"/>
<path d="M763.506 56.4152C763.802 56.4863 764.021 56.2618 764.092 56.0388C764.092 55.9647 764.091 55.8906 764.089 55.6684C763.938 55.3736 763.715 55.2276 763.494 55.304C763.274 55.3803 763.201 55.4551 763.129 55.6781C763.059 56.0492 763.211 56.4182 763.506 56.4152Z" fill="#D2286F"/>
<path d="M785.111 98.3537C784.889 98.2819 784.669 98.3582 784.449 98.5086C784.228 98.5849 784.157 98.8079 784.16 99.1783C784.311 99.4731 784.46 99.6198 784.754 99.5427C785.049 99.4657 785.343 99.3145 785.413 98.9434C785.484 98.7204 785.26 98.4263 785.111 98.3537Z" fill="#D2286F"/>
<path d="M731.572 80.8164C731.722 81.0372 731.872 81.2579 732.095 81.4038C732.392 81.549 732.686 81.472 732.758 81.249C732.903 81.0252 732.827 80.8037 732.604 80.6578C732.307 80.4386 732.01 80.2934 731.639 80.0749C731.641 80.2971 731.569 80.5201 731.572 80.8164Z" fill="#D2286F"/>
<path d="M775.402 130.903C774.96 130.907 774.591 130.985 774.3 131.358C774.228 131.507 774.303 131.655 774.377 131.728C774.526 131.801 774.6 131.8 774.895 131.871C775.264 131.867 775.412 131.866 775.631 131.641C775.777 131.418 775.698 130.974 775.402 130.903Z" fill="#D2286F"/>
<path d="M737.886 33.558C738.179 33.4069 738.325 33.2572 738.322 32.9609C738.32 32.7387 738.17 32.5179 738.021 32.3712C737.798 32.2253 737.578 32.3016 737.432 32.5254C737.215 32.898 737.291 33.1195 737.738 33.5595C737.664 33.5603 737.738 33.5595 737.886 33.558Z" fill="#D2286F"/>
<path d="M757.731 135.082C757.657 135.083 757.657 135.083 757.51 135.158C757.291 135.383 757.293 135.531 757.368 135.678C757.443 135.826 757.592 135.972 757.74 135.971C757.962 136.043 758.329 135.817 758.327 135.594C758.545 135.296 758.321 135.076 757.731 135.082Z" fill="#D2286F"/>
<path d="M749.866 65.1472C750.309 65.1427 750.528 64.9182 750.375 64.4011C749.636 64.3345 749.49 64.4842 749.494 64.8546C749.569 65.002 749.719 65.2227 749.866 65.1472Z" fill="#D2286F"/>
<path d="M770.44 143.844C770.221 144.069 770.224 144.365 770.374 144.586C770.524 144.807 770.819 144.804 771.112 144.578C771.185 144.504 771.257 144.355 771.255 144.132C771.18 143.985 771.105 143.912 771.031 143.838C770.882 143.692 770.66 143.694 770.44 143.844Z" fill="#D2286F"/>
<path d="M774.048 135.658C773.757 136.031 773.833 136.253 774.571 136.32C774.862 135.872 774.638 135.578 774.559 135.134C774.414 135.358 774.194 135.508 774.048 135.658Z" fill="#D2286F"/>
<path d="M788.866 104.687C788.572 104.839 788.575 105.135 788.725 105.356C788.875 105.576 789.097 105.648 789.39 105.497C789.609 105.199 789.607 104.976 789.458 104.83C789.308 104.683 789.16 104.61 788.866 104.687Z" fill="#D2286F"/>
<path d="M737.561 38.0066C737.708 37.9311 737.854 37.7814 737.853 37.6332C737.851 37.411 737.702 37.3384 737.406 37.1932C737.258 37.1947 737.111 37.2703 737.037 37.271C736.818 37.4214 736.746 37.6444 736.896 37.8652C737.046 38.0859 737.341 38.083 737.561 38.0066Z" fill="#D2286F"/>
<path d="M737.735 77.1239C737.956 77.1216 738.103 77.046 738.175 76.8971C738.248 76.7482 738.172 76.5267 738.096 76.3793C738.022 76.306 737.874 76.2334 737.652 76.2356C737.358 76.3868 737.287 76.6097 737.363 76.8312C737.364 76.9794 737.514 77.1261 737.735 77.1239Z" fill="#D2286F"/>
<path d="M737.387 93.7974C737.311 93.65 737.237 93.5766 737.162 93.5033C736.865 93.3581 736.571 93.4352 736.499 93.6582C736.428 93.8811 736.504 94.1026 736.727 94.2486C737.025 94.5419 737.171 94.3923 737.387 93.7974Z" fill="#D2286F"/>
<path d="M783.881 115.407C783.954 115.332 784.027 115.183 784.024 114.961C783.874 114.666 783.652 114.594 783.432 114.744C783.212 114.895 783.14 115.118 783.29 115.338C783.513 115.484 783.661 115.557 783.881 115.407Z" fill="#D2286F"/>
<path d="M727.061 43.2989C727.134 43.224 727.132 43.0759 727.131 42.9277C727.055 42.7062 726.906 42.5595 726.611 42.6366C726.464 42.7122 726.391 42.787 726.319 42.9359C726.395 43.1574 726.396 43.3056 726.545 43.3781C726.695 43.5989 726.915 43.5226 727.061 43.2989Z" fill="#D2286F"/>
<path d="M773.265 138.481C773.043 138.484 772.897 138.633 772.899 138.781C772.899 138.855 772.975 139.003 773.05 139.15C773.199 139.297 773.347 139.295 773.567 139.145C773.713 139.069 773.786 138.921 773.709 138.625C773.486 138.479 773.412 138.48 773.265 138.481Z" fill="#D2286F"/>
<path d="M737.748 34.5967C737.6 34.5241 737.453 34.5996 737.455 34.7478C737.384 35.0449 737.533 35.1915 737.755 35.2634C737.755 35.2634 737.829 35.2626 737.976 35.1871C738.047 34.89 738.045 34.7418 737.748 34.5967Z" fill="#D2286F"/>
<path d="M786.395 57.2955C785.803 57.2274 785.729 57.154 785.871 56.634C785.941 56.1887 785.721 56.3391 785.573 56.3406C785.499 56.3414 785.351 56.2688 785.35 56.1947C785.046 55.3087 784.308 55.3161 783.571 55.3977C783.276 55.4006 782.907 55.4044 782.611 55.3333C782.467 55.7052 782.321 55.9289 782.176 56.1526C781.741 56.8979 781.823 57.7121 782.567 58.2973C783.236 58.8091 783.757 59.2484 783.914 60.1359C783.991 60.5056 784.29 60.7989 784.659 60.8693C785.399 61.0841 785.994 61.4485 786.515 61.9619C786.665 62.1085 786.96 62.1055 786.957 61.8092C787.025 61.2899 787.318 60.9906 787.534 60.5439C787.823 59.8742 787.965 59.3541 787.662 58.5422C787.432 57.7295 787.133 57.3621 786.395 57.2955Z" fill="#D2286F"/>
<path d="M782.535 55.1118C782.535 55.1118 782.535 55.1118 782.534 55.0377C782.899 54.6636 783.191 54.3642 783.261 53.9931C783.331 53.6219 783.551 53.4715 783.845 53.3204C784.286 53.0937 784.285 53.0196 783.764 52.6544C783.542 52.5085 783.393 52.4359 783.39 52.1396C783.387 51.7692 783.164 51.6232 782.793 51.4788C782.275 51.3358 781.834 51.4885 781.466 51.6404C780.878 51.8686 780.139 51.7279 779.701 52.2509C779.855 52.9161 780.01 53.5814 780.164 54.2466C780.243 54.7644 780.76 54.8333 781.058 55.0526C781.355 55.2718 781.651 55.3429 781.944 55.1177C782.163 54.8932 782.385 54.891 782.535 55.1118Z" fill="#D2286F"/>
<path d="M810.836 36.5261C810.467 36.5298 810.098 36.5336 809.806 36.8329C809.513 37.0581 809.369 37.43 808.928 37.5826C808.783 37.8064 808.858 37.9538 808.932 38.0271C809.452 38.3182 809.53 38.6879 809.24 39.2094C809.096 39.5813 809.026 39.9525 809.177 40.3214C809.178 40.4696 809.327 40.5422 809.474 40.5407C809.916 40.4621 810.359 40.4577 810.801 40.305C811.095 40.228 811.388 40.0027 811.384 39.6323C811.451 38.9649 811.591 38.2225 811.658 37.5551C811.726 36.9617 811.427 36.5942 810.836 36.5261Z" fill="#D2286F"/>
<path d="M719.558 67.8239C720.148 67.7439 720.738 67.6639 721.025 66.846C721.017 66.1052 720.57 65.6651 720.343 65.0747C720.267 64.8532 719.75 64.8584 719.605 65.0822C719.315 65.6037 719.025 66.1253 718.809 66.6461C718.666 67.1661 719.116 67.9025 719.558 67.8239Z" fill="#D2286F"/>
<path d="M730.594 57.0437C730.746 57.4126 731.044 57.706 731.416 57.9986C731.781 57.6245 731.998 57.1777 732.661 57.0229C733.1 56.648 732.949 56.3532 732.798 55.9842C732.574 55.6902 732.278 55.6191 731.983 55.6961C731.689 55.7732 731.467 55.7754 731.173 55.8525C730.585 56.1548 730.369 56.6015 730.594 57.0437Z" fill="#D2286F"/>
<path d="M704.917 72.343C704.842 72.2696 704.768 72.2704 704.546 72.1985C704.25 72.1274 704.028 72.0556 703.957 72.2786C703.814 72.7986 703.672 73.3187 703.307 73.7669C703.015 74.0662 703.166 74.4351 703.465 74.7285C703.539 74.8018 703.613 74.8011 703.688 74.8744C703.614 74.9492 703.615 75.0233 703.542 75.0981C703.398 75.396 703.327 75.693 703.183 76.0649C703.48 76.2101 703.849 76.2064 704.218 76.2767C704.44 76.2745 704.66 76.1982 704.88 76.0478C705.247 75.8218 705.392 75.5981 705.241 75.2292C705.089 74.7862 704.791 74.5669 704.423 74.5706C704.569 74.421 704.642 74.3462 704.788 74.1965C705.739 73.3719 705.736 73.0756 704.917 72.343Z" fill="#D2286F"/>
<path d="M712.916 60.4821C713.43 60.2546 713.647 59.8079 713.493 59.2167C713.341 58.7737 712.969 58.4811 712.453 58.4864C712.084 58.4901 711.864 58.6405 711.572 59.0139C711.283 59.6095 711.362 60.1273 711.809 60.4933C712.108 60.8607 712.549 60.7081 712.916 60.4821Z" fill="#D2286F"/>
<path d="M789.082 74.9015C789.598 74.8963 789.893 74.8192 790.11 74.3725C790.181 74.1495 790.179 73.9273 790.249 73.5561C790.168 72.8901 789.65 72.7472 789.207 72.6776C789.059 72.6791 788.839 72.7554 788.692 72.905C788.327 73.2792 788.183 73.6511 788.336 74.1682C788.414 74.6119 788.713 74.9052 789.082 74.9015Z" fill="#D2286F"/>
<path d="M764.704 80.1115C764.923 79.813 765.067 79.5152 765.211 79.1433C765.283 78.9203 765.281 78.698 765.205 78.4765C765.052 78.0335 764.903 77.8869 764.534 77.8906C764.018 77.8958 763.725 78.121 763.655 78.5663C763.585 78.9374 763.662 79.233 763.96 79.4523C764.11 79.7471 764.333 79.893 764.704 80.1115Z" fill="#D2286F"/>
<path d="M721.709 76.1743C721.856 76.0987 722.004 76.0972 722.224 76.0209C722.445 75.9446 722.593 75.9431 722.74 75.8675C723.401 75.5645 723.472 75.3415 723.244 74.677C723.168 74.4555 723.092 74.234 722.942 74.0133C722.792 73.7184 722.423 73.7221 722.13 73.9474C721.545 74.4719 721.553 75.2868 721.412 75.955C721.414 76.1773 721.563 76.2498 721.709 76.1743Z" fill="#D2286F"/>
<path d="M780.741 45.5724C781.26 45.7894 781.626 45.5635 781.991 45.1152C782.28 44.5196 782.129 44.1507 781.683 43.8588C781.312 43.6403 780.724 43.8685 780.431 44.1678C779.994 44.6909 780.148 45.3561 780.741 45.5724Z" fill="#D2286F"/>
<path d="M778.884 44.4057C779.548 44.399 779.988 44.0982 780.057 43.653C780.056 43.5048 780.053 43.2826 779.904 43.1359C779.754 42.8411 779.458 42.77 779.014 42.7004C778.499 42.8537 778.355 43.1515 778.211 43.5234C778.068 44.0435 778.293 44.4117 778.884 44.4057Z" fill="#D2286F"/>
<path d="M790.713 75.6259C790.564 75.5534 790.343 75.5556 790.197 75.7052C789.684 76.0809 789.468 76.6017 789.326 77.1958C789.255 77.4929 789.553 77.7121 789.847 77.6351C790.068 77.5588 790.214 77.4091 790.508 77.258C790.873 76.8838 791.018 76.586 791.014 76.2156C791.085 75.9185 790.935 75.6978 790.713 75.6259Z" fill="#D2286F"/>
<path d="M825.847 39.2641C825.695 38.8952 825.25 38.6774 824.807 38.6819C824.512 38.6848 824.294 38.9834 824.225 39.5027C824.227 39.725 824.303 39.9465 824.527 40.1665C824.675 40.2391 824.75 40.3124 824.898 40.3109C825.194 40.4561 825.563 40.4524 825.782 40.2279C826.075 39.9286 825.997 39.5589 825.847 39.2641Z" fill="#D2286F"/>
<path d="M701.595 79.6372C701.962 79.4113 702.031 78.966 701.729 78.3023C701.433 78.1571 701.21 78.0852 700.991 78.2356C700.55 78.4623 700.335 79.0572 700.56 79.4254C700.71 79.6462 701.228 79.7891 701.595 79.6372Z" fill="#D2286F"/>
<path d="M818.631 55.6365C818.413 55.935 818.343 56.3062 818.42 56.6759C818.496 56.8974 818.572 57.1189 818.941 57.1151C819.309 56.9632 819.529 56.8128 819.749 56.6624C820.115 56.3624 820.11 55.9179 819.738 55.6253C819.366 55.3327 818.85 55.3379 818.631 55.6365Z" fill="#D2286F"/>
<path d="M719.276 76.4211C719.79 76.1196 719.861 75.8225 719.337 75.0869C718.967 75.0165 718.672 75.0936 718.527 75.3173C718.235 75.6166 718.24 76.1352 718.538 76.4286C718.762 76.6486 718.983 76.5722 719.276 76.4211Z" fill="#D2286F"/>
<path d="M824.068 45.8759C823.856 46.8412 823.932 46.9887 824.671 47.1294C825.041 47.1997 825.336 47.1967 825.705 47.193C825.249 45.864 825.249 45.864 824.068 45.8759Z" fill="#D2286F"/>
<path d="M797.795 67.9974C798.162 67.8455 798.085 67.4758 798.081 67.1054C797.561 66.7402 797.191 66.6699 796.9 67.0433C796.754 67.1929 796.683 67.49 796.833 67.7107C797.056 67.9308 797.5 68.0744 797.795 67.9974Z" fill="#D2286F"/>
<path d="M745.002 87.7934C745.006 88.2379 745.378 88.4564 745.818 88.2297C746.259 88.003 746.256 87.7067 745.733 87.1192C745.142 87.0511 744.997 87.3489 745.002 87.7934Z" fill="#D2286F"/>
<path d="M739.008 64.2936C739.226 63.9951 739.149 63.6254 738.925 63.4054C738.701 63.1854 738.406 63.1884 738.039 63.3402C737.674 63.7885 737.825 64.0833 738.123 64.3766C738.42 64.5959 738.863 64.5914 739.008 64.2936Z" fill="#D2286F"/>
<path d="M806.198 88.8797C805.98 89.1783 805.836 89.5502 806.062 89.9925C806.508 90.2843 806.728 90.1339 806.946 89.8353C807.164 89.5368 807.161 89.2405 807.011 88.9456C806.786 88.5775 806.417 88.5812 806.198 88.8797Z" fill="#D2286F"/>
<path d="M817.859 74.2406C817.785 74.1673 817.564 74.1695 817.49 74.1702C817.196 74.3214 817.125 74.6185 817.055 74.9896C817.058 75.2859 817.206 75.3585 817.577 75.503C817.946 75.4992 818.167 75.497 818.239 75.274C818.384 75.0503 818.308 74.8288 818.158 74.608C818.083 74.4606 818.008 74.3132 817.859 74.2406Z" fill="#D2286F"/>
<path d="M770.687 58.6394C771.205 58.7824 771.499 58.6312 771.643 58.2594C771.715 58.1104 771.713 57.8882 771.638 57.7408C771.488 57.52 771.117 57.3756 770.823 57.4526C770.529 57.5297 770.383 57.7534 770.46 58.049C770.462 58.2713 770.538 58.4187 770.687 58.6394Z" fill="#D2286F"/>
<path d="M759.294 77.8694C759.291 77.5731 759.215 77.3516 758.992 77.2056C758.769 77.0597 758.548 77.062 758.327 77.1383C758.033 77.2894 757.963 77.5865 758.039 77.8821C758.115 78.1036 758.264 78.2502 758.487 78.3221C758.856 78.3924 759.076 78.242 759.294 77.8694Z" fill="#D2286F"/>
<path d="M715.126 74.6849C715.568 74.6804 715.788 74.4559 715.71 74.0863C715.707 73.7899 715.557 73.5692 715.187 73.4988C714.891 73.4277 714.598 73.5789 714.528 74.0241C714.53 74.1723 714.605 74.3197 714.681 74.4671C714.83 74.6138 714.978 74.6864 715.126 74.6849Z" fill="#D2286F"/>
<path d="M809.43 58.1002C809.063 58.2521 808.843 58.4025 808.847 58.7729C808.85 59.0692 808.999 59.29 809.296 59.4352C809.518 59.507 809.739 59.4307 809.959 59.2803C810.104 59.0566 810.102 58.8343 809.952 58.6136C809.876 58.3921 809.8 58.1706 809.43 58.1002Z" fill="#D2286F"/>
<path d="M799.957 92.1286C800.326 92.0507 800.546 91.9004 800.69 91.6025C800.836 91.3788 800.758 91.0091 800.535 90.8632C800.312 90.7173 799.87 90.7958 799.726 91.0936C799.582 91.4655 799.512 91.8367 799.957 92.1286Z" fill="#D2286F"/>
<path d="M692.39 81.6564C692.682 81.3571 692.605 81.0616 692.232 80.6949C692.158 80.6215 692.084 80.6223 691.863 80.6245C691.568 80.7016 691.421 80.7772 691.35 81.0001C691.279 81.2972 691.429 81.518 691.579 81.7387C691.876 81.958 692.171 81.8809 692.39 81.6564Z" fill="#D2286F"/>
<path d="M728.369 55.8808C728.739 56.0252 729.108 56.0215 729.179 55.7244C729.323 55.4266 729.174 55.2058 728.951 55.0599C728.876 54.9866 728.802 54.9873 728.581 54.9896C728.286 55.0666 728.067 55.217 728.07 55.5133C728.071 55.6615 728.146 55.8089 728.369 55.8808Z" fill="#D2286F"/>
<path d="M775.354 45.7009C775.649 45.6238 775.869 45.4734 775.866 45.2512C775.863 44.9548 775.787 44.6592 775.415 44.4407C775.267 44.3681 774.899 44.4459 774.826 44.5948C774.755 44.8178 774.757 45.0401 774.759 45.2623C774.91 45.5572 775.059 45.7038 775.354 45.7009Z" fill="#D2286F"/>
<path d="M804.08 61.7846C803.936 62.1565 803.94 62.601 804.239 62.9684C804.314 63.0417 804.535 63.0395 804.608 62.9647C804.681 62.8898 804.753 62.7409 804.825 62.5179C804.896 62.2209 804.894 61.9986 804.744 61.7779C804.593 61.483 804.151 61.5616 804.08 61.7846Z" fill="#D2286F"/>
<path d="M804.627 79.4122C804.33 79.267 804.036 79.4182 803.894 79.9382C803.895 80.0123 803.895 80.0123 803.97 80.1597C804.12 80.3805 804.269 80.5272 804.489 80.4508C804.636 80.3753 804.783 80.2997 804.929 80.1501C805.001 79.9271 804.849 79.5581 804.627 79.4122Z" fill="#D2286F"/>
<path d="M720.046 72.2643C720.045 72.1903 720.045 72.1903 720.045 72.1162C719.969 71.9688 719.895 71.8954 719.82 71.8221C719.597 71.6762 719.301 71.6051 719.082 71.8295C718.864 72.1281 718.867 72.4244 719.164 72.6437C719.313 72.7904 719.536 72.8622 719.683 72.8607C719.684 72.9348 719.685 73.0089 719.685 73.083C719.615 73.38 719.542 73.5289 719.618 73.7504C719.768 73.9712 719.99 74.043 720.212 74.0408C720.876 74.0341 721.754 73.2844 721.895 72.6161C721.966 72.3191 721.667 71.9516 721.298 72.0294C721.004 72.1065 720.637 72.3325 720.046 72.2643Z" fill="#D2286F"/>
<path d="M733.987 71.3827C734.208 71.3805 734.355 71.3049 734.427 71.156C734.497 70.7849 734.347 70.49 733.829 70.4212C733.541 71.0909 733.617 71.3124 733.987 71.3827Z" fill="#D2286F"/>
<path d="M815.887 68.9261C815.74 69.0017 815.592 69.0032 815.519 69.078C815.299 69.2284 815.228 69.4514 815.378 69.6721C815.528 69.8929 815.824 70.0381 816.118 69.8869C816.339 69.8106 816.409 69.5135 816.258 69.1446C816.257 69.0705 816.109 68.998 815.887 68.9261Z" fill="#D2286F"/>
<path d="M808.01 63.5971C808.159 63.8179 808.235 64.0394 808.385 64.2601C808.685 64.7016 808.905 64.5512 809.12 63.8823C808.82 63.4408 808.379 63.6675 808.01 63.5971Z" fill="#D2286F"/>
<path d="M782.557 42.7387C782.778 42.6624 782.923 42.4386 782.847 42.1431C782.622 41.849 782.401 41.8512 782.18 41.9275C781.959 42.0038 781.814 42.2276 781.89 42.4491C781.967 42.7446 782.263 42.8157 782.557 42.7387Z" fill="#D2286F"/>
<path d="M704.882 76.27C704.66 76.1982 704.514 76.3478 704.369 76.5716C704.37 76.7197 704.372 76.8679 704.373 76.942C704.449 77.1635 704.672 77.3094 704.892 77.2331C705.113 77.1568 705.184 76.9338 705.182 76.7115C705.18 76.4893 705.031 76.3426 704.882 76.27Z" fill="#D2286F"/>
<path d="M742.984 85.2947C742.835 85.1481 742.613 85.1503 742.467 85.3C742.394 85.3748 742.322 85.5237 742.176 85.6733C742.253 86.043 742.402 86.1156 742.697 86.1126C742.918 86.1104 743.064 85.9607 743.137 85.8118C743.134 85.5896 743.133 85.4414 742.984 85.2947Z" fill="#D2286F"/>
<path d="M759.425 90.8336C759.718 90.6084 759.642 90.3869 759.121 90.0217C758.974 90.0973 758.827 90.0988 758.828 90.1729C758.609 90.4714 758.612 90.7678 758.834 90.8396C759.058 91.0596 759.279 90.9833 759.425 90.8336Z" fill="#D2286F"/>
<path d="M790.671 49.5471C790.376 49.6241 790.23 49.7738 790.307 50.0694C790.383 50.2909 790.532 50.4375 790.827 50.3605C791.121 50.2834 791.193 50.0604 791.043 49.8397C790.968 49.6922 790.894 49.693 790.671 49.5471Z" fill="#D2286F"/>
<path d="M707.813 88.7615C708.033 88.6111 708.031 88.3888 707.881 88.1681C707.806 88.0948 707.658 88.0222 707.511 88.0237C707.289 88.0259 707.069 88.1763 707.146 88.4719C707.148 88.62 707.222 88.6934 707.371 88.84C707.593 88.8378 707.74 88.8363 707.813 88.7615Z" fill="#D2286F"/>
<path d="M811.126 65.2697C810.98 65.4194 810.907 65.4942 810.835 65.6431C810.763 65.8661 810.912 66.0128 811.061 66.0853C811.135 66.1587 811.356 66.0824 811.429 66.0075C811.576 65.932 811.647 65.709 811.572 65.5616C811.497 65.4141 811.422 65.2667 811.126 65.2697Z" fill="#D2286F"/>
<path d="M789.187 70.7515C789.257 70.3803 789.182 70.2329 788.96 70.1611C788.738 70.0892 788.592 70.2389 788.519 70.3878C788.448 70.6108 788.45 70.833 788.599 70.9797C788.823 71.1997 788.969 71.05 789.187 70.7515Z" fill="#D2286F"/>
<path d="M701.998 75.7064C701.926 75.8553 701.928 76.0035 702.076 76.0761C702.299 76.222 702.519 76.1457 702.665 75.922C702.665 75.922 702.664 75.8479 702.663 75.6997C702.291 75.4812 702.144 75.4827 701.998 75.7064Z" fill="#D2286F"/>
<path d="M737.552 59.048C737.403 58.9013 737.256 58.9028 737.11 59.0525C736.964 59.2021 737.113 59.3488 737.336 59.4947C737.704 59.4169 737.776 59.268 737.552 59.048Z" fill="#D2286F"/>
<path d="M731.998 86.3688C731.628 86.2984 731.332 86.2273 731.11 86.1555C730.296 85.9414 729.488 86.32 729.2 87.0638C729.128 87.2868 728.984 87.5846 728.838 87.8084C728.838 87.8084 728.765 87.8091 728.691 87.8099C728.835 87.512 728.905 87.1409 728.975 86.6957C728.971 86.3253 729.115 85.9534 729.111 85.583C729.182 85.2859 729.032 85.0651 728.809 84.9192C728.587 84.8474 728.365 84.7755 728.069 84.7044C728.069 84.7044 728.069 84.7044 728.068 84.6303C728.362 84.4792 728.506 84.1073 728.355 83.8124C728.28 83.665 728.205 83.5917 727.983 83.5198C728.057 83.5191 728.131 83.5184 728.204 83.4435C729.015 83.3613 729.527 82.9115 729.965 82.3885C730.184 82.164 730.182 81.9418 729.809 81.5751C729.734 81.5018 729.586 81.4292 729.364 81.3573C729.438 81.3566 729.438 81.3566 729.511 81.3558C729.511 81.3558 729.511 81.3558 729.584 81.281C729.801 80.8343 729.944 80.3883 729.572 80.0216C729.497 79.9483 729.348 79.8016 729.347 79.6535C729.338 78.7645 728.819 78.5475 728.081 78.5549C727.859 78.5571 727.563 78.486 727.268 78.489C727.268 78.489 727.268 78.489 727.267 78.4149C727.267 78.3408 727.192 78.2675 727.118 78.2683L727.118 78.1942C726.304 77.9801 725.566 78.0617 724.828 78.0691C724.459 78.0728 724.166 78.224 724.096 78.5951C723.808 79.3389 723.37 79.862 722.785 80.3865C722.639 80.5361 722.641 80.6843 722.57 80.9814C722.57 80.9814 722.496 80.9821 722.495 80.908C722.207 81.6518 722.507 82.0933 722.954 82.5334C723.402 83.0475 723.851 83.5616 724.299 84.0757C724.522 84.2957 724.525 84.592 724.527 84.8142C724.533 85.3328 724.167 85.6329 723.721 85.341C723.275 85.0491 722.832 84.9795 722.241 84.9855C722.24 84.9114 722.24 84.9114 722.24 84.8373C720.98 84.3314 720.624 85.5945 719.889 85.9724C719.449 86.1991 719.6 86.568 719.751 86.9369C719.828 87.2325 719.681 87.3081 719.536 87.5318C719.318 87.9045 719.395 88.2 719.692 88.3452C720.212 88.7104 720.806 89.0008 721.326 89.366C721.92 89.7304 722.584 89.7237 723.17 89.2733C723.171 89.3474 723.245 89.3466 723.245 89.4207C723.762 89.4155 724.28 89.5584 724.423 89.1124C724.712 88.5168 725.156 88.5864 725.672 88.5071C725.672 88.5071 725.673 88.5812 725.746 88.5805C726.042 88.6516 726.191 88.7242 726.338 88.7227C726.707 88.719 727.002 88.716 727.223 88.6397C727.225 88.7878 727.299 88.8612 727.374 89.0086C727.228 89.1582 727.157 89.3812 727.159 89.6035C727.166 90.3443 726.953 91.0873 726.59 91.7578C726.518 91.9067 726.595 92.2023 726.815 92.1259C727.331 92.0467 727.702 92.2652 728.146 92.3348C728.812 92.4762 729.401 92.3962 730.061 91.945C730.721 91.4938 731.012 91.1204 730.857 90.3811C730.777 89.7892 730.777 89.7151 731.366 89.6351C731.809 89.6306 731.585 89.4106 731.584 89.2624C731.583 89.1884 731.582 89.0402 731.655 89.0394C732.388 88.5134 732.233 87.7741 731.931 87.1104C732.077 86.9607 732.001 86.6651 731.998 86.3688Z" fill="#D2286F"/>
<path d="M735.755 85.6641C735.749 85.1455 735.524 84.7773 735.225 84.4099C734.851 83.8951 734.77 83.155 734.176 82.8646C733.589 83.1669 733.002 83.5433 732.341 83.8463C731.901 84.073 731.979 84.5168 731.835 84.8887C731.691 85.2606 731.768 85.5561 732.065 85.7754C732.288 85.9213 732.364 86.1428 732.145 86.3673C732.145 86.3673 732.145 86.3673 732.219 86.3666C732.665 86.6584 733.035 86.8029 733.478 86.7984C733.847 86.7947 734.07 86.9406 734.294 87.2347C734.667 87.6014 734.74 87.5265 734.882 87.0065C734.954 86.7835 735.026 86.5605 735.247 86.5583C735.687 86.3315 735.758 86.0345 735.755 85.6641Z" fill="#D2286F"/>
<path d="M756.957 109.603C757.547 109.523 757.838 109.076 757.684 108.484C757.606 108.115 757.456 107.82 757.085 107.601C756.787 107.382 756.344 107.387 756.118 106.944C755.896 106.872 755.749 106.948 755.751 107.096C755.609 107.69 755.242 107.842 754.724 107.699C754.354 107.629 753.986 107.707 753.619 107.933C753.472 108.008 753.4 108.157 753.475 108.305C753.627 108.748 753.853 109.19 754.078 109.558C754.229 109.853 754.526 109.998 754.895 109.994C755.557 109.839 756.294 109.758 756.957 109.603Z" fill="#D2286F"/>
<path d="M703.975 30.1959C704.71 29.9662 705 29.4446 705.439 29.0698C705.659 28.9194 705.506 28.4023 705.285 28.4045C704.693 28.2623 704.101 28.1201 703.51 28.052C702.993 27.9831 702.409 28.6558 702.634 29.024C702.862 29.6144 703.162 30.13 703.975 30.1959Z" fill="#D2286F"/>
<path d="M716.533 38.6634C716.979 38.9553 717.273 38.8041 717.565 38.5048C717.857 38.2055 717.78 37.9099 717.556 37.6159C717.406 37.3951 717.329 37.0995 717.18 36.8788C716.88 36.4373 716.436 36.3676 715.997 36.6684C715.63 36.8944 715.486 37.2663 715.269 37.713C715.714 37.9308 716.233 38.1478 716.533 38.6634Z" fill="#D2286F"/>
<path d="M692.025 16.2396C692.248 16.3855 692.47 16.4574 692.618 16.53C693.584 17.187 693.879 17.1099 694.385 16.0676C694.458 15.9928 694.457 15.9187 694.455 15.6964C694.452 15.4001 694.45 15.1779 694.228 15.1801C693.639 15.2601 693.195 15.1905 692.676 14.9735C692.305 14.755 691.938 14.9809 691.795 15.4269C691.577 15.7255 691.653 16.0211 692.025 16.2396Z" fill="#D2286F"/>
<path d="M709.194 20.808C709.561 20.582 709.777 20.0612 709.551 19.619C709.474 19.3234 709.25 19.1034 708.805 18.8856C708.14 18.7441 707.699 18.9708 707.483 19.4916C707.266 19.9384 707.491 20.3065 707.789 20.5999C708.237 21.0399 708.68 21.1095 709.194 20.808Z" fill="#D2286F"/>
<path d="M683.023 67.6741C682.654 67.6778 682.286 67.7556 681.994 68.129C681.853 68.7972 682.078 69.1654 682.524 69.4573C682.895 69.6758 683.338 69.6713 683.706 69.5935C684.222 69.4401 684.367 69.2164 684.288 68.6986C684.131 67.8111 683.908 67.6652 683.023 67.6741Z" fill="#D2286F"/>
<path d="M715.739 98.9058C715.96 98.9035 716.182 98.9013 716.55 98.8235C717.211 98.5205 717.133 98.0767 717.055 97.633C717.053 97.4848 716.903 97.2641 716.755 97.1915C716.31 96.9737 715.866 96.9041 715.427 97.2049C715.06 97.4308 714.842 97.7294 714.919 98.0991C715.072 98.6161 715.222 98.8369 715.739 98.9058Z" fill="#D2286F"/>
<path d="M697.436 33.2254C696.768 32.7876 696.032 33.0173 695.295 33.0989C695.147 33.1004 695.149 33.3226 695.225 33.47C695.3 33.6174 695.375 33.6908 695.524 33.9115C695.674 34.1323 695.676 34.2804 695.75 34.3538C696.273 34.9412 696.494 34.939 697.007 34.5634C697.227 34.413 697.373 34.2633 697.519 34.1137C697.884 33.7395 697.734 33.4447 697.436 33.2254Z" fill="#D2286F"/>
<path d="M742.659 82.4085C742.729 81.9633 742.429 81.5218 741.984 81.304C741.464 81.0129 740.804 81.39 740.736 81.9834C740.668 82.5768 740.967 82.8702 741.559 83.0865C742.151 83.2287 742.518 83.0027 742.659 82.4085Z" fill="#D2286F"/>
<path d="M742.035 79.0068C741.444 78.9386 741.226 79.3113 741.379 79.9024C741.607 80.4929 741.98 80.8595 742.422 80.781C742.569 80.7795 742.789 80.6291 742.862 80.5543C743.081 80.3298 743.078 79.9594 743 79.5897C742.773 79.0734 742.404 79.003 742.035 79.0068Z" fill="#D2286F"/>
<path d="M714.277 100.328C714.498 100.252 714.718 100.101 714.716 99.8792C714.713 99.657 714.638 99.5096 714.489 99.3629C713.968 98.9236 713.451 98.8548 712.787 98.9356C712.492 98.9385 712.348 99.3104 712.499 99.6053C712.649 99.826 712.797 99.8986 713.094 100.118C713.613 100.335 713.909 100.406 714.277 100.328Z" fill="#D2286F"/>
<path d="M686.464 13.7767C686.172 14.076 686.177 14.5946 686.476 14.8879C686.774 15.1813 687.217 15.1768 687.802 14.6523C687.872 14.2811 687.87 14.0589 687.72 13.9122C687.348 13.5455 686.757 13.4774 686.464 13.7767Z" fill="#D2286F"/>
<path d="M741.502 121.317C741.132 121.172 740.764 121.25 740.47 121.401C740.249 121.478 740.103 121.627 740.181 121.997C740.405 122.291 740.629 122.511 740.852 122.657C741.224 122.95 741.665 122.797 741.882 122.35C742.026 121.978 741.873 121.461 741.502 121.317Z" fill="#D2286F"/>
<path d="M695.19 29.9882C694.818 29.7697 694.377 29.9223 694.159 30.2949C694.015 30.5928 694.165 30.8135 694.314 31.0343C694.762 31.4743 695.056 31.3972 695.64 30.7245C695.636 30.3541 695.486 30.1334 695.19 29.9882Z" fill="#D2286F"/>
<path d="M751.353 124.774C751.431 125.143 751.508 125.439 751.585 125.809C752.758 124.982 752.758 124.982 752.451 123.874C751.344 123.885 751.272 124.034 751.353 124.774Z" fill="#D2286F"/>
<path d="M724.948 104.592C725.163 103.923 725.086 103.627 724.715 103.409C724.493 103.337 724.272 103.339 724.126 103.563C723.908 103.861 723.838 104.307 724.063 104.601C724.288 104.969 724.582 104.818 724.948 104.592Z" fill="#D2286F"/>
<path d="M690.537 59.0039C690.096 59.1566 690.026 59.5277 690.325 59.8951C690.624 60.2626 690.918 60.1855 691.354 59.5143C691.275 58.9965 690.906 58.9261 690.537 59.0039Z" fill="#D2286F"/>
<path d="M712.184 46.4867C712.329 46.1888 712.252 45.9674 712.028 45.6733C711.509 45.4562 711.216 45.6815 711.072 46.0534C710.928 46.3512 711.08 46.7942 711.376 46.8653C711.672 46.9364 712.039 46.7845 712.184 46.4867Z" fill="#D2286F"/>
<path d="M706.267 118.413C705.898 118.342 705.528 118.272 705.163 118.646C705.02 119.166 705.243 119.312 705.614 119.457C705.91 119.528 706.279 119.524 706.497 119.225C706.715 118.927 706.638 118.557 706.267 118.413Z" fill="#D2286F"/>
<path d="M726.143 76.6481C726.29 76.6467 726.512 76.6444 726.658 76.4948C726.877 76.2703 726.873 75.8999 726.722 75.6051C726.572 75.3102 726.277 75.3132 725.982 75.3903C725.835 75.4658 725.689 75.6155 725.469 75.7659C725.475 76.3585 725.699 76.5785 726.143 76.6481Z" fill="#D2286F"/>
<path d="M703.338 69.5435C703.415 69.8391 703.564 69.9858 703.935 70.1302C704.229 70.0532 704.375 69.9035 704.521 69.6798C704.592 69.4568 704.59 69.2345 704.367 69.0886C704.144 68.8686 703.848 68.8716 703.628 69.022C703.408 69.0983 703.262 69.2479 703.338 69.5435Z" fill="#D2286F"/>
<path d="M695.602 27.0205C695.897 26.9434 696.042 26.7197 696.039 26.4233C696.035 26.0529 695.813 25.907 695.37 25.9115C695.222 25.913 695.149 25.9878 694.929 26.1382C694.858 26.3612 694.785 26.5101 694.861 26.6575C695.012 27.0264 695.309 27.1716 695.602 27.0205Z" fill="#D2286F"/>
<path d="M735.745 113.966C735.968 114.112 736.188 113.962 736.408 113.811C736.628 113.661 736.774 113.511 736.696 113.142C736.472 112.847 736.249 112.702 735.954 112.779C735.66 112.856 735.515 113.079 735.444 113.376C735.372 113.599 735.522 113.82 735.745 113.966Z" fill="#D2286F"/>
<path d="M702.298 112.748C701.929 112.752 701.56 112.755 701.418 113.275C701.569 113.644 701.792 113.79 702.088 113.787C702.383 113.858 702.676 113.633 702.748 113.41C702.893 113.186 702.668 112.818 702.298 112.748Z" fill="#D2286F"/>
<path d="M681.963 6.56141C682.261 6.78067 682.554 6.62953 682.771 6.1828C682.844 6.10798 682.77 6.03464 682.767 5.8124C682.691 5.5909 682.542 5.44422 682.321 5.44646C682.026 5.44944 681.807 5.67392 681.661 5.89765C681.516 6.12139 681.667 6.4903 681.963 6.56141Z" fill="#D2286F"/>
<path d="M682.696 64.5657C682.99 64.4145 683.059 63.9693 682.982 63.6737C682.907 63.5263 682.758 63.3796 682.537 63.3818C682.168 63.3856 681.949 63.61 681.952 63.9805C681.953 64.0545 681.953 64.0545 682.028 64.202C682.18 64.5709 682.329 64.7175 682.696 64.5657Z" fill="#D2286F"/>
<path d="M716.939 34.9549C717.235 35.026 717.454 34.8015 717.525 34.5044C717.524 34.4304 717.523 34.3563 717.521 34.134C717.297 33.8399 717.147 33.6933 716.927 33.7696C716.706 33.8459 716.634 33.9948 716.562 34.1437C716.418 34.5897 716.644 34.9579 716.939 34.9549Z" fill="#D2286F"/>
<path d="M740.386 76.5785C740.459 76.4296 740.234 76.0614 740.012 76.0636C739.79 75.9918 739.57 76.1422 739.35 76.2185C739.13 76.3689 739.057 76.5178 739.061 76.8882C739.212 77.183 739.435 77.329 739.655 77.2526C740.096 77.1 740.316 76.9496 740.386 76.5785Z" fill="#D2286F"/>
<path d="M686.935 60.3739C686.637 60.1546 686.341 60.0094 685.969 59.7909C685.972 60.0873 685.901 60.3102 685.904 60.6066C686.054 60.8273 686.203 61.0481 686.426 61.1199C686.722 61.2651 687.017 61.188 687.088 60.9651C687.233 60.6672 687.084 60.5206 686.935 60.3739Z" fill="#D2286F"/>
<path d="M731.709 108.969C731.266 108.973 730.898 109.051 730.607 109.424C730.534 109.573 730.61 109.721 730.758 109.793C730.906 109.866 731.054 109.865 731.276 109.936C731.645 109.933 731.792 109.857 731.938 109.707C732.082 109.41 731.93 108.967 731.709 108.969Z" fill="#D2286F"/>
<path d="M690.148 13.1468C690.148 13.1468 690.222 13.146 690.37 13.1446C690.663 12.9934 690.809 12.7697 690.733 12.5482C690.73 12.3259 690.581 12.1052 690.359 12.0333C690.136 11.8874 689.915 11.9637 689.77 12.1875C689.625 12.4853 689.702 12.7809 690.148 13.1468Z" fill="#D2286F"/>
<path d="M714.191 113.739C714.117 113.74 714.117 113.74 713.971 113.815C713.751 114.04 713.753 114.188 713.829 114.41C713.904 114.557 714.127 114.703 714.275 114.701C714.497 114.773 714.864 114.547 714.861 114.251C714.931 113.954 714.709 113.808 714.191 113.739Z" fill="#D2286F"/>
<path d="M698.592 30.6947C698.666 30.694 698.666 30.694 698.739 30.6932C698.885 30.5436 698.959 30.4688 698.958 30.3947C699.029 30.0976 699.026 29.8754 698.73 29.7302C698.433 29.585 698.065 29.6628 697.921 30.0347C697.849 30.1836 697.851 30.4059 697.853 30.6281C697.779 30.6288 697.706 30.7037 697.632 30.7044C697.337 30.7074 697.19 30.7089 697.043 30.8585C696.971 31.0074 696.9 31.2304 696.976 31.4519C697.13 32.1172 698.095 32.7001 698.76 32.6934C699.055 32.6905 699.345 32.243 699.195 31.9482C698.97 31.58 698.598 31.2874 698.592 30.6947Z" fill="#D2286F"/>
<path d="M703.6 44.2766C704.042 44.198 704.261 43.9735 704.108 43.4564C703.37 43.4639 703.224 43.5395 703.227 43.9099C703.303 44.1314 703.379 44.2788 703.6 44.2766Z" fill="#D2286F"/>
<path d="M727.191 122.054C727.118 122.129 727.046 122.278 727.047 122.352C727.046 122.278 726.971 122.13 726.97 122.056C726.894 121.835 726.965 121.612 727.037 121.389C727.177 120.647 726.95 120.13 726.356 119.766C725.911 119.548 725.466 119.256 724.948 119.187C724.283 119.12 723.691 118.904 723.316 118.315C723.241 118.241 723.167 118.242 723.093 118.243C722.946 118.244 722.947 118.392 722.949 118.541C723.032 119.429 723.032 119.429 722.294 119.51C721.925 119.514 721.556 119.518 721.188 119.596C721.264 119.817 721.339 119.89 721.414 120.038C721.788 120.553 721.789 120.627 721.349 120.928C721.129 121.078 720.835 121.155 720.691 121.527C720.916 121.895 721.29 122.336 721.147 122.856C721.006 123.524 721.454 123.964 721.828 124.479C722.127 124.847 722.424 124.992 722.793 125.062L722.719 125.063C722.425 125.14 722.353 125.363 722.356 125.659C722.433 125.955 722.509 126.176 722.731 126.248C722.954 126.32 723.173 126.17 723.32 126.02C723.466 125.87 723.538 125.721 723.61 125.572C723.683 125.498 723.607 125.276 723.533 125.203C723.384 125.056 723.309 124.983 723.162 124.984C723.235 124.983 723.309 124.983 723.456 124.907C723.897 124.755 724.34 124.75 724.784 124.894C725.376 125.036 725.967 125.03 726.481 124.803C726.471 123.765 726.397 123.766 726.761 123.318C726.98 123.093 727.125 122.796 727.123 122.573C727.123 122.647 727.198 122.721 727.198 122.721C727.348 122.942 727.642 122.865 727.935 122.639C728.008 122.564 728.007 122.416 728.078 122.193C728.003 122.046 727.929 121.973 727.854 121.899C727.633 121.901 727.411 121.904 727.191 122.054Z" fill="#D2286F"/>
<path d="M730.502 113.723C730.211 114.096 730.361 114.317 731.026 114.384C731.316 113.937 731.018 113.643 731.014 113.199C730.794 113.423 730.648 113.573 730.502 113.723Z" fill="#D2286F"/>
<path d="M744.134 82.2455C743.84 82.3966 743.843 82.693 743.993 82.9137C744.143 83.1345 744.364 83.1322 744.659 83.0552C744.877 82.7566 744.801 82.5351 744.652 82.3884C744.576 82.1669 744.354 82.0951 744.134 82.2455Z" fill="#D2286F"/>
<path d="M690.193 17.5917C690.34 17.5161 690.486 17.3665 690.484 17.1442C690.482 16.922 690.333 16.8494 690.037 16.7783C689.89 16.7798 689.743 16.8553 689.669 16.8561C689.449 17.0065 689.378 17.2295 689.528 17.4502C689.751 17.6702 689.973 17.668 690.193 17.5917Z" fill="#D2286F"/>
<path d="M700.966 75.7909C701.116 76.0117 701.338 76.0835 701.558 75.9331C701.705 75.8576 701.777 75.7087 701.774 75.4123C701.625 75.2657 701.55 75.1183 701.475 75.0449C701.327 74.9723 701.105 74.9746 701.033 75.1235C700.957 74.902 700.808 74.7553 700.586 74.6834C700.364 74.6116 700.143 74.6879 699.997 74.8376C699.851 74.9872 699.78 75.2843 700.003 75.4302C700.301 75.7236 700.522 75.7213 700.962 75.4205C700.817 75.6443 700.891 75.7176 700.966 75.7909Z" fill="#D2286F"/>
<path d="M691.916 56.6933C692.138 56.691 692.285 56.6154 692.357 56.4665C692.429 56.2435 692.353 56.0961 692.204 55.9495C692.13 55.8761 691.981 55.8035 691.76 55.8058C691.466 55.9569 691.395 56.1799 691.471 56.4014C691.546 56.5488 691.694 56.6214 691.916 56.6933Z" fill="#D2286F"/>
<path d="M691.346 73.2949C691.274 73.5179 691.35 73.7394 691.573 73.8854C691.871 74.1046 692.091 74.0283 692.232 73.3601C692.157 73.2127 692.082 73.1393 692.008 73.066C691.712 72.9949 691.417 73.0719 691.346 73.2949Z" fill="#D2286F"/>
<path d="M739.07 92.4468C738.851 92.5972 738.779 92.8202 738.929 93.0409C739.079 93.2617 739.301 93.3335 739.52 93.109C739.593 93.0342 739.665 92.8853 739.663 92.6631C739.513 92.3682 739.29 92.2964 739.07 92.4468Z" fill="#D2286F"/>
<path d="M679.469 22.6639C679.322 22.7395 679.249 22.8143 679.177 23.0373C679.253 23.2588 679.328 23.3321 679.402 23.4054C679.625 23.5514 679.846 23.4751 679.991 23.2513C680.064 23.1765 680.062 22.9543 680.061 22.8802C679.911 22.6594 679.763 22.5868 679.469 22.6639Z" fill="#D2286F"/>
<path d="M729.793 116.545C729.571 116.547 729.425 116.697 729.427 116.845C729.427 116.919 729.503 117.067 729.578 117.214C729.727 117.361 729.948 117.285 730.095 117.209C730.241 117.133 730.314 116.985 730.237 116.689C730.089 116.616 729.94 116.544 729.793 116.545Z" fill="#D2286F"/>
<path d="M690.013 14.3336C689.942 14.6307 690.091 14.7773 690.313 14.8492C690.387 14.8484 690.387 14.8484 690.534 14.7729C690.678 14.475 690.602 14.2535 690.38 14.1817C690.159 14.1839 690.011 14.1854 690.013 14.3336Z" fill="#D2286F"/>
<path d="M715.479 43.9344C715.63 44.2292 715.851 44.227 715.997 44.0032C716.069 43.8543 715.993 43.6328 715.845 43.5602C715.623 43.4884 715.55 43.6373 715.479 43.9344Z" fill="#D2286F"/>
<path d="M772.747 116.408C772.6 116.484 772.378 116.412 772.083 116.489C771.493 116.495 771.275 116.867 770.909 117.167C770.763 117.317 770.395 117.395 770.471 117.616C770.548 117.986 770.841 117.687 771.062 117.685C771.21 117.683 771.284 117.756 771.286 117.905C771.288 118.127 771.289 118.275 771.438 118.422C771.662 118.642 771.812 118.862 771.519 119.088C771.299 119.238 771.077 119.166 770.854 119.02C770.706 118.948 770.631 118.874 770.483 118.802C770.261 118.73 770.041 118.88 770.043 119.103C769.974 119.548 770.052 119.992 770.423 120.21C771.091 120.574 771.395 121.46 772.352 121.228C772.426 121.227 772.575 121.3 772.724 121.446C773.17 121.812 773.686 121.733 774.201 121.58C774.716 121.426 775.081 121.052 775.15 120.533C775.149 120.459 775.222 120.384 775.295 120.309C775.66 119.861 775.729 119.416 775.503 118.899C775.352 118.604 775.422 118.233 775.641 118.009C775.787 117.785 775.784 117.563 775.561 117.417C774.816 116.684 773.924 116.1 772.747 116.408Z" fill="#D2286F"/>
<path d="M747.385 126.518C747.014 126.299 746.716 126.006 746.27 125.714C745.753 125.645 745.31 125.65 744.941 125.653C744.646 125.656 744.426 125.807 744.281 126.105C744.211 126.402 743.992 126.7 743.773 126.925C743.554 127.149 743.484 127.52 743.487 127.817C743.425 129.003 744.47 130.178 745.505 130.315C746.171 130.457 746.835 130.524 747.423 130.222C747.863 129.995 747.784 129.403 748.075 129.03C748.44 128.582 748.211 127.917 748.206 127.399C748.055 127.03 747.684 126.811 747.385 126.518Z" fill="#D2286F"/>
<path d="M773.466 99.953C773.541 100.026 773.541 100.1 773.542 100.175C773.992 100.911 774.514 101.35 775.399 101.341C776.285 101.332 776.873 101.104 777.012 100.214C777.891 99.612 777.442 98.9497 777.066 98.2867C776.766 97.8452 776.393 97.4785 775.946 97.0385C775.872 96.9652 775.649 96.8933 775.576 96.9682C775.135 97.1208 774.692 97.1253 774.177 97.2046C773.955 97.2068 773.81 97.4305 773.664 97.6543C773.592 97.8032 773.52 97.9521 773.375 98.2499C773.23 98.4736 773.231 98.6218 773.158 98.6966C773.089 99.1419 773.02 99.5871 773.466 99.953Z" fill="#D2286F"/>
<path d="M755.036 102.065C755.185 102.212 755.407 102.284 755.554 102.208C756.14 101.758 756.879 101.899 757.542 101.744C757.763 101.667 757.91 101.592 757.98 101.295C758.054 101.294 758.054 101.294 758.128 101.293C758.2 101.07 758.272 100.921 758.196 100.7C758.27 100.699 758.27 100.699 758.343 100.698C758.416 100.549 758.488 100.401 758.487 100.252C758.56 100.252 758.633 100.177 758.633 100.177C758.999 99.8768 759.219 99.6523 759.214 99.2078C759.21 98.8374 759.207 98.467 759.203 98.0966C759.271 97.5773 759.046 97.2091 758.674 96.9165C758.674 96.8424 758.673 96.7683 758.672 96.6943C758.593 96.1764 758.369 95.9564 757.852 95.8876C757.852 95.8876 757.926 95.8868 757.925 95.8127C757.402 95.1512 756.736 95.0098 756.07 94.8683C755.405 94.7268 754.816 94.881 754.379 95.4781C754.307 95.627 754.234 95.7018 754.161 95.8507C754.088 95.8515 754.014 95.9263 753.941 95.927C753.572 96.0048 753.501 96.2278 753.43 96.5249L753.356 96.4516C753.282 96.5264 753.209 96.5271 753.062 96.6027C752.913 96.456 752.764 96.3834 752.469 96.3864C751.657 96.3205 751.437 96.4709 751.224 97.2881C751.154 97.6592 751.157 98.0296 751.383 98.4719C751.754 98.6904 752.123 98.6867 752.418 98.6096C752.495 98.9793 752.574 99.423 752.725 99.7919C752.953 100.456 753.328 101.045 754.068 101.26C754.44 101.479 754.738 101.772 755.036 102.065Z" fill="#D2286F"/>
<path d="M768.676 115.264C768.305 115.119 767.934 114.901 767.566 115.053C767.492 114.979 767.492 114.979 767.417 114.906C767.048 114.836 766.752 114.839 766.383 114.842C766.383 114.768 766.383 114.768 766.382 114.694C765.933 114.106 765.339 113.742 764.673 113.526C764.673 113.526 764.673 113.526 764.599 113.527L764.598 113.453C764.008 113.459 763.639 113.462 763.193 113.17C762.673 112.805 762.526 112.955 762.089 113.478C762.016 113.553 761.944 113.702 761.944 113.776C761.871 113.777 761.871 113.777 761.797 113.777C761.28 113.782 760.837 113.713 760.769 114.306L760.695 114.307C760.254 114.46 760.11 114.832 760.114 115.276L760.04 115.203C760.04 115.203 759.965 115.129 759.892 115.204C759.524 115.282 759.303 115.358 759.233 115.729L759.16 115.804C759.16 115.804 759.16 115.804 759.087 115.879C759.087 115.879 759.088 115.953 759.014 115.954L759.013 115.88C758.866 115.955 758.867 116.03 758.868 116.104C758.794 116.104 758.795 116.178 758.721 116.179C758.503 116.478 758.357 116.701 758.213 116.999L758.139 117C758.066 117.075 758.067 117.223 758.142 117.296C758.068 117.297 758.068 117.297 757.995 117.372C757.777 117.745 757.854 118.04 758.006 118.409C758.233 118.999 758.387 119.665 758.469 120.405C758.395 120.406 758.395 120.406 758.321 120.406C758.322 120.48 758.248 120.481 758.249 120.555C757.877 120.337 757.435 120.341 756.992 120.346C756.697 120.349 756.553 120.72 756.703 120.941C756.852 121.162 757.002 121.309 757.225 121.529C757.67 121.746 757.966 121.818 758.334 121.74C758.555 121.663 758.775 121.513 758.773 121.291L758.772 121.217C759.216 121.36 759.441 121.729 759.74 122.096C759.816 122.243 759.965 122.39 760.114 122.537L760.041 122.612C759.896 122.909 759.75 123.059 759.526 122.839L759.452 122.766L759.451 122.692C759.374 122.396 759.004 122.252 758.488 122.331C758.34 122.332 758.194 122.408 758.121 122.557C757.605 122.562 757.091 122.864 756.644 122.424C756.419 122.13 756.053 122.355 755.76 122.581C755.467 122.88 755.249 123.179 755.402 123.696C755.328 123.696 755.254 123.697 755.254 123.697C754.592 123.926 754.592 123.926 754.746 124.517C754.673 124.592 754.673 124.592 754.6 124.667C754.604 125.037 754.533 125.334 754.61 125.704C754.61 125.704 754.536 125.705 754.537 125.779C754.542 126.297 754.62 126.667 754.698 127.037C754.698 127.037 754.624 127.112 754.625 127.186C754.701 127.407 754.777 127.629 754.926 127.701C755.297 127.92 755.448 128.289 755.527 128.807C755.527 128.807 755.527 128.807 755.601 128.806L755.527 128.807C756.345 129.391 757.155 129.235 757.966 129.078C758.04 129.152 758.04 129.152 758.115 129.225C758.71 129.663 759 129.142 759.366 128.842C759.439 128.841 759.44 128.915 759.514 128.914C760.919 129.197 761.053 127.862 761.786 127.336C761.933 127.26 761.856 126.965 761.781 126.817C761.483 126.524 761.48 126.227 761.623 125.781C761.694 125.558 761.691 125.262 761.687 124.892L761.761 124.891C761.979 124.518 761.683 124.447 761.462 124.449L761.387 124.376C761.387 124.376 761.387 124.376 761.313 124.303C761.313 124.303 761.386 124.302 761.386 124.228C761.31 124.006 761.234 123.859 761.233 123.711C761.08 123.194 761.079 123.12 761.74 122.743C761.74 122.817 761.741 122.891 761.815 122.89C762.112 123.109 762.336 123.329 762.633 123.549L762.56 123.549C763.008 124.063 763.155 124.062 763.298 123.542C763.371 123.541 763.444 123.466 763.517 123.391C763.664 123.242 763.736 123.093 763.734 122.871C763.807 122.87 763.881 122.869 763.955 122.868C764.693 122.861 765.283 122.855 765.873 122.775C766.316 122.771 766.389 122.696 766.457 122.102C766.456 122.028 766.53 122.027 766.529 121.953C766.529 121.953 766.529 121.953 766.602 121.879L766.603 121.953C766.971 121.875 767.043 121.652 766.967 121.43C766.966 121.356 767.04 121.356 767.039 121.281C767.111 121.133 767.11 120.984 767.182 120.835L767.256 120.835L767.257 120.909C767.551 120.832 767.699 120.83 767.845 120.681C767.919 120.68 767.992 120.605 767.992 120.605C768.138 120.529 768.211 120.455 768.284 120.306C768.284 120.306 768.284 120.306 768.283 120.232L768.284 120.306C768.651 120.08 768.648 119.783 768.645 119.561C768.641 119.117 768.563 118.673 768.855 118.374C769.146 118 769.215 117.555 769.21 117.036C769.208 116.814 769.206 116.592 769.277 116.369C769.349 116.146 769.643 115.995 769.493 115.774C769.122 115.63 768.898 115.336 768.676 115.264ZM761.518 122.745C761.591 122.67 761.517 122.671 761.518 122.745C761.592 122.744 761.592 122.744 761.518 122.745ZM762.327 122.44C762.328 122.514 762.328 122.514 762.327 122.44ZM764.789 117.748C764.788 117.674 764.788 117.6 764.788 117.6C764.788 117.6 764.788 117.6 764.788 117.674L764.789 117.748ZM765.006 117.301C765.005 117.227 765.005 117.227 765.006 117.301C765.005 117.227 765.079 117.226 765.006 117.301Z" fill="#D2286F"/>
<path d="M769.756 105.325C769.458 105.032 769.313 105.255 769.093 105.406C768.289 106.155 768.149 106.971 768.676 108.003C769.496 108.81 770.383 108.949 771.415 108.79C771.636 108.788 771.708 108.565 771.706 108.343C771.7 107.824 771.917 107.378 772.134 106.857C772.206 106.708 772.278 106.559 772.204 106.486C772.125 106.042 771.753 105.749 771.454 105.382C771.305 105.161 771.01 105.238 770.789 105.24C770.42 105.318 770.055 105.692 769.756 105.325Z" fill="#D2286F"/>
<path d="M745.597 58.9668C745.078 58.7498 744.629 58.1616 743.966 58.3164C743.819 58.392 743.599 58.4683 743.452 58.5439C743.306 58.6936 743.16 58.8432 742.94 58.9936C742.355 59.5181 742.36 60.0367 742.589 60.7753C742.818 61.5139 743.339 61.9531 744.004 62.0946C744.448 62.1642 744.89 62.0857 745.407 62.0804C745.775 62.0026 745.772 61.7063 745.842 61.3352C745.91 60.8159 746.128 60.4432 746.124 59.9987C746.046 59.6291 745.967 59.1112 745.597 58.9668Z" fill="#D2286F"/>
<path d="M734.149 36.2629C734.297 36.3355 734.446 36.4822 734.595 36.5548C734.817 36.7007 735.039 36.6985 735.26 36.6222C735.553 36.471 735.848 36.394 736.142 36.3169C736.656 36.0895 736.946 35.5679 736.867 35.0501C736.786 34.31 736.63 33.4966 735.814 33.0603C735.666 32.9877 735.591 32.9144 735.369 32.8425C735.072 32.6974 734.925 32.6988 734.778 32.7744C734.485 32.9996 734.193 33.2989 733.899 33.4501C733.458 33.6768 733.388 34.048 733.319 34.4932C733.18 35.3096 733.408 35.9741 734.149 36.2629Z" fill="#D2286F"/>
<path d="M749.99 92.0402C749.989 91.9661 749.989 91.9661 749.99 92.0402C749.837 91.5231 749.542 91.6002 749.248 91.6773C749.174 91.678 749.173 91.6039 749.1 91.6047C748.655 91.461 748.283 91.0943 747.988 91.1713C747.325 91.3262 746.438 91.1129 745.926 91.6367C745.703 91.4908 745.482 91.493 745.336 91.6426C745.043 91.8679 744.824 92.0924 744.532 92.3917C744.754 92.4635 744.902 92.5361 745.05 92.6087C744.613 93.1317 744.546 93.7992 744.553 94.54C744.562 95.429 744.563 95.5031 745.674 95.8623C745.674 95.8623 745.674 95.9364 745.601 95.9371C745.677 96.2327 745.754 96.4542 745.976 96.5261C745.976 96.6001 745.976 96.6001 746.051 96.6735C746.2 96.8202 746.348 96.8928 746.57 96.8905C746.719 97.0372 746.869 97.2579 747.091 97.3298C747.166 97.4772 747.314 97.5498 747.463 97.6224C747.537 97.6216 747.537 97.6216 747.684 97.6202C747.831 97.5446 747.979 97.5431 748.052 97.4683C748.421 97.4645 748.788 97.3127 749.156 97.1608C749.23 97.16 749.303 97.1593 749.452 97.2319C749.673 97.2296 749.894 97.1533 750.114 97.0029C750.48 96.777 750.626 96.5532 750.549 96.2576C750.547 96.1095 750.473 96.0361 750.398 95.9628C750.543 95.665 750.761 95.3664 750.906 95.0686C751.124 94.696 751.121 94.3996 750.969 94.0307C750.666 93.2188 750.365 92.6291 749.99 92.0402ZM748.163 93.8368C748.088 93.7634 748.088 93.7634 748.088 93.7634C748.162 93.7627 748.163 93.8368 748.163 93.8368Z" fill="#D2286F"/>
<path d="M717.895 107.775C716.936 107.784 716.05 107.793 715.165 107.802C714.427 107.81 713.988 108.259 713.997 109.074C713.998 109.222 714 109.37 714.001 109.518C714.009 110.259 714.607 111.068 715.272 111.135C715.937 111.203 716.891 110.674 717.18 110.079C717.325 109.781 717.248 109.485 717.171 109.116C717.017 108.524 717.09 108.45 717.753 108.295C717.9 108.293 718.048 108.292 718.195 108.216C718.416 108.14 718.562 108.064 718.413 107.844C718.339 107.844 718.117 107.847 717.895 107.775Z" fill="#D2286F"/>
<path d="M737.403 51.5665C737.332 51.8636 737.336 52.234 737.487 52.5288C737.636 52.7496 737.858 52.7473 738.081 52.8933C738.378 53.1125 738.676 53.3318 739.047 53.5503C739.559 53.1006 740.148 52.9465 740.586 52.4975C740.878 52.1982 740.948 51.8271 741.019 51.4559C741.093 51.5293 741.168 51.6767 741.243 51.75C741.616 52.1908 741.985 52.1871 742.568 51.4403C742.565 51.0699 742.415 50.8491 742.118 50.7039C741.821 50.4847 741.306 50.6381 741.014 51.0114C741.015 51.0855 740.941 51.0863 740.942 51.1603C740.865 50.8648 740.716 50.7181 740.419 50.5729C740.197 50.5011 740.12 50.2055 739.972 50.1329C739.451 49.6936 738.418 49.704 738.128 50.2256C737.762 50.5256 737.471 50.9731 737.403 51.5665Z" fill="#D2286F"/>
<path d="M722.267 94.8391C722.707 94.6123 722.706 94.4642 722.262 94.3946C722.262 94.3205 722.262 94.3205 722.187 94.2472C722.187 94.2472 722.187 94.2472 722.113 94.2479L722.186 94.1731C722.186 94.099 722.185 94.0249 722.11 93.9516L722.184 93.9508C722.031 93.4338 721.66 93.2152 721.288 92.9226C721.288 92.9226 721.361 92.8478 721.286 92.7745C721.061 92.3322 720.692 92.3359 720.396 92.3389C719.733 92.4197 719.141 92.2775 718.692 91.6893C718.618 91.616 718.396 91.5441 718.174 91.5464C718.173 91.4723 718.173 91.4723 718.173 91.3982C718.023 91.1775 717.948 91.03 717.872 90.8085C717.872 90.8085 717.872 90.8085 717.871 90.7345L717.945 90.7337C717.94 90.2892 717.79 90.0685 717.495 90.0714C717.421 89.9981 717.42 89.924 717.346 89.9248C717.27 89.7033 717.195 89.5559 717.12 89.4825C716.082 88.9744 715.122 88.9841 714.17 89.7346C713.951 89.959 713.658 90.1843 713.438 90.3347C712.852 90.7851 712.712 91.4533 712.94 92.1178C713.242 92.8557 713.399 93.7432 714.07 94.4032L713.996 94.4039C714.297 94.9195 714.738 94.7669 715.032 94.6898C715.106 94.6891 715.181 94.7624 715.181 94.7624C715.402 94.7602 715.476 94.7594 715.697 94.7572L715.698 94.8313C716.143 95.0491 716.288 94.8253 716.359 94.5282C716.433 94.5275 716.432 94.4534 716.506 94.4527C716.506 94.4527 716.506 94.4527 716.579 94.3779L716.58 94.4519C717.39 94.2956 717.39 94.2956 717.618 94.9601C717.77 95.329 717.993 95.549 718.362 95.5453C718.363 95.6194 718.363 95.6194 718.364 95.6934C718.366 95.9157 718.441 96.0631 718.516 96.1364C718.443 96.2113 718.443 96.2113 718.443 96.2853C718.299 96.5832 718.521 96.655 718.818 96.8002C719.113 96.7972 719.26 96.7216 719.332 96.5727C719.924 96.7149 720.44 96.6356 720.954 96.4082C721.764 96.2518 722.202 95.7288 722.267 94.8391Z" fill="#D2286F"/>
<path d="M738.533 119.643C738.532 119.569 738.532 119.569 738.532 119.495C738.234 119.275 738.014 119.352 737.719 119.429L737.718 119.355C737.275 119.285 737.055 119.436 737.058 119.732C736.984 119.733 736.911 119.807 736.837 119.808C736.616 119.81 736.543 119.885 736.396 119.961C736.396 119.961 736.396 119.961 736.397 120.035C736.396 119.961 736.322 119.962 736.321 119.887C735.659 120.116 735.813 120.708 735.669 121.079C735.455 121.748 735.604 121.969 736.125 122.334C736.421 122.48 736.645 122.7 736.942 122.845C737.165 122.991 737.46 122.988 737.756 123.059C737.978 123.131 738.056 123.574 738.498 123.496C738.642 123.124 738.636 122.531 739.15 122.304C739.885 121.926 739.73 121.187 739.65 120.595C739.645 120.076 739.272 119.709 738.533 119.643Z" fill="#D2286F"/>
<path d="M695.661 120.52C695.432 119.782 695.209 119.636 694.544 119.568C694.026 119.499 693.511 119.579 693.071 119.879C692.631 120.18 692.413 120.553 692.419 121.071C692.428 121.96 693.321 122.692 694.282 122.831C694.355 122.83 694.428 122.755 694.649 122.679C695.015 122.379 695.234 122.154 695.454 122.004C695.894 121.703 696.038 121.405 695.813 120.963C695.737 120.742 695.661 120.594 695.661 120.52Z" fill="#D2286F"/>
<path d="M707.456 111.881C707.525 111.362 707.668 110.916 707.663 110.397C707.661 110.249 707.439 110.177 707.218 110.179C707.217 110.105 707.217 110.105 707.216 110.031C707.065 109.662 706.915 109.441 706.619 109.37C706.249 109.3 705.879 109.23 705.583 109.084C704.768 108.796 704.327 109.023 704.04 109.767C703.896 110.139 703.826 110.51 703.681 110.808C703.322 111.774 703.322 111.774 704.067 112.434C704.29 112.58 704.44 112.874 704.809 112.871L704.883 112.87L704.81 112.945C705.253 112.94 705.697 113.084 705.915 112.785C705.989 112.785 706.062 112.71 706.062 112.71C706.062 112.71 706.062 112.71 706.135 112.635L706.136 112.709C706.283 112.634 706.43 112.558 706.503 112.557C706.577 112.557 706.577 112.557 706.65 112.482C706.65 112.482 706.65 112.482 706.65 112.408L706.723 112.407C707.165 112.254 707.385 112.178 707.456 111.881Z" fill="#D2286F"/>
<path d="M729.055 116.553C728.977 116.183 728.681 116.038 728.312 116.116C727.87 116.194 727.579 116.568 727.064 116.721C726.18 116.878 726.042 117.843 726.711 118.354C727.009 118.648 727.381 118.866 727.826 119.084C729.446 118.771 729.445 118.697 729.209 117.218C729.059 116.997 729.057 116.775 729.055 116.553Z" fill="#D2286F"/>
<path d="M720.89 82.7765C720.805 81.5919 720.06 80.9326 718.88 81.0186C717.994 81.0276 717.409 81.5521 717.27 82.4426C717.2 82.7396 717.276 82.9611 717.353 83.3308L717.28 83.4056C717.288 84.1464 717.515 84.7368 718.255 84.8776C718.846 85.0198 719.511 85.0131 720.173 84.7841C720.761 84.5559 721.052 84.1825 720.824 83.518C720.823 83.4439 720.897 83.4432 720.896 83.3691C720.893 82.9987 720.891 82.8505 720.89 82.7765Z" fill="#D2286F"/>
<path d="M746.219 54.8115C746.287 54.2181 745.988 53.8507 745.397 53.7826C745.249 53.7841 745.028 53.7863 744.806 53.7885C744.585 53.7908 744.364 53.8671 744.292 54.016C744.217 53.9427 744.217 53.8686 744.143 53.8693C743.474 53.4315 742.738 53.5872 742 53.6687C741.853 53.6702 741.855 53.8924 741.93 54.0398C742.006 54.1873 742.08 54.2606 742.23 54.4813C742.306 54.7028 742.381 54.8503 742.456 54.9236C742.978 55.511 743.2 55.5088 743.713 55.1332C743.786 55.0584 743.859 54.9835 744.006 54.908C744.007 55.0561 743.934 55.1309 743.936 55.2791C743.865 55.5762 744.088 55.7962 744.313 56.0903C744.758 56.3081 745.051 56.0828 745.346 56.0799C745.789 56.0754 746.008 55.8509 746.077 55.4057C746.149 55.1827 746.221 55.0338 746.219 54.8115Z" fill="#D2286F"/>
<path d="M711.408 108.507C710.743 108.44 710.002 108.151 709.568 109.044C709.5 109.638 709.505 110.082 710.097 110.298C710.468 110.443 710.837 110.439 711.204 110.287C711.499 110.21 711.718 109.986 711.716 109.763C711.786 109.392 711.855 108.947 711.556 108.58C711.482 108.58 711.408 108.507 711.408 108.507Z" fill="#D2286F"/>
<path d="M771.442 67.5966C770.856 68.047 771.082 68.4893 771.382 68.9308C771.456 68.9301 771.455 68.9301 771.529 68.9293C771.455 68.9301 771.382 69.0049 771.309 69.0056C771.244 69.8953 771.617 70.3361 772.211 70.6265C772.878 70.9161 773.615 70.8346 774.352 70.679C774.425 70.6782 774.571 70.5286 774.644 70.3797C774.789 70.1559 774.86 69.8588 775.079 69.6344C775.736 68.8868 775.286 68.1505 775.057 67.4119C774.828 66.6733 774.235 66.4571 773.497 66.4645C773.274 66.3186 773.127 66.3201 773.054 66.469C772.981 66.4697 772.981 66.4697 772.908 66.5445C772.908 66.5445 772.908 66.5446 772.834 66.6194L772.834 66.5453C772.465 66.549 772.17 66.6261 772.101 67.0713L772.1 66.9972C771.953 67.0728 771.807 67.2225 771.734 67.2973C771.588 67.4469 771.515 67.5218 771.442 67.5966Z" fill="#D2286F"/>
<path d="M708.064 113.579C707.916 113.58 707.845 113.803 707.773 114.026C707.258 114.18 707.261 114.476 707.191 114.847L707.116 114.774C706.605 115.298 706.606 115.372 707.199 115.662C707.2 115.736 707.2 115.736 707.201 115.81C707.201 115.81 707.201 115.884 707.275 115.883L707.202 115.958C707.578 116.621 708.17 116.764 708.833 116.683C709.128 116.68 709.348 116.529 709.493 116.232C709.781 115.562 709.775 114.895 709.693 114.081L709.766 114.08C709.319 113.64 708.728 113.572 708.064 113.579Z" fill="#D2286F"/>
<path d="M720.667 119.156C720.595 119.305 720.669 119.379 720.818 119.451C720.891 119.45 720.966 119.524 721.04 119.523C721.04 119.523 721.04 119.523 721.039 119.449C721.038 119.301 721.038 119.301 720.963 119.227C720.888 119.08 720.739 119.007 720.667 119.156Z" fill="#D2286F"/>
<path d="M773.528 91.4322C773.822 91.3551 774.19 91.2032 774.186 90.8328C774.259 90.758 774.333 90.7573 774.332 90.6832C774.625 90.4579 774.77 90.2342 774.767 89.9379C774.765 89.7156 774.542 89.4956 774.613 89.2726C774.972 88.2318 774.667 87.3458 773.995 86.5376C773.92 86.4643 773.92 86.3902 773.919 86.3161C773.768 86.0213 773.474 86.0983 773.106 86.1761L773.105 86.102C772.955 85.8813 772.881 85.8079 772.879 85.6598C772.579 85.1442 772.431 85.1457 772.141 85.6672C772.067 85.668 771.994 85.7428 771.92 85.7436C771.33 85.7495 770.887 85.754 770.445 85.8325C770.076 85.8363 769.856 85.9867 769.86 86.3571C769.786 86.3578 769.712 86.3586 769.713 86.4326C768.978 86.7364 768.978 86.7364 768.678 86.2208C768.677 86.1467 768.751 86.146 768.75 86.0719C768.82 85.7008 769.039 85.4763 769.332 85.2511C769.332 85.2511 769.333 85.3251 769.407 85.3244C769.773 85.0243 769.772 84.9503 769.329 84.8806C769.328 84.8066 769.253 84.7332 769.252 84.6591C768.657 84.1465 768.283 83.6317 768.128 82.8924C768.051 82.6709 767.903 82.5983 767.607 82.5272C767.606 82.4531 767.606 82.4531 767.606 82.379C767.382 82.159 767.233 82.0123 767.01 81.8664C767.01 81.8664 767.01 81.8664 767.084 81.8657C766.933 81.5708 766.784 81.4241 766.564 81.5745C766.491 81.5753 766.49 81.5012 766.416 81.502C765.898 81.359 765.818 80.7671 765.375 80.6975C765.375 80.6975 765.374 80.6234 765.3 80.6241C764.783 80.6294 764.34 80.5598 764.042 80.2664C763.744 80.0471 763.449 80.0501 763.156 80.2753C762.496 80.7265 761.911 81.2511 761.176 81.5548C760.956 81.6312 760.81 81.8549 760.812 82.0771C760.819 82.7439 760.529 83.1913 760.239 83.7129C760.02 84.0114 759.95 84.3826 759.954 84.753C759.958 85.1234 759.961 85.4938 760.04 85.9376L759.966 85.9383C759.967 86.0865 760.043 86.2339 760.191 86.3065L760.192 86.3806C760.491 86.748 760.862 86.9665 760.94 87.4103C761.018 87.7799 761.315 87.9992 761.758 87.9947L761.759 88.0688C761.907 88.1414 761.982 88.2147 762.057 88.3621C762.131 88.4355 762.206 88.5088 762.206 88.5088C762.207 88.5829 762.28 88.5821 762.281 88.6562C762.51 89.3948 763.101 89.4629 763.546 89.6807C764.065 89.8977 764.582 89.8925 765.17 89.6643C765.39 89.5139 765.61 89.3635 765.977 89.2116C765.977 89.2116 765.978 89.2857 766.052 89.285C766.495 89.3546 766.864 89.3509 767.233 89.3471C767.602 89.3434 767.675 89.2686 767.67 88.75C767.666 88.3055 767.809 87.9336 768.175 87.6336L768.176 87.7077C768.693 87.7024 768.916 87.9225 769.068 88.2914C769.068 88.3655 768.995 88.3662 768.995 88.4403C769.003 89.1811 769.009 89.7737 769.015 90.3664C769.02 90.885 769.245 91.2531 769.763 91.3961C770.8 91.7561 771.766 92.4131 772.866 91.6611C772.864 91.4389 773.233 91.5092 773.528 91.4322ZM770.922 89.1617C770.921 89.0876 770.846 89.0143 770.846 89.0143L770.921 89.0876C770.921 89.0876 770.921 89.0876 770.995 89.0869L770.922 89.1617Z" fill="#D2286F"/>
<path d="M765.342 70.1772C765.051 70.5506 764.835 71.0714 764.914 71.5892C764.994 72.2552 765.002 72.996 765.377 73.5849C765.752 74.1739 765.535 74.6206 765.687 75.1377C765.614 75.1384 765.614 75.2125 765.541 75.2132C765.471 75.5844 765.473 75.8066 765.403 76.1778L765.402 76.1037C765.111 76.4771 765.037 76.5519 765.481 76.6215C765.482 76.6956 765.556 76.7689 765.557 76.843C765.709 77.286 765.787 77.6557 765.864 78.0253C765.94 78.1728 765.942 78.395 766.091 78.5417C766.686 79.0543 767.354 79.3439 768.092 79.4105C768.757 79.4038 769.494 79.3223 769.931 78.7252C770.149 78.4266 770.444 78.4236 770.595 78.7185C770.971 79.3815 771.347 80.1186 771.723 80.7816C772.024 81.3713 772.246 81.4431 772.76 81.2156C772.981 81.1393 773.199 80.8408 773.349 80.9874C774.09 81.3504 774.823 80.8244 775.487 80.8177C775.635 80.8162 775.782 80.7406 775.855 80.6658C776.438 79.919 777.021 79.1722 777.159 78.2818C777.299 77.5395 777.217 76.7253 777.282 75.8356C777.282 75.8356 777.282 75.8356 777.283 75.9097C777.648 75.5356 777.647 75.4615 777.205 75.4659C777.204 75.3919 777.13 75.3926 777.129 75.3185C777.129 75.3185 777.129 75.3185 777.055 75.2452L777.129 75.2444C777.051 74.8748 776.974 74.5792 776.605 74.5829C776.088 74.5141 775.863 74.22 775.638 73.7777C775.032 72.302 773.557 72.391 772.753 73.14C772.241 73.5897 771.653 73.892 771.14 74.2676C770.847 74.4929 770.478 74.4966 770.335 74.9426C770.263 75.0915 770.115 75.0189 769.966 74.9463C769.818 74.8737 769.669 74.727 769.521 74.6544C769.372 74.5818 769.296 74.3603 769.369 74.2855C769.954 73.761 769.576 72.8017 770.161 72.2771C770.307 72.1275 770.23 71.8319 770.228 71.6096C770.228 71.6096 770.302 71.6089 770.301 71.5348C770.3 71.4607 770.299 71.3867 770.299 71.3867L770.372 71.3118C770.515 70.7918 770.071 70.6481 769.92 70.3532C769.694 69.911 769.541 69.3939 769.168 69.0272C768.796 68.6605 768.062 69.0384 767.615 68.6725C767.54 68.5991 767.467 68.5999 767.319 68.6014C767.098 68.6036 766.802 68.6066 766.656 68.7562C766.365 69.1296 765.779 69.5801 765.342 70.1772ZM771.525 75.8196C771.526 75.8937 771.6 75.893 771.6 75.893L771.525 75.8196ZM767.612 75.7109C767.685 75.6361 767.759 75.6354 767.832 75.5605C767.833 75.6346 767.759 75.6354 767.686 75.7102C767.686 75.7102 767.613 75.785 767.612 75.7109ZM767.484 77.6385C767.558 77.6378 767.558 77.6378 767.484 77.6385C767.41 77.6393 767.41 77.6393 767.41 77.6393C767.484 77.6385 767.484 77.6385 767.484 77.6385Z" fill="#D2286F"/>
<path fill-rule="evenodd" clip-rule="evenodd" d="M0 144.827H52.8729C104.709 144.827 127.222 111.311 127.222 72.4136C127.222 39.9319 112.352 0 52.8729 0H0V144.827ZM40.4805 109.224V35.6011C40.481 35.3776 40.5698 35.1633 40.7276 35.0052C40.8854 34.8471 41.0993 34.7581 41.3225 34.7576H45.015C85.0744 34.7576 85.4954 64.3447 85.4954 72.4136C85.4954 79.8619 85.0819 110.068 45.015 110.068H41.3225C41.0993 110.067 40.8854 109.978 40.7276 109.82C40.5698 109.662 40.481 109.448 40.4805 109.224ZM139.971 144.827H226.712V110.068H181.286C181.063 110.067 180.849 109.978 180.691 109.82C180.533 109.662 180.444 109.448 180.444 109.224V87.7394C180.444 87.5159 180.533 87.3016 180.691 87.1435C180.849 86.9854 181.063 86.8964 181.286 86.8959H222.369V55.0348H181.286C181.063 55.0343 180.849 54.9453 180.691 54.7872C180.533 54.6291 180.444 54.4148 180.444 54.1913V35.6011C180.444 35.3776 180.533 35.1633 180.691 35.0052C180.849 34.8471 181.063 34.7581 181.286 34.7576H226.705V0H139.971V144.827ZM240.427 144.827H280.908V99.9031C280.91 99.7222 280.971 99.5469 281.08 99.403C281.189 99.259 281.342 99.1539 281.515 99.1032C281.688 99.0524 281.873 99.0587 282.043 99.1211C282.212 99.1835 282.357 99.2987 282.456 99.4498L311.472 144.82H360.42L320.563 87.8007C320.49 87.695 320.442 87.574 320.422 87.447C320.403 87.3199 320.413 87.19 320.451 87.0673C320.489 86.9446 320.555 86.8322 320.643 86.7388C320.731 86.6454 320.84 86.5733 320.96 86.5281C334.391 81.5582 350.292 70.0745 350.292 43.4489C350.292 36.8273 348.64 0 300.312 0H240.42L240.427 144.827ZM280.908 64.3298V32.7046C280.908 32.4816 280.997 32.2678 281.154 32.1101C281.312 31.9523 281.525 31.8635 281.748 31.863H290.821C305.275 31.863 309.821 40.3462 309.821 48.4132C309.821 56.8982 305.275 65.1733 290.821 65.1733H281.748C281.637 65.1738 281.527 65.1524 281.424 65.1102C281.322 65.0681 281.228 65.0061 281.149 64.9277C281.071 64.8494 281.008 64.7562 280.965 64.6536C280.923 64.5511 280.901 64.441 280.9 64.3298H280.908ZM426.798 149C487.103 149 490.411 101.793 490.411 86.2754V0H449.92V85.4486C449.92 94.3443 448.269 114.207 426.791 114.207C405.313 114.207 403.659 94.3443 403.659 85.4486V0H363.178V86.2754C363.178 101.793 366.485 149 426.791 149H426.798ZM507.9 144.827H548.373V90.6359C548.374 90.4126 548.462 90.1987 548.62 90.0406C548.777 89.8826 548.991 89.7934 549.213 89.7924H590.297V56.4821H549.213C548.991 56.4816 548.777 56.3928 548.62 56.235C548.462 56.0773 548.374 55.8635 548.373 55.6404V35.6011C548.374 35.3779 548.462 35.1639 548.62 35.0059C548.777 34.8478 548.991 34.7586 549.213 34.7576H594.633V0H507.893L507.9 144.827ZM583.971 144.827H627.368L635.236 120.377C635.289 120.206 635.395 120.057 635.539 119.952C635.684 119.846 635.858 119.79 636.037 119.792H683.964C684.142 119.79 684.316 119.846 684.46 119.952C684.604 120.057 684.71 120.206 684.763 120.377L692.63 144.827H736L684.576 0H635.428L583.971 144.827ZM660.809 37.1469L676.191 86.8383C676.229 86.9645 676.237 87.0979 676.215 87.2278C676.192 87.3577 676.14 87.4806 676.062 87.5867C675.984 87.6928 675.882 87.7791 675.765 87.8389C675.647 87.8986 675.518 87.9301 675.386 87.9308H644.618C644.486 87.9305 644.356 87.8992 644.239 87.8396C644.121 87.78 644.019 87.6936 643.941 87.5874C643.863 87.4813 643.811 87.3582 643.788 87.2281C643.766 87.098 643.775 86.9645 643.813 86.8383L659.195 37.1469C659.25 36.9767 659.357 36.8284 659.502 36.7231C659.646 36.6179 659.82 36.5612 659.998 36.5612C660.177 36.5612 660.351 36.6179 660.495 36.7231C660.639 36.8284 660.747 36.9767 660.801 37.1469H660.809Z" fill="white"/>
</svg>
