<svg width="736" height="149" viewBox="0 0 736 149" fill="none" xmlns="http://www.w3.org/2000/svg"><path fill-rule="evenodd" clip-rule="evenodd" d="M0 144.827h52.873c51.836 0 74.349-33.516 74.349-72.413C127.222 39.932 112.352 0 52.872 0H0v144.827zm40.48-35.603V35.601a.846.846 0 01.843-.843h3.692c40.06 0 40.48 29.587 40.48 37.656 0 7.448-.413 37.654-40.48 37.654h-3.693a.846.846 0 01-.842-.844zm99.491 35.603h86.741v-34.759h-45.426a.847.847 0 01-.842-.844V87.739a.843.843 0 01.842-.843h41.083V55.035h-41.083a.844.844 0 01-.842-.844v-18.59a.843.843 0 01.842-.843h45.419V0h-86.734v144.827zm100.456 0h40.481V99.903a.845.845 0 011.548-.453l29.016 45.37h48.948L320.563 87.8a.857.857 0 01-.141-.353.856.856 0 01.221-.708.846.846 0 01.317-.21c13.431-4.97 29.332-16.454 29.332-43.08 0-6.622-1.652-43.449-49.98-43.449H240.42l.007 144.827zm40.481-80.497V32.705a.843.843 0 01.84-.842h9.073c14.454 0 19 8.483 19 16.55 0 8.485-4.546 16.76-19 16.76h-9.073a.844.844 0 01-.848-.843h.008zM426.798 149c60.305 0 63.613-47.207 63.613-62.725V0H449.92v85.449c0 8.895-1.651 28.758-23.129 28.758s-23.132-19.863-23.132-28.758V0h-40.481v86.275c0 15.518 3.307 62.725 63.613 62.725h.007zm81.102-4.173h40.473V90.636a.846.846 0 01.84-.844h41.084v-33.31h-41.084a.84.84 0 01-.84-.842V35.601a.846.846 0 01.84-.843h45.42V0h-86.74l.007 144.827zm76.071 0h43.397l7.868-24.45a.829.829 0 01.801-.585h47.927a.829.829 0 01.799.585l7.867 24.45H736L684.576 0h-49.148l-51.457 144.827zm76.838-107.68l15.382 49.691a.856.856 0 01-.129.749.847.847 0 01-.676.344h-30.768a.84.84 0 01-.677-.344.858.858 0 01-.153-.359.857.857 0 01.025-.39l15.382-49.691a.843.843 0 011.606 0h.008z" fill="#fff"/></svg>