<svg width="576" height="519" viewBox="0 0 576 519" fill="none" xmlns="http://www.w3.org/2000/svg">
<path opacity="0.05" fill-rule="evenodd" clip-rule="evenodd" d="M117.998 519H308.341C494.951 519 575.998 398.891 575.998 259.5C575.998 143.099 522.465 0 308.341 0H117.998V519ZM263.728 391.414V127.58C263.73 126.778 264.049 126.011 264.618 125.444C265.186 124.878 265.956 124.559 266.759 124.557H280.052C424.266 124.557 425.782 230.585 425.782 259.5C425.782 286.192 424.293 394.437 280.052 394.437H266.759C265.956 394.435 265.186 394.116 264.618 393.549C264.049 392.983 263.73 392.215 263.728 391.414Z" fill="black"/>
<path d="M168.464 360.407C167.824 360.278 167.311 360.15 166.926 360.022C165.517 359.638 164.107 360.15 163.466 361.432C162.953 362.714 162.312 363.739 160.903 364.38C160.262 364.636 159.877 365.277 159.877 365.918C159.877 367.199 159.493 368.481 158.724 369.506C158.595 369.762 158.724 370.275 159.108 370.147C160.005 370.019 160.646 370.403 161.415 370.659C162.569 370.916 163.594 370.916 164.748 370.147C165.901 369.506 166.414 368.865 166.286 367.584C166.157 366.558 166.286 366.43 167.183 366.43C167.952 366.43 167.567 366.046 167.567 365.789C167.567 365.661 167.567 365.405 167.695 365.405C169.105 364.508 168.849 363.226 168.336 362.073C168.464 361.432 168.464 360.919 168.464 360.407Z" fill="#D2286F"/>
<path d="M172.566 354.511C171.541 355.024 170.387 355.537 169.362 356.049C168.464 356.434 168.593 357.203 168.336 357.843C168.08 358.356 168.08 358.869 168.593 359.381C168.977 359.638 168.977 360.022 168.721 360.407C168.721 360.407 168.721 360.407 168.849 360.407C169.618 360.919 170.131 361.304 170.9 361.304C171.541 361.304 171.925 361.56 172.31 362.073C172.822 362.714 173.079 362.585 173.335 361.688C173.463 361.304 173.591 360.919 174.104 360.919C174.745 360.791 174.873 360.278 175.001 359.638C175.001 358.741 174.617 358.1 174.232 357.459C173.591 356.434 173.591 355.152 172.566 354.511Z" fill="#D2286F"/>
<path d="M211.145 400.905C211.017 400.264 210.76 399.752 210.248 399.239C209.735 398.855 209.094 398.727 208.581 397.958C208.197 397.829 207.941 397.958 207.812 398.086C207.556 399.111 206.915 399.239 206.018 399.111C205.377 398.983 204.736 399.111 204.095 399.367C203.839 399.496 203.711 399.752 203.839 400.008C204.095 400.777 204.352 401.546 204.736 402.187C204.993 402.7 205.505 402.956 206.146 402.956C207.3 402.828 208.581 402.7 209.735 402.571C210.76 402.571 211.273 401.931 211.145 400.905Z" fill="#D2286F"/>
<path d="M124.631 260.954C125.912 260.698 126.425 259.673 127.322 259.16C127.707 258.904 127.45 258.007 127.066 257.878C126.041 257.622 125.015 257.366 124.118 257.238C123.221 257.109 122.196 258.263 122.452 258.904C122.708 259.801 123.093 260.826 124.631 260.954Z" fill="#D2286F"/>
<path d="M105.021 235.835C105.405 236.091 105.662 236.219 106.046 236.476C107.584 237.757 108.225 237.629 109.122 235.835C109.25 235.707 109.25 235.578 109.25 235.194C109.25 234.681 109.25 234.297 108.866 234.297C107.841 234.297 107.072 234.297 106.174 233.784C105.534 233.4 104.893 233.784 104.636 234.425C104.252 234.938 104.38 235.45 105.021 235.835Z" fill="#D2286F"/>
<path d="M134.372 245.19C135.141 244.806 135.397 243.909 135.141 243.14C135.012 242.627 134.628 242.115 133.987 241.858C132.834 241.602 132.065 241.986 131.68 242.755C131.296 243.524 131.68 244.165 132.065 244.678C132.705 245.575 133.603 245.703 134.372 245.19Z" fill="#D2286F"/>
<path d="M186.152 352.461C185.255 351.948 184.101 352.461 183.973 353.486C183.845 354.383 184.357 355.024 185.255 355.537C186.408 355.793 187.049 355.408 187.177 354.511C187.433 353.742 186.921 352.845 186.152 352.461Z" fill="#D2286F"/>
<path d="M186.536 348.488C185.511 348.36 184.998 349 185.383 349.897C185.639 350.923 186.408 351.692 187.049 351.564C187.305 351.564 187.69 351.307 187.818 351.179C188.331 350.795 188.331 350.154 188.202 349.513C187.69 348.744 187.177 348.616 186.536 348.488Z" fill="#D2286F"/>
<path d="M211.401 424.743C211.017 424.743 210.632 424.999 210.376 425.512C210.248 425.897 210.248 426.025 210.248 426.153C210.119 426.794 210.248 427.306 210.76 427.563C211.401 427.947 212.042 427.563 212.555 427.178C213.067 426.794 213.324 425.897 213.067 425.256C212.939 424.871 212.298 424.615 211.401 424.743Z" fill="#D2286F"/>
<path d="M181.922 421.539C181.281 421.283 180.641 421.283 180.128 421.539C179.743 421.667 179.487 421.924 179.615 422.564C180 423.077 180.384 423.462 180.769 423.718C181.41 424.23 182.179 423.974 182.563 423.333C182.819 422.693 182.563 421.924 181.922 421.539Z" fill="#D2286F"/>
<path d="M198.712 428.332C198.712 428.972 198.841 429.485 198.969 430.126C201.148 428.844 201.148 428.844 200.635 426.922C198.841 426.922 198.584 427.178 198.712 428.332Z" fill="#D2286F"/>
<path d="M154.366 389.371C153.981 389.243 153.597 389.243 153.212 389.499C152.828 390.012 152.7 390.781 152.956 391.293C153.341 391.934 153.981 391.678 154.622 391.421C155.135 390.268 155.007 389.627 154.366 389.371Z" fill="#D2286F"/>
<path d="M100.279 310.68C100.15 309.783 99.5096 309.527 98.8688 309.783C98.0998 309.911 97.9716 310.68 98.4843 311.321C98.8688 311.834 99.3814 311.706 100.279 310.68Z" fill="#D2286F"/>
<path d="M136.038 290.303C136.166 290.303 136.166 290.303 136.294 290.303C136.294 291.2 136.55 291.969 137.191 292.738C139.242 295.045 139.755 295.173 142.574 293.763C143.472 293.379 144.241 292.738 144.112 291.456H144.241C144.369 290.816 144.753 290.431 145.138 290.175C145.394 290.047 145.779 289.79 145.65 289.406C145.266 288.124 146.035 288.124 146.932 288.124C147.445 288.124 147.701 287.74 147.701 287.227C147.829 287.227 147.829 287.227 147.957 287.227C149.111 287.227 149.88 286.714 150.136 285.817C150.264 285.817 150.393 285.817 150.521 285.817C150.905 285.689 151.162 285.561 151.29 285.433C151.803 283.767 152.059 282.101 151.29 280.306C150.777 279.281 150.393 278.128 149.239 277.743C148.47 277.487 147.701 276.974 146.804 276.974C147.06 276.846 147.188 276.718 147.445 276.462C147.957 275.949 147.829 275.436 147.573 274.924C147.317 274.539 147.188 274.027 146.932 273.642C146.548 272.873 145.65 272.617 144.881 273.129C144.241 273.514 143.984 274.155 143.6 274.924C144.369 275.308 145.266 275.693 145.65 276.59C145.779 276.718 146.035 276.846 146.163 276.846C145.779 276.974 145.394 277.102 145.01 277.487C144.753 277.743 144.241 277.615 143.856 277.743C143.472 277.871 143.087 278 142.831 278.512V278.384C142.062 278.768 142.062 279.281 142.318 279.666C142.318 279.794 142.19 279.922 142.19 279.922C141.934 280.435 141.805 280.819 141.677 281.332C141.677 281.332 141.677 281.332 141.549 281.332C141.293 281.716 141.293 281.972 141.677 282.101C141.677 282.229 141.677 282.229 141.677 282.357C141.677 282.613 141.677 282.613 141.805 282.87V282.998L141.677 282.87C141.677 283.254 141.805 283.382 142.062 283.51C142.062 283.639 142.19 283.639 142.318 283.767C142.318 283.895 142.318 284.023 142.446 284.151C142.446 284.151 142.446 284.151 142.318 284.279C142.318 284.92 142.19 285.433 141.805 285.945C141.677 285.945 141.677 285.817 141.549 285.817C138.473 285.689 137.448 286.458 137.063 287.996C136.55 287.996 136.294 288.252 136.038 288.765C135.269 289.406 135.525 290.175 136.038 290.303Z" fill="#D2286F"/>
<path d="M121.17 413.593C120.529 413.337 119.888 413.209 119.248 413.849C118.991 414.618 119.376 415.003 119.888 415.259C120.401 415.516 120.914 415.387 121.426 415.003C121.811 414.618 121.683 413.849 121.17 413.593Z" fill="#D2286F"/>
<path d="M148.855 426.537C148.342 426.537 148.214 426.922 148.214 427.563C148.342 428.203 148.47 428.46 148.855 428.716C149.239 428.844 149.624 428.588 149.88 428.332C150.136 428.075 150.265 427.819 150.393 427.563C150.521 427.435 150.393 427.05 150.264 426.922C150.008 426.409 149.367 426.409 148.855 426.537Z" fill="#D2286F"/>
<path d="M160.005 342.977C160.39 342.592 160.39 341.952 160.134 341.439C159.877 340.926 159.365 340.798 158.98 341.054C158.724 341.183 158.467 341.311 158.083 341.695C158.083 342.592 158.467 342.977 159.108 343.233C159.364 343.233 159.749 343.105 160.005 342.977Z" fill="#D2286F"/>
<path d="M121.042 329.904C121.555 329.776 121.811 329.52 122.067 329.136C122.196 328.751 122.196 328.367 121.811 328.11C121.427 327.726 120.914 327.726 120.529 327.982C120.145 328.238 120.017 328.495 120.017 329.007C120.145 329.392 120.529 329.776 121.042 329.904Z" fill="#D2286F"/>
<path d="M110.019 254.803C109.891 254.803 109.891 254.931 109.891 254.931V254.803C109.507 254.803 109.25 254.931 109.25 255.187C109.25 255.571 109.507 255.571 109.891 255.571C109.891 255.7 109.891 255.7 110.019 255.828C110.019 256.212 110.019 256.34 110.148 256.725C110.019 256.725 110.019 256.725 109.891 256.725C109.507 257.366 109.507 257.878 109.507 258.519C109.507 259.416 110.019 259.929 111.173 260.057V260.185C112.198 260.698 113.096 260.57 114.121 260.57C114.121 260.698 114.121 260.826 114.121 261.082C113.993 261.082 113.865 261.082 113.736 261.211C113.224 261.211 112.967 261.082 112.711 261.339C112.455 261.595 112.327 262.108 112.455 262.492C112.711 263.646 114.249 264.799 115.531 264.799C116.043 264.799 116.556 264.158 116.3 263.646C115.915 263.005 115.274 262.364 115.274 261.339C115.403 261.339 115.403 261.339 115.531 261.339C115.787 261.082 115.915 260.954 115.915 260.826C116.043 260.442 116.043 260.057 115.659 259.673C116.812 258.391 116.812 256.853 116.556 255.315C116.428 254.034 113.608 252.496 112.327 252.88C112.07 253.008 111.686 253.136 111.557 253.393C111.429 253.521 111.301 253.649 111.045 253.777V253.649C111.045 253.008 110.66 252.752 109.891 252.624C109.635 252.624 109.507 252.752 109.122 253.008C108.994 253.393 108.866 253.649 108.866 253.777C109.25 254.546 109.635 254.931 110.019 254.803Z" fill="#D2286F"/>
<path d="M172.95 406.416C172.438 406.544 172.181 406.929 172.053 407.441C172.053 407.826 172.181 408.21 172.566 408.467C172.95 408.723 173.335 408.467 173.719 408.21C174.104 407.954 174.36 407.698 174.232 407.057C173.848 406.416 173.463 406.16 172.95 406.416Z" fill="#D2286F"/>
<path d="M114.762 403.469C114.121 403.34 113.48 403.469 113.224 404.366C113.48 405.006 113.865 405.263 114.377 405.391C114.89 405.519 115.403 405.263 115.531 404.75C115.659 404.237 115.274 403.597 114.762 403.469Z" fill="#D2286F"/>
<path d="M88.3589 218.405C88.8716 218.789 89.3843 218.533 89.897 217.764C90.0251 217.636 89.897 217.508 89.897 217.123C89.6406 216.739 89.5125 216.483 89.1279 216.483C88.6153 216.483 88.2308 216.739 87.9744 217.252C87.7181 217.508 87.8463 218.02 88.3589 218.405Z" fill="#D2286F"/>
<path d="M146.548 270.31C147.06 270.438 147.445 270.054 147.573 269.669C147.573 269.541 147.573 269.413 147.573 269.028C147.317 268.516 146.932 268.259 146.548 268.388C146.163 268.516 146.035 268.644 145.907 269.028C145.779 269.669 146.035 270.31 146.548 270.31Z" fill="#D2286F"/>
<path d="M183.332 343.233C182.948 343.105 182.563 343.233 182.179 343.489C181.794 343.618 181.666 344.002 181.666 344.643C181.922 345.156 182.179 345.412 182.691 345.284C183.204 345.156 183.717 344.899 183.845 344.258C183.973 343.874 183.588 343.361 183.332 343.233Z" fill="#D2286F"/>
<path d="M90.666 311.962C90.9223 312.347 91.1786 312.731 91.5632 312.987C92.0758 313.244 92.5885 313.115 92.7167 312.731C92.973 312.347 92.8448 311.962 92.4603 311.706C91.9477 311.321 91.435 311.065 90.7941 310.68C90.7941 311.065 90.666 311.449 90.666 311.962Z" fill="#D2286F"/>
<path d="M165.901 399.367C165.132 399.367 164.491 399.496 163.979 400.136C163.85 400.393 163.979 400.649 164.107 400.777C164.363 400.905 164.491 400.905 165.004 401.033C165.645 401.033 165.901 401.033 166.286 400.649C166.542 400.265 166.414 399.496 165.901 399.367Z" fill="#D2286F"/>
<path d="M102.458 230.324C102.97 230.068 103.227 229.811 103.227 229.299C103.227 228.914 102.97 228.53 102.714 228.273C102.329 228.017 101.945 228.145 101.688 228.53C101.304 229.17 101.432 229.555 102.201 230.324C102.073 230.324 102.201 230.324 102.458 230.324Z" fill="#D2286F"/>
<path d="M135.141 406.288C135.012 406.288 135.012 406.288 134.756 406.416C134.372 406.801 134.372 407.057 134.5 407.313C134.628 407.57 134.884 407.826 135.141 407.826C135.525 407.954 136.166 407.57 136.166 407.185C136.55 406.673 136.166 406.288 135.141 406.288Z" fill="#D2286F"/>
<path d="M122.708 285.177C123.477 285.177 123.862 284.792 123.605 283.895C122.324 283.767 122.067 284.023 122.067 284.664C122.196 284.92 122.452 285.305 122.708 285.177Z" fill="#D2286F"/>
<path d="M157.057 421.667C156.673 422.052 156.673 422.564 156.929 422.949C157.186 423.333 157.698 423.333 158.211 422.949C158.339 422.821 158.467 422.564 158.467 422.18C158.339 421.924 158.211 421.795 158.083 421.667C157.826 421.411 157.442 421.411 157.057 421.667Z" fill="#D2286F"/>
<path d="M163.466 407.57C162.953 408.21 163.081 408.595 164.363 408.723C164.876 407.954 164.491 407.441 164.363 406.673C164.107 407.057 163.722 407.313 163.466 407.57Z" fill="#D2286F"/>
<path d="M189.741 354.255C189.228 354.511 189.228 355.024 189.484 355.408C189.741 355.793 190.125 355.921 190.638 355.665C191.022 355.152 191.022 354.768 190.766 354.511C190.51 354.255 190.253 354.127 189.741 354.255Z" fill="#D2286F"/>
<path d="M101.817 238.014C102.073 237.885 102.329 237.629 102.329 237.373C102.329 236.988 102.073 236.86 101.56 236.604C101.304 236.604 101.048 236.732 100.919 236.732C100.535 236.988 100.407 237.373 100.663 237.757C100.919 238.142 101.432 238.142 101.817 238.014Z" fill="#D2286F"/>
<path d="M101.432 305.682C101.817 305.682 102.073 305.554 102.201 305.298C102.329 305.041 102.201 304.657 102.073 304.401C101.945 304.272 101.688 304.144 101.304 304.144C100.791 304.401 100.663 304.785 100.791 305.17C100.791 305.426 101.048 305.682 101.432 305.682Z" fill="#D2286F"/>
<path d="M100.535 334.518C100.407 334.262 100.279 334.134 100.15 334.006C99.6378 333.749 99.1251 333.877 98.9969 334.262C98.8688 334.646 98.9969 335.031 99.3815 335.287C99.8941 335.8 100.15 335.544 100.535 334.518Z" fill="#D2286F"/>
<path d="M180.897 372.71C181.025 372.582 181.153 372.326 181.153 371.941C180.897 371.428 180.512 371.3 180.128 371.557C179.743 371.813 179.615 372.197 179.872 372.582C180.256 372.838 180.512 372.966 180.897 372.71Z" fill="#D2286F"/>
<path d="M83.4885 246.985C83.6167 246.857 83.6167 246.6 83.6167 246.344C83.4885 245.959 83.2322 245.703 82.7195 245.831C82.4632 245.959 82.335 246.088 82.2068 246.344C82.335 246.728 82.335 246.985 82.5913 247.113C82.8477 247.497 83.2322 247.369 83.4885 246.985Z" fill="#D2286F"/>
<path d="M162.056 412.44C161.672 412.44 161.415 412.696 161.415 412.952C161.415 413.081 161.543 413.337 161.672 413.593C161.928 413.849 162.184 413.849 162.569 413.593C162.825 413.465 162.953 413.209 162.825 412.696C162.441 412.44 162.312 412.44 162.056 412.44Z" fill="#D2286F"/>
<path d="M102.201 232.118C101.945 231.99 101.688 232.118 101.688 232.374C101.56 232.887 101.817 233.143 102.201 233.272C102.201 233.272 102.329 233.272 102.586 233.143C102.714 232.631 102.714 232.374 102.201 232.118Z" fill="#D2286F"/>
<path d="M186.28 272.232C185.255 272.104 185.126 271.976 185.383 271.079C185.511 270.31 185.126 270.566 184.87 270.566C184.742 270.566 184.486 270.438 184.486 270.31C183.973 268.772 182.691 268.772 181.41 268.9C180.897 268.9 180.256 268.9 179.743 268.772C179.487 269.413 179.231 269.797 178.974 270.182C178.205 271.463 178.333 272.873 179.615 273.898C180.769 274.796 181.666 275.564 181.922 277.102C182.05 277.743 182.563 278.256 183.204 278.384C184.486 278.768 185.511 279.409 186.408 280.306C186.664 280.563 187.177 280.563 187.177 280.05C187.305 279.153 187.818 278.64 188.202 277.871C188.715 276.718 188.972 275.821 188.459 274.411C188.074 273.001 187.562 272.36 186.28 272.232Z" fill="#D2286F"/>
<path d="M179.615 268.388C179.615 268.388 179.615 268.388 179.615 268.259C180.256 267.619 180.769 267.106 180.897 266.465C181.025 265.824 181.41 265.568 181.922 265.312C182.691 264.927 182.691 264.799 181.794 264.158C181.41 263.902 181.153 263.774 181.153 263.261C181.153 262.62 180.769 262.364 180.128 262.108C179.231 261.851 178.462 262.108 177.821 262.364C176.795 262.748 175.514 262.492 174.745 263.389C175.001 264.543 175.257 265.696 175.514 266.85C175.642 267.747 176.539 267.875 177.052 268.259C177.564 268.644 178.077 268.772 178.59 268.388C178.974 268.003 179.359 268.003 179.615 268.388Z" fill="#D2286F"/>
<path d="M229.088 236.732C228.448 236.732 227.807 236.732 227.294 237.245C226.781 237.629 226.525 238.27 225.756 238.526C225.5 238.911 225.628 239.167 225.756 239.295C226.653 239.808 226.781 240.449 226.269 241.346C226.012 241.986 225.884 242.627 226.14 243.268C226.14 243.524 226.397 243.653 226.653 243.653C227.422 243.524 228.191 243.524 228.96 243.268C229.473 243.14 229.986 242.755 229.986 242.115C230.114 240.961 230.37 239.68 230.498 238.526C230.626 237.501 230.114 236.86 229.088 236.732Z" fill="#D2286F"/>
<path d="M70.0308 289.278C71.0561 289.149 72.0815 289.021 72.5942 287.612C72.5942 286.33 71.8251 285.561 71.4406 284.536C71.3125 284.151 70.4153 284.151 70.159 284.536C69.6463 285.433 69.1336 286.33 68.7491 287.227C68.4928 288.124 69.2618 289.406 70.0308 289.278Z" fill="#D2286F"/>
<path d="M89.3843 270.823C89.6406 271.463 90.1533 271.976 90.7941 272.489C91.435 271.848 91.8195 271.079 92.973 270.823C93.742 270.182 93.4857 269.669 93.2293 269.028C92.8448 268.516 92.3322 268.388 91.8195 268.516C91.3068 268.644 90.9223 268.644 90.4096 268.772C89.3843 269.285 88.9998 270.054 89.3843 270.823Z" fill="#D2286F"/>
<path d="M44.5252 296.839C44.397 296.711 44.2688 296.711 43.8843 296.583C43.3716 296.455 42.9871 296.326 42.859 296.711C42.6026 297.608 42.3463 298.505 41.7055 299.274C41.1928 299.787 41.4491 300.428 41.9618 300.94C42.09 301.068 42.2181 301.068 42.3463 301.197C42.2181 301.325 42.2181 301.453 42.09 301.581C41.8336 302.094 41.7055 302.606 41.4491 303.247C41.9618 303.503 42.6026 303.503 43.2435 303.632C43.628 303.632 44.0125 303.503 44.397 303.247C45.0378 302.863 45.2942 302.478 45.0378 301.837C44.7815 301.068 44.2688 300.684 43.628 300.684C43.8843 300.428 44.0125 300.299 44.2688 300.043C45.935 298.633 45.935 298.121 44.5252 296.839Z" fill="#D2286F"/>
<path d="M58.6237 276.462C59.5209 276.077 59.9054 275.308 59.6491 274.283C59.3928 273.514 58.7519 273.001 57.8547 273.001C57.2139 273.001 56.8294 273.258 56.3167 273.898C55.804 274.924 55.9322 275.821 56.7012 276.462C57.2139 277.102 57.9829 276.846 58.6237 276.462Z" fill="#D2286F"/>
<path d="M190.638 302.734C191.535 302.734 192.048 302.606 192.432 301.837C192.56 301.453 192.56 301.068 192.688 300.428C192.56 299.274 191.663 299.018 190.894 298.89C190.638 298.89 190.253 299.018 189.997 299.274C189.356 299.915 189.1 300.556 189.356 301.453C189.484 302.222 189.997 302.734 190.638 302.734Z" fill="#D2286F"/>
<path d="M148.214 311.321C148.598 310.809 148.855 310.296 149.111 309.655C149.239 309.271 149.239 308.886 149.111 308.502C148.855 307.733 148.598 307.476 147.957 307.476C147.06 307.476 146.548 307.861 146.419 308.63C146.291 309.271 146.419 309.783 146.932 310.168C147.188 310.68 147.573 310.937 148.214 311.321Z" fill="#D2286F"/>
<path d="M73.6195 303.76C73.8758 303.632 74.1322 303.632 74.5167 303.503C74.9012 303.375 75.1575 303.375 75.4139 303.247C76.5674 302.734 76.6956 302.35 76.3111 301.197C76.1829 300.812 76.0547 300.428 75.7984 300.043C75.542 299.53 74.9012 299.53 74.3885 299.915C73.3632 300.812 73.3632 302.222 73.1068 303.375C73.1068 303.76 73.3632 303.888 73.6195 303.76Z" fill="#D2286F"/>
<path d="M176.667 251.855C177.564 252.239 178.205 251.855 178.846 251.086C179.359 250.061 179.103 249.42 178.333 248.907C177.693 248.523 176.667 248.907 176.155 249.42C175.386 250.317 175.642 251.47 176.667 251.855Z" fill="#D2286F"/>
<path d="M173.463 249.804C174.617 249.804 175.386 249.292 175.514 248.523C175.514 248.266 175.514 247.882 175.257 247.626C175.001 247.113 174.488 246.985 173.719 246.857C172.822 247.113 172.566 247.626 172.31 248.266C172.053 249.163 172.438 249.804 173.463 249.804Z" fill="#D2286F"/>
<path d="M193.457 304.016C193.201 303.888 192.817 303.888 192.56 304.144C191.663 304.785 191.279 305.682 191.022 306.707C190.894 307.22 191.407 307.605 191.919 307.476C192.304 307.348 192.56 307.092 193.073 306.836C193.714 306.195 193.97 305.682 193.97 305.041C194.098 304.529 193.842 304.144 193.457 304.016Z" fill="#D2286F"/>
<path d="M255.107 241.73C254.85 241.089 254.081 240.705 253.312 240.705C252.8 240.705 252.415 241.218 252.287 242.115C252.287 242.499 252.415 242.884 252.8 243.268C253.056 243.396 253.184 243.524 253.44 243.524C253.953 243.781 254.594 243.781 254.978 243.396C255.491 242.884 255.363 242.243 255.107 241.73Z" fill="#D2286F"/>
<path d="M38.6294 309.399C39.2702 309.014 39.3984 308.245 38.8857 307.092C38.3731 306.836 37.9886 306.707 37.604 306.964C36.835 307.348 36.4505 308.374 36.835 309.014C37.0914 309.399 37.9886 309.655 38.6294 309.399Z" fill="#D2286F"/>
<path d="M242.29 269.925C241.905 270.438 241.777 271.079 241.905 271.72C242.033 272.104 242.162 272.489 242.802 272.489C243.443 272.232 243.828 271.976 244.212 271.72C244.853 271.207 244.853 270.438 244.212 269.925C243.571 269.413 242.674 269.413 242.29 269.925Z" fill="#D2286F"/>
<path d="M69.3899 304.144C70.2871 303.632 70.4153 303.119 69.5181 301.837C68.8773 301.709 68.3646 301.837 68.1082 302.222C67.5956 302.734 67.5956 303.632 68.1082 304.144C68.4928 304.529 68.8773 304.401 69.3899 304.144Z" fill="#D2286F"/>
<path d="M251.902 253.136C251.518 254.803 251.646 255.059 252.928 255.315C253.569 255.443 254.081 255.443 254.722 255.443C253.953 253.136 253.953 253.136 251.902 253.136Z" fill="#D2286F"/>
<path d="M205.89 290.944C206.531 290.687 206.402 290.047 206.402 289.406C205.505 288.765 204.864 288.637 204.352 289.278C204.095 289.534 203.967 290.047 204.224 290.431C204.608 290.816 205.377 291.072 205.89 290.944Z" fill="#D2286F"/>
<path d="M113.865 324.265C113.865 325.034 114.505 325.419 115.274 325.034C116.043 324.65 116.043 324.137 115.146 323.112C114.121 322.984 113.865 323.496 113.865 324.265Z" fill="#D2286F"/>
<path d="M103.867 283.51C104.252 282.998 104.124 282.357 103.739 281.973C103.355 281.588 102.842 281.588 102.201 281.844C101.56 282.613 101.817 283.126 102.329 283.639C102.842 284.023 103.611 284.023 103.867 283.51Z" fill="#D2286F"/>
<path d="M220.117 327.213C219.732 327.726 219.476 328.367 219.86 329.136C220.629 329.648 221.014 329.392 221.398 328.879C221.783 328.367 221.783 327.854 221.526 327.341C221.142 326.7 220.501 326.7 220.117 327.213Z" fill="#D2286F"/>
<path d="M240.624 302.094C240.495 301.966 240.111 301.966 239.983 301.966C239.47 302.222 239.342 302.734 239.214 303.375C239.214 303.888 239.47 304.016 240.111 304.272C240.752 304.272 241.136 304.272 241.264 303.888C241.521 303.503 241.393 303.119 241.136 302.734C241.008 302.478 240.88 302.222 240.624 302.094Z" fill="#D2286F"/>
<path d="M158.98 274.283C159.877 274.539 160.39 274.283 160.646 273.642C160.774 273.386 160.774 273.001 160.646 272.745C160.39 272.36 159.749 272.104 159.236 272.232C158.724 272.36 158.467 272.745 158.595 273.258C158.595 273.642 158.724 273.898 158.98 274.283Z" fill="#D2286F"/>
<path d="M138.857 307.348C138.857 306.836 138.729 306.451 138.345 306.195C137.96 305.938 137.576 305.938 137.191 306.067C136.679 306.323 136.55 306.836 136.679 307.348C136.807 307.733 137.063 307.989 137.448 308.117C138.088 308.245 138.473 307.989 138.857 307.348Z" fill="#D2286F"/>
<path d="M62.2125 301.068C62.9815 301.068 63.366 300.684 63.2378 300.043C63.2378 299.53 62.9815 299.146 62.3406 299.018C61.828 298.89 61.3153 299.146 61.1871 299.915C61.1871 300.171 61.3153 300.428 61.4435 300.684C61.6998 300.94 61.9561 301.068 62.2125 301.068Z" fill="#D2286F"/>
<path d="M226.269 274.027C225.628 274.283 225.243 274.539 225.243 275.18C225.243 275.693 225.5 276.077 226.012 276.333C226.397 276.462 226.781 276.333 227.166 276.077C227.422 275.693 227.422 275.308 227.166 274.924C227.038 274.539 226.91 274.155 226.269 274.027Z" fill="#D2286F"/>
<path d="M209.222 332.724C209.863 332.596 210.248 332.34 210.504 331.827C210.76 331.442 210.632 330.802 210.248 330.545C209.863 330.289 209.094 330.417 208.838 330.93C208.581 331.571 208.453 332.211 209.222 332.724Z" fill="#D2286F"/>
<path d="M22.6083 312.731C23.121 312.218 22.9928 311.706 22.3519 311.065C22.2238 310.937 22.0956 310.937 21.7111 310.937C21.1984 311.065 20.9421 311.193 20.8139 311.578C20.6858 312.09 20.9421 312.475 21.1984 312.859C21.7111 313.244 22.2238 313.115 22.6083 312.731Z" fill="#D2286F"/>
<path d="M85.5392 268.772C86.1801 269.028 86.8209 269.028 86.9491 268.516C87.2054 268.003 86.9491 267.619 86.5646 267.362C86.4364 267.234 86.3082 267.234 85.9237 267.234C85.411 267.362 85.0265 267.619 85.0265 268.131C85.0265 268.388 85.1547 268.644 85.5392 268.772Z" fill="#D2286F"/>
<path d="M167.311 251.983C167.824 251.855 168.208 251.599 168.208 251.214C168.208 250.701 168.08 250.189 167.439 249.804C167.183 249.676 166.542 249.804 166.414 250.061C166.286 250.445 166.286 250.83 166.286 251.214C166.542 251.727 166.798 251.983 167.311 251.983Z" fill="#D2286F"/>
<path d="M216.912 280.306C216.656 280.947 216.656 281.716 217.169 282.357C217.297 282.485 217.681 282.485 217.81 282.357C217.938 282.229 218.066 281.972 218.194 281.588C218.322 281.075 218.322 280.691 218.066 280.306C217.81 279.794 217.04 279.922 216.912 280.306Z" fill="#D2286F"/>
<path d="M217.553 310.809C217.04 310.552 216.528 310.809 216.271 311.706C216.271 311.834 216.271 311.834 216.4 312.09C216.656 312.475 216.912 312.731 217.297 312.603C217.553 312.475 217.81 312.347 218.066 312.09C218.194 311.706 217.938 311.065 217.553 310.809Z" fill="#D2286F"/>
<path d="M70.7998 296.967C70.7998 296.839 70.7998 296.839 70.7998 296.711C70.6716 296.455 70.5435 296.326 70.4153 296.198C70.0308 295.942 69.5181 295.814 69.1336 296.198C68.7491 296.711 68.7491 297.224 69.2618 297.608C69.5181 297.864 69.9026 297.993 70.159 297.993C70.159 298.121 70.159 298.249 70.159 298.377C70.0308 298.89 69.9026 299.146 70.0308 299.53C70.2871 299.915 70.6716 300.043 71.0561 300.043C72.2096 300.043 73.7477 298.762 74.004 297.608C74.1322 297.095 73.6195 296.455 72.9787 296.583C72.466 296.711 71.8251 297.095 70.7998 296.967Z" fill="#D2286F"/>
<path d="M95.0237 295.686C95.4082 295.686 95.6646 295.558 95.7927 295.301C95.9209 294.66 95.6646 294.148 94.7674 294.02C94.2547 295.173 94.3829 295.557 95.0237 295.686Z" fill="#D2286F"/>
<path d="M237.291 292.866C237.035 292.994 236.779 292.994 236.65 293.122C236.266 293.379 236.138 293.763 236.394 294.148C236.65 294.532 237.163 294.789 237.676 294.532C238.06 294.404 238.188 293.891 237.932 293.251C237.932 293.122 237.676 292.994 237.291 292.866Z" fill="#D2286F"/>
<path d="M223.705 283.51C223.962 283.895 224.09 284.279 224.346 284.664C224.859 285.433 225.243 285.177 225.628 284.023C225.115 283.254 224.346 283.639 223.705 283.51Z" fill="#D2286F"/>
<path d="M179.872 246.985C180.256 246.857 180.512 246.472 180.384 245.959C180 245.447 179.615 245.447 179.231 245.575C178.846 245.703 178.59 246.088 178.718 246.472C178.846 246.985 179.359 247.113 179.872 246.985Z" fill="#D2286F"/>
<path d="M44.397 303.632C44.0125 303.503 43.7562 303.76 43.4998 304.144C43.4998 304.401 43.4998 304.657 43.4998 304.785C43.628 305.17 44.0125 305.426 44.397 305.298C44.7815 305.17 44.9097 304.785 44.9097 304.401C44.9097 304.016 44.6533 303.76 44.397 303.632Z" fill="#D2286F"/>
<path d="M110.404 319.908C110.148 319.652 109.763 319.652 109.507 319.908C109.379 320.036 109.25 320.292 108.994 320.549C109.122 321.19 109.379 321.318 109.891 321.318C110.276 321.318 110.532 321.061 110.66 320.805C110.66 320.421 110.66 320.164 110.404 319.908Z" fill="#D2286F"/>
<path d="M138.857 329.776C139.37 329.392 139.242 329.007 138.345 328.367C138.088 328.495 137.832 328.495 137.832 328.623C137.448 329.136 137.448 329.648 137.832 329.776C138.217 330.161 138.601 330.033 138.857 329.776Z" fill="#D2286F"/>
<path d="M193.842 258.904C193.329 259.032 193.073 259.288 193.201 259.801C193.329 260.185 193.586 260.442 194.098 260.313C194.611 260.185 194.739 259.801 194.483 259.416C194.355 259.16 194.226 259.16 193.842 258.904Z" fill="#D2286F"/>
<path d="M49.2674 325.291C49.6519 325.034 49.6519 324.65 49.3956 324.265C49.2674 324.137 49.0111 324.009 48.7547 324.009C48.3702 324.009 47.9857 324.265 48.1139 324.778C48.1139 325.034 48.2421 325.163 48.4984 325.419C48.8829 325.419 49.1392 325.419 49.2674 325.291Z" fill="#D2286F"/>
<path d="M229.088 286.458C228.832 286.714 228.704 286.843 228.576 287.099C228.448 287.483 228.704 287.74 228.96 287.868C229.088 287.996 229.473 287.868 229.601 287.74C229.857 287.612 229.986 287.227 229.857 286.971C229.729 286.714 229.601 286.458 229.088 286.458Z" fill="#D2286F"/>
<path d="M190.894 295.557C191.022 294.917 190.894 294.66 190.51 294.532C190.125 294.404 189.869 294.66 189.741 294.917C189.612 295.301 189.612 295.686 189.869 295.942C190.253 296.326 190.51 296.07 190.894 295.557Z" fill="#D2286F"/>
<path d="M39.3984 302.606C39.2702 302.863 39.2702 303.119 39.5266 303.247C39.9111 303.503 40.2956 303.375 40.5519 302.991C40.5519 302.991 40.5519 302.863 40.5519 302.606C39.9111 302.222 39.6548 302.222 39.3984 302.606Z" fill="#D2286F"/>
<path d="M101.432 274.411C101.176 274.155 100.919 274.155 100.663 274.411C100.407 274.667 100.663 274.924 101.048 275.18C101.688 275.052 101.817 274.796 101.432 274.411Z" fill="#D2286F"/>
<path d="M91.3068 321.574C90.666 321.446 90.1533 321.318 89.7688 321.19C88.3589 320.805 86.9491 321.446 86.4364 322.727C86.3082 323.112 86.0519 323.625 85.7956 324.009C85.7956 324.009 85.6674 324.009 85.5392 324.009C85.7955 323.496 85.9237 322.856 86.0519 322.087C86.0519 321.446 86.3082 320.805 86.3082 320.164C86.4364 319.652 86.1801 319.267 85.7956 319.011C85.411 318.883 85.0265 318.755 84.5139 318.626C84.5139 318.626 84.5139 318.626 84.5139 318.498C85.0265 318.242 85.2829 317.601 85.0265 317.088C84.8984 316.832 84.7702 316.704 84.3857 316.576C84.5139 316.576 84.642 316.576 84.7702 316.448C86.1801 316.319 87.0772 315.551 87.8463 314.653C88.2308 314.269 88.2308 313.884 87.5899 313.244C87.4618 313.115 87.2054 312.987 86.8209 312.859C86.9491 312.859 86.9491 312.859 87.0772 312.859C87.0772 312.859 87.0772 312.859 87.2054 312.731C87.5899 311.962 87.8463 311.193 87.2054 310.552C87.0772 310.424 86.8209 310.168 86.8209 309.911C86.8209 308.374 85.9237 307.989 84.642 307.989C84.2575 307.989 83.7449 307.861 83.2322 307.861C83.2322 307.861 83.2322 307.861 83.2322 307.733C83.2322 307.605 83.104 307.476 82.9758 307.476V307.348C81.566 306.964 80.2843 307.092 79.0026 307.092C78.3618 307.092 77.8491 307.348 77.7209 307.989C77.2082 309.271 76.4392 310.168 75.4139 311.065C75.1575 311.321 75.1575 311.578 75.0294 312.09C75.0294 312.09 74.9012 312.09 74.9012 311.962C74.3885 313.244 74.9012 314.013 75.6702 314.782C76.4392 315.679 77.2082 316.576 77.9772 317.473C78.3618 317.857 78.3618 318.37 78.3618 318.755C78.3618 319.652 77.7209 320.164 76.9519 319.652C76.1829 319.139 75.4139 319.011 74.3885 319.011C74.3885 318.883 74.3885 318.883 74.3885 318.755C72.2096 317.857 71.5688 320.036 70.2871 320.677C69.5181 321.061 69.7744 321.702 70.0308 322.343C70.1589 322.856 69.9026 322.984 69.6463 323.368C69.2618 324.009 69.3899 324.522 69.9026 324.778C70.7998 325.419 71.8251 325.932 72.7223 326.572C73.7477 327.213 74.9012 327.213 75.9265 326.444C75.9265 326.572 76.0547 326.572 76.0547 326.7C76.9519 326.7 77.8491 326.957 78.1054 326.188C78.6181 325.163 79.3871 325.291 80.2843 325.163C80.2843 325.163 80.2843 325.291 80.4125 325.291C80.9251 325.419 81.1815 325.547 81.4378 325.547C82.0787 325.547 82.5913 325.547 82.9758 325.419C82.9758 325.675 83.104 325.803 83.2322 326.06C82.9758 326.316 82.8477 326.7 82.8477 327.085C82.8477 328.367 82.4632 329.648 81.8223 330.802C81.6941 331.058 81.8223 331.571 82.2068 331.442C83.104 331.314 83.7449 331.699 84.5139 331.827C85.6674 332.083 86.6927 331.955 87.8463 331.186C88.9998 330.417 89.5124 329.776 89.2561 328.495C89.1279 327.469 89.1279 327.341 90.1533 327.213C90.9223 327.213 90.5378 326.829 90.5378 326.572C90.5378 326.444 90.5378 326.188 90.666 326.188C91.9477 325.291 91.6913 324.009 91.1786 322.856C91.435 322.599 91.3068 322.087 91.3068 321.574Z" fill="#D2286F"/>
<path d="M97.8434 320.421C97.8434 319.523 97.4589 318.883 96.9462 318.242C96.3054 317.345 96.1772 316.063 95.1519 315.551C94.1265 316.063 93.1012 316.704 91.9477 317.217C91.1786 317.601 91.3068 318.37 91.0505 319.011C90.7941 319.652 90.9223 320.164 91.435 320.549C91.8195 320.805 91.9477 321.19 91.5632 321.574C91.5632 321.574 91.5631 321.574 91.6913 321.574C92.4603 322.087 93.1012 322.343 93.8702 322.343C94.511 322.343 94.8955 322.599 95.2801 323.112C95.9209 323.753 96.0491 323.625 96.3054 322.727C96.4336 322.343 96.5617 321.959 96.9462 321.959C97.7153 321.574 97.8434 321.061 97.8434 320.421Z" fill="#D2286F"/>
<path d="M134.243 362.201C135.269 362.073 135.781 361.304 135.525 360.278C135.397 359.638 135.141 359.125 134.5 358.741C133.987 358.356 133.218 358.356 132.834 357.587C132.449 357.459 132.193 357.587 132.193 357.843C131.936 358.869 131.296 359.125 130.398 358.869C129.757 358.741 129.117 358.869 128.476 359.253C128.219 359.381 128.091 359.638 128.219 359.894C128.476 360.663 128.86 361.432 129.245 362.073C129.501 362.585 130.014 362.842 130.655 362.842C131.808 362.585 133.09 362.457 134.243 362.201Z" fill="#D2286F"/>
<path d="M43.628 223.916C44.9097 223.531 45.4223 222.634 46.1914 221.993C46.5759 221.737 46.3195 220.84 45.935 220.84C44.9097 220.584 43.8843 220.327 42.859 220.199C41.9618 220.071 40.9364 221.224 41.3209 221.865C41.7055 222.891 42.2181 223.788 43.628 223.916Z" fill="#D2286F"/>
<path d="M65.2885 238.782C66.0575 239.295 66.5702 239.039 67.0829 238.526C67.5956 238.014 67.4674 237.501 67.0829 236.988C66.8266 236.604 66.6984 236.091 66.442 235.707C65.9294 234.938 65.1604 234.809 64.3913 235.322C63.7505 235.707 63.4942 236.347 63.1097 237.116C63.8787 237.501 64.7759 237.885 65.2885 238.782Z" fill="#D2286F"/>
<path d="M23.121 199.565C23.5055 199.822 23.89 199.95 24.1463 200.078C25.8125 201.231 26.3252 201.103 27.2224 199.309C27.3505 199.181 27.3505 199.053 27.3505 198.668C27.3505 198.156 27.3505 197.771 26.966 197.771C25.9407 197.899 25.1717 197.771 24.2745 197.387C23.6336 197.002 22.9928 197.387 22.7365 198.156C22.3519 198.668 22.4801 199.181 23.121 199.565Z" fill="#D2286F"/>
<path d="M52.8561 207.768C53.497 207.383 53.8815 206.486 53.497 205.717C53.3688 205.204 52.9843 204.82 52.2153 204.435C51.0618 204.179 50.2928 204.564 49.9083 205.461C49.5238 206.23 49.9083 206.871 50.4209 207.383C51.1899 208.152 51.959 208.28 52.8561 207.768Z" fill="#D2286F"/>
<path d="M6.58718 288.381C5.94633 288.381 5.30549 288.509 4.79281 289.149C4.53647 290.303 4.92098 290.944 5.68999 291.456C6.33084 291.841 7.09985 291.841 7.7407 291.713C8.63788 291.456 8.89422 291.072 8.76605 290.175C8.50971 288.637 8.1252 288.381 6.58718 288.381Z" fill="#D2286F"/>
<path d="M62.8533 342.977C63.2378 342.977 63.6223 342.977 64.2632 342.849C65.4167 342.336 65.2885 341.567 65.1604 340.798C65.1604 340.542 64.904 340.157 64.6477 340.029C63.8787 339.645 63.1097 339.516 62.3406 340.029C61.6998 340.414 61.3153 340.926 61.4435 341.567C61.6998 342.464 61.9561 342.849 62.8533 342.977Z" fill="#D2286F"/>
<path d="M32.221 229.042C31.0674 228.273 29.7857 228.658 28.5041 228.786C28.2477 228.786 28.2477 229.17 28.3759 229.427C28.5041 229.683 28.6322 229.811 28.8886 230.196C29.1449 230.58 29.1449 230.837 29.2731 230.965C30.1702 231.99 30.5548 231.99 31.4519 231.349C31.8364 231.093 32.0928 230.837 32.3491 230.58C32.99 229.939 32.7336 229.427 32.221 229.042Z" fill="#D2286F"/>
<path d="M109.891 314.91C110.019 314.141 109.507 313.372 108.738 312.987C107.841 312.475 106.687 313.115 106.559 314.141C106.431 315.166 106.943 315.679 107.969 316.063C108.994 316.319 109.635 315.935 109.891 314.91Z" fill="#D2286F"/>
<path d="M108.866 309.014C107.841 308.886 107.456 309.527 107.712 310.552C108.097 311.578 108.738 312.218 109.507 312.09C109.763 312.09 110.148 311.834 110.276 311.706C110.66 311.321 110.66 310.68 110.532 310.04C110.148 309.143 109.507 309.014 108.866 309.014Z" fill="#D2286F"/>
<path d="M60.2899 345.412C60.6744 345.284 61.059 345.027 61.059 344.643C61.059 344.258 60.9308 344.002 60.6744 343.746C59.7773 342.977 58.8801 342.849 57.7266 342.977C57.2139 342.977 56.9576 343.618 57.2139 344.13C57.4702 344.515 57.7266 344.643 58.2392 345.027C59.1364 345.412 59.6491 345.54 60.2899 345.412Z" fill="#D2286F"/>
<path d="M13.5083 195.208C12.9956 195.721 12.9956 196.618 13.5083 197.13C14.021 197.643 14.79 197.643 15.8153 196.746C15.9435 196.105 15.9435 195.721 15.6872 195.464C15.0463 194.823 14.021 194.695 13.5083 195.208Z" fill="#D2286F"/>
<path d="M107.2 382.194C106.559 381.938 105.918 382.066 105.405 382.322C105.021 382.45 104.765 382.707 104.893 383.347C105.277 383.86 105.662 384.244 106.046 384.501C106.687 385.013 107.456 384.757 107.841 383.988C108.097 383.347 107.841 382.45 107.2 382.194Z" fill="#D2286F"/>
<path d="M28.3759 223.403C27.735 223.019 26.966 223.275 26.5815 223.916C26.3252 224.429 26.5815 224.813 26.8379 225.197C27.6069 225.966 28.1196 225.838 29.1449 224.685C29.1449 224.044 28.8886 223.66 28.3759 223.403Z" fill="#D2286F"/>
<path d="M124.246 388.346C124.374 388.986 124.503 389.499 124.631 390.14C126.681 388.73 126.681 388.73 126.169 386.808C124.246 386.808 124.118 387.064 124.246 388.346Z" fill="#D2286F"/>
<path d="M78.7463 352.973C79.1308 351.82 79.0026 351.307 78.3618 350.923C77.9772 350.795 77.5927 350.795 77.3364 351.179C76.9519 351.692 76.8237 352.461 77.2082 352.973C77.5927 353.614 78.1054 353.358 78.7463 352.973Z" fill="#D2286F"/>
<path d="M19.7886 273.514C19.0196 273.77 18.8914 274.411 19.4041 275.052C19.9167 275.693 20.4294 275.564 21.1984 274.411C21.0703 273.514 20.4294 273.386 19.7886 273.514Z" fill="#D2286F"/>
<path d="M57.5984 252.239C57.8547 251.727 57.7266 251.342 57.3421 250.83C56.4449 250.445 55.9322 250.83 55.6759 251.47C55.4195 251.983 55.6759 252.752 56.1885 252.88C56.7012 253.008 57.3421 252.752 57.5984 252.239Z" fill="#D2286F"/>
<path d="M46.0632 376.555C45.4224 376.427 44.7815 376.299 44.1407 376.939C43.8843 377.836 44.2688 378.093 44.9097 378.349C45.4223 378.477 46.0632 378.477 46.4477 377.965C46.8322 377.452 46.704 376.811 46.0632 376.555Z" fill="#D2286F"/>
<path d="M81.3096 304.657C81.566 304.657 81.9505 304.657 82.2068 304.401C82.5913 304.016 82.5913 303.375 82.335 302.863C82.0787 302.35 81.566 302.35 81.0533 302.478C80.797 302.606 80.5406 302.863 80.1561 303.119C80.1561 304.144 80.5406 304.529 81.3096 304.657Z" fill="#D2286F"/>
<path d="M41.8336 291.969C41.9618 292.482 42.2181 292.738 42.859 292.994C43.3717 292.866 43.628 292.61 43.8843 292.225C44.0125 291.841 44.0125 291.456 43.628 291.2C43.2435 290.816 42.7308 290.816 42.3463 291.072C41.9618 291.2 41.7054 291.456 41.8336 291.969Z" fill="#D2286F"/>
<path d="M29.1449 218.277C29.6576 218.149 29.9139 217.764 29.9139 217.252C29.9139 216.611 29.5294 216.354 28.7604 216.354C28.5041 216.354 28.3759 216.483 27.9914 216.739C27.8632 217.123 27.735 217.38 27.8632 217.636C28.1196 218.277 28.6322 218.533 29.1449 218.277Z" fill="#D2286F"/>
<path d="M97.3308 369.378C97.7153 369.634 98.0998 369.378 98.4843 369.122C98.8688 368.865 99.1251 368.609 98.9969 367.968C98.6124 367.455 98.2279 367.199 97.7153 367.327C97.2026 367.455 96.9462 367.84 96.8181 368.353C96.6899 368.737 96.9462 369.122 97.3308 369.378Z" fill="#D2286F"/>
<path d="M39.2702 366.686C38.6294 366.686 37.9886 366.686 37.7322 367.584C37.9886 368.224 38.3731 368.481 38.8857 368.481C39.3984 368.609 39.9111 368.224 40.0393 367.84C40.2956 367.455 39.9111 366.815 39.2702 366.686Z" fill="#D2286F"/>
<path d="M5.81816 182.648C6.33084 183.033 6.84351 182.776 7.22802 182.007C7.35619 181.879 7.22802 181.751 7.22802 181.367C7.09985 180.982 6.84351 180.726 6.45901 180.726C5.94633 180.726 5.56182 181.11 5.30549 181.495C5.04915 181.879 5.30549 182.52 5.81816 182.648Z" fill="#D2286F"/>
<path d="M6.0745 282.998C6.58717 282.741 6.71534 281.973 6.58718 281.46C6.45901 281.204 6.20267 280.947 5.81816 280.947C5.17732 280.947 4.79281 281.332 4.79281 281.973C4.79281 282.101 4.79281 282.101 4.92098 282.357C5.17732 282.998 5.43366 283.254 6.0745 282.998Z" fill="#D2286F"/>
<path d="M66.0575 232.374C66.5702 232.503 66.9547 232.118 67.0829 231.605C67.0829 231.477 67.0829 231.349 67.0829 230.965C66.6984 230.452 66.442 230.196 66.0575 230.324C65.673 230.452 65.5449 230.708 65.4167 230.965C65.1604 231.734 65.5449 232.374 66.0575 232.374Z" fill="#D2286F"/>
<path d="M106.046 304.785C106.174 304.529 105.79 303.888 105.405 303.888C105.021 303.76 104.636 304.016 104.252 304.144C103.867 304.401 103.739 304.657 103.739 305.298C103.996 305.81 104.38 306.067 104.765 305.938C105.534 305.682 105.918 305.426 106.046 304.785Z" fill="#D2286F"/>
<path d="M13.5083 275.821C12.9956 275.436 12.4829 275.18 11.8421 274.796C11.8421 275.308 11.7139 275.693 11.7139 276.205C11.9703 276.59 12.2266 276.974 12.6111 277.102C13.1238 277.359 13.6365 277.231 13.7646 276.846C14.021 276.333 13.7646 276.077 13.5083 275.821Z" fill="#D2286F"/>
<path d="M90.4096 360.663C89.6406 360.663 88.9998 360.791 88.4871 361.432C88.3589 361.688 88.4871 361.945 88.7434 362.073C88.9998 362.201 89.2561 362.201 89.6406 362.329C90.2815 362.329 90.5378 362.201 90.7941 361.945C91.0505 361.432 90.7941 360.663 90.4096 360.663Z" fill="#D2286F"/>
<path d="M19.9167 194.183C19.9167 194.183 20.0449 194.183 20.3012 194.183C20.8139 193.926 21.0703 193.542 20.9421 193.157C20.9421 192.773 20.6858 192.388 20.3012 192.26C19.9167 192.004 19.5322 192.132 19.2759 192.517C19.0196 193.029 19.1477 193.542 19.9167 194.183Z" fill="#D2286F"/>
<path d="M59.9054 368.609C59.7773 368.609 59.7773 368.609 59.5209 368.737C59.1364 369.122 59.1364 369.378 59.2646 369.762C59.3928 370.019 59.7773 370.275 60.0336 370.275C60.4181 370.403 61.059 370.019 61.059 369.506C61.1871 368.993 60.8026 368.737 59.9054 368.609Z" fill="#D2286F"/>
<path d="M34.2717 224.685C34.3998 224.685 34.3998 224.685 34.528 224.685C34.7843 224.429 34.9125 224.3 34.9125 224.172C35.0407 223.66 35.0407 223.275 34.528 223.019C34.0153 222.762 33.3745 222.891 33.1181 223.531C32.99 223.788 32.99 224.172 32.99 224.557C32.8618 224.557 32.7336 224.685 32.6055 224.685C32.0928 224.685 31.8364 224.685 31.5801 224.941C31.4519 225.197 31.3238 225.582 31.4519 225.966C31.7083 227.12 33.3745 228.145 34.528 228.145C35.0407 228.145 35.5533 227.376 35.297 226.864C34.9125 226.223 34.2717 225.71 34.2717 224.685Z" fill="#D2286F"/>
<path d="M42.7308 248.266C43.4998 248.138 43.8843 247.754 43.628 246.857C42.3463 246.857 42.09 246.985 42.09 247.626C42.2181 248.01 42.3463 248.266 42.7308 248.266Z" fill="#D2286F"/>
<path d="M82.335 383.219C82.2068 383.347 82.0787 383.604 82.0787 383.732C82.0787 383.604 81.9505 383.347 81.9505 383.219C81.8223 382.835 81.9505 382.45 82.0787 382.066C82.335 380.784 81.9505 379.887 80.9251 379.246C80.1561 378.862 79.3871 378.349 78.4899 378.221C77.3364 378.093 76.3111 377.708 75.6702 376.683C75.542 376.555 75.4139 376.555 75.2857 376.555C75.0294 376.555 75.0294 376.811 75.0294 377.067C75.1575 378.605 75.1575 378.605 73.8758 378.734C73.235 378.734 72.5942 378.734 71.9533 378.862C72.0815 379.246 72.2096 379.374 72.3378 379.631C72.9787 380.528 72.9787 380.656 72.2096 381.169C71.8251 381.425 71.3125 381.553 71.0561 382.194C71.4406 382.835 72.0815 383.604 71.8251 384.501C71.5688 385.654 72.3378 386.423 72.9787 387.32C73.4913 387.961 74.004 388.217 74.6449 388.346H74.5167C74.004 388.474 73.8758 388.858 73.8758 389.371C74.004 389.884 74.1322 390.268 74.5167 390.396C74.9012 390.524 75.2857 390.268 75.542 390.012C75.7984 389.755 75.9265 389.499 76.0547 389.243C76.1829 389.115 76.0547 388.73 75.9265 388.602C75.6702 388.346 75.542 388.217 75.2857 388.217C75.4139 388.217 75.542 388.217 75.7984 388.089C76.5674 387.833 77.3364 387.833 78.1054 388.089C79.1308 388.346 80.1561 388.346 81.0533 387.961C81.0533 386.167 80.9251 386.167 81.566 385.398C81.9505 385.013 82.2068 384.501 82.2068 384.116C82.2068 384.244 82.335 384.373 82.335 384.373C82.5913 384.757 83.104 384.629 83.6167 384.244C83.7448 384.116 83.7449 383.86 83.873 383.475C83.7449 383.219 83.6167 383.091 83.4885 382.963C83.104 382.963 82.7195 382.963 82.335 383.219Z" fill="#D2286F"/>
<path d="M88.2308 368.865C87.7181 369.506 87.9744 369.891 89.1279 370.019C89.6406 369.25 89.1279 368.737 89.1279 367.968C88.7434 368.353 88.4871 368.609 88.2308 368.865Z" fill="#D2286F"/>
<path d="M112.455 314.653C111.942 314.91 111.942 315.422 112.198 315.807C112.455 316.191 112.839 316.191 113.352 316.063C113.736 315.551 113.608 315.166 113.352 314.91C113.224 314.525 112.839 314.397 112.455 314.653Z" fill="#D2286F"/>
<path d="M19.9167 201.872C20.1731 201.744 20.4294 201.488 20.4294 201.103C20.4294 200.719 20.1731 200.591 19.6604 200.463C19.4041 200.463 19.1477 200.591 19.0196 200.591C18.6351 200.847 18.5069 201.231 18.7632 201.616C19.1477 202 19.5322 202 19.9167 201.872Z" fill="#D2286F"/>
<path d="M37.604 302.734C37.8604 303.119 38.2449 303.247 38.6294 302.991C38.8857 302.863 39.0139 302.606 39.0139 302.094C38.7576 301.837 38.6294 301.581 38.5012 301.453C38.2449 301.325 37.8604 301.325 37.7322 301.581C37.604 301.197 37.3477 300.94 36.9632 300.812C36.5787 300.684 36.1942 300.812 35.9379 301.068C35.6815 301.325 35.5533 301.837 35.9379 302.094C36.4505 302.606 36.835 302.606 37.604 302.094C37.3477 302.478 37.4759 302.606 37.604 302.734Z" fill="#D2286F"/>
<path d="M22.2238 269.541C22.6083 269.541 22.8646 269.413 22.9928 269.156C23.121 268.772 22.9928 268.516 22.7365 268.259C22.6083 268.131 22.3519 268.003 21.9674 268.003C21.4548 268.259 21.3266 268.644 21.4548 269.028C21.5829 269.285 21.8393 269.413 22.2238 269.541Z" fill="#D2286F"/>
<path d="M20.9421 298.249C20.8139 298.633 20.9421 299.018 21.3266 299.274C21.8393 299.659 22.2238 299.53 22.4801 298.377C22.3519 298.121 22.2238 297.993 22.0956 297.864C21.5829 297.736 21.0703 297.864 20.9421 298.249Z" fill="#D2286F"/>
<path d="M103.483 332.211C103.098 332.468 102.97 332.852 103.227 333.237C103.483 333.621 103.867 333.749 104.252 333.365C104.38 333.237 104.508 332.98 104.508 332.596C104.252 332.083 103.867 331.955 103.483 332.211Z" fill="#D2286F"/>
<path d="M1.20408 210.459C0.947744 210.587 0.819575 210.715 0.691406 211.1C0.819575 211.484 0.947744 211.612 1.07591 211.741C1.46042 211.997 1.84493 211.869 2.10126 211.484C2.22943 211.356 2.22943 210.972 2.22943 210.844C1.9731 210.459 1.71676 210.331 1.20408 210.459Z" fill="#D2286F"/>
<path d="M86.9491 373.735C86.5646 373.735 86.3082 373.992 86.3082 374.248C86.3082 374.376 86.4364 374.632 86.5646 374.889C86.8209 375.145 87.2054 375.017 87.4617 374.889C87.7181 374.761 87.8463 374.504 87.7181 373.992C87.4617 373.863 87.2054 373.735 86.9491 373.735Z" fill="#D2286F"/>
<path d="M19.6604 196.233C19.5322 196.746 19.7886 197.002 20.1731 197.13C20.3012 197.13 20.3012 197.13 20.5576 197.002C20.8139 196.49 20.6858 196.105 20.3012 195.977C19.9167 195.977 19.6604 195.977 19.6604 196.233Z" fill="#D2286F"/>
<path d="M63.366 247.882C63.6223 248.394 64.0068 248.394 64.2632 248.01C64.3913 247.754 64.2632 247.369 64.0068 247.241C63.6223 247.113 63.4942 247.369 63.366 247.882Z" fill="#D2286F"/>
<path d="M161.543 374.248C161.287 374.376 160.903 374.248 160.39 374.376C159.364 374.376 158.98 375.017 158.339 375.53C158.083 375.786 157.442 375.914 157.57 376.299C157.698 376.939 158.211 376.427 158.595 376.427C158.852 376.427 158.98 376.555 158.98 376.811C158.98 377.196 158.98 377.452 159.236 377.708C159.621 378.093 159.877 378.477 159.365 378.862C158.98 379.118 158.595 378.99 158.211 378.734C157.955 378.605 157.826 378.477 157.57 378.349C157.186 378.221 156.801 378.477 156.801 378.862C156.673 379.631 156.801 380.4 157.442 380.784C158.595 381.425 159.108 382.963 160.774 382.578C160.903 382.578 161.159 382.707 161.415 382.963C162.184 383.604 163.081 383.475 163.979 383.219C164.876 382.963 165.517 382.322 165.645 381.425C165.645 381.297 165.773 381.169 165.901 381.04C166.542 380.271 166.67 379.503 166.286 378.605C166.029 378.093 166.157 377.452 166.542 377.067C166.798 376.683 166.798 376.299 166.414 376.042C165.132 374.761 163.594 373.735 161.543 374.248Z" fill="#D2286F"/>
<path d="M117.325 391.293C116.684 390.909 116.172 390.396 115.403 389.884C114.505 389.755 113.736 389.755 113.096 389.755C112.583 389.755 112.198 390.012 111.942 390.524C111.814 391.037 111.429 391.55 111.045 391.934C110.66 392.319 110.532 392.959 110.532 393.472C110.404 395.523 112.198 397.573 113.993 397.829C115.146 398.086 116.3 398.214 117.325 397.701C118.094 397.317 117.966 396.292 118.479 395.651C119.119 394.882 118.735 393.728 118.735 392.831C118.479 392.19 117.838 391.806 117.325 391.293Z" fill="#D2286F"/>
<path d="M163.081 345.796C163.21 345.925 163.21 346.053 163.21 346.181C163.979 347.462 164.876 348.231 166.414 348.231C167.952 348.231 168.977 347.847 169.234 346.309C170.772 345.284 170.003 344.13 169.362 342.977C168.849 342.208 168.208 341.567 167.439 340.798C167.311 340.67 166.926 340.542 166.798 340.67C166.029 340.926 165.26 340.926 164.363 341.054C163.979 341.054 163.722 341.439 163.466 341.823C163.338 342.08 163.21 342.336 162.953 342.849C162.697 343.233 162.697 343.489 162.569 343.618C162.441 344.387 162.312 345.156 163.081 345.796Z" fill="#D2286F"/>
<path d="M131.039 349.129C131.296 349.385 131.68 349.513 131.936 349.385C132.962 348.616 134.243 348.872 135.397 348.616C135.781 348.488 136.038 348.36 136.166 347.847C136.294 347.847 136.294 347.847 136.422 347.847C136.55 347.462 136.679 347.206 136.55 346.822C136.679 346.822 136.679 346.822 136.807 346.822C136.935 346.565 137.063 346.309 137.063 346.053C137.191 346.053 137.319 345.925 137.319 345.925C137.96 345.412 138.345 345.027 138.345 344.258C138.345 343.618 138.345 342.977 138.345 342.336C138.473 341.439 138.088 340.798 137.448 340.285C137.448 340.157 137.448 340.029 137.448 339.901C137.319 339.004 136.935 338.619 136.038 338.491C136.038 338.491 136.166 338.491 136.166 338.363C135.269 337.21 134.115 336.953 132.962 336.697C131.808 336.441 130.783 336.697 130.014 337.722C129.886 337.979 129.757 338.107 129.629 338.363C129.501 338.363 129.373 338.491 129.245 338.491C128.604 338.619 128.476 339.004 128.348 339.516L128.219 339.388C128.091 339.516 127.963 339.516 127.707 339.645C127.45 339.388 127.194 339.26 126.681 339.26C125.272 339.132 124.887 339.388 124.503 340.798C124.374 341.439 124.374 342.08 124.759 342.849C125.4 343.233 126.041 343.233 126.553 343.105C126.681 343.746 126.81 344.515 127.066 345.156C127.45 346.309 128.091 347.334 129.373 347.719C130.014 348.103 130.526 348.616 131.039 349.129Z" fill="#D2286F"/>
<path d="M154.494 372.197C153.853 371.941 153.212 371.557 152.572 371.813C152.443 371.685 152.443 371.685 152.315 371.557C151.674 371.428 151.162 371.428 150.521 371.428C150.521 371.3 150.521 371.3 150.521 371.172C149.752 370.147 148.726 369.506 147.573 369.122C147.573 369.122 147.573 369.122 147.445 369.122V368.993C146.419 368.993 145.779 368.993 145.01 368.481C144.112 367.84 143.856 368.096 143.087 368.993C142.959 369.122 142.831 369.378 142.831 369.506C142.703 369.506 142.703 369.506 142.574 369.506C141.677 369.506 140.908 369.378 140.78 370.403H140.652C139.883 370.659 139.626 371.3 139.626 372.069L139.498 371.941C139.498 371.941 139.37 371.813 139.242 371.941C138.601 372.069 138.217 372.197 138.088 372.838L137.96 372.966C137.96 372.966 137.96 372.966 137.832 373.095C137.832 373.095 137.832 373.223 137.704 373.223V373.095C137.448 373.223 137.448 373.351 137.448 373.479C137.319 373.479 137.319 373.607 137.191 373.607C136.807 374.12 136.55 374.504 136.294 375.017H136.166C136.038 375.145 136.038 375.401 136.166 375.53C136.038 375.53 136.038 375.53 135.91 375.658C135.525 376.299 135.653 376.811 135.91 377.452C136.294 378.477 136.55 379.631 136.679 380.912C136.55 380.912 136.55 380.912 136.422 380.912C136.422 381.04 136.294 381.04 136.294 381.169C135.653 380.784 134.884 380.784 134.115 380.784C133.603 380.784 133.346 381.425 133.603 381.809C133.859 382.194 134.115 382.45 134.5 382.835C135.269 383.219 135.781 383.347 136.422 383.219C136.807 383.091 137.191 382.835 137.191 382.45V382.322C137.96 382.578 138.345 383.219 138.857 383.86C138.986 384.116 139.242 384.373 139.498 384.629L139.37 384.757C139.114 385.27 138.857 385.526 138.473 385.142L138.345 385.013V384.885C138.217 384.373 137.576 384.116 136.679 384.244C136.422 384.244 136.166 384.373 136.038 384.629C135.141 384.629 134.243 385.142 133.474 384.373C133.09 383.86 132.449 384.244 131.936 384.629C131.424 385.142 131.039 385.654 131.296 386.551C131.167 386.551 131.039 386.551 131.039 386.551C129.886 386.936 129.886 386.936 130.142 387.961C130.014 388.089 130.014 388.089 129.886 388.217C129.886 388.858 129.757 389.371 129.886 390.012C129.886 390.012 129.757 390.012 129.757 390.14C129.757 391.037 129.886 391.678 130.014 392.319C130.014 392.319 129.886 392.447 129.886 392.575C130.014 392.959 130.142 393.344 130.398 393.472C131.039 393.856 131.296 394.497 131.424 395.394C131.424 395.394 131.424 395.394 131.552 395.394H131.424C132.834 396.42 134.243 396.163 135.653 395.907C135.781 396.035 135.781 396.035 135.91 396.163C136.935 396.932 137.448 396.035 138.088 395.523C138.217 395.523 138.217 395.651 138.345 395.651C140.78 396.163 141.036 393.856 142.318 392.959C142.574 392.831 142.446 392.319 142.318 392.062C141.805 391.55 141.805 391.037 142.062 390.268C142.19 389.884 142.19 389.371 142.19 388.73H142.318C142.703 388.089 142.19 387.961 141.805 387.961L141.677 387.833C141.677 387.833 141.677 387.833 141.549 387.705C141.549 387.705 141.677 387.705 141.677 387.577C141.549 387.192 141.421 386.936 141.421 386.68C141.165 385.782 141.165 385.654 142.318 385.013C142.318 385.142 142.318 385.27 142.446 385.27C142.959 385.654 143.343 386.039 143.856 386.423H143.728C144.497 387.32 144.753 387.32 145.01 386.423C145.138 386.423 145.266 386.295 145.394 386.167C145.65 385.911 145.779 385.654 145.779 385.27C145.907 385.27 146.035 385.27 146.163 385.27C147.445 385.27 148.47 385.27 149.495 385.142C150.264 385.142 150.393 385.013 150.521 383.988C150.521 383.86 150.649 383.86 150.649 383.732C150.649 383.732 150.649 383.732 150.777 383.604V383.732C151.418 383.604 151.546 383.219 151.418 382.835C151.418 382.707 151.546 382.707 151.546 382.578C151.674 382.322 151.674 382.066 151.803 381.809H151.931V381.938C152.443 381.809 152.7 381.809 152.956 381.553C153.084 381.553 153.212 381.425 153.212 381.425C153.469 381.297 153.597 381.169 153.725 380.912C153.725 380.912 153.725 380.912 153.725 380.784V380.912C154.366 380.528 154.366 380.015 154.366 379.631C154.366 378.862 154.238 378.093 154.75 377.58C155.263 376.939 155.391 376.17 155.391 375.273C155.391 374.889 155.391 374.504 155.519 374.12C155.648 373.735 156.16 373.479 155.904 373.095C155.263 372.838 154.879 372.326 154.494 372.197ZM141.934 385.013C141.934 384.885 142.062 384.885 141.934 385.013C142.062 385.013 142.062 385.013 141.934 385.013ZM143.343 384.501C143.343 384.629 143.343 384.629 143.343 384.501V384.501ZM147.701 376.427C147.701 376.299 147.701 376.17 147.701 376.17C147.701 376.17 147.701 376.17 147.701 376.299V376.427ZM148.086 375.658C148.086 375.53 148.086 375.53 148.086 375.658C148.086 375.53 148.214 375.53 148.086 375.658Z" fill="#D2286F"/>
<path d="M156.545 355.024C156.032 354.511 155.776 354.896 155.391 355.152C153.981 356.434 153.725 357.843 154.622 359.638C156.032 361.047 157.57 361.304 159.365 361.047C159.749 361.047 159.877 360.663 159.877 360.278C159.877 359.381 160.262 358.612 160.646 357.715C160.774 357.459 160.903 357.203 160.774 357.074C160.646 356.306 160.005 355.793 159.493 355.152C159.236 354.768 158.724 354.896 158.339 354.896C157.698 355.024 157.057 355.665 156.545 355.024Z" fill="#D2286F"/>
<path d="M115.403 274.411C114.505 274.027 113.736 273.001 112.583 273.258C112.327 273.386 111.942 273.514 111.686 273.642C111.429 273.898 111.173 274.155 110.788 274.411C109.763 275.308 109.763 276.205 110.148 277.487C110.532 278.768 111.429 279.537 112.583 279.794C113.352 279.922 114.121 279.794 115.018 279.794C115.659 279.666 115.659 279.153 115.787 278.512C115.915 277.615 116.3 276.974 116.3 276.205C116.172 275.564 116.043 274.667 115.403 274.411Z" fill="#D2286F"/>
<path d="M95.9209 234.938C96.1772 235.066 96.4336 235.322 96.6899 235.45C97.0744 235.707 97.4589 235.707 97.8434 235.578C98.3561 235.322 98.8688 235.194 99.3815 235.066C100.279 234.681 100.791 233.784 100.663 232.887C100.535 231.605 100.279 230.196 98.8688 229.427C98.6124 229.299 98.4843 229.17 98.0998 229.042C97.5871 228.786 97.3307 228.786 97.0744 228.914C96.5617 229.299 96.0491 229.811 95.5364 230.068C94.7674 230.452 94.6392 231.093 94.511 231.862C94.2547 233.272 94.6392 234.425 95.9209 234.938Z" fill="#D2286F"/>
<path d="M122.452 331.699C122.452 331.571 122.452 331.571 122.452 331.699C122.196 330.802 121.683 330.93 121.17 331.058C121.042 331.058 121.042 330.93 120.914 330.93C120.145 330.673 119.504 330.033 118.991 330.161C117.838 330.417 116.3 330.033 115.403 330.93C115.018 330.673 114.634 330.673 114.377 330.93C113.865 331.314 113.48 331.699 112.967 332.211C113.352 332.34 113.608 332.468 113.865 332.596C113.096 333.493 112.967 334.646 112.967 335.928C112.967 337.466 112.967 337.594 114.89 338.235C114.89 338.235 114.89 338.363 114.762 338.363C114.89 338.876 115.018 339.26 115.403 339.388C115.403 339.516 115.403 339.516 115.531 339.645C115.787 339.901 116.043 340.029 116.428 340.029C116.684 340.285 116.941 340.67 117.325 340.798C117.453 341.054 117.71 341.183 117.966 341.311C118.094 341.311 118.094 341.311 118.35 341.311C118.607 341.183 118.863 341.183 118.991 341.054C119.632 341.054 120.273 340.798 120.914 340.542C121.042 340.542 121.17 340.542 121.426 340.67C121.811 340.67 122.196 340.542 122.58 340.285C123.221 339.901 123.477 339.516 123.349 339.004C123.349 338.748 123.221 338.619 123.093 338.491C123.349 337.979 123.734 337.466 123.99 336.953C124.374 336.312 124.374 335.8 124.118 335.159C123.605 333.749 123.093 332.724 122.452 331.699ZM119.248 334.775C119.119 334.646 119.119 334.646 119.119 334.646C119.248 334.646 119.248 334.775 119.248 334.775Z" fill="#D2286F"/>
<path d="M66.442 358.356C64.7758 358.356 63.2378 358.356 61.6998 358.356C60.4181 358.356 59.6491 359.125 59.6491 360.535C59.6491 360.791 59.6491 361.047 59.6491 361.304C59.6491 362.585 60.6744 363.995 61.828 364.123C62.9815 364.251 64.6477 363.354 65.1604 362.329C65.4167 361.816 65.2885 361.304 65.1604 360.663C64.904 359.638 65.0322 359.51 66.1857 359.253C66.442 359.253 66.6984 359.253 66.9547 359.125C67.3392 358.997 67.5956 358.869 67.3392 358.484C67.2111 358.484 66.8266 358.484 66.442 358.356Z" fill="#D2286F"/>
<path d="M101.304 261.467C101.176 261.979 101.176 262.62 101.432 263.133C101.688 263.517 102.073 263.517 102.458 263.774C102.97 264.158 103.483 264.543 104.124 264.927C105.021 264.158 106.046 263.902 106.815 263.133C107.328 262.62 107.456 261.979 107.584 261.339C107.712 261.467 107.841 261.723 107.969 261.851C108.61 262.62 109.25 262.62 110.276 261.339C110.276 260.698 110.019 260.313 109.507 260.057C108.994 259.673 108.097 259.929 107.584 260.57C107.584 260.698 107.456 260.698 107.456 260.826C107.328 260.313 107.072 260.057 106.559 259.801C106.174 259.673 106.046 259.16 105.79 259.032C104.893 258.263 103.098 258.263 102.586 259.16C101.945 259.673 101.432 260.442 101.304 261.467Z" fill="#D2286F"/>
<path d="M74.2604 336.056C75.0294 335.672 75.0294 335.415 74.2604 335.287C74.2604 335.159 74.2604 335.159 74.1322 335.031C74.1322 335.031 74.1322 335.031 74.004 335.031L74.1322 334.903C74.1322 334.775 74.1322 334.646 74.004 334.518H74.1322C73.8758 333.621 73.235 333.237 72.5942 332.724C72.5942 332.724 72.7223 332.596 72.5942 332.468C72.2096 331.699 71.5688 331.699 71.0561 331.699C69.9026 331.827 68.8773 331.571 68.1082 330.545C67.9801 330.417 67.5956 330.289 67.2111 330.289C67.2111 330.161 67.2111 330.161 67.2111 330.033C66.9547 329.648 66.8266 329.392 66.6984 329.007C66.6984 329.007 66.6984 329.007 66.6984 328.879H66.8266C66.8266 328.11 66.5702 327.726 66.0575 327.726C65.9294 327.598 65.9294 327.469 65.8012 327.469C65.673 327.085 65.5449 326.829 65.4167 326.7C63.6223 325.803 61.9561 325.803 60.2899 327.085C59.9054 327.469 59.3928 327.854 59.0083 328.11C57.9829 328.879 57.7266 330.033 58.1111 331.186C58.6237 332.468 58.8801 334.006 60.0336 335.159H59.9054C60.4181 336.056 61.1871 335.8 61.6998 335.672C61.828 335.672 61.9561 335.8 61.9561 335.8C62.3406 335.8 62.4688 335.8 62.8533 335.8V335.928C63.6223 336.312 63.8787 335.928 64.0068 335.415C64.135 335.415 64.135 335.287 64.2632 335.287C64.2632 335.287 64.2632 335.287 64.3913 335.159V335.287C65.8012 335.031 65.8012 335.031 66.1857 336.184C66.442 336.825 66.8266 337.21 67.4674 337.21C67.4674 337.338 67.4674 337.338 67.4674 337.466C67.4674 337.85 67.5956 338.107 67.7237 338.235C67.5956 338.363 67.5956 338.363 67.5956 338.491C67.3392 339.004 67.7237 339.132 68.2364 339.388C68.7491 339.388 69.0054 339.26 69.1336 339.004C70.159 339.26 71.0561 339.132 71.9533 338.748C73.3632 338.491 74.1322 337.594 74.2604 336.056Z" fill="#D2286F"/>
<path d="M102.073 379.246C102.073 379.118 102.073 379.118 102.073 378.99C101.56 378.605 101.176 378.734 100.663 378.862V378.734C99.8941 378.605 99.5096 378.862 99.5096 379.374C99.3815 379.374 99.2533 379.503 99.1251 379.503C98.7406 379.503 98.6124 379.631 98.3561 379.759C98.3561 379.759 98.3561 379.759 98.3561 379.887C98.3561 379.759 98.2279 379.759 98.2279 379.631C97.0744 380.015 97.3307 381.04 97.0744 381.681C96.6899 382.835 96.9463 383.219 97.8434 383.86C98.3561 384.116 98.7406 384.501 99.2533 384.757C99.6378 385.013 100.15 385.013 100.663 385.142C101.048 385.27 101.176 386.039 101.945 385.911C102.201 385.27 102.201 384.244 103.098 383.86C104.38 383.219 104.124 381.938 103.996 380.912C103.996 380.015 103.355 379.374 102.073 379.246Z" fill="#D2286F"/>
<path d="M27.6069 380.015C27.2224 378.734 26.8379 378.477 25.6843 378.349C24.7872 378.221 23.89 378.349 23.121 378.862C22.3519 379.374 21.9674 380.015 21.9674 380.912C21.9674 382.45 23.5055 383.732 25.1717 383.988C25.2998 383.988 25.428 383.86 25.8125 383.732C26.4534 383.219 26.8379 382.835 27.2224 382.578C27.9914 382.066 28.2477 381.553 27.8632 380.784C27.735 380.4 27.6069 380.143 27.6069 380.015Z" fill="#D2286F"/>
<path d="M48.2421 365.277C48.3702 364.38 48.6266 363.611 48.6266 362.714C48.6266 362.457 48.2421 362.329 47.8576 362.329C47.8576 362.201 47.8576 362.201 47.8576 362.073C47.6012 361.432 47.3449 361.047 46.8322 360.919C46.1914 360.791 45.5505 360.663 45.0378 360.407C43.628 359.894 42.859 360.278 42.3463 361.56C42.09 362.201 41.9618 362.842 41.7055 363.354C41.0646 365.02 41.0646 365.02 42.3463 366.174C42.7308 366.43 42.9871 366.943 43.628 366.943H43.7562L43.628 367.071C44.397 367.071 45.166 367.327 45.5505 366.815C45.6787 366.815 45.8069 366.686 45.8069 366.686C45.8069 366.686 45.8069 366.686 45.935 366.558V366.686C46.1914 366.558 46.4477 366.43 46.5759 366.43C46.704 366.43 46.704 366.43 46.8322 366.302C46.8322 366.302 46.8322 366.302 46.8322 366.174H46.9604C47.7294 365.918 48.1139 365.789 48.2421 365.277Z" fill="#D2286F"/>
<path d="M85.6674 373.735C85.5392 373.095 85.0265 372.838 84.3857 372.966C83.6167 373.095 83.104 373.735 82.2068 373.992C80.6688 374.248 80.4125 375.914 81.566 376.811C82.0787 377.324 82.7195 377.708 83.4885 378.093C86.3082 377.58 86.3082 377.452 85.9237 374.889C85.6674 374.504 85.6674 374.12 85.6674 373.735Z" fill="#D2286F"/>
<path d="M72.0815 315.166C71.9533 313.115 70.6716 311.962 68.6209 312.09C67.0829 312.09 66.0575 312.987 65.8012 314.525C65.673 315.038 65.8012 315.422 65.9294 316.063L65.8012 316.191C65.8012 317.473 66.1857 318.498 67.4674 318.755C68.4928 319.011 69.6463 319.011 70.7998 318.626C71.8251 318.242 72.3378 317.601 71.9533 316.448C71.9533 316.319 72.0815 316.319 72.0815 316.191C72.0815 315.551 72.0815 315.294 72.0815 315.166Z" fill="#D2286F"/>
<path d="M116.556 267.234C116.684 266.209 116.172 265.568 115.146 265.44C114.89 265.44 114.505 265.44 114.121 265.44C113.736 265.44 113.352 265.568 113.224 265.824C113.096 265.696 113.096 265.568 112.967 265.568C111.814 264.799 110.532 265.055 109.25 265.184C108.994 265.184 108.994 265.568 109.122 265.824C109.25 266.081 109.379 266.209 109.635 266.593C109.763 266.978 109.891 267.234 110.019 267.362C110.917 268.388 111.301 268.388 112.198 267.747C112.327 267.619 112.455 267.49 112.711 267.362C112.711 267.619 112.583 267.747 112.583 268.003C112.455 268.516 112.839 268.9 113.224 269.413C113.993 269.797 114.505 269.413 115.018 269.413C115.787 269.413 116.172 269.028 116.3 268.259C116.428 267.875 116.556 267.619 116.556 267.234Z" fill="#D2286F"/>
<path d="M55.1632 359.51C54.0097 359.381 52.728 358.869 51.959 360.407C51.8308 361.432 51.8308 362.201 52.8561 362.585C53.497 362.842 54.1378 362.842 54.7787 362.585C55.2914 362.457 55.6759 362.073 55.6759 361.688C55.804 361.047 55.9322 360.278 55.4195 359.638C55.2914 359.638 55.1632 359.51 55.1632 359.51Z" fill="#D2286F"/>
<path d="M160.134 289.79C159.108 290.559 159.493 291.328 160.005 292.097C160.134 292.097 160.134 292.097 160.262 292.097C160.134 292.097 160.005 292.225 159.877 292.225C159.749 293.763 160.39 294.532 161.415 295.045C162.569 295.557 163.85 295.429 165.132 295.173C165.26 295.173 165.517 294.917 165.645 294.66C165.901 294.276 166.029 293.763 166.414 293.379C167.567 292.097 166.798 290.816 166.414 289.534C166.029 288.252 165.004 287.868 163.722 287.868C163.338 287.612 163.081 287.612 162.953 287.868C162.825 287.868 162.825 287.868 162.697 287.996C162.697 287.996 162.697 287.996 162.569 288.124V287.996C161.928 287.996 161.415 288.124 161.287 288.893V288.765C161.031 288.893 160.774 289.149 160.646 289.278C160.39 289.534 160.262 289.662 160.134 289.79Z" fill="#D2286F"/>
<path d="M49.2674 368.224C49.0111 368.224 48.8829 368.609 48.7547 368.993C47.8576 369.25 47.8576 369.762 47.7294 370.403L47.6012 370.275C46.704 371.172 46.704 371.3 47.7294 371.813C47.7294 371.941 47.7294 371.941 47.7294 372.069C47.7294 372.069 47.7294 372.197 47.8576 372.197L47.7294 372.326C48.3702 373.479 49.3956 373.735 50.5491 373.607C51.0618 373.607 51.4463 373.351 51.7026 372.838C52.2153 371.685 52.2153 370.531 52.0871 369.122H52.2153C51.4463 368.353 50.4209 368.224 49.2674 368.224Z" fill="#D2286F"/>
<path d="M71.0561 378.093C70.928 378.349 71.0561 378.477 71.3125 378.605C71.4406 378.605 71.5688 378.734 71.697 378.734C71.697 378.734 71.697 378.734 71.697 378.605C71.697 378.349 71.697 378.349 71.5688 378.221C71.4406 377.965 71.1843 377.836 71.0561 378.093Z" fill="#D2286F"/>
<path d="M163.338 331.058C163.85 330.93 164.491 330.673 164.491 330.033C164.619 329.904 164.748 329.904 164.748 329.776C165.26 329.392 165.517 329.007 165.517 328.495C165.517 328.11 165.132 327.726 165.26 327.341C165.901 325.547 165.388 324.009 164.235 322.599C164.107 322.471 164.107 322.343 164.107 322.215C163.85 321.702 163.338 321.83 162.697 321.959V321.83C162.441 321.446 162.312 321.318 162.312 321.061C161.8 320.164 161.543 320.164 161.031 321.061C160.903 321.061 160.774 321.19 160.646 321.19C159.621 321.19 158.852 321.19 158.083 321.318C157.442 321.318 157.057 321.574 157.057 322.215C156.929 322.215 156.801 322.215 156.801 322.343C155.519 322.856 155.519 322.856 155.007 321.959C155.007 321.83 155.135 321.83 155.135 321.702C155.263 321.061 155.648 320.677 156.16 320.292C156.16 320.292 156.16 320.421 156.288 320.421C156.929 319.908 156.929 319.78 156.16 319.652C156.16 319.523 156.032 319.395 156.032 319.267C155.007 318.37 154.366 317.473 154.11 316.191C153.981 315.807 153.725 315.679 153.212 315.551C153.212 315.422 153.212 315.422 153.212 315.294C152.828 314.91 152.572 314.653 152.187 314.397C152.187 314.397 152.187 314.397 152.315 314.397C152.059 313.884 151.803 313.628 151.418 313.884C151.29 313.884 151.29 313.756 151.162 313.756C150.265 313.5 150.136 312.475 149.367 312.346C149.367 312.346 149.367 312.218 149.239 312.218C148.342 312.218 147.573 312.09 147.06 311.578C146.548 311.193 146.035 311.193 145.522 311.578C144.369 312.346 143.343 313.244 142.062 313.756C141.677 313.884 141.421 314.269 141.421 314.653C141.421 315.807 140.908 316.576 140.395 317.473C140.011 317.986 139.883 318.626 139.883 319.267C139.883 319.908 139.883 320.549 140.011 321.318H139.883C139.883 321.574 140.011 321.83 140.267 321.959V322.087C140.78 322.727 141.421 323.112 141.549 323.881C141.677 324.522 142.19 324.906 142.959 324.906V325.034C143.215 325.163 143.343 325.291 143.472 325.547C143.6 325.675 143.728 325.803 143.728 325.803C143.728 325.932 143.856 325.932 143.856 326.06C144.241 327.341 145.266 327.469 146.035 327.854C146.932 328.238 147.829 328.238 148.855 327.854C149.239 327.598 149.624 327.341 150.264 327.085C150.264 327.085 150.265 327.213 150.393 327.213C151.162 327.341 151.803 327.341 152.443 327.341C153.084 327.341 153.212 327.213 153.212 326.316C153.212 325.547 153.469 324.906 154.11 324.394V324.522C155.007 324.522 155.391 324.906 155.648 325.547C155.648 325.675 155.519 325.675 155.519 325.803C155.519 327.085 155.519 328.11 155.519 329.136C155.519 330.033 155.904 330.673 156.801 330.93C158.595 331.571 160.262 332.724 162.184 331.442C162.184 331.058 162.825 331.186 163.338 331.058ZM158.852 327.085C158.852 326.957 158.724 326.829 158.724 326.829L158.852 326.957C158.852 326.957 158.852 326.957 158.98 326.957L158.852 327.085Z" fill="#D2286F"/>
<path d="M149.495 294.148C148.983 294.789 148.598 295.686 148.726 296.583C148.855 297.736 148.855 299.018 149.495 300.043C150.136 301.068 149.752 301.837 150.008 302.734C149.88 302.734 149.88 302.863 149.752 302.863C149.624 303.503 149.624 303.888 149.495 304.529V304.401C148.983 305.041 148.855 305.17 149.624 305.298C149.624 305.426 149.752 305.554 149.752 305.682C150.008 306.451 150.136 307.092 150.264 307.733C150.393 307.989 150.393 308.374 150.649 308.63C151.674 309.527 152.828 310.04 154.11 310.168C155.263 310.168 156.545 310.04 157.314 309.014C157.698 308.502 158.211 308.502 158.467 309.014C159.108 310.168 159.749 311.449 160.39 312.603C160.903 313.628 161.287 313.756 162.184 313.372C162.569 313.244 162.953 312.731 163.21 312.987C164.491 313.628 165.773 312.731 166.926 312.731C167.183 312.731 167.439 312.603 167.567 312.475C168.593 311.193 169.618 309.911 169.874 308.374C170.131 307.092 170.003 305.682 170.131 304.144C170.131 304.144 170.131 304.144 170.131 304.272C170.772 303.632 170.772 303.503 170.003 303.503C170.003 303.375 169.874 303.375 169.874 303.247C169.874 303.247 169.874 303.247 169.746 303.119H169.874C169.746 302.478 169.618 301.966 168.977 301.966C168.08 301.837 167.695 301.325 167.311 300.556C166.286 297.993 163.722 298.121 162.312 299.402C161.415 300.171 160.39 300.684 159.493 301.325C158.98 301.709 158.339 301.709 158.083 302.478C157.955 302.734 157.698 302.606 157.442 302.478C157.186 302.35 156.929 302.094 156.673 301.966C156.417 301.837 156.288 301.453 156.417 301.325C157.442 300.428 156.801 298.762 157.826 297.864C158.083 297.608 157.955 297.095 157.955 296.711C157.955 296.711 158.083 296.711 158.083 296.583C158.083 296.455 158.083 296.326 158.083 296.326L158.211 296.198C158.467 295.301 157.698 295.045 157.442 294.532C157.057 293.763 156.801 292.866 156.16 292.225C155.519 291.585 154.238 292.225 153.469 291.585C153.341 291.456 153.212 291.456 152.956 291.456C152.572 291.456 152.059 291.456 151.803 291.713C151.29 292.353 150.264 293.122 149.495 294.148ZM160.134 304.016C160.134 304.144 160.262 304.144 160.262 304.144L160.134 304.016ZM153.341 303.76C153.469 303.632 153.597 303.632 153.725 303.503C153.725 303.632 153.597 303.632 153.469 303.76C153.469 303.76 153.341 303.888 153.341 303.76ZM153.084 307.092C153.212 307.092 153.212 307.092 153.084 307.092C152.956 307.092 152.956 307.092 152.956 307.092C153.084 307.092 153.084 307.092 153.084 307.092Z" fill="#D2286F"/>
</svg>
