<svg width="45" height="45" viewBox="0 0 45 45" fill="none" xmlns="http://www.w3.org/2000/svg"><g clip-path="url(#clip0_2351_1698)" fill="#D2286F"><path d="M14.071 0H1.607C.72 0 0 .7 0 1.56v25.663c0 .37.308.669.689.669.38 0 .688-.3.688-.669V1.56a.23.23 0 01.23-.223H14.07a.23.23 0 01.23.223v36.517c0 3.08-2.582 5.586-5.755 5.586H7.132c-3.173 0-5.755-2.506-5.755-5.586v-8.061a.679.679 0 00-.688-.668.679.679 0 00-.689.668v8.061C0 41.895 3.2 45 7.132 45h1.414c3.933 0 7.132-3.105 7.132-6.923V1.56c0-.86-.72-1.56-1.607-1.56z"/><path d="M8.289 35.694c-1.28-.24-2.523.573-2.771 1.815-.249 1.242.59 2.449 1.87 2.69.151.029.302.043.45.043 1.11 0 2.102-.763 2.32-1.858.25-1.242-.59-2.448-1.869-2.69zm.518 2.435c-.104.519-.623.859-1.157.758a.96.96 0 01-.78-1.123.981.981 0 011.156-.757.96.96 0 01.78 1.122zM14.75 7.858H.688a.679.679 0 00-.689.668c0 .37.308.668.689.668h14.06c.38 0 .689-.299.689-.668a.679.679 0 00-.689-.668zm0 7.857H.688a.68.68 0 00-.689.669c0 .369.308.668.689.668h14.06c.38 0 .689-.3.689-.668a.679.679 0 00-.689-.669zm0 7.858H.688a.679.679 0 00-.689.668c0 .37.308.669.689.669h14.06c.38 0 .689-.3.689-.669a.679.679 0 00-.689-.668zm0 7.857H.688a.68.68 0 00-.689.669c0 .369.308.668.689.668h14.06c.38 0 .689-.3.689-.668a.679.679 0 00-.689-.669z"/><path d="M33.403 8.8a.963.963 0 00-.465-.585L21.586 1.913a1.64 1.64 0 00-1.22-.15 1.59 1.59 0 00-.972.73l-5.003 8.489a.658.658 0 00.256.912.7.7 0 00.94-.248l5.002-8.49a.228.228 0 01.14-.103.235.235 0 01.173.02l11.02 6.118-17.85 30.49a.658.658 0 00.259.912.702.702 0 00.939-.251l18.037-30.81a.934.934 0 00.096-.733z"/><path d="M29.215 15.2L16.77 8.291a.7.7 0 00-.94.249.658.658 0 00.257.912L28.53 16.36a.703.703 0 00.94-.248.658.658 0 00-.256-.912zm-4.019 6.82l-9.865-5.476a.7.7 0 00-.94.249.658.658 0 00.257.912l9.864 5.476a.702.702 0 00.94-.248.658.658 0 00-.256-.912zm-4.019 6.821l-5.846-3.245a.7.7 0 00-.94.249.658.658 0 00.257.912l5.845 3.245a.702.702 0 00.94-.249.658.658 0 00-.256-.912zm-4.02 6.821l-1.79-.994a.7.7 0 00-.94.248.658.658 0 00.256.912l1.79.994a.703.703 0 00.94-.248.658.658 0 00-.256-.912zm27.719-10.554l-3.546-6.243a.7.7 0 00-.936-.262.658.658 0 00-.27.908l3.362 5.918-31.018 16.749a.658.658 0 00-.267.909.702.702 0 00.937.26l31.348-16.928a.952.952 0 00.39-1.311zm-4.881-8.593l-1.433-2.522a1.589 1.589 0 00-.961-.744 1.638 1.638 0 00-1.222.131l-9.947 5.325a.658.658 0 00-.27.908.701.701 0 00.936.262l9.946-5.324a.234.234 0 01.174-.018.23.23 0 01.138.105l1.433 2.522a.7.7 0 00.935.263.658.658 0 00.27-.908z"/><path d="M37.952 29.192L31.03 17.007a.7.7 0 00-.936-.263.658.658 0 00-.27.909l6.922 12.185a.702.702 0 00.936.262.658.658 0 00.27-.908zm-7.088 3.795L25.139 22.91a.7.7 0 00-.935-.262.658.658 0 00-.27.908l5.724 10.075a.701.701 0 00.936.263.658.658 0 00.27-.908zm-7.089 3.793l-3.39-5.965a.7.7 0 00-.935-.262.658.658 0 00-.27.908l3.389 5.966a.701.701 0 00.936.262.658.658 0 00.27-.908zm-7.089 3.795l-1.007-1.773a.7.7 0 00-.936-.262.658.658 0 00-.27.908l1.007 1.773a.701.701 0 00.936.263.658.658 0 00.27-.909z"/></g><defs><clipPath id="clip0_2351_1698"><path fill="#fff" d="M0 0h45v45H0z"/></clipPath></defs></svg>