<svg width="45" height="45" viewBox="0 0 45 45" fill="none" xmlns="http://www.w3.org/2000/svg"><g clip-path="url(#clip0_2351_1759)" fill="#D2286F"><path d="M23.862 45H12.946a.664.664 0 01-.659-.66c0-.36.299-.658.66-.658h10.915a.658.658 0 110 1.318zm6.873-19.107h-1.274a.664.664 0 01-.66-.66c0-.36.3-.659.66-.659h1.274c.36 0 .66-.299.66-.659V18.36c0-.36-.3-.659-.66-.659h-16.47c-.36 0-.66.299-.66.66v5.554c0 .36.3.66.66.66h12.12c.36 0 .659.298.659.658 0 .36-.299.66-.66.66h-12.12a1.98 1.98 0 01-1.977-1.978V18.36a1.98 1.98 0 011.978-1.977h16.47a1.98 1.98 0 011.978 1.977v5.555a1.98 1.98 0 01-1.978 1.978z"/><path d="M27.958 36.809a.664.664 0 01-.66-.66v-3.234c0-1.09.74-2.048 1.794-2.338l4.342-1.16a4.618 4.618 0 003.419-4.456v-2.997c0-.844-.695-1.538-1.538-1.538h-3.261a.664.664 0 01-.66-.66c0-.36.3-.659.66-.659h3.26a2.862 2.862 0 012.857 2.857v2.997c0 2.68-1.81 5.036-4.395 5.73l-4.341 1.16a1.1 1.1 0 00-.818 1.064v3.234c0 .37-.29.66-.659.66z"/><path d="M25.233 36.809a.664.664 0 01-.659-.66v-3.304a5.051 5.051 0 013.744-4.878l4.017-1.072a2.419 2.419 0 001.793-2.338v-1.398h-2.074a.664.664 0 01-.66-.659c0-.36.3-.66.66-.66h2.733c.36 0 .66.3.66.66v2.057a3.753 3.753 0 01-2.77 3.612l-4.016 1.072a3.753 3.753 0 00-2.768 3.612v3.305c0 .36-.3.65-.66.65z"/><path d="M29.33 45h-5.46a.664.664 0 01-.66-.66v-2.1c0-.36.3-.659.66-.659.36 0 .66.299.66.66v1.44h4.139v-6.213c0-.36-.299-.66-.66-.66h-2.82c-.36 0-.66.3-.66.66v1.696c0 .36-.299.66-.659.66a.664.664 0 01-.66-.66v-1.696a1.98 1.98 0 011.979-1.978h2.82a1.98 1.98 0 011.978 1.978v6.873c0 .36-.299.659-.659.659zm-3.42-22.588c-1.063 0-1.635-.413-2.092-.738-.395-.281-.676-.492-1.318-.492s-.923.202-1.318.492c-.457.334-1.029.738-2.092.738-1.064 0-1.635-.413-2.092-.738-.396-.281-.677-.492-1.318-.492a.664.664 0 01-.66-.66c0-.36.3-.659.66-.659 1.063 0 1.634.413 2.091.739.396.28.677.492 1.319.492.641 0 .923-.202 1.318-.492.457-.334 1.028-.739 2.092-.739s1.635.413 2.092.739c.395.28.677.492 1.318.492.642 0 .923-.202 1.319-.492.457-.326 1.028-.739 2.091-.739.36 0 .66.3.66.66 0 .36-.3.659-.66.659-.641 0-.922.202-1.318.492-.457.325-1.02.738-2.092.738z"/><path d="M42.144 45H29.329a.664.664 0 01-.66-.66c0-.36.3-.658.66-.658h12.815c.843 0 1.538-.695 1.538-1.538V2.856c0-.843-.695-1.538-1.538-1.538h-10.09a.664.664 0 01-.66-.659c0-.36.3-.659.66-.659h10.09A2.862 2.862 0 0145 2.856v39.288A2.862 2.862 0 0142.144 45zm-25.102-4.096a2.022 2.022 0 01-2.022-2.021V37.52a2.022 2.022 0 014.044 0v1.363a2.022 2.022 0 01-2.022 2.021zm0-4.095a.705.705 0 00-.703.703v1.362c0 .387.316.703.703.703a.705.705 0 00.703-.703v-1.362a.705.705 0 00-.703-.703z"/><path d="M37.538 9.527a.658.658 0 01-.545-.29c-.026-.035-.044-.079-.061-.114A.654.654 0 0136.897 9c-.01-.044-.01-.088-.01-.132 0-.044 0-.088.01-.132a.508.508 0 01.035-.123.473.473 0 01.061-.114.922.922 0 01.08-.097.662.662 0 01.597-.175.504.504 0 01.123.035c.044.017.08.035.114.061.035.027.07.053.097.08a.275.275 0 01.079.096.647.647 0 01.097.237.678.678 0 01.017.132c0 .044 0 .088-.017.132-.01.044-.018.088-.035.123-.018.035-.036.08-.062.114a.9.9 0 01-.08.097c-.026.026-.06.062-.096.08-.035.017-.07.043-.114.06a.647.647 0 01-.123.036.678.678 0 01-.132.017zm2.707 4.078c-.044 0-.088 0-.132-.008a.647.647 0 01-.237-.097.659.659 0 01-.29-.545c0-.044 0-.088.009-.132a.504.504 0 01.035-.123c.017-.035.035-.079.061-.114.027-.035.053-.07.08-.097a.393.393 0 01.096-.079.473.473 0 01.114-.061.654.654 0 01.123-.036.621.621 0 01.255 0 .653.653 0 01.238.097.93.93 0 01.096.08.425.425 0 01.08.096.639.639 0 01.097.237.731.731 0 01.008.132.659.659 0 01-.404.607.646.646 0 01-.123.035c-.018 0-.062.008-.106.008zm-4.095 4.096c-.044 0-.088-.009-.132-.009a.504.504 0 01-.123-.035c-.036-.017-.08-.035-.115-.061-.035-.027-.07-.053-.096-.08-.027-.035-.062-.06-.08-.096a.47.47 0 01-.061-.114.504.504 0 01-.035-.123.677.677 0 01-.018-.132c0-.176.07-.343.194-.466.026-.026.061-.062.096-.08a.473.473 0 01.114-.06.654.654 0 01.124-.036.621.621 0 01.255 0 .653.653 0 01.237.097.658.658 0 01.29.545c0 .044 0 .088-.009.132a.508.508 0 01-.035.123.473.473 0 01-.062.114.92.92 0 01-.079.097.69.69 0 01-.466.184zm0 19.029c-.044 0-.088 0-.132-.01a.504.504 0 01-.123-.035c-.036-.017-.08-.035-.115-.061a.658.658 0 01-.29-.545c0-.044 0-.088.018-.132a.504.504 0 01.035-.123.47.47 0 01.062-.114c.026-.035.052-.07.079-.097a.422.422 0 01.096-.079.647.647 0 01.237-.097.687.687 0 01.598.176.273.273 0 01.08.097.654.654 0 01.105.37c0 .175-.07.342-.194.465a.274.274 0 01-.096.079.646.646 0 01-.237.097c-.036 0-.08.008-.124.008zm4.051-4.052c-.044 0-.088 0-.132-.018a.646.646 0 01-.237-.096c-.035-.027-.07-.053-.097-.08a.435.435 0 01-.079-.096.646.646 0 01-.097-.237c-.008-.045-.017-.089-.017-.132 0-.044.009-.088.018-.132a.453.453 0 01.035-.123.473.473 0 01.061-.115.93.93 0 01.08-.096c.035-.027.06-.062.096-.08a.639.639 0 01.237-.097.621.621 0 01.255.001.64.64 0 01.238.097c.035.026.07.052.096.079a.425.425 0 01.08.096.646.646 0 01.097.237.748.748 0 01.008.133c0 .044 0 .087-.009.131a.538.538 0 01-.035.123.47.47 0 01-.062.115c-.026.035-.052.07-.079.096-.035.035-.061.062-.096.08a.647.647 0 01-.237.097.523.523 0 01-.124.017zm-8.147 2.874c-.044 0-.088 0-.132-.009a.504.504 0 01-.123-.035.472.472 0 01-.114-.062.808.808 0 01-.097-.079.422.422 0 01-.08-.096.646.646 0 01-.097-.237c-.008-.045-.008-.089-.008-.133 0-.044 0-.088.01-.132a.496.496 0 01.034-.122c.018-.036.035-.08.062-.115.026-.035.052-.07.079-.096a.398.398 0 01.097-.08.647.647 0 01.237-.097c.21-.043.44.027.598.176a.274.274 0 01.079.097.653.653 0 01.097.237c.008.044.017.088.017.132 0 .176-.07.343-.194.466a.69.69 0 01-.465.185zM12.946 45H2.856A2.862 2.862 0 010 42.144v-31.58c0-.36.299-.659.66-.659.36 0 .658.3.658.66v31.579c0 .843.695 1.538 1.538 1.538h9.431V23.915c0-.36.299-.66.66-.66.36 0 .659.3.659.66v20.426c0 .36-.3.659-.66.659zm19.108-25.98a.664.664 0 01-.66-.66V1.318H2.857c-.843 0-1.538.695-1.538 1.538v4.632c0 .36-.298.66-.659.66A.664.664 0 010 7.487V2.856A2.862 2.862 0 012.856 0h29.198c.36 0 .659.299.659.66v17.7c0 .36-.29.66-.66.66zM17.042 34.084a2.022 2.022 0 01-2.022-2.022v-6.829c0-.36.3-.659.66-.659.36 0 .659.299.659.66v6.828c0 .387.316.704.703.704a.705.705 0 00.703-.703v-2.734a2.022 2.022 0 014.043 0c0 .387.317.703.703.703a.705.705 0 00.703-.703v-4.096c0-.36.3-.659.66-.659.36 0 .659.299.659.66v4.095a2.022 2.022 0 01-4.043 0 .705.705 0 00-.703-.703.705.705 0 00-.703.703v2.733a2.027 2.027 0 01-2.022 2.022z"/></g><defs><clipPath id="clip0_2351_1759"><path fill="#fff" d="M0 0h45v45H0z"/></clipPath></defs></svg>