<svg width="45" height="45" viewBox="0 0 45 45" fill="none" xmlns="http://www.w3.org/2000/svg"><g clip-path="url(#clip0_2351_1753)" fill="#D2286F"><path d="M12.248 9.738c2.63.491 5.987.762 9.455.762s6.826-.271 9.454-.762c3.641-.682 5.41-1.659 5.41-2.988 0-2.96-9.343-3.75-14.864-3.75-5.52 0-14.865.79-14.865 3.75 0 1.33 1.77 2.306 5.41 2.988zM21.703 4.5c8.238 0 13.067 1.47 13.372 2.24-.071.115-.664.863-4.188 1.522-2.543.476-5.804.738-9.184.738-3.38 0-6.641-.262-9.184-.738-3.533-.66-4.121-1.412-4.187-1.503C8.66 5.962 13.484 4.5 21.703 4.5z"/><path d="M44 10.5a.753.753 0 00-.218-.53.74.74 0 00-.525-.22h-2.23v-3c0-4.384-9.956-6.75-19.324-6.75C12.336 0 2.38 2.366 2.38 6.75v3H.15a.74.74 0 00-.525.22.753.753 0 00-.218.53v3.75A22.636 22.636 0 002.38 25.46v12.79c0 4.384 9.956 6.75 19.324 6.75 9.368 0 19.324-2.366 19.324-6.75V25.46A22.636 22.636 0 0044 14.25V10.5zm-28.986 24h13.378V36H15.014v-1.5zm14.828-.938a.74.74 0 00-.707-.562H14.271a.73.73 0 00-.706.563 20.956 20.956 0 01-9.7-8.514V9.448c.73.62 1.725 1.19 2.974 1.7V24.75a4.52 4.52 0 001.306 3.182 4.44 4.44 0 003.153 1.318 4.44 4.44 0 003.153-1.318 4.52 4.52 0 001.306-3.182v-4.5c0-.597.235-1.169.653-1.591a2.22 2.22 0 013.154 0c.418.422.653.994.653 1.591v1.5a4.52 4.52 0 001.306 3.182 4.439 4.439 0 003.153 1.318 4.44 4.44 0 003.153-1.318 4.52 4.52 0 001.306-3.182v-1.5a2.265 2.265 0 01.654-1.59 2.222 2.222 0 011.576-.66 3.704 3.704 0 002.627-1.1 3.771 3.771 0 001.09-2.65v-2.552c1.965-.634 3.46-1.384 4.459-2.226v15.577a20.956 20.956 0 01-9.7 8.514zM21.703 13.5c4.353 0 8.523-.488 11.892-1.373v2.123a2.26 2.26 0 01-.654 1.59 2.222 2.222 0 01-1.576.66 3.704 3.704 0 00-2.626 1.1 3.771 3.771 0 00-1.09 2.65v1.5c0 .796-.313 1.559-.87 2.121a2.96 2.96 0 01-2.103.879 2.96 2.96 0 01-2.102-.879 3.014 3.014 0 01-.87-2.121v-1.5c0-.995-.392-1.948-1.09-2.652a3.699 3.699 0 00-2.627-1.098c-.986 0-1.93.395-2.628 1.098a3.767 3.767 0 00-1.088 2.652v4.5c0 .796-.313 1.559-.87 2.121a2.96 2.96 0 01-2.103.879 2.96 2.96 0 01-2.102-.879 3.014 3.014 0 01-.871-2.121V11.69c3.553 1.152 8.342 1.81 13.378 1.81zm0-12c10.512 0 17.838 2.767 17.838 5.25 0 1.268-2.075 2.678-5.414 3.679C30.744 11.442 26.332 12 21.703 12c-5.35 0-10.401-.75-13.86-2.055-2.49-.94-3.977-2.135-3.977-3.195 0-2.483 7.325-5.25 17.837-5.25zM.893 11.25h1.486v10.768A21.16 21.16 0 01.893 14.25v-3zm20.81 32.25c-10.512 0-17.837-2.767-17.837-5.25V27.715a22.383 22.383 0 009.662 7.455v1.58c0 .199.078.39.217.53.14.141.329.22.526.22h14.864a.74.74 0 00.526-.22.754.754 0 00.218-.53v-1.58a22.383 22.383 0 009.662-7.455V38.25c0 2.483-7.326 5.25-17.838 5.25zm20.81-29.25a21.159 21.159 0 01-1.486 7.768V11.25h1.486v3z"/></g><defs><clipPath id="clip0_2351_1753"><path fill="#fff" d="M0 0h45v45H0z"/></clipPath></defs></svg>