<svg width="24" height="24" viewBox="0 0 24 24" xmlns="http://www.w3.org/2000/svg">
<circle cx="12" cy="12" r="12"/>
<path d="M11.1785 13.216C11.1785 12.92 11.2265 12.66 11.3225 12.436C11.4185 12.212 11.5425 12.012 11.6945 11.836C11.8465 11.66 12.0065 11.496 12.1745 11.344C12.3505 11.192 12.5145 11.044 12.6665 10.9C12.8185 10.756 12.9425 10.604 13.0385 10.444C13.1345 10.284 13.1825 10.104 13.1825 9.90398C13.1825 9.56798 13.0465 9.29598 12.7745 9.08798C12.5025 8.87998 12.1385 8.77598 11.6825 8.77598C11.2425 8.77598 10.8585 8.85598 10.5305 9.01598C10.2105 9.17598 9.9425 9.40398 9.7265 9.69998L8.5625 8.94398C8.8985 8.48798 9.3385 8.13198 9.8825 7.87598C10.4265 7.61198 11.0705 7.47998 11.8145 7.47998C12.3985 7.47998 12.9105 7.56798 13.3505 7.74398C13.7905 7.91198 14.1345 8.15998 14.3825 8.48798C14.6305 8.80798 14.7545 9.19998 14.7545 9.66398C14.7545 9.98398 14.7025 10.264 14.5985 10.504C14.5025 10.744 14.3745 10.956 14.2145 11.14C14.0625 11.316 13.8985 11.484 13.7225 11.644C13.5465 11.796 13.3785 11.948 13.2185 12.1C13.0665 12.252 12.9425 12.416 12.8465 12.592C12.7505 12.768 12.7025 12.976 12.7025 13.216H11.1785ZM11.9465 16.084C11.6665 16.084 11.4345 15.992 11.2505 15.808C11.0745 15.624 10.9865 15.404 10.9865 15.148C10.9865 14.892 11.0745 14.676 11.2505 14.5C11.4345 14.316 11.6665 14.224 11.9465 14.224C12.2265 14.224 12.4545 14.316 12.6305 14.5C12.8065 14.676 12.8945 14.892 12.8945 15.148C12.8945 15.404 12.8065 15.624 12.6305 15.808C12.4545 15.992 12.2265 16.084 11.9465 16.084Z" fill="white"/>
</svg>
