<svg width="147" height="144" viewBox="0 0 147 144" fill="none" xmlns="http://www.w3.org/2000/svg">
<path d="M97.651 103.367C97.2812 103.297 96.9853 103.226 96.7631 103.154C95.9491 102.94 95.1403 103.244 94.7788 103.989C94.4911 104.733 94.1281 105.329 93.32 105.707C92.9525 105.859 92.7349 106.232 92.7386 106.602C92.7461 107.343 92.5322 108.086 92.0954 108.683C92.0231 108.832 92.0998 109.128 92.3205 109.052C92.8363 108.972 93.2076 109.191 93.6519 109.334C94.3176 109.476 94.9079 109.47 95.5676 109.019C96.2281 108.642 96.5195 108.268 96.4383 107.528C96.3585 106.936 96.4315 106.862 96.9481 106.856C97.3909 106.852 97.1673 106.632 97.1658 106.484C97.165 106.41 97.1636 106.261 97.2374 106.261C98.0439 105.734 97.8888 104.995 97.5869 104.331C97.657 103.96 97.654 103.663 97.651 103.367Z" fill="#D2286F"/>
<path d="M99.9781 99.9354C99.3907 100.238 98.7296 100.541 98.1422 100.843C97.6278 101.071 97.7061 101.514 97.5622 101.886C97.4176 102.184 97.4206 102.48 97.7188 102.774C97.9417 102.92 97.9439 103.142 97.7986 103.366C97.7986 103.366 97.7986 103.366 97.8724 103.365C98.3182 103.657 98.6156 103.876 99.0584 103.871C99.4274 103.868 99.6503 104.014 99.8747 104.308C100.174 104.675 100.32 104.6 100.463 104.08C100.534 103.857 100.606 103.634 100.901 103.631C101.269 103.553 101.34 103.256 101.41 102.885C101.405 102.366 101.18 101.998 100.955 101.63C100.58 101.041 100.572 100.3 99.9781 99.9354Z" fill="#D2286F"/>
<path d="M122.462 126.529C122.385 126.159 122.234 125.864 121.936 125.571C121.639 125.352 121.269 125.281 120.969 124.84C120.747 124.768 120.6 124.843 120.527 124.918C120.385 125.512 120.017 125.59 119.5 125.521C119.13 125.451 118.762 125.529 118.394 125.681C118.248 125.756 118.175 125.905 118.251 126.053C118.403 126.496 118.555 126.939 118.78 127.307C118.93 127.602 119.227 127.747 119.596 127.743C120.26 127.662 120.997 127.581 121.66 127.5C122.251 127.494 122.542 127.121 122.462 126.529Z" fill="#D2286F"/>
<path d="M71.8315 46.1346C72.568 45.979 72.8572 45.3834 73.3708 45.0818C73.5907 44.9314 73.4379 44.4144 73.2158 44.3425C72.6239 44.2003 72.032 44.0581 71.5147 43.9892C70.9973 43.9204 70.4136 44.5931 70.565 44.962C70.7178 45.4791 70.9452 46.0695 71.8315 46.1346Z" fill="#D2286F"/>
<path d="M60.3938 31.7286C60.6166 31.8746 60.765 31.9471 60.9879 32.0931C61.8809 32.8249 62.2492 32.7471 62.7553 31.7048C62.8284 31.63 62.8276 31.5559 62.8254 31.3336C62.8224 31.0373 62.8201 30.8151 62.5987 30.8173C62.0084 30.8233 61.5656 30.8277 61.046 30.5366C60.6747 30.3181 60.308 30.5441 60.1641 30.916C59.9457 31.2145 60.0225 31.5101 60.3938 31.7286Z" fill="#D2286F"/>
<path d="M77.3483 36.966C77.7888 36.7393 77.9312 36.2192 77.7791 35.7762C77.7023 35.4806 77.4779 35.1865 77.1074 35.0421C76.4417 34.9006 76.0012 35.1274 75.7843 35.5741C75.5674 36.0208 75.7925 36.389 76.0169 36.6831C76.3911 37.1979 76.9085 37.2668 77.3483 36.966Z" fill="#D2286F"/>
<path d="M107.789 98.6712C107.269 98.3801 106.608 98.6831 106.54 99.2765C106.472 99.7958 106.771 100.163 107.29 100.454C107.956 100.596 108.323 100.37 108.391 99.8505C108.534 99.4045 108.234 98.889 107.789 98.6712Z" fill="#D2286F"/>
<path d="M107.987 96.3724C107.396 96.3043 107.104 96.6777 107.331 97.194C107.485 97.7852 107.932 98.2252 108.3 98.1474C108.448 98.1459 108.668 97.9955 108.741 97.9207C109.034 97.6955 109.03 97.325 108.952 96.9554C108.653 96.5139 108.357 96.4428 107.987 96.3724Z" fill="#D2286F"/>
<path d="M122.749 140.306C122.528 140.309 122.308 140.459 122.163 140.757C122.091 140.98 122.092 141.054 122.093 141.128C122.023 141.499 122.1 141.795 122.396 141.94C122.768 142.158 123.134 141.932 123.427 141.707C123.72 141.482 123.863 140.962 123.711 140.593C123.635 140.371 123.265 140.227 122.749 140.306Z" fill="#D2286F"/>
<path d="M105.757 138.626C105.386 138.481 105.017 138.485 104.723 138.636C104.503 138.712 104.357 138.862 104.434 139.232C104.659 139.526 104.882 139.746 105.105 139.892C105.477 140.184 105.918 140.032 106.136 139.659C106.28 139.287 106.128 138.844 105.757 138.626Z" fill="#D2286F"/>
<path d="M115.464 142.454C115.468 142.825 115.544 143.12 115.622 143.49C116.869 142.737 116.869 142.737 116.563 141.628C115.529 141.639 115.383 141.788 115.464 142.454Z" fill="#D2286F"/>
<path d="M89.7021 120.191C89.48 120.12 89.2586 120.122 89.0387 120.272C88.8203 120.571 88.751 121.016 88.9015 121.311C89.1267 121.679 89.4942 121.527 89.8617 121.375C90.1501 120.705 90.0726 120.336 89.7021 120.191Z" fill="#D2286F"/>
<path d="M58.0999 75.0197C58.0209 74.5019 57.6504 74.3575 57.2829 74.5094C56.8408 74.5879 56.7715 75.0331 57.0704 75.4006C57.2948 75.6947 57.5893 75.6176 58.0999 75.0197Z" fill="#D2286F"/>
<path d="M78.5709 63.033C78.6447 63.0322 78.6447 63.0322 78.7185 63.0315C78.7237 63.55 78.8758 63.993 79.2493 64.4338C80.4435 65.7553 80.7394 65.8264 82.3548 64.9952C82.8691 64.7677 83.3082 64.3928 83.2269 63.6528L83.3007 63.652C83.3708 63.2809 83.5899 63.0564 83.8098 62.906C83.9567 62.8304 84.1766 62.68 84.1005 62.4585C83.8717 61.7199 84.3145 61.7155 84.831 61.7103C85.1262 61.7073 85.2716 61.4835 85.2686 61.1872C85.3424 61.1865 85.3424 61.1865 85.4162 61.1857C86.0804 61.179 86.5202 60.8782 86.6626 60.3582C86.7364 60.3574 86.8102 60.3567 86.884 60.3559C87.1046 60.2796 87.2514 60.204 87.3245 60.1292C87.61 59.1632 87.7478 58.1986 87.2946 57.166C86.9934 56.5763 86.7653 55.9118 86.0989 55.6963C85.6546 55.5526 85.2088 55.2607 84.6922 55.2659C84.839 55.1903 84.9121 55.1155 85.0582 54.9659C85.3504 54.6666 85.2736 54.371 85.123 54.0761C84.9732 53.8554 84.8964 53.5598 84.7465 53.3391C84.5207 52.8968 84.0026 52.7539 83.5628 53.0546C83.196 53.2806 83.0522 53.6525 82.8353 54.0992C83.2803 54.317 83.7991 54.534 84.0258 55.0504C84.1003 55.1237 84.2486 55.1963 84.3224 55.1956C84.1018 55.2719 83.8811 55.3482 83.662 55.5727C83.5159 55.7223 83.2199 55.6512 82.9993 55.7275C82.7787 55.8039 82.558 55.8802 82.4134 56.178L82.4127 56.1039C81.9721 56.3306 81.9751 56.6269 82.1249 56.8477C82.1257 56.9218 82.0526 56.9966 82.0526 56.9966C81.908 57.2944 81.8365 57.5174 81.7657 57.8145C81.7657 57.8145 81.7657 57.8145 81.6919 57.8152C81.5465 58.039 81.548 58.1871 81.7701 58.259C81.7709 58.333 81.7709 58.3331 81.7716 58.4071C81.7731 58.5553 81.7731 58.5553 81.8484 58.7027L81.8492 58.7768L81.7746 58.7035C81.7769 58.9257 81.8514 58.999 81.9998 59.0716C82.0005 59.1457 82.0743 59.145 82.1489 59.2183C82.1496 59.2924 82.1504 59.3665 82.2249 59.4398C82.2249 59.4398 82.2249 59.4398 82.1519 59.5146C82.1556 59.885 82.0848 60.1821 81.8664 60.4807C81.7926 60.4814 81.7918 60.4073 81.718 60.4081C79.9461 60.3519 79.3602 60.8023 79.1478 61.6935C78.8526 61.6965 78.7065 61.8462 78.5619 62.144C78.1228 62.5189 78.2749 62.9619 78.5709 63.033Z" fill="#D2286F"/>
<path d="M70.7295 134.386C70.3591 134.241 69.9893 134.171 69.6241 134.545C69.481 134.991 69.7046 135.211 70.0013 135.356C70.298 135.501 70.5924 135.424 70.8854 135.199C71.1045 134.975 71.0262 134.531 70.7295 134.386Z" fill="#D2286F"/>
<path d="M86.7456 141.707C86.4504 141.71 86.3789 141.933 86.3826 142.303C86.4601 142.673 86.5354 142.82 86.7583 142.966C86.9805 143.038 87.2004 142.888 87.3465 142.738C87.4926 142.589 87.5649 142.44 87.6372 142.291C87.7102 142.216 87.6342 141.994 87.5596 141.921C87.409 141.626 87.0401 141.63 86.7456 141.707Z" fill="#D2286F"/>
<path d="M92.6786 93.3411C92.8977 93.1166 92.894 92.7462 92.7434 92.4514C92.5928 92.1566 92.2969 92.0855 92.077 92.2359C91.9301 92.3114 91.7833 92.387 91.5641 92.6115C91.5693 93.13 91.793 93.3501 92.1635 93.4945C92.3111 93.493 92.5317 93.4167 92.6786 93.3411Z" fill="#D2286F"/>
<path d="M70.1675 86.0113C70.4619 85.9342 70.608 85.7846 70.7534 85.5608C70.8249 85.3378 70.8227 85.1156 70.5998 84.9697C70.3761 84.7496 70.0809 84.7526 69.861 84.903C69.6411 85.0534 69.5688 85.2023 69.5718 85.4987C69.6479 85.7202 69.8715 85.9402 70.1675 86.0113Z" fill="#D2286F"/>
<path d="M63.3826 42.6636C63.3088 42.6644 63.3095 42.7385 63.3095 42.7385L63.3088 42.6644C63.0874 42.6666 62.9405 42.7422 62.942 42.8903C62.9443 43.1126 63.0919 43.1111 63.3133 43.1089C63.314 43.1829 63.314 43.1829 63.3886 43.2563C63.3908 43.4785 63.3915 43.5526 63.4676 43.7741C63.3938 43.7748 63.3938 43.7748 63.32 43.7756C63.1023 44.1482 63.1053 44.4446 63.1091 44.815C63.1143 45.3335 63.4125 45.6269 64.0774 45.6943L64.0782 45.7683C64.6715 46.0587 65.1874 45.9794 65.7778 45.9734C65.7785 46.0475 65.7793 46.1216 65.7808 46.2698C65.707 46.2705 65.6332 46.2713 65.5601 46.3461C65.2649 46.3491 65.1166 46.2765 64.9705 46.4261C64.8244 46.5758 64.7536 46.8729 64.8296 47.0944C64.9839 47.7596 65.8763 48.4174 66.6142 48.4099C66.9094 48.407 67.2009 48.0336 67.0503 47.7387C66.8252 47.3706 66.4524 47.0039 66.4465 46.4112C66.5203 46.4105 66.5203 46.4105 66.5941 46.4097C66.7402 46.2601 66.8132 46.1853 66.8125 46.1112C66.884 45.8882 66.8818 45.6659 66.6581 45.4459C67.3148 44.6984 67.3059 43.8094 67.1493 42.922C67.068 42.1819 65.4355 41.3093 64.6997 41.539C64.5529 41.6146 64.3322 41.6909 64.2599 41.8398C64.1869 41.9146 64.1138 41.9894 63.967 42.065L63.9662 41.9909C63.9625 41.6205 63.7396 41.4746 63.2961 41.405C63.1485 41.4065 63.0754 41.4813 62.8555 41.6317C62.784 41.8547 62.7117 42.0036 62.7124 42.0777C62.9383 42.5199 63.1619 42.7399 63.3826 42.6636Z" fill="#D2286F"/>
<path d="M100.502 129.936C100.208 130.013 100.063 130.237 99.9918 130.534C99.994 130.756 100.07 130.978 100.293 131.124C100.516 131.27 100.736 131.119 100.956 130.969C101.176 130.818 101.322 130.669 101.244 130.299C101.019 129.931 100.796 129.785 100.502 129.936Z" fill="#D2286F"/>
<path d="M66.9805 128.57C66.6108 128.5 66.2426 128.578 66.1002 129.098C66.2515 129.467 66.4744 129.613 66.7704 129.684C67.0663 129.755 67.36 129.604 67.4308 129.307C67.5016 129.01 67.2765 128.642 66.9805 128.57Z" fill="#D2286F"/>
<path d="M50.6982 21.7504C50.9957 21.9697 51.2894 21.8185 51.5801 21.371C51.6531 21.2962 51.5786 21.2229 51.5763 21.0006C51.4265 20.7799 51.3512 20.6325 51.1298 20.6347C50.8346 20.6377 50.6147 20.7881 50.4701 21.0859C50.324 21.2355 50.4008 21.5311 50.6982 21.7504Z" fill="#D2286F"/>
<path d="M84.5057 51.4152C84.8017 51.4863 85.0208 51.2618 85.0924 51.0388C85.0916 50.9647 85.0909 50.8906 85.0886 50.6684C84.938 50.3736 84.7151 50.2276 84.4945 50.304C84.2738 50.3803 84.2008 50.4551 84.1292 50.6781C84.0592 51.0492 84.2105 51.4182 84.5057 51.4152Z" fill="#D2286F"/>
<path d="M106.111 93.3537C105.889 93.2819 105.669 93.3582 105.449 93.5086C105.228 93.5849 105.157 93.8079 105.16 94.1783C105.311 94.4731 105.46 94.6198 105.754 94.5427C106.049 94.4657 106.343 94.3145 106.413 93.9434C106.484 93.7204 106.26 93.4263 106.111 93.3537Z" fill="#D2286F"/>
<path d="M52.5725 75.8164C52.7223 76.0372 52.8721 76.2579 53.095 76.4038C53.3917 76.549 53.6862 76.472 53.7577 76.249C53.9031 76.0252 53.827 75.8037 53.6041 75.6578C53.3067 75.4386 53.01 75.2934 52.6388 75.0749C52.641 75.2971 52.5695 75.5201 52.5725 75.8164Z" fill="#D2286F"/>
<path d="M96.4023 125.903C95.9595 125.907 95.5913 125.985 95.2998 126.358C95.2275 126.507 95.3028 126.655 95.3774 126.728C95.5257 126.801 95.5995 126.8 95.8955 126.871C96.2644 126.867 96.412 126.866 96.6312 126.641C96.7765 126.418 96.6983 125.974 96.4023 125.903Z" fill="#D2286F"/>
<path d="M58.8856 28.558C59.1793 28.4069 59.3254 28.2572 59.3224 27.9609C59.3202 27.7387 59.1703 27.5179 59.0213 27.3712C58.7984 27.2253 58.5777 27.3016 58.4324 27.5254C58.2147 27.898 58.2907 28.1195 58.738 28.5595C58.6642 28.5603 58.738 28.5595 58.8856 28.558Z" fill="#D2286F"/>
<path d="M78.731 130.082C78.6572 130.083 78.6572 130.083 78.5103 130.158C78.2912 130.383 78.2927 130.531 78.368 130.678C78.4433 130.826 78.5924 130.972 78.74 130.971C78.9621 131.043 79.3289 130.817 79.3266 130.594C79.545 130.296 79.3214 130.076 78.731 130.082Z" fill="#D2286F"/>
<path d="M70.8659 60.1472C71.3087 60.1427 71.5278 59.9182 71.375 59.4011C70.6363 59.3345 70.4901 59.4842 70.4939 59.8546C70.5692 60.002 70.719 60.2227 70.8659 60.1472Z" fill="#D2286F"/>
<path d="M91.4403 138.844C91.2212 139.069 91.2242 139.365 91.374 139.586C91.5238 139.807 91.819 139.804 92.112 139.578C92.185 139.504 92.2573 139.355 92.2551 139.132C92.1798 138.985 92.1053 138.912 92.0307 138.838C91.8816 138.692 91.6602 138.694 91.4403 138.844Z" fill="#D2286F"/>
<path d="M95.048 130.658C94.7565 131.031 94.8326 131.253 95.5713 131.32C95.862 130.872 95.6376 130.578 95.5594 130.134C95.414 130.358 95.1941 130.508 95.048 130.658Z" fill="#D2286F"/>
<path d="M109.866 99.6875C109.572 99.8386 109.575 100.135 109.725 100.356C109.875 100.576 110.097 100.648 110.39 100.497C110.609 100.199 110.607 99.9763 110.458 99.8297C110.308 99.683 110.16 99.6104 109.866 99.6875Z" fill="#D2286F"/>
<path d="M58.5615 33.0066C58.7083 32.9311 58.8544 32.7814 58.853 32.6332C58.8507 32.411 58.7024 32.3384 58.4057 32.1932C58.2581 32.1947 58.1112 32.2703 58.0374 32.271C57.8175 32.4214 57.746 32.6444 57.8958 32.8652C58.0457 33.0859 58.3408 33.083 58.5615 33.0066Z" fill="#D2286F"/>
<path d="M58.7349 72.1239C58.9563 72.1216 59.1032 72.046 59.1755 71.8971C59.2478 71.7482 59.1717 71.5267 59.0964 71.3793C59.0219 71.306 58.8735 71.2334 58.6521 71.2356C58.3584 71.3868 58.2869 71.6097 58.3629 71.8312C58.3644 71.9794 58.5135 72.1261 58.7349 72.1239Z" fill="#D2286F"/>
<path d="M58.3866 88.7974C58.3113 88.65 58.2367 88.5766 58.1622 88.5033C57.8655 88.3581 57.571 88.4352 57.4995 88.6582C57.4279 88.8811 57.504 89.1026 57.7269 89.2486C58.0251 89.5419 58.1712 89.3923 58.3866 88.7974Z" fill="#D2286F"/>
<path d="M104.881 110.407C104.954 110.332 105.027 110.183 105.024 109.961C104.874 109.666 104.652 109.594 104.432 109.744C104.212 109.895 104.14 110.118 104.29 110.338C104.513 110.484 104.661 110.557 104.881 110.407Z" fill="#D2286F"/>
<path d="M48.0606 38.2989C48.1337 38.224 48.1322 38.0759 48.1307 37.9277C48.0546 37.7062 47.9055 37.5595 47.6111 37.6366C47.4642 37.7122 47.3912 37.787 47.3189 37.9359C47.3949 38.1574 47.3964 38.3056 47.5448 38.3781C47.6946 38.5989 47.9153 38.5226 48.0606 38.2989Z" fill="#D2286F"/>
<path d="M94.2646 133.481C94.0432 133.484 93.8971 133.633 93.8986 133.781C93.8994 133.855 93.9747 134.003 94.05 134.15C94.1991 134.297 94.3467 134.295 94.5666 134.145C94.7134 134.069 94.7857 133.921 94.7089 133.625C94.486 133.479 94.4122 133.48 94.2646 133.481Z" fill="#D2286F"/>
<path d="M58.7485 29.5967C58.6001 29.5241 58.4533 29.5996 58.4548 29.7478C58.384 30.0449 58.5331 30.1915 58.7552 30.2634C58.7552 30.2634 58.829 30.2626 58.9759 30.1871C59.0467 29.89 59.0452 29.7418 58.7485 29.5967Z" fill="#D2286F"/>
<path d="M107.395 52.2955C106.803 52.2274 106.729 52.154 106.871 51.634C106.941 51.1887 106.721 51.3391 106.573 51.3406C106.499 51.3414 106.351 51.2688 106.35 51.1947C106.046 50.3087 105.308 50.3161 104.571 50.3977C104.276 50.4006 103.907 50.4044 103.611 50.3333C103.467 50.7052 103.321 50.9289 103.176 51.1526C102.741 51.8979 102.823 52.7121 103.567 53.2973C104.236 53.8091 104.757 54.2484 104.914 55.1359C104.991 55.5056 105.29 55.7989 105.659 55.8693C106.399 56.0841 106.994 56.4485 107.515 56.9619C107.665 57.1085 107.96 57.1055 107.957 56.8092C108.025 56.2899 108.318 55.9906 108.534 55.5439C108.823 54.8742 108.965 54.3541 108.662 53.5422C108.432 52.7295 108.133 52.3621 107.395 52.2955Z" fill="#D2286F"/>
<path d="M103.535 50.1118C103.535 50.1118 103.535 50.1118 103.534 50.0377C103.899 49.6636 104.191 49.3642 104.261 48.9931C104.331 48.6219 104.551 48.4715 104.845 48.3204C105.286 48.0937 105.285 48.0196 104.764 47.6544C104.542 47.5085 104.393 47.4359 104.39 47.1396C104.387 46.7692 104.164 46.6232 103.793 46.4788C103.275 46.3358 102.834 46.4885 102.466 46.6404C101.878 46.8686 101.139 46.7279 100.701 47.2509C100.855 47.9161 101.01 48.5814 101.164 49.2466C101.243 49.7644 101.76 49.8333 102.058 50.0526C102.355 50.2718 102.651 50.3429 102.944 50.1177C103.163 49.8932 103.385 49.891 103.535 50.1118Z" fill="#D2286F"/>
<path d="M131.836 31.5261C131.467 31.5298 131.098 31.5336 130.806 31.8329C130.513 32.0581 130.369 32.43 129.928 32.5826C129.783 32.8064 129.858 32.9538 129.932 33.0271C130.452 33.3182 130.53 33.6879 130.24 34.2094C130.096 34.5813 130.026 34.9525 130.177 35.3214C130.178 35.4696 130.327 35.5422 130.474 35.5407C130.916 35.4621 131.359 35.4577 131.801 35.305C132.095 35.228 132.388 35.0027 132.384 34.6323C132.451 33.9649 132.591 33.2225 132.658 32.5551C132.726 31.9617 132.427 31.5942 131.836 31.5261Z" fill="#D2286F"/>
<path d="M40.5585 62.8239C41.1481 62.7439 41.7378 62.6639 42.0248 61.846C42.0173 61.1052 41.57 60.6651 41.3426 60.0747C41.2666 59.8532 40.75 59.8584 40.6046 60.0822C40.3147 60.6037 40.0247 61.1253 39.8085 61.6461C39.6662 62.1661 40.1165 62.9025 40.5585 62.8239Z" fill="#D2286F"/>
<path d="M51.5944 52.0437C51.7458 52.4126 52.044 52.706 52.4159 52.9986C52.7812 52.6245 52.9981 52.1777 53.6608 52.0229C54.0999 51.648 53.9493 51.3532 53.7979 50.9842C53.5735 50.6902 53.2776 50.6191 52.9832 50.6961C52.6887 50.7732 52.4673 50.7754 52.1729 50.8525C51.5855 51.1548 51.3686 51.6015 51.5944 52.0437Z" fill="#D2286F"/>
<path d="M25.9167 67.343C25.8421 67.2696 25.7683 67.2704 25.5462 67.1985C25.2502 67.1274 25.0281 67.0556 24.9565 67.2786C24.8142 67.7986 24.6718 68.3187 24.3073 68.7669C24.0151 69.0662 24.1664 69.4351 24.4646 69.7285C24.5392 69.8018 24.613 69.8011 24.6875 69.8744C24.6145 69.9492 24.6152 70.0233 24.5421 70.0981C24.3975 70.396 24.3267 70.693 24.1829 71.0649C24.4796 71.2101 24.8486 71.2064 25.2183 71.2767C25.4397 71.2745 25.6603 71.1982 25.8802 71.0478C26.247 70.8218 26.3924 70.5981 26.241 70.2292C26.0889 69.7862 25.7915 69.5669 25.4225 69.5706C25.5686 69.421 25.6417 69.3462 25.7878 69.1965C26.7389 68.3719 26.7359 68.0756 25.9167 67.343Z" fill="#D2286F"/>
<path d="M33.9156 55.4821C34.43 55.2546 34.6469 54.8079 34.4933 54.2167C34.3412 53.7737 33.9692 53.4811 33.4526 53.4864C33.0837 53.4901 32.8638 53.6405 32.5723 54.0139C32.2831 54.6095 32.3621 55.1273 32.8087 55.4933C33.1076 55.8607 33.5489 55.7081 33.9156 55.4821Z" fill="#D2286F"/>
<path d="M110.082 69.9015C110.598 69.8963 110.893 69.8192 111.11 69.3725C111.181 69.1495 111.179 68.9273 111.249 68.5561C111.168 67.8901 110.65 67.7472 110.207 67.6776C110.059 67.6791 109.839 67.7554 109.692 67.905C109.327 68.2792 109.183 68.6511 109.336 69.1682C109.414 69.6119 109.713 69.9052 110.082 69.9015Z" fill="#D2286F"/>
<path d="M85.7044 75.1115C85.9228 74.813 86.0674 74.5152 86.2112 74.1433C86.2828 73.9203 86.2806 73.698 86.2045 73.4765C86.0524 73.0335 85.9033 72.8869 85.5343 72.8906C85.0178 72.8958 84.7248 73.121 84.6555 73.5663C84.5854 73.9374 84.6622 74.233 84.9597 74.4523C85.1102 74.7471 85.3331 74.893 85.7044 75.1115Z" fill="#D2286F"/>
<path d="M42.7094 71.1743C42.8562 71.0987 43.0038 71.0972 43.2245 71.0209C43.4451 70.9446 43.5927 70.9431 43.7396 70.8675C44.4008 70.5645 44.4723 70.3415 44.2442 69.677C44.1681 69.4555 44.0921 69.234 43.9423 69.0133C43.7917 68.7184 43.4227 68.7221 43.1297 68.9474C42.5446 69.4719 42.5528 70.2868 42.4119 70.955C42.4142 71.1773 42.5625 71.2498 42.7094 71.1743Z" fill="#D2286F"/>
<path d="M101.741 40.5724C102.26 40.7894 102.626 40.5635 102.991 40.1152C103.28 39.5196 103.129 39.1507 102.683 38.8588C102.312 38.6403 101.724 38.8685 101.431 39.1678C100.994 39.6909 101.148 40.3561 101.741 40.5724Z" fill="#D2286F"/>
<path d="M99.8838 39.4057C100.548 39.399 100.988 39.0982 101.057 38.653C101.056 38.5048 101.053 38.2826 100.904 38.1359C100.754 37.8411 100.458 37.77 100.014 37.7004C99.4991 37.8537 99.3545 38.1515 99.2106 38.5234C99.0683 39.0435 99.2934 39.4117 99.8838 39.4057Z" fill="#D2286F"/>
<path d="M111.713 70.6259C111.564 70.5534 111.343 70.5556 111.197 70.7052C110.684 71.0809 110.468 71.6017 110.326 72.1958C110.255 72.4929 110.553 72.7121 110.847 72.6351C111.068 72.5588 111.214 72.4091 111.508 72.258C111.873 71.8838 112.018 71.586 112.014 71.2156C112.085 70.9185 111.935 70.6978 111.713 70.6259Z" fill="#D2286F"/>
<path d="M146.847 34.2641C146.695 33.8952 146.25 33.6774 145.807 33.6819C145.512 33.6848 145.294 33.9834 145.225 34.5027C145.227 34.725 145.303 34.9465 145.527 35.1665C145.675 35.2391 145.75 35.3124 145.898 35.3109C146.194 35.4561 146.563 35.4524 146.782 35.2279C147.075 34.9286 146.997 34.5589 146.847 34.2641Z" fill="#D2286F"/>
<path d="M22.5952 74.6372C22.9619 74.4113 23.0313 73.966 22.7293 73.3023C22.4326 73.1571 22.2105 73.0852 21.9906 73.2356C21.55 73.4623 21.3346 74.0572 21.5598 74.4254C21.7096 74.6462 22.2277 74.7891 22.5952 74.6372Z" fill="#D2286F"/>
<path d="M139.631 50.6365C139.413 50.935 139.343 51.3062 139.42 51.6759C139.496 51.8974 139.572 52.1189 139.941 52.1151C140.309 51.9632 140.529 51.8128 140.749 51.6624C141.115 51.3624 141.11 50.9179 140.738 50.6253C140.366 50.3327 139.85 50.3379 139.631 50.6365Z" fill="#D2286F"/>
<path d="M40.2762 71.4211C40.7898 71.1196 40.8607 70.8225 40.3366 70.0869C39.9668 70.0165 39.6724 70.0936 39.527 70.3173C39.2348 70.6166 39.2401 71.1352 39.5383 71.4286C39.7619 71.6486 39.9825 71.5722 40.2762 71.4211Z" fill="#D2286F"/>
<path d="M145.068 40.8759C144.856 41.8412 144.932 41.9887 145.671 42.1294C146.041 42.1997 146.336 42.1967 146.705 42.193C146.249 40.864 146.249 40.864 145.068 40.8759Z" fill="#D2286F"/>
<path d="M118.795 62.9974C119.162 62.8455 119.085 62.4758 119.081 62.1054C118.561 61.7402 118.191 61.6699 117.9 62.0433C117.754 62.1929 117.683 62.49 117.833 62.7107C118.056 62.9308 118.5 63.0744 118.795 62.9974Z" fill="#D2286F"/>
<path d="M66.0018 82.7934C66.0063 83.2379 66.3776 83.4564 66.8181 83.2297C67.2586 83.003 67.2557 82.7067 66.7331 82.1192C66.1419 82.0511 65.9973 82.3489 66.0018 82.7934Z" fill="#D2286F"/>
<path d="M60.0077 59.2936C60.2261 58.9951 60.1486 58.6254 59.925 58.4054C59.7013 58.1854 59.4061 58.1884 59.0386 58.3402C58.6741 58.7885 58.8247 59.0833 59.1229 59.3766C59.4203 59.5959 59.8631 59.5914 60.0077 59.2936Z" fill="#D2286F"/>
<path d="M127.198 83.8797C126.98 84.1783 126.836 84.5502 127.062 84.9925C127.508 85.2843 127.728 85.1339 127.946 84.8353C128.164 84.5368 128.161 84.2405 128.011 83.9456C127.786 83.5775 127.417 83.5812 127.198 83.8797Z" fill="#D2286F"/>
<path d="M138.859 69.2406C138.785 69.1673 138.564 69.1695 138.49 69.1702C138.196 69.3214 138.125 69.6185 138.055 69.9896C138.058 70.2859 138.206 70.3585 138.577 70.503C138.946 70.4992 139.167 70.497 139.239 70.274C139.384 70.0503 139.308 69.8288 139.158 69.608C139.083 69.4606 139.008 69.3132 138.859 69.2406Z" fill="#D2286F"/>
<path d="M91.6874 53.6394C92.2055 53.7824 92.4992 53.6312 92.643 53.2594C92.7153 53.1104 92.7131 52.8882 92.6378 52.7408C92.4879 52.52 92.1174 52.3756 91.823 52.4526C91.5286 52.5297 91.3832 52.7534 91.46 53.049C91.4622 53.2713 91.5375 53.4187 91.6874 53.6394Z" fill="#D2286F"/>
<path d="M80.2939 72.8694C80.2909 72.5731 80.2149 72.3516 79.992 72.2056C79.7691 72.0597 79.5477 72.062 79.327 72.1383C79.0333 72.2894 78.9625 72.5865 79.0393 72.8821C79.1153 73.1036 79.2644 73.2502 79.4866 73.3221C79.8563 73.3924 80.0762 73.242 80.2939 72.8694Z" fill="#D2286F"/>
<path d="M36.1256 69.6849C36.5684 69.6804 36.7875 69.4559 36.71 69.0863C36.707 68.7899 36.5571 68.5692 36.1874 68.4988C35.8915 68.4277 35.5978 68.5789 35.5284 69.0241C35.5299 69.1723 35.6052 69.3197 35.6805 69.4671C35.8296 69.6138 35.978 69.6864 36.1256 69.6849Z" fill="#D2286F"/>
<path d="M130.43 53.1002C130.063 53.2521 129.843 53.4025 129.847 53.7729C129.85 54.0692 129.999 54.29 130.296 54.4352C130.518 54.507 130.739 54.4307 130.959 54.2803C131.104 54.0566 131.102 53.8343 130.952 53.6136C130.876 53.3921 130.8 53.1706 130.43 53.1002Z" fill="#D2286F"/>
<path d="M120.957 87.1286C121.326 87.0507 121.546 86.9004 121.69 86.6025C121.836 86.3788 121.758 86.0091 121.535 85.8632C121.312 85.7173 120.87 85.7958 120.726 86.0936C120.582 86.4655 120.512 86.8367 120.957 87.1286Z" fill="#D2286F"/>
<path d="M13.3898 76.6564C13.682 76.3571 13.6052 76.0616 13.2325 75.6949C13.1579 75.6215 13.0841 75.6223 12.8627 75.6245C12.5683 75.7016 12.4214 75.7772 12.3499 76.0001C12.2791 76.2972 12.4289 76.518 12.5788 76.7387C12.8762 76.958 13.1706 76.8809 13.3898 76.6564Z" fill="#D2286F"/>
<path d="M49.3685 50.8808C49.739 51.0252 50.108 51.0215 50.1788 50.7244C50.3234 50.4266 50.1736 50.2058 49.9507 50.0599C49.8761 49.9866 49.8023 49.9873 49.5809 49.9896C49.2865 50.0666 49.0666 50.217 49.0696 50.5133C49.0711 50.6615 49.1464 50.8089 49.3685 50.8808Z" fill="#D2286F"/>
<path d="M96.3542 40.7009C96.6486 40.6238 96.8685 40.4734 96.8663 40.2512C96.8633 39.9548 96.7865 39.6592 96.4153 39.4407C96.2669 39.3681 95.8987 39.4459 95.8264 39.5948C95.7548 39.8178 95.7571 40.0401 95.7593 40.2623C95.9099 40.5572 96.059 40.7038 96.3542 40.7009Z" fill="#D2286F"/>
<path d="M125.08 56.7846C124.936 57.1565 124.94 57.601 125.239 57.9684C125.314 58.0417 125.535 58.0395 125.608 57.9647C125.681 57.8898 125.753 57.7409 125.825 57.5179C125.896 57.2209 125.894 56.9986 125.744 56.7779C125.593 56.483 125.151 56.5616 125.08 56.7846Z" fill="#D2286F"/>
<path d="M125.627 74.4122C125.33 74.267 125.036 74.4182 124.894 74.9382C124.895 75.0123 124.895 75.0123 124.97 75.1597C125.12 75.3805 125.269 75.5272 125.489 75.4508C125.636 75.3753 125.783 75.2997 125.929 75.1501C126.001 74.9271 125.849 74.5581 125.627 74.4122Z" fill="#D2286F"/>
<path d="M41.0462 67.2643C41.0454 67.1903 41.0454 67.1903 41.0447 67.1162C40.9694 66.9688 40.8948 66.8954 40.8203 66.8221C40.5974 66.6762 40.3014 66.6051 40.0823 66.8295C39.8639 67.1281 39.8669 67.4244 40.1643 67.6437C40.3134 67.7904 40.5356 67.8622 40.6831 67.8607C40.6839 67.9348 40.6846 68.0089 40.6854 68.083C40.6146 68.38 40.5423 68.5289 40.6183 68.7504C40.7682 68.9712 40.9903 69.043 41.2117 69.0408C41.8759 69.0341 42.754 68.2844 42.8949 67.6161C42.9657 67.3191 42.6667 66.9516 42.2985 67.0294C42.004 67.1065 41.6373 67.3325 41.0462 67.2643Z" fill="#D2286F"/>
<path d="M54.9867 66.3827C55.208 66.3805 55.3549 66.3049 55.4272 66.156C55.4973 65.7849 55.3467 65.49 54.8293 65.4212C54.5409 66.0909 54.6169 66.3124 54.9867 66.3827Z" fill="#D2286F"/>
<path d="M136.887 63.9261C136.74 64.0017 136.592 64.0032 136.519 64.078C136.299 64.2284 136.228 64.4514 136.378 64.6721C136.528 64.8929 136.824 65.0381 137.118 64.8869C137.339 64.8106 137.409 64.5135 137.258 64.1446C137.257 64.0705 137.109 63.998 136.887 63.9261Z" fill="#D2286F"/>
<path d="M129.01 58.5971C129.159 58.8179 129.235 59.0394 129.385 59.2601C129.685 59.7016 129.905 59.5512 130.12 58.8823C129.82 58.4408 129.379 58.6675 129.01 58.5971Z" fill="#D2286F"/>
<path d="M103.557 37.7387C103.778 37.6624 103.923 37.4386 103.847 37.1431C103.622 36.849 103.401 36.8512 103.18 36.9275C102.959 37.0038 102.814 37.2276 102.89 37.4491C102.967 37.7446 103.263 37.8157 103.557 37.7387Z" fill="#D2286F"/>
<path d="M25.8825 71.27C25.6603 71.1982 25.5142 71.3478 25.3689 71.5716C25.3704 71.7197 25.3719 71.8679 25.3726 71.942C25.4487 72.1635 25.6716 72.3094 25.8922 72.2331C26.1129 72.1568 26.1844 71.9338 26.1822 71.7115C26.1799 71.4893 26.0308 71.3426 25.8825 71.27Z" fill="#D2286F"/>
<path d="M63.9838 80.2947C63.8347 80.1481 63.6133 80.1503 63.4672 80.3C63.3942 80.3748 63.3219 80.5237 63.1758 80.6733C63.2533 81.043 63.4017 81.1156 63.6969 81.1126C63.9183 81.1104 64.0644 80.9607 64.1367 80.8118C64.1344 80.5896 64.1329 80.4414 63.9838 80.2947Z" fill="#D2286F"/>
<path d="M80.4247 85.8336C80.7177 85.6084 80.6417 85.3869 80.1213 85.0217C79.9745 85.0973 79.8269 85.0988 79.8276 85.1729C79.6092 85.4714 79.6122 85.7678 79.8344 85.8396C80.058 86.0596 80.2786 85.9833 80.4247 85.8336Z" fill="#D2286F"/>
<path d="M111.671 44.5471C111.376 44.6241 111.23 44.7738 111.307 45.0694C111.383 45.2909 111.532 45.4375 111.827 45.3605C112.121 45.2834 112.193 45.0604 112.043 44.8397C111.968 44.6922 111.894 44.693 111.671 44.5471Z" fill="#D2286F"/>
<path d="M28.8132 83.7615C29.0331 83.6111 29.0309 83.3888 28.881 83.1681C28.8065 83.0948 28.6581 83.0222 28.5105 83.0237C28.2891 83.0259 28.0692 83.1763 28.146 83.4719C28.1475 83.62 28.2221 83.6934 28.3712 83.84C28.5926 83.8378 28.7402 83.8363 28.8132 83.7615Z" fill="#D2286F"/>
<path d="M132.126 60.2697C131.98 60.4194 131.907 60.4942 131.835 60.6431C131.763 60.8661 131.912 61.0128 132.061 61.0853C132.135 61.1587 132.356 61.0824 132.429 61.0075C132.576 60.932 132.647 60.709 132.572 60.5616C132.497 60.4141 132.422 60.2667 132.126 60.2697Z" fill="#D2286F"/>
<path d="M110.187 65.7515C110.257 65.3803 110.182 65.2329 109.96 65.1611C109.738 65.0892 109.592 65.2389 109.519 65.3878C109.448 65.6108 109.45 65.833 109.599 65.9797C109.823 66.1997 109.969 66.05 110.187 65.7515Z" fill="#D2286F"/>
<path d="M22.9984 70.7064C22.9261 70.8553 22.9275 71.0035 23.0759 71.0761C23.2988 71.222 23.5194 71.1457 23.6648 70.922C23.6648 70.922 23.664 70.8479 23.6625 70.6997C23.2913 70.4812 23.1437 70.4827 22.9984 70.7064Z" fill="#D2286F"/>
<path d="M58.5525 54.048C58.4034 53.9013 58.2558 53.9028 58.1097 54.0525C57.9636 54.2021 58.1127 54.3488 58.3356 54.4947C58.7038 54.4169 58.7761 54.268 58.5525 54.048Z" fill="#D2286F"/>
<path d="M52.9975 81.3688C52.6278 81.2984 52.3319 81.2273 52.1097 81.1555C51.2957 80.9414 50.4876 81.32 50.1999 82.0638C50.1284 82.2868 49.9838 82.5846 49.8384 82.8084C49.8384 82.8084 49.7646 82.8091 49.6908 82.8099C49.8354 82.512 49.9055 82.1409 49.9748 81.6957C49.971 81.3253 50.1149 80.9534 50.1112 80.583C50.182 80.2859 50.0321 80.0651 49.8092 79.9192C49.5871 79.8474 49.3649 79.7755 49.069 79.7044C49.069 79.7044 49.069 79.7044 49.0683 79.6303C49.362 79.4792 49.5058 79.1073 49.3552 78.8124C49.2799 78.665 49.2054 78.5917 48.9832 78.5198C49.057 78.5191 49.1308 78.5184 49.2039 78.4435C50.0149 78.3613 50.527 77.9115 50.9646 77.3885C51.1837 77.164 51.1815 76.9418 50.8088 76.5751C50.7342 76.5018 50.5859 76.4292 50.3637 76.3573C50.4375 76.3566 50.4375 76.3566 50.5113 76.3558C50.5113 76.3558 50.5113 76.3558 50.5844 76.281C50.8013 75.8343 50.9444 75.3883 50.5717 75.0216C50.4971 74.9483 50.348 74.8016 50.3465 74.6535C50.3376 73.7645 49.8187 73.5475 49.0807 73.5549C48.8593 73.5571 48.5634 73.486 48.2682 73.489C48.2682 73.489 48.2682 73.489 48.2675 73.4149C48.2667 73.3408 48.1922 73.2675 48.1184 73.2683L48.1176 73.1942C47.3036 72.9801 46.5663 73.0617 45.8284 73.0691C45.4594 73.0728 45.1657 73.224 45.0956 73.5951C44.8079 74.3389 44.3703 74.862 43.7852 75.3865C43.6391 75.5361 43.6406 75.6843 43.5698 75.9814C43.5698 75.9814 43.496 75.9821 43.4952 75.908C43.2075 76.6518 43.5072 77.0933 43.9545 77.5334C44.4025 78.0475 44.8505 78.5616 45.2985 79.0757C45.5222 79.2957 45.5252 79.592 45.5274 79.8142C45.5326 80.3328 45.1666 80.6329 44.7209 80.341C44.2751 80.0491 43.8315 79.9795 43.2411 79.9855C43.2404 79.9114 43.2404 79.9114 43.2396 79.8373C41.9798 79.3314 41.6235 80.5945 40.8893 80.9724C40.4488 81.1991 40.6001 81.568 40.7514 81.9369C40.8282 82.2325 40.6814 82.3081 40.536 82.5318C40.3184 82.9045 40.3951 83.2 40.6918 83.3452C41.2122 83.7104 41.8055 84.0008 42.3259 84.366C42.92 84.7304 43.5842 84.7237 44.1701 84.2733C44.1708 84.3474 44.2446 84.3466 44.2454 84.4207C44.762 84.4155 45.2801 84.5584 45.4232 84.1124C45.7124 83.5168 46.1559 83.5864 46.6718 83.5071C46.6718 83.5071 46.6725 83.5812 46.7463 83.5805C47.0423 83.6516 47.1906 83.7242 47.3382 83.7227C47.7072 83.719 48.0024 83.716 48.223 83.6397C48.2245 83.7878 48.2991 83.8612 48.3744 84.0086C48.2283 84.1582 48.1567 84.3812 48.159 84.6035C48.1664 85.3443 47.9525 86.0873 47.5903 86.7578C47.518 86.9067 47.5948 87.2023 47.8154 87.1259C48.3312 87.0467 48.7025 87.2652 49.146 87.3348C49.8117 87.4762 50.4013 87.3962 51.0611 86.945C51.7208 86.4938 52.0122 86.1204 51.8571 85.3811C51.7774 84.7892 51.7766 84.7151 52.3663 84.6351C52.809 84.6306 52.5854 84.4106 52.5839 84.2624C52.5832 84.1884 52.5817 84.0402 52.6555 84.0394C53.3882 83.5134 53.2331 82.7741 52.9312 82.1104C53.0773 81.9607 53.0005 81.6651 52.9975 81.3688Z" fill="#D2286F"/>
<path d="M56.7545 80.6641C56.7493 80.1455 56.5242 79.7773 56.2252 79.4099C55.851 78.8951 55.7697 78.155 55.1764 77.8646C54.589 78.1669 54.0023 78.5433 53.3411 78.8463C52.9006 79.073 52.9788 79.5168 52.835 79.8887C52.6911 80.2606 52.7679 80.5561 53.0654 80.7754C53.2882 80.9213 53.3643 81.1428 53.1451 81.3673C53.1451 81.3673 53.1451 81.3673 53.2189 81.3666C53.6647 81.6584 54.0352 81.8029 54.478 81.7984C54.847 81.7947 55.0699 81.9406 55.2943 82.2347C55.667 82.6014 55.7401 82.5265 55.8824 82.0065C55.954 81.7835 56.0255 81.5605 56.2469 81.5583C56.6875 81.3315 56.7583 81.0345 56.7545 80.6641Z" fill="#D2286F"/>
<path d="M77.9572 104.603C78.5468 104.523 78.8375 104.076 78.6839 103.484C78.6064 103.115 78.4558 102.82 78.0846 102.601C77.7871 102.382 77.3443 102.387 77.1185 101.944C76.8963 101.872 76.7495 101.948 76.751 102.096C76.6094 102.69 76.2419 102.842 75.7238 102.699C75.354 102.629 74.9858 102.707 74.619 102.933C74.4722 103.008 74.3999 103.157 74.4752 103.305C74.6273 103.748 74.8531 104.19 75.0783 104.558C75.2289 104.853 75.5256 104.998 75.8945 104.994C76.5572 104.839 77.2945 104.758 77.9572 104.603Z" fill="#D2286F"/>
<path d="M24.9746 25.1959C25.7103 24.9662 26.0003 24.4446 26.4393 24.0698C26.6593 23.9194 26.5064 23.4023 26.285 23.4045C25.6931 23.2623 25.1013 23.1201 24.5101 23.052C23.9928 22.9831 23.4091 23.6558 23.6342 24.024C23.8616 24.6144 24.1621 25.13 24.9746 25.1959Z" fill="#D2286F"/>
<path d="M37.5333 33.6634C37.9791 33.9553 38.2728 33.8041 38.565 33.5048C38.8572 33.2055 38.7804 32.9099 38.556 32.6159C38.4062 32.3951 38.3294 32.0995 38.1796 31.8788C37.8799 31.4373 37.4363 31.3676 36.9965 31.6684C36.6298 31.8944 36.4859 32.2663 36.269 32.713C36.7141 32.9308 37.2329 33.1478 37.5333 33.6634Z" fill="#D2286F"/>
<path d="M13.0247 11.2396C13.2476 11.3855 13.4697 11.4574 13.6181 11.53C14.5842 12.187 14.8787 12.1099 15.3848 11.0676C15.4578 10.9928 15.4571 10.9187 15.4548 10.6964C15.4518 10.4001 15.4496 10.1779 15.2282 10.1801C14.6386 10.2601 14.195 10.1905 13.6762 9.9735C13.3049 9.75498 12.9382 9.98095 12.7951 10.4269C12.5767 10.7255 12.6535 11.0211 13.0247 11.2396Z" fill="#D2286F"/>
<path d="M30.1939 15.808C30.5606 15.582 30.7768 15.0612 30.5509 14.619C30.4741 14.3234 30.2505 14.1034 29.8054 13.8856C29.1398 13.7441 28.6992 13.9708 28.4831 14.4916C28.2661 14.9384 28.4913 15.3065 28.7895 15.5999C29.2367 16.0399 29.6803 16.1095 30.1939 15.808Z" fill="#D2286F"/>
<path d="M4.02287 62.6741C3.65387 62.6778 3.28563 62.7556 2.99417 63.129C2.8533 63.7972 3.07844 64.1654 3.52422 64.4573C3.89546 64.6758 4.33825 64.6713 4.7065 64.5935C5.22159 64.4401 5.36695 64.2164 5.28791 63.6986C5.13134 62.8111 4.90845 62.6652 4.02287 62.6741Z" fill="#D2286F"/>
<path d="M36.7391 93.9058C36.9605 93.9035 37.1819 93.9013 37.5501 93.8235C38.2113 93.5205 38.133 93.0767 38.0547 92.633C38.0533 92.4848 37.9034 92.2641 37.7551 92.1915C37.31 91.9737 36.8665 91.9041 36.4267 92.2049C36.0599 92.4308 35.8415 92.7294 35.9191 93.0991C36.0719 93.6161 36.2217 93.8369 36.7391 93.9058Z" fill="#D2286F"/>
<path d="M18.4364 28.2254C17.7677 27.7876 17.032 28.0173 16.2947 28.0989C16.1472 28.1004 16.1494 28.3226 16.2247 28.47C16.3 28.6174 16.3745 28.6908 16.5244 28.9115C16.6742 29.1323 16.6757 29.2804 16.7503 29.3538C17.2728 29.9412 17.4942 29.939 18.0071 29.5634C18.227 29.413 18.3731 29.2633 18.5192 29.1137C18.8844 28.7395 18.7338 28.4447 18.4364 28.2254Z" fill="#D2286F"/>
<path d="M63.6595 77.4085C63.7288 76.9633 63.4291 76.5218 62.9841 76.304C62.4645 76.0129 61.804 76.39 61.7362 76.9834C61.6684 77.5768 61.9666 77.8702 62.5592 78.0865C63.1511 78.2287 63.5179 78.0027 63.6595 77.4085Z" fill="#D2286F"/>
<path d="M63.0347 74.0068C62.4436 73.9386 62.2259 74.3113 62.3795 74.9024C62.6069 75.4929 62.9796 75.8595 63.4216 75.781C63.5692 75.7795 63.7891 75.6291 63.8622 75.5543C64.0813 75.3298 64.0776 74.9594 64.0001 74.5897C63.7734 74.0734 63.4037 74.003 63.0347 74.0068Z" fill="#D2286F"/>
<path d="M35.2773 95.3282C35.498 95.2519 35.7179 95.1015 35.7156 94.8792C35.7134 94.657 35.6381 94.5096 35.489 94.3629C34.9679 93.9236 34.4506 93.8548 33.7871 93.9356C33.4919 93.9385 33.3481 94.3104 33.4987 94.6053C33.6485 94.826 33.7969 94.8986 34.0943 95.1179C34.6131 95.3349 34.9091 95.406 35.2773 95.3282Z" fill="#D2286F"/>
<path d="M7.46438 8.77669C7.17217 9.07599 7.17741 9.59456 7.47559 9.88791C7.77378 10.1813 8.21657 10.1768 8.80173 9.65226C8.87179 9.2811 8.86954 9.05886 8.72045 8.91219C8.34772 8.54551 7.75658 8.47738 7.46438 8.77669Z" fill="#D2286F"/>
<path d="M62.5023 116.317C62.1318 116.172 61.7635 116.25 61.4698 116.401C61.2492 116.478 61.1031 116.627 61.1806 116.997C61.405 117.291 61.6287 117.511 61.8515 117.657C62.2235 117.95 62.6648 117.797 62.8817 117.35C63.0256 116.978 62.8728 116.461 62.5023 116.317Z" fill="#D2286F"/>
<path d="M16.1895 24.9882C15.8183 24.7697 15.377 24.9223 15.1594 25.2949C15.0147 25.5928 15.1646 25.8135 15.3144 26.0343C15.7617 26.4743 16.0562 26.3972 16.6398 25.7245C16.6361 25.3541 16.4862 25.1334 16.1895 24.9882Z" fill="#D2286F"/>
<path d="M72.3534 119.774C72.4309 120.143 72.5077 120.439 72.5853 120.809C73.7578 119.982 73.7578 119.982 73.4514 118.874C72.3444 118.885 72.2721 119.034 72.3534 119.774Z" fill="#D2286F"/>
<path d="M45.9485 99.5917C46.1631 98.9228 46.0863 98.6272 45.7151 98.4087C45.493 98.3368 45.2716 98.3391 45.1262 98.5628C44.9078 98.8614 44.8385 99.3066 45.0629 99.6007C45.288 99.9688 45.5817 99.8177 45.9485 99.5917Z" fill="#D2286F"/>
<path d="M11.5374 54.0039C11.0961 54.1566 11.026 54.5277 11.325 54.8951C11.6239 55.2626 11.9184 55.1855 12.3544 54.5143C12.2754 53.9965 11.9056 53.9261 11.5374 54.0039Z" fill="#D2286F"/>
<path d="M33.1839 41.4867C33.3285 41.1888 33.2525 40.9674 33.0281 40.6733C32.5093 40.4562 32.2163 40.6815 32.0724 41.0534C31.9278 41.3512 32.0799 41.7942 32.3759 41.8653C32.6718 41.9364 33.0393 41.7845 33.1839 41.4867Z" fill="#D2286F"/>
<path d="M27.2674 113.413C26.8976 113.342 26.5279 113.272 26.1626 113.646C26.0203 114.166 26.2431 114.312 26.6136 114.457C26.9096 114.528 27.2786 114.524 27.497 114.225C27.7154 113.927 27.6378 113.557 27.2674 113.413Z" fill="#D2286F"/>
<path d="M47.1425 71.6481C47.2901 71.6467 47.5115 71.6444 47.6576 71.4948C47.8768 71.2703 47.873 70.8999 47.7224 70.6051C47.5719 70.3102 47.2767 70.3132 46.9822 70.3903C46.8354 70.4658 46.6893 70.6155 46.4694 70.7659C46.4753 71.3585 46.699 71.5785 47.1425 71.6481Z" fill="#D2286F"/>
<path d="M24.3385 64.5435C24.4153 64.8391 24.5644 64.9858 24.9348 65.1302C25.2293 65.0532 25.3754 64.9035 25.5207 64.6798C25.5923 64.4568 25.5901 64.2345 25.3672 64.0886C25.1435 63.8686 24.8483 63.8716 24.6284 64.022C24.4078 64.0983 24.2617 64.2479 24.3385 64.5435Z" fill="#D2286F"/>
<path d="M16.6024 22.0205C16.8969 21.9434 17.0422 21.7197 17.0392 21.4233C17.0355 21.0529 16.8126 20.907 16.3698 20.9115C16.2222 20.913 16.1492 20.9878 15.9293 21.1382C15.8577 21.3612 15.7854 21.5101 15.8607 21.6575C16.012 22.0264 16.3087 22.1716 16.6024 22.0205Z" fill="#D2286F"/>
<path d="M56.745 108.966C56.9679 109.112 57.1878 108.962 57.4077 108.811C57.6276 108.661 57.7737 108.511 57.6962 108.142C57.4718 107.847 57.2489 107.702 56.9544 107.779C56.66 107.856 56.5146 108.079 56.4438 108.376C56.3723 108.599 56.5221 108.82 56.745 108.966Z" fill="#D2286F"/>
<path d="M23.2984 107.748C22.9294 107.752 22.5605 107.755 22.4181 108.275C22.5694 108.644 22.7923 108.79 23.0875 108.787C23.3835 108.858 23.6764 108.633 23.748 108.41C23.8933 108.186 23.6682 107.818 23.2984 107.748Z" fill="#D2286F"/>
<path d="M2.96317 1.56141C3.26061 1.78067 3.55431 1.62953 3.77122 1.1828C3.84427 1.10798 3.76972 1.03464 3.76748 0.812397C3.69143 0.590898 3.54234 0.444225 3.32095 0.446459C3.02575 0.449439 2.8066 0.673918 2.66124 0.897652C2.51589 1.12139 2.66723 1.4903 2.96317 1.56141Z" fill="#D2286F"/>
<path d="M3.69627 59.5657C3.98996 59.4145 4.05928 58.9693 3.98249 58.6737C3.90719 58.5263 3.7581 58.3796 3.5367 58.3818C3.16771 58.3856 2.94856 58.61 2.9523 58.9805C2.95304 59.0545 2.95304 59.0545 3.02834 59.202C3.17967 59.5709 3.32877 59.7175 3.69627 59.5657Z" fill="#D2286F"/>
<path d="M37.9387 29.9549C38.2347 30.026 38.4538 29.8015 38.5246 29.5044C38.5239 29.4304 38.5231 29.3563 38.5209 29.134C38.2965 28.8399 38.1474 28.6933 37.9268 28.7696C37.7061 28.8459 37.6338 28.9948 37.5615 29.1437C37.4184 29.5897 37.6435 29.9579 37.9387 29.9549Z" fill="#D2286F"/>
<path d="M61.3864 71.5785C61.4587 71.4296 61.2336 71.0614 61.0122 71.0636C60.7901 70.9918 60.5702 71.1422 60.3495 71.2185C60.1296 71.3689 60.0573 71.5178 60.0611 71.8882C60.2116 72.183 60.4345 72.329 60.6552 72.2526C61.0965 72.1 61.3164 71.9496 61.3864 71.5785Z" fill="#D2286F"/>
<path d="M7.93472 55.3739C7.63728 55.1546 7.34059 55.0094 6.96935 54.7909C6.97234 55.0873 6.90079 55.3102 6.90378 55.6066C7.05362 55.8273 7.20346 56.0481 7.42561 56.1199C7.7223 56.2651 8.01674 56.188 8.0883 55.9651C8.23291 55.6672 8.08381 55.5206 7.93472 55.3739Z" fill="#D2286F"/>
<path d="M52.709 103.969C52.2662 103.973 51.898 104.051 51.6065 104.424C51.5342 104.573 51.6095 104.721 51.7579 104.793C51.9062 104.866 52.0538 104.865 52.2759 104.936C52.6449 104.933 52.7918 104.857 52.9379 104.707C53.0825 104.41 52.9304 103.967 52.709 103.969Z" fill="#D2286F"/>
<path d="M11.1483 8.14679C11.1483 8.14679 11.2221 8.14605 11.3697 8.14456C11.6634 7.99341 11.8088 7.76968 11.7327 7.54818C11.7305 7.32594 11.5807 7.10518 11.3585 7.03334C11.1356 6.88741 10.915 6.96372 10.7696 7.18746C10.625 7.48527 10.7018 7.78085 11.1483 8.14679Z" fill="#D2286F"/>
<path d="M35.1913 108.739C35.1175 108.74 35.1175 108.74 34.9706 108.815C34.7515 109.04 34.753 109.188 34.829 109.41C34.9043 109.557 35.1272 109.703 35.2748 109.701C35.4969 109.773 35.8637 109.547 35.8607 109.251C35.9315 108.954 35.7086 108.808 35.1913 108.739Z" fill="#D2286F"/>
<path d="M19.5918 25.6947C19.6656 25.694 19.6656 25.694 19.7394 25.6932C19.8855 25.5436 19.9585 25.4688 19.9578 25.3947C20.0286 25.0976 20.0263 24.8754 19.7296 24.7302C19.433 24.585 19.0647 24.6628 18.9208 25.0347C18.8485 25.1836 18.8508 25.4059 18.853 25.6281C18.7792 25.6288 18.7062 25.7037 18.6324 25.7044C18.3372 25.7074 18.1896 25.7089 18.0435 25.8585C17.9712 26.0074 17.8996 26.2304 17.9757 26.4519C18.13 27.1172 19.0954 27.7001 19.7596 27.6934C20.0547 27.6905 20.3455 27.243 20.1949 26.9482C19.9697 26.58 19.5977 26.2874 19.5918 25.6947Z" fill="#D2286F"/>
<path d="M24.6001 39.2766C25.0421 39.198 25.2613 38.9735 25.1084 38.4564C24.3705 38.4639 24.2236 38.5395 24.2273 38.9099C24.3034 39.1314 24.3787 39.2788 24.6001 39.2766Z" fill="#D2286F"/>
<path d="M48.1913 117.054C48.1182 117.129 48.0459 117.278 48.0467 117.352C48.0459 117.278 47.9706 117.13 47.9699 117.056C47.8939 116.835 47.9654 116.612 48.037 116.389C48.1771 115.647 47.9505 115.13 47.3563 114.766C46.9113 114.548 46.4655 114.256 45.9482 114.187C45.2832 114.12 44.6906 113.904 44.3156 113.315C44.2411 113.241 44.1673 113.242 44.0935 113.243C43.9459 113.244 43.9474 113.392 43.9489 113.541C44.0316 114.429 44.0316 114.429 43.2944 114.51C42.9254 114.514 42.5564 114.518 42.1882 114.596C42.2642 114.817 42.3388 114.89 42.4141 115.038C42.7883 115.553 42.789 115.627 42.3492 115.928C42.1293 116.078 41.8349 116.155 41.691 116.527C41.9162 116.895 42.2896 117.336 42.1473 117.856C42.0064 118.524 42.4537 118.964 42.8279 119.479C43.1268 119.847 43.4235 119.992 43.7933 120.062L43.7195 120.063C43.425 120.14 43.3535 120.363 43.3565 120.659C43.4333 120.955 43.5093 121.176 43.7314 121.248C43.9536 121.32 44.1735 121.17 44.3196 121.02C44.4657 120.87 44.538 120.721 44.6103 120.572C44.6834 120.498 44.6073 120.276 44.5328 120.203C44.3837 120.056 44.3091 119.983 44.1615 119.984C44.2353 119.983 44.3091 119.983 44.456 119.907C44.8973 119.755 45.3401 119.75 45.7844 119.894C46.3762 120.036 46.9666 120.03 47.481 119.803C47.4705 118.765 47.3967 118.766 47.7612 118.318C47.9804 118.093 48.125 117.796 48.1227 117.573C48.1235 117.647 48.198 117.721 48.198 117.721C48.3479 117.942 48.6423 117.865 48.9353 117.639C49.0083 117.564 49.0068 117.416 49.0784 117.193C49.0031 117.046 48.9285 116.973 48.854 116.899C48.6326 116.901 48.4112 116.904 48.1913 117.054Z" fill="#D2286F"/>
<path d="M51.5023 108.723C51.2108 109.096 51.3607 109.317 52.0256 109.384C52.3163 108.937 52.0181 108.643 52.0136 108.199C51.7945 108.423 51.6484 108.573 51.5023 108.723Z" fill="#D2286F"/>
<path d="M65.134 77.2455C64.8403 77.3966 64.8432 77.693 64.9931 77.9137C65.1429 78.1345 65.3643 78.1322 65.6588 78.0552C65.8772 77.7566 65.8011 77.5351 65.652 77.3884C65.576 77.1669 65.3539 77.0951 65.134 77.2455Z" fill="#D2286F"/>
<path d="M11.1932 12.5917C11.34 12.5161 11.4862 12.3665 11.4839 12.1442C11.4817 11.922 11.3333 11.8494 11.0374 11.7783C10.8898 11.7798 10.7429 11.8553 10.6691 11.8561C10.4492 12.0065 10.3777 12.2295 10.5275 12.4502C10.7512 12.6702 10.9726 12.668 11.1932 12.5917Z" fill="#D2286F"/>
<path d="M21.9659 70.7909C22.1158 71.0117 22.3379 71.0835 22.5578 70.9331C22.7047 70.8576 22.777 70.7087 22.774 70.4123C22.6249 70.2657 22.5496 70.1183 22.475 70.0449C22.3267 69.9723 22.1053 69.9746 22.033 70.1235C21.9569 69.902 21.8079 69.7553 21.5857 69.6834C21.3636 69.6116 21.1429 69.6879 20.9968 69.8376C20.8507 69.9872 20.7799 70.2843 21.0028 70.4302C21.301 70.7236 21.5224 70.7213 21.9622 70.4205C21.8168 70.6443 21.8914 70.7176 21.9659 70.7909Z" fill="#D2286F"/>
<path d="M12.9164 51.6933C13.1378 51.691 13.2846 51.6154 13.3569 51.4665C13.4285 51.2435 13.3532 51.0961 13.2041 50.9495C13.1296 50.8761 12.9812 50.8035 12.7598 50.8058C12.4661 50.9569 12.3946 51.1799 12.4706 51.4014C12.5459 51.5488 12.6943 51.6214 12.9164 51.6933Z" fill="#D2286F"/>
<path d="M12.3459 68.2949C12.2744 68.5179 12.3504 68.7394 12.5733 68.8854C12.8707 69.1046 13.0914 69.0283 13.2322 68.3601C13.1569 68.2127 13.0824 68.1393 13.0079 68.066C12.7119 67.9949 12.4175 68.0719 12.3459 68.2949Z" fill="#D2286F"/>
<path d="M60.0705 87.4468C59.8506 87.5972 59.779 87.8202 59.9289 88.0409C60.0787 88.2617 60.3009 88.3335 60.52 88.109C60.5931 88.0342 60.6654 87.8853 60.6631 87.6631C60.5125 87.3682 60.2904 87.2964 60.0705 87.4468Z" fill="#D2286F"/>
<path d="M0.468677 17.6639C0.321827 17.7395 0.248776 17.8143 0.17722 18.0373C0.253262 18.2588 0.327809 18.3321 0.402355 18.4054C0.625247 18.5514 0.845896 18.4751 0.99125 18.2513C1.0643 18.1765 1.06206 17.9543 1.06131 17.8802C0.911469 17.6594 0.763124 17.5868 0.468677 17.6639Z" fill="#D2286F"/>
<path d="M50.7927 111.545C50.5713 111.547 50.4252 111.697 50.4267 111.845C50.4275 111.919 50.5028 112.067 50.5781 112.214C50.7271 112.361 50.9478 112.285 51.0946 112.209C51.2415 112.133 51.3138 111.985 51.237 111.689C51.0887 111.616 50.9403 111.544 50.7927 111.545Z" fill="#D2286F"/>
<path d="M11.0127 9.33358C10.9419 9.63065 11.091 9.77733 11.3131 9.84917C11.3869 9.84843 11.3869 9.84843 11.5338 9.77286C11.6784 9.47504 11.6023 9.25354 11.3802 9.1817C11.1588 9.18393 11.0112 9.18542 11.0127 9.33358Z" fill="#D2286F"/>
<path d="M36.4794 38.9344C36.63 39.2292 36.8514 39.227 36.9968 39.0032C37.0691 38.8543 36.993 38.6328 36.8447 38.5602C36.6225 38.4884 36.5502 38.6373 36.4794 38.9344Z" fill="#D2286F"/>
<path d="M93.7466 111.408C93.5998 111.484 93.3776 111.412 93.0832 111.489C92.4928 111.495 92.2751 111.867 91.9091 112.167C91.763 112.317 91.3948 112.395 91.4708 112.616C91.5483 112.986 91.8405 112.687 92.0619 112.685C92.2095 112.683 92.2841 112.756 92.2856 112.905C92.2878 113.127 92.2893 113.275 92.4384 113.422C92.6621 113.642 92.8119 113.862 92.5189 114.088C92.299 114.238 92.0769 114.166 91.854 114.02C91.7057 113.948 91.6311 113.874 91.4828 113.802C91.2606 113.73 91.0407 113.88 91.043 114.103C90.9737 114.548 91.0519 114.992 91.4232 115.21C92.0911 115.574 92.3953 116.46 93.3524 116.228C93.4262 116.227 93.5746 116.3 93.7237 116.446C94.1702 116.812 94.686 116.733 95.2011 116.58C95.7162 116.426 96.0815 116.052 96.15 115.533C96.1493 115.459 96.2223 115.384 96.2954 115.309C96.6599 114.861 96.7292 114.416 96.5026 113.899C96.352 113.604 96.422 113.233 96.6412 113.009C96.7866 112.785 96.7843 112.563 96.5614 112.417C95.816 111.684 94.9244 111.1 93.7466 111.408Z" fill="#D2286F"/>
<path d="M68.3855 121.518C68.0142 121.299 67.7161 121.006 67.2703 120.714C66.7529 120.645 66.3101 120.65 65.9411 120.653C65.6459 120.656 65.426 120.807 65.2814 121.105C65.2106 121.402 64.9922 121.7 64.7731 121.925C64.5539 122.149 64.4839 122.52 64.4868 122.817C64.425 124.003 65.4702 125.178 66.5048 125.315C67.1705 125.457 67.8355 125.524 68.4229 125.222C68.8634 124.995 68.7836 124.403 69.0751 124.03C69.4396 123.582 69.2115 122.917 69.2062 122.399C69.0549 122.03 68.6837 121.811 68.3855 121.518Z" fill="#D2286F"/>
<path d="M94.4662 94.953C94.5407 95.0264 94.5415 95.1005 94.5422 95.1745C94.9925 95.9109 95.5136 96.3501 96.3992 96.3412C97.2847 96.3323 97.8729 96.1041 98.0115 95.2136C98.8911 94.612 98.4416 93.9497 98.0659 93.2867C97.7662 92.8452 97.3935 92.4785 96.9462 92.0385C96.8716 91.9652 96.6495 91.8933 96.5764 91.9682C96.1351 92.1208 95.6923 92.1253 95.1765 92.2046C94.9551 92.2068 94.8098 92.4305 94.6644 92.6543C94.5921 92.8032 94.5198 92.9521 94.3752 93.2499C94.2298 93.4736 94.2313 93.6218 94.1583 93.6966C94.089 94.1419 94.0197 94.5871 94.4662 94.953Z" fill="#D2286F"/>
<path d="M76.0359 97.0654C76.185 97.212 76.4072 97.2839 76.554 97.2083C77.1399 96.7579 77.8794 96.8986 78.5421 96.7437C78.7627 96.6674 78.9096 96.5918 78.9804 96.2948C79.0542 96.294 79.0542 96.294 79.128 96.2933C79.1996 96.0703 79.2719 95.9214 79.1958 95.6999C79.2696 95.6991 79.2696 95.6991 79.3434 95.6984C79.4157 95.5495 79.488 95.4006 79.4865 95.2524C79.5603 95.2517 79.6334 95.1768 79.6334 95.1768C79.9994 94.8768 80.2185 94.6523 80.214 94.2078C80.2103 93.8374 80.2066 93.467 80.2028 93.0966C80.2714 92.5773 80.0463 92.2091 79.6743 91.9165C79.6735 91.8424 79.6728 91.7683 79.672 91.6943C79.593 91.1764 79.3694 90.9564 78.852 90.8876C78.852 90.8876 78.9258 90.8868 78.9251 90.8127C78.4017 90.1512 77.7361 90.0098 77.0704 89.8683C76.4047 89.7268 75.8158 89.881 75.379 90.4781C75.3067 90.627 75.2336 90.7018 75.1613 90.8507C75.0875 90.8515 75.0145 90.9263 74.9407 90.927C74.5724 91.0048 74.5009 91.2278 74.4301 91.5249L74.3555 91.4516C74.2825 91.5264 74.2087 91.5271 74.0618 91.6027C73.9127 91.456 73.7644 91.3834 73.4692 91.3864C72.6567 91.3205 72.4368 91.4709 72.2236 92.2881C72.1535 92.6592 72.1573 93.0296 72.3832 93.4719C72.7544 93.6904 73.1234 93.6867 73.4178 93.6096C73.4954 93.9793 73.5736 94.423 73.725 94.7919C73.9531 95.4564 74.3281 96.0454 75.0683 96.2602C75.4396 96.4787 75.7377 96.772 76.0359 97.0654Z" fill="#D2286F"/>
<path d="M89.6757 110.264C89.3052 110.119 88.934 109.901 88.5665 110.053C88.4919 109.979 88.4919 109.979 88.4174 109.906C88.0476 109.836 87.7525 109.839 87.3835 109.842C87.3827 109.768 87.3827 109.768 87.382 109.694C86.9332 109.106 86.3391 108.742 85.6726 108.526C85.6726 108.526 85.6726 108.526 85.5988 108.527L85.5981 108.453C85.0077 108.459 84.6387 108.462 84.1929 108.17C83.6726 107.805 83.5265 107.955 83.0889 108.478C83.0159 108.553 82.9436 108.702 82.9443 108.776C82.8705 108.777 82.8705 108.777 82.7967 108.777C82.2801 108.782 81.8366 108.713 81.7688 109.306L81.695 109.307C81.2537 109.46 81.1098 109.832 81.1143 110.276L81.0398 110.203C81.0398 110.203 80.9652 110.129 80.8922 110.204C80.5239 110.282 80.3033 110.358 80.2332 110.729L80.1601 110.804C80.1601 110.804 80.1601 110.804 80.0871 110.879C80.0871 110.879 80.0878 110.953 80.014 110.954L80.0133 110.88C79.8664 110.955 79.8672 111.03 79.8679 111.104C79.7941 111.104 79.7949 111.178 79.7211 111.179C79.5027 111.478 79.3573 111.701 79.2127 111.999L79.1389 112C79.0659 112.075 79.0674 112.223 79.1419 112.296C79.0681 112.297 79.0681 112.297 78.9951 112.372C78.7774 112.745 78.8542 113.04 79.0055 113.409C79.2329 113.999 79.3872 114.665 79.4685 115.405C79.3947 115.406 79.3947 115.406 79.3209 115.406C79.3217 115.48 79.2479 115.481 79.2486 115.555C78.8774 115.337 78.4346 115.341 77.9918 115.346C77.6966 115.349 77.5527 115.72 77.7026 115.941C77.8524 116.162 78.0015 116.309 78.2252 116.529C78.6702 116.746 78.9661 116.818 79.3344 116.74C79.555 116.663 79.7749 116.513 79.7727 116.291L79.7719 116.217C80.2162 116.36 80.4414 116.729 80.7403 117.096C80.8156 117.243 80.9647 117.39 81.1138 117.537L81.0407 117.612C80.8961 117.909 80.75 118.059 80.5264 117.839L80.4518 117.766L80.4511 117.692C80.3743 117.396 80.0038 117.252 79.488 117.331C79.3404 117.332 79.1935 117.408 79.1212 117.557C78.6046 117.562 78.091 117.864 77.6437 117.424C77.4194 117.13 77.0526 117.355 76.7597 117.581C76.4674 117.88 76.249 118.179 76.4019 118.696C76.3281 118.696 76.2543 118.697 76.2543 118.697C75.5923 118.926 75.5923 118.926 75.7459 119.517C75.6729 119.592 75.6729 119.592 75.5998 119.667C75.6035 120.037 75.5327 120.334 75.6103 120.704C75.6103 120.704 75.5365 120.705 75.5372 120.779C75.5425 121.297 75.62 121.667 75.6975 122.037C75.6975 122.037 75.6245 122.112 75.6252 122.186C75.7013 122.407 75.7773 122.629 75.9257 122.701C76.2969 122.92 76.4482 123.289 76.5273 123.807C76.5273 123.807 76.5273 123.807 76.6011 123.806L76.5273 123.807C77.345 124.391 78.1553 124.235 78.9656 124.078C79.0402 124.152 79.0402 124.152 79.1147 124.225C79.7096 124.663 79.9995 124.142 80.3656 123.842C80.4394 123.841 80.4401 123.915 80.5139 123.914C81.9191 124.197 82.0532 122.862 82.786 122.336C82.9328 122.26 82.856 121.965 82.7807 121.817C82.4825 121.524 82.4795 121.227 82.6227 120.781C82.6942 120.558 82.6912 120.262 82.6875 119.892L82.7613 119.891C82.9789 119.518 82.683 119.447 82.4616 119.449L82.3871 119.376C82.3871 119.376 82.3871 119.376 82.3125 119.303C82.3125 119.303 82.3863 119.302 82.3856 119.228C82.3095 119.006 82.2342 118.859 82.2327 118.711C82.0799 118.194 82.0791 118.12 82.7396 117.743C82.7403 117.817 82.7411 117.891 82.8149 117.89C83.1123 118.109 83.336 118.329 83.6334 118.549L83.5596 118.549C84.0076 119.063 84.1552 119.062 84.2976 118.542C84.3714 118.541 84.4444 118.466 84.5175 118.391C84.6636 118.242 84.7359 118.093 84.7337 117.871C84.8075 117.87 84.8813 117.869 84.9551 117.868C85.693 117.861 86.2834 117.855 86.8731 117.775C87.3159 117.771 87.3889 117.696 87.4567 117.102C87.456 117.028 87.5298 117.027 87.529 116.953C87.529 116.953 87.529 116.953 87.6021 116.879L87.6028 116.953C87.9711 116.875 88.0426 116.652 87.9666 116.43C87.9659 116.356 88.0396 116.356 88.0389 116.281C88.1112 116.133 88.1097 115.984 88.182 115.835L88.2558 115.835L88.2566 115.909C88.551 115.832 88.6986 115.83 88.8447 115.681C88.9185 115.68 88.9916 115.605 88.9916 115.605C89.1384 115.529 89.2115 115.455 89.2838 115.306C89.2838 115.306 89.2838 115.306 89.283 115.232L89.2838 115.306C89.6505 115.08 89.6475 114.783 89.6453 114.561C89.6408 114.117 89.5625 113.673 89.8547 113.374C90.1462 113 90.2155 112.555 90.2102 112.036C90.208 111.814 90.2058 111.592 90.2773 111.369C90.3489 111.146 90.6426 110.995 90.4927 110.774C90.1222 110.63 89.8978 110.336 89.6757 110.264ZM82.5182 117.745C82.5912 117.67 82.5175 117.671 82.5182 117.745C82.592 117.744 82.592 117.744 82.5182 117.745ZM83.327 117.44C83.3277 117.514 83.3277 117.514 83.327 117.44ZM85.789 112.748C85.7883 112.674 85.7875 112.6 85.7875 112.6C85.7875 112.6 85.7875 112.6 85.7883 112.674L85.789 112.748ZM86.006 112.301C86.0052 112.227 86.0052 112.227 86.006 112.301C86.0052 112.227 86.079 112.226 86.006 112.301Z" fill="#D2286F"/>
<path d="M90.7563 100.325C90.4581 100.032 90.3127 100.255 90.0928 100.406C89.2885 101.155 89.1492 101.971 89.6762 103.003C90.4962 103.81 91.3833 103.949 92.415 103.79C92.6364 103.788 92.708 103.565 92.7057 103.343C92.7005 102.824 92.9174 102.378 93.1336 101.857C93.2059 101.708 93.2782 101.559 93.2036 101.486C93.1253 101.042 92.7533 100.749 92.4544 100.382C92.3046 100.161 92.0101 100.238 91.7887 100.24C91.4205 100.318 91.0552 100.692 90.7563 100.325Z" fill="#D2286F"/>
<path d="M66.5965 53.9668C66.0777 53.7498 65.6289 53.1616 64.9662 53.3164C64.8194 53.392 64.5987 53.4683 64.4519 53.5439C64.3058 53.6936 64.1597 53.8432 63.9398 53.9936C63.3546 54.5181 63.3599 55.0367 63.5887 55.7753C63.8176 56.5139 64.3387 56.9531 65.0044 57.0946C65.4479 57.1642 65.8899 57.0857 66.4065 57.0804C66.7748 57.0026 66.7718 56.7063 66.8419 56.3352C66.9104 55.8159 67.1281 55.4432 67.1236 54.9987C67.0461 54.6291 66.967 54.1112 66.5965 53.9668Z" fill="#D2286F"/>
<path d="M55.1488 31.2629C55.2972 31.3355 55.4462 31.4822 55.5946 31.5548C55.8175 31.7007 56.0389 31.6985 56.2595 31.6222C56.5532 31.471 56.8477 31.394 57.1421 31.3169C57.6565 31.0895 57.9464 30.5679 57.8674 30.0501C57.7861 29.31 57.6303 28.4966 56.814 28.0603C56.6657 27.9877 56.5911 27.9144 56.369 27.8425C56.0723 27.6974 55.9247 27.6988 55.7778 27.7744C55.4849 27.9996 55.1927 28.2989 54.899 28.4501C54.4584 28.6768 54.3884 29.048 54.3191 29.4932C54.1797 30.3096 54.4078 30.9741 55.1488 31.2629Z" fill="#D2286F"/>
<path d="M70.9897 87.0402C70.989 86.9661 70.989 86.9661 70.9897 87.0402C70.8369 86.5231 70.5424 86.6002 70.248 86.6773C70.1742 86.678 70.1734 86.6039 70.0996 86.6047C69.6554 86.461 69.2826 86.0943 68.9882 86.1713C68.3255 86.3262 67.4377 86.1129 66.9263 86.6367C66.7034 86.4908 66.482 86.493 66.3359 86.6426C66.043 86.8679 65.8238 87.0924 65.5316 87.3917C65.7537 87.4635 65.9021 87.5361 66.0504 87.6087C65.6129 88.1317 65.5458 88.7992 65.5533 89.54C65.5623 90.429 65.563 90.5031 66.6737 90.8623C66.6737 90.8623 66.6745 90.9364 66.6007 90.9371C66.6775 91.2327 66.7535 91.4542 66.9756 91.5261C66.9764 91.6001 66.9764 91.6001 67.0509 91.6735C67.2 91.8202 67.3484 91.8928 67.5698 91.8905C67.7189 92.0372 67.8687 92.2579 68.0909 92.3298C68.1661 92.4772 68.3145 92.5498 68.4628 92.6224C68.5366 92.6216 68.5366 92.6216 68.6842 92.6202C68.8311 92.5446 68.9787 92.5431 69.0517 92.4683C69.4207 92.4645 69.7882 92.3127 70.1557 92.1608C70.2295 92.16 70.3033 92.1593 70.4517 92.2319C70.6731 92.2296 70.8937 92.1533 71.1136 92.0029C71.4804 91.777 71.6257 91.5532 71.5489 91.2576C71.5474 91.1095 71.4729 91.0361 71.3983 90.9628C71.5429 90.665 71.7613 90.3664 71.906 90.0686C72.1236 89.696 72.1206 89.3996 71.9693 89.0307C71.6659 88.2188 71.3647 87.6291 70.9897 87.0402ZM69.1627 88.8368C69.0881 88.7634 69.0881 88.7634 69.0881 88.7634C69.1619 88.7627 69.1627 88.8368 69.1627 88.8368Z" fill="#D2286F"/>
<path d="M38.8952 102.775C37.9358 102.784 37.0502 102.793 36.1646 102.802C35.4266 102.81 34.9883 103.259 34.9966 104.074C34.9981 104.222 34.9995 104.37 35.001 104.518C35.0085 105.259 35.6071 106.068 36.2721 106.135C36.937 106.203 37.8912 105.674 38.1804 105.079C38.325 104.781 38.2482 104.485 38.1707 104.116C38.0171 103.524 38.0901 103.45 38.7528 103.295C38.9004 103.293 39.048 103.292 39.1949 103.216C39.4155 103.14 39.5624 103.064 39.4125 102.844C39.3387 102.844 39.1173 102.847 38.8952 102.775Z" fill="#D2286F"/>
<path d="M58.4031 46.5665C58.3323 46.8636 58.3361 47.234 58.4867 47.5288C58.6365 47.7496 58.8579 47.7473 59.0808 47.8933C59.3782 48.1125 59.6757 48.3318 60.0469 48.5503C60.559 48.1006 61.1479 47.9465 61.5862 47.4975C61.8784 47.1982 61.9485 46.8271 62.0185 46.4559C62.0931 46.5293 62.1684 46.6767 62.2429 46.75C62.6164 47.1908 62.9854 47.1871 63.5683 46.4403C63.5646 46.0699 63.4147 45.8491 63.118 45.7039C62.8206 45.4847 62.3055 45.6381 62.014 46.0114C62.0148 46.0855 61.941 46.0863 61.9417 46.1603C61.865 45.8648 61.7159 45.7181 61.4192 45.5729C61.197 45.5011 61.1202 45.2055 60.9719 45.1329C60.4508 44.6936 59.4176 44.704 59.1277 45.2256C58.7617 45.5256 58.471 45.9731 58.4031 46.5665Z" fill="#D2286F"/>
<path d="M43.2668 89.8391C43.7073 89.6123 43.7058 89.4642 43.2623 89.3946C43.2616 89.3205 43.2616 89.3205 43.187 89.2472C43.187 89.2472 43.187 89.2472 43.1132 89.2479L43.1863 89.1731C43.1855 89.099 43.1848 89.0249 43.1102 88.9516L43.184 88.9508C43.0312 88.4338 42.66 88.2152 42.288 87.9226C42.288 87.9226 42.361 87.8478 42.2865 87.7745C42.0606 87.3322 41.6916 87.3359 41.3964 87.3389C40.733 87.4197 40.1411 87.2775 39.6923 86.6893C39.6178 86.616 39.3956 86.5441 39.1742 86.5464C39.1735 86.4723 39.1735 86.4723 39.1727 86.3982C39.0229 86.1775 38.9476 86.03 38.8715 85.8085C38.8715 85.8085 38.8715 85.8085 38.8708 85.7345L38.9446 85.7337C38.9401 85.2892 38.7903 85.0685 38.4951 85.0714C38.4205 84.9981 38.4198 84.924 38.346 84.9248C38.2699 84.7033 38.1946 84.5559 38.1201 84.4825C37.0817 83.9744 36.1223 83.9841 35.1704 84.7346C34.9512 84.959 34.6583 85.1843 34.4384 85.3347C33.8525 85.7851 33.7116 86.4533 33.9397 87.1178C34.2424 87.8557 34.399 88.7432 35.0699 89.4032L34.9961 89.4039C35.2965 89.9195 35.7378 89.7669 36.0323 89.6898C36.1061 89.6891 36.1806 89.7624 36.1806 89.7624C36.402 89.7602 36.4758 89.7594 36.6972 89.7572L36.698 89.8313C37.143 90.0491 37.2883 89.8253 37.3592 89.5282C37.433 89.5275 37.4322 89.4534 37.506 89.4527C37.506 89.4527 37.506 89.4527 37.5791 89.3779L37.5798 89.4519C38.3901 89.2956 38.3901 89.2956 38.6182 89.9601C38.7696 90.329 38.9932 90.549 39.3622 90.5453C39.3629 90.6194 39.3629 90.6194 39.3637 90.6934C39.3659 90.9157 39.4412 91.0631 39.5158 91.1364C39.4427 91.2113 39.4427 91.2113 39.4435 91.2853C39.2989 91.5832 39.521 91.655 39.8177 91.8002C40.1129 91.7972 40.2597 91.7216 40.332 91.5727C40.9239 91.7149 41.4398 91.6356 41.9541 91.4082C42.7644 91.2518 43.202 90.7288 43.2668 89.8391Z" fill="#D2286F"/>
<path d="M59.5331 114.643C59.5324 114.569 59.5324 114.569 59.5316 114.495C59.2342 114.275 59.0135 114.352 58.7191 114.429L58.7184 114.355C58.2748 114.285 58.0549 114.436 58.0579 114.732C57.9841 114.733 57.9111 114.807 57.8373 114.808C57.6159 114.81 57.5428 114.885 57.396 114.961C57.396 114.961 57.396 114.961 57.3967 115.035C57.396 114.961 57.3222 114.962 57.3214 114.887C56.6595 115.116 56.813 115.708 56.6692 116.079C56.4545 116.748 56.6044 116.969 57.1247 117.334C57.4214 117.48 57.645 117.7 57.9417 117.845C58.1646 117.991 58.4598 117.988 58.7557 118.059C58.9779 118.131 59.0562 118.574 59.4982 118.496C59.6421 118.124 59.6361 117.531 60.1504 117.304C60.8847 116.926 60.7296 116.187 60.6498 115.595C60.6446 115.076 60.2719 114.709 59.5331 114.643Z" fill="#D2286F"/>
<path d="M16.6605 115.52C16.4316 114.782 16.2088 114.636 15.5438 114.568C15.0265 114.499 14.5106 114.579 14.0708 114.879C13.631 115.18 13.4134 115.553 13.4186 116.071C13.4276 116.96 14.3206 117.692 15.2815 117.831C15.3553 117.83 15.4284 117.755 15.649 117.679C16.015 117.379 16.2342 117.154 16.4541 117.004C16.8939 116.703 17.0385 116.405 16.8126 115.963C16.7366 115.742 16.6613 115.594 16.6605 115.52Z" fill="#D2286F"/>
<path d="M28.4561 106.881C28.5247 106.362 28.6678 105.916 28.6626 105.397C28.6611 105.249 28.4389 105.177 28.2175 105.179C28.2168 105.105 28.2168 105.105 28.216 105.031C28.0647 104.662 27.9149 104.441 27.6189 104.37C27.2492 104.3 26.8794 104.23 26.5827 104.084C25.768 103.796 25.3274 104.023 25.0397 104.767C24.8958 105.139 24.8258 105.51 24.6812 105.808C24.3219 106.774 24.3219 106.774 25.0666 107.434C25.2895 107.58 25.4401 107.874 25.8091 107.871L25.8829 107.87L25.8098 107.945C26.2526 107.94 26.6969 108.084 26.9153 107.785C26.9891 107.785 27.0622 107.71 27.0622 107.71C27.0622 107.71 27.0622 107.71 27.1352 107.635L27.136 107.709C27.2828 107.634 27.4297 107.558 27.5035 107.557C27.5773 107.557 27.5773 107.557 27.6503 107.482C27.6503 107.482 27.6503 107.482 27.6496 107.408L27.7234 107.407C28.1647 107.254 28.3853 107.178 28.4561 106.881Z" fill="#D2286F"/>
<path d="M50.0547 111.553C49.9772 111.183 49.6805 111.038 49.3123 111.116C48.8702 111.194 48.5788 111.568 48.0637 111.721C47.1796 111.878 47.0417 112.843 47.7111 113.354C48.0093 113.648 48.3805 113.866 48.8256 114.084C50.4462 113.771 50.4454 113.697 50.2091 112.218C50.0592 111.997 50.057 111.775 50.0547 111.553Z" fill="#D2286F"/>
<path d="M41.8903 77.7765C41.8046 76.5919 41.0598 75.9326 39.8798 76.0186C38.9942 76.0276 38.4091 76.5521 38.2704 77.4426C38.1996 77.7396 38.2757 77.9611 38.3532 78.3308L38.2802 78.4056C38.2876 79.1464 38.515 79.7368 39.2545 79.8776C39.8464 80.0198 40.5106 80.0131 41.1725 79.7841C41.7607 79.5559 42.0521 79.1825 41.824 78.518C41.8233 78.4439 41.8971 78.4432 41.8963 78.3691C41.8926 77.9987 41.8911 77.8505 41.8903 77.7765Z" fill="#D2286F"/>
<path d="M67.2188 49.8115C67.2867 49.2181 66.9877 48.8507 66.3966 48.7826C66.249 48.7841 66.0276 48.7863 65.8062 48.7885C65.5848 48.7908 65.3642 48.8671 65.2919 49.016C65.2173 48.9427 65.2166 48.8686 65.1428 48.8693C64.4741 48.4315 63.7376 48.5872 63.0003 48.6687C62.8528 48.6702 62.855 48.8924 62.9303 49.0398C63.0056 49.1873 63.0801 49.2606 63.23 49.4813C63.306 49.7028 63.3813 49.8503 63.4559 49.9236C63.9784 50.511 64.1998 50.5088 64.7127 50.1332C64.7857 50.0584 64.8588 49.9835 65.0056 49.908C65.0071 50.0561 64.9341 50.1309 64.9356 50.2791C64.8648 50.5762 65.0884 50.7962 65.3128 51.0903C65.7578 51.3081 66.0508 51.0828 66.346 51.0799C66.7888 51.0754 67.0079 50.8509 67.0772 50.4057C67.1488 50.1827 67.2211 50.0338 67.2188 49.8115Z" fill="#D2286F"/>
<path d="M32.4076 103.507C31.7427 103.44 31.0017 103.151 30.5679 104.044C30.5001 104.638 30.5046 105.082 31.0972 105.298C31.4677 105.443 31.8367 105.439 32.2042 105.287C32.4986 105.21 32.7178 104.986 32.7155 104.763C32.7856 104.392 32.8549 103.947 32.556 103.58C32.4822 103.58 32.4076 103.507 32.4076 103.507Z" fill="#D2286F"/>
<path d="M92.442 62.5966C91.8561 63.047 92.082 63.4893 92.3817 63.9308C92.4555 63.9301 92.4555 63.9301 92.5293 63.9293C92.4555 63.9301 92.3824 64.0049 92.3086 64.0056C92.2438 64.8953 92.6173 65.3361 93.2107 65.6265C93.8779 65.9161 94.6151 65.8346 95.3516 65.679C95.4254 65.6782 95.5715 65.5286 95.6438 65.3797C95.7892 65.1559 95.86 64.8588 96.0791 64.6344C96.7358 63.8868 96.2856 63.1505 96.0567 62.4119C95.8278 61.6733 95.2352 61.4571 94.4972 61.4645C94.2743 61.3186 94.1267 61.3201 94.0544 61.469C93.9806 61.4697 93.9806 61.4697 93.9076 61.5445C93.9076 61.5445 93.9075 61.5446 93.8345 61.6194L93.8337 61.5453C93.4648 61.549 93.1703 61.6261 93.101 62.0713L93.1002 61.9972C92.9534 62.0728 92.8073 62.2225 92.7342 62.2973C92.5881 62.4469 92.5151 62.5218 92.442 62.5966Z" fill="#D2286F"/>
<path d="M29.0637 108.579C28.9161 108.58 28.8446 108.803 28.773 109.026C28.2579 109.18 28.2609 109.476 28.1908 109.847L28.1163 109.774C27.6049 110.298 27.6057 110.372 28.1991 110.662C28.1998 110.736 28.1998 110.736 28.2006 110.81C28.2006 110.81 28.2013 110.884 28.2751 110.883L28.2021 110.958C28.5778 111.621 29.1697 111.764 29.8331 111.683C30.1283 111.68 30.3482 111.529 30.4928 111.232C30.7813 110.562 30.7746 109.895 30.6925 109.081L30.7663 109.08C30.3191 108.64 29.7279 108.572 29.0637 108.579Z" fill="#D2286F"/>
<path d="M41.6671 114.156C41.5948 114.305 41.6693 114.379 41.8177 114.451C41.8915 114.45 41.966 114.524 42.0398 114.523C42.0398 114.523 42.0398 114.523 42.0391 114.449C42.0376 114.301 42.0376 114.301 41.963 114.227C41.8877 114.08 41.7394 114.007 41.6671 114.156Z" fill="#D2286F"/>
<path d="M94.5278 86.4322C94.8222 86.3551 95.1897 86.2032 95.186 85.8328C95.259 85.758 95.3328 85.7573 95.3321 85.6832C95.6251 85.4579 95.7704 85.2342 95.7674 84.9379C95.7652 84.7156 95.5415 84.4956 95.6131 84.2726C95.9716 83.2318 95.6674 82.3458 94.995 81.5376C94.9205 81.4643 94.9197 81.3902 94.919 81.3161C94.7684 81.0213 94.474 81.0983 94.1057 81.1761L94.105 81.102C93.9551 80.8813 93.8806 80.8079 93.8791 80.6598C93.5786 80.1442 93.431 80.1457 93.1411 80.6672C93.0673 80.668 92.9942 80.7428 92.9204 80.7436C92.33 80.7495 91.8873 80.754 91.4452 80.8325C91.0762 80.8363 90.8563 80.9867 90.8601 81.3571C90.7863 81.3578 90.7125 81.3586 90.7132 81.4326C89.9782 81.7364 89.9782 81.7364 89.6778 81.2208C89.677 81.1467 89.7508 81.146 89.7501 81.0719C89.8201 80.7008 90.0393 80.4763 90.3322 80.2511C90.3322 80.2511 90.333 80.3251 90.4068 80.3244C90.7728 80.0243 90.772 79.9503 90.3285 79.8806C90.3278 79.8066 90.2532 79.7332 90.2525 79.6591C89.6568 79.1465 89.2826 78.6317 89.1275 77.8924C89.0515 77.6709 88.9031 77.5983 88.6072 77.5272C88.6065 77.4531 88.6065 77.4531 88.6057 77.379C88.3821 77.159 88.233 77.0123 88.0101 76.8664C88.0101 76.8664 88.0101 76.8664 88.0839 76.8657C87.9333 76.5708 87.7842 76.4241 87.5643 76.5745C87.4905 76.5753 87.4898 76.5012 87.416 76.502C86.8979 76.359 86.8181 75.7671 86.3745 75.6975C86.3745 75.6975 86.3738 75.6234 86.3 75.6241C85.7834 75.6294 85.3399 75.5598 85.0417 75.2664C84.7442 75.0471 84.449 75.0501 84.1561 75.2753C83.4964 75.7265 82.9112 76.2511 82.1762 76.5548C81.9556 76.6312 81.8102 76.8549 81.8125 77.0771C81.8192 77.7439 81.5285 78.1913 81.2385 78.7129C81.0201 79.0114 80.9501 79.3826 80.9538 79.753C80.9576 80.1234 80.9613 80.4938 81.0396 80.9376L80.9658 80.9383C80.9673 81.0865 81.0426 81.2339 81.1909 81.3065L81.1917 81.3806C81.4906 81.748 81.8618 81.9665 81.9401 82.4103C82.0177 82.7799 82.3151 82.9992 82.7579 82.9947L82.7586 83.0688C82.907 83.1414 82.9815 83.2147 83.0568 83.3621C83.1314 83.4355 83.2059 83.5088 83.2059 83.5088C83.2067 83.5829 83.2805 83.5821 83.2812 83.6562C83.5101 84.3948 84.1012 84.4629 84.5463 84.6807C85.0651 84.8977 85.5817 84.8925 86.1698 84.6643C86.3897 84.5139 86.6096 84.3635 86.9771 84.2116C86.9771 84.2116 86.9779 84.2857 87.0517 84.285C87.4952 84.3546 87.8642 84.3509 88.2332 84.3471C88.6022 84.3434 88.6753 84.2686 88.67 83.75C88.6655 83.3055 88.8094 82.9336 89.1754 82.6336L89.1761 82.7077C89.6927 82.7024 89.9164 82.9225 90.0677 83.2914C90.0685 83.3655 89.9947 83.3662 89.9954 83.4403C90.0029 84.1811 90.0089 84.7737 90.0148 85.3664C90.0201 85.885 90.2452 86.2531 90.7633 86.3961C91.8002 86.7561 92.7663 87.4131 93.8658 86.6611C93.8636 86.4389 94.2333 86.5092 94.5278 86.4322ZM91.9217 84.1617C91.9209 84.0876 91.8464 84.0143 91.8464 84.0143L91.9209 84.0876C91.9209 84.0876 91.9209 84.0876 91.9947 84.0869L91.9217 84.1617Z" fill="#D2286F"/>
<path d="M86.3422 65.1772C86.0507 65.5506 85.8345 66.0714 85.9136 66.5892C85.9941 67.2552 86.0016 67.996 86.3766 68.5849C86.7515 69.1739 86.5346 69.6206 86.6875 70.1377C86.6137 70.1384 86.6144 70.2125 86.5406 70.2132C86.4706 70.5844 86.4728 70.8066 86.4027 71.1778L86.402 71.1037C86.1105 71.4771 86.0375 71.5519 86.481 71.6215C86.4818 71.6956 86.5563 71.7689 86.5571 71.843C86.7091 72.286 86.7867 72.6557 86.8642 73.0253C86.9395 73.1728 86.9418 73.395 87.0909 73.5417C87.6865 74.0543 88.3537 74.3439 89.0924 74.4105C89.7566 74.4038 90.4938 74.3223 90.9306 73.7252C91.149 73.4266 91.4442 73.4236 91.5948 73.7185C91.9705 74.3815 92.347 75.1186 92.7227 75.7816C93.0239 76.3713 93.2461 76.4431 93.7604 76.2156C93.9811 76.1393 94.1995 75.8408 94.3486 75.9874C95.0903 76.3504 95.823 75.8244 96.4872 75.8177C96.6348 75.8162 96.7817 75.7406 96.8547 75.6658C97.4376 74.919 98.0205 74.1722 98.1592 73.2818C98.2993 72.5395 98.2173 71.7253 98.2821 70.8356C98.2821 70.8356 98.2821 70.8356 98.2828 70.9097C98.6481 70.5356 98.6474 70.4615 98.2046 70.4659C98.2038 70.3919 98.13 70.3926 98.1293 70.3185C98.1293 70.3185 98.1293 70.3185 98.0547 70.2452L98.1285 70.2444C98.051 69.8748 97.9742 69.5792 97.6052 69.5829C97.0879 69.5141 96.8635 69.22 96.6376 68.7777C96.0322 67.302 94.557 67.391 93.7527 68.14C93.2406 68.5897 92.6532 68.892 92.1403 69.2676C91.8474 69.4929 91.4784 69.4966 91.3353 69.9426C91.263 70.0915 91.1146 70.0189 90.9663 69.9463C90.818 69.8737 90.6689 69.727 90.5205 69.6544C90.3722 69.5818 90.2961 69.3603 90.3692 69.2855C90.9543 68.761 90.5756 67.8017 91.1608 67.2771C91.3069 67.1275 91.2301 66.8319 91.2278 66.6096C91.2278 66.6096 91.3016 66.6089 91.3009 66.5348C91.3001 66.4607 91.2994 66.3867 91.2994 66.3867L91.3724 66.3118C91.5148 65.7918 91.0705 65.6481 90.9199 65.3532C90.6941 64.911 90.5412 64.3939 90.1685 64.0272C89.7958 63.6605 89.0615 64.0384 88.615 63.6725C88.5404 63.5991 88.4666 63.5999 88.319 63.6014C88.0976 63.6036 87.8024 63.6066 87.6563 63.7562C87.3649 64.1296 86.779 64.5801 86.3422 65.1772ZM92.525 70.8196C92.5258 70.8937 92.5996 70.893 92.5996 70.893L92.525 70.8196ZM88.6122 70.7109C88.6853 70.6361 88.7591 70.6354 88.8321 70.5605C88.8329 70.6346 88.7591 70.6354 88.686 70.7102C88.686 70.7102 88.613 70.785 88.6122 70.7109ZM88.4841 72.6385C88.5579 72.6378 88.5579 72.6378 88.4841 72.6385C88.4103 72.6393 88.4103 72.6393 88.4103 72.6393C88.4841 72.6385 88.4841 72.6385 88.4841 72.6385Z" fill="#D2286F"/>
</svg>
