<svg width="12" height="15" viewBox="0 0 12 15" xmlns="http://www.w3.org/2000/svg"><path d="M11.926 14.357l-.69-10.178c0-.215-.197-.429-.394-.429h-9.66c-.196 0-.393.214-.393.429L0 14.464c0 .107 0 .215.099.322.098.107.197.214.295.214h11.138c.197 0 .394-.214.394-.429.099-.107.099-.107 0-.214zM.887 14.036l.69-9.429h8.87l.69 9.429H.888z"/><path d="M6.012 0c-1.97 0-3.45 1.714-3.45 3.75v1.821c0 .215.198.429.395.429s.394-.214.394-.429V3.75c0-1.5 1.183-2.786 2.563-2.786 1.38 0 2.562 1.286 2.562 2.786v1.821c0 .215.197.429.395.429.197 0 .394-.214.394-.429V3.75C9.462 1.714 7.885 0 6.012 0z"/></svg>