<svg width="11" height="19" viewBox="0 0 11 19" xmlns="http://www.w3.org/2000/svg"><path d="M3.258 10.686H.925c-.377 0-.494-.138-.494-.48v-2.77c0-.366.141-.48.494-.48h2.333V4.944c0-.915.165-1.784.636-2.585C4.389 1.536 5.095.987 5.99.667A5.383 5.383 0 017.805.369h2.308c.33 0 .472.137.472.458v2.607c0 .32-.142.458-.472.458-.636 0-1.272 0-1.908.023-.636 0-.966.297-.966.938-.023.686 0 1.35 0 2.058h2.733c.377 0 .518.138.518.504v2.767c0 .366-.117.48-.518.48H7.239v7.458c0 .389-.118.526-.542.526H3.752c-.353 0-.494-.137-.494-.48v-7.48z"/></svg>