<svg width="16" height="14" viewBox="0 0 16 14" xmlns="http://www.w3.org/2000/svg">
<path d="M11.375 0C10.7422 0.000735982 10.1163 0.131116 9.53582 0.3831C8.95536 0.635083 8.43267 1.00333 8 1.46511C7.36593 0.788338 6.54307 0.317819 5.63823 0.114639C4.7334 -0.0885409 3.78839 -0.0149977 2.92587 0.325721C2.06336 0.66644 1.32319 1.2586 0.801436 2.02532C0.279685 2.79205 0.000456575 3.69793 0 4.62536C0 9.23072 7.4275 13.7511 7.75 13.9286C7.82777 13.9753 7.91678 14 8.0075 14C8.09822 14 8.18723 13.9753 8.265 13.9286C8.5725 13.7511 16 9.23072 16 4.62536C15.9987 3.39905 15.511 2.22334 14.6439 1.3562C13.7768 0.489062 12.6012 0.0013236 11.375 0ZM8 12.911C6.7075 12.0859 1 8.23064 1 4.62536C1.00064 3.85529 1.24646 3.10542 1.70184 2.48444C2.15721 1.86346 2.79848 1.40363 3.53271 1.17159C4.26693 0.939552 5.05597 0.947358 5.78546 1.19388C6.51495 1.4404 7.147 1.91283 7.59 2.5427C7.63615 2.60822 7.69738 2.66168 7.76851 2.69858C7.83965 2.73549 7.91861 2.75475 7.99875 2.75475C8.07889 2.75475 8.15785 2.73549 8.22899 2.69858C8.30012 2.66168 8.36135 2.60822 8.4075 2.5427C8.85013 1.91175 9.48232 1.4383 10.2123 1.19108C10.9423 0.943867 11.732 0.935752 12.4669 1.16792C13.2018 1.40008 13.8436 1.86044 14.2991 2.48216C14.7546 3.10388 15.0001 3.85461 15 4.62536C15 8.22814 9.2925 12.0834 8 12.911Z"/>
</svg>