<svg width="20" height="20" viewBox="0 0 20 20" xmlns="http://www.w3.org/2000/svg"><path d="M14.424.37H5.576A5.228 5.228 0 00.354 5.59v8.848a5.228 5.228 0 005.222 5.222h8.848a5.228 5.228 0 005.222-5.222V5.591A5.228 5.228 0 0014.424.37zM10 15.29a5.281 5.281 0 01-5.275-5.275A5.281 5.281 0 0110 4.74a5.281 5.281 0 015.275 5.275A5.281 5.281 0 0110 15.29zm5.401-9.306a1.56 1.56 0 010-3.118 1.56 1.56 0 010 3.118z"/><path d="M10 5.871a4.149 4.149 0 00-4.144 4.144A4.149 4.149 0 0010 14.16a4.149 4.149 0 004.144-4.144A4.149 4.149 0 0010 5.871zm5.401-1.873a.428.428 0 10.002.856.428.428 0 00-.002-.856z"/></svg>