<svg width="27" height="18" viewBox="0 0 27 18" xmlns="http://www.w3.org/2000/svg"><path d="M12.074 6.226c-.034 1.325-.17 2.529-.408 3.61a12.963 12.963 0 01-1.07 2.983 13.6 13.6 0 01-1.68 2.616A29.624 29.624 0 016.673 18l-3.77-1.831c.238-.28.475-.61.713-.995.441-.697.866-1.656 1.274-2.877-1.427-.28-2.599-.96-3.516-2.041C.458 9.139 0 7.795 0 6.225c0-.871.153-1.674.458-2.406.34-.768.782-1.43 1.325-1.989A5.955 5.955 0 013.668.522 5.476 5.476 0 016.01 0c.85 0 1.63.174 2.344.523A5.81 5.81 0 0110.29 1.83a6.01 6.01 0 011.273 1.989c.34.732.51 1.535.51 2.407zm14.926 0c0 1.29-.119 2.46-.357 3.506a12.008 12.008 0 01-1.07 2.93 15.124 15.124 0 01-1.68 2.668A32.32 32.32 0 0121.548 18l-3.719-1.831c.238-.28.476-.61.713-.995.442-.697.866-1.656 1.274-2.877a6.209 6.209 0 01-3.566-2.041c-.917-1.116-1.376-2.46-1.376-4.03 0-.871.153-1.674.459-2.406.34-.768.781-1.43 1.325-1.989A5.81 5.81 0 0118.593.522 5.476 5.476 0 0120.938 0c.849 0 1.63.174 2.343.523a5.81 5.81 0 011.936 1.308 6.012 6.012 0 011.274 1.989c.34.732.509 1.535.509 2.407z"/></svg>