<svg width="24" height="24" viewBox="0 0 24 24" xmlns="http://www.w3.org/2000/svg"><circle cx="12" cy="12" r="12"/><path d="M11.178 13.216c0-.296.048-.556.144-.78.097-.224.22-.424.373-.6.152-.176.312-.34.48-.492.175-.152.34-.3.491-.444.152-.144.277-.296.373-.456.095-.16.143-.34.143-.54a.98.98 0 00-.408-.816c-.271-.208-.635-.312-1.091-.312-.44 0-.825.08-1.152.24-.32.16-.588.388-.805.684l-1.164-.756a3.41 3.41 0 011.32-1.068c.545-.264 1.188-.396 1.933-.396.584 0 1.096.088 1.536.264.44.168.783.416 1.031.744.248.32.373.712.373 1.176 0 .32-.053.6-.157.84-.096.24-.224.452-.384.636a5.838 5.838 0 01-.492.504 15.25 15.25 0 00-.503.456 2.155 2.155 0 00-.372.492 1.284 1.284 0 00-.144.624h-1.524zm.768 2.868a.944.944 0 01-.695-.276.921.921 0 01-.264-.66c0-.256.088-.472.264-.648a.944.944 0 01.696-.276c.28 0 .508.092.684.276a.881.881 0 01.264.648.921.921 0 01-.948.936z" fill="#fff"/></svg>