<svg width="11" height="14" viewBox="0 0 11 14" xmlns="http://www.w3.org/2000/svg"><path d="M7.104 14c.183 0 .357-.105.486-.293.13-.187.202-.442.202-.707V6c0-.265-.073-.52-.202-.707C7.461 5.105 7.287 5 7.104 5c-.182 0-.357.105-.486.293A1.266 1.266 0 006.417 6v7c0 .265.072.52.201.707.129.188.304.293.486.293zM.688 14a.671.671 0 00.486-.211.741.741 0 00.201-.511V8.222a.741.741 0 00-.201-.51.671.671 0 00-.486-.212.671.671 0 00-.487.212.741.741 0 00-.201.51v5.056c0 .191.072.375.201.51A.671.671 0 00.687 14zm9.625 0a.636.636 0 00.486-.24.909.909 0 00.201-.581V3.32a.909.909 0 00-.201-.58.636.636 0 00-.486-.241.636.636 0 00-.487.24.909.909 0 00-.201.581v9.858c0 .217.072.426.201.58.13.155.304.241.486.241zm-6.417 0c.182 0 .357-.105.486-.293.129-.187.201-.442.201-.707V1c0-.265-.072-.52-.201-.707C4.253.105 4.078 0 3.896 0c-.183 0-.357.105-.486.293A1.266 1.266 0 003.208 1v12c0 .265.073.52.202.707.129.188.303.293.486.293z"/></svg>