<svg width="24" height="24" viewBox="0 0 24 24" xmlns="http://www.w3.org/2000/svg"><g clip-path="url(#clip0_2351_1528)"><path d="M22.49 22.562l-6.113-6.113a9.219 9.219 0 002.15-5.923c0-5.108-4.156-9.263-9.264-9.263S0 5.418 0 10.526s4.155 9.263 9.263 9.263a9.22 9.22 0 005.923-2.149l6.113 6.113a.84.84 0 001.191 0 .842.842 0 000-1.19zM1.684 10.526c0-4.179 3.4-7.579 7.58-7.579 4.179 0 7.578 3.4 7.578 7.58 0 4.178-3.4 7.578-7.579 7.578-4.18 0-7.579-3.4-7.579-7.579z"/></g><defs><clipPath id="clip0_2351_1528"><path d="M0 0h24v24H0z"/></clipPath></defs></svg>