<?xml version="1.0" encoding="utf-8"?><svg viewBox="0 0 115 210" xmlns="http://www.w3.org/2000/svg" xmlns:xlink="http://www.w3.org/1999/xlink"><style>:root>svg{display:none}:root>svg:target{display:block}</style><svg fill="none" viewBox="0 0 24 24" id="cart" xmlns="http://www.w3.org/2000/svg"><path d="M1 1.558l.918.192A2.685 2.685 0 014.04 4.123l.154 1.612m0 0l1.097 9.555a2.685 2.685 0 002.667 2.379h9.304a4.699 4.699 0 004.57-3.607l1.081-4.521a3.088 3.088 0 00-3.003-3.806H4.195zm4.86 7.906h5.37"/><circle cx="8.384" cy="21.025" r="1.414"/><circle cx="19.125" cy="21.025" r="1.414"/></svg><svg fill="none" viewBox="0 0 16 16" id="close" xmlns="http://www.w3.org/2000/svg"><path d="M1.183.998L16 13.614l-.97 1.14L.213 2.137l.97-1.14z" fill="#000"/><path d="M.697 14.227L14.457.467l1.058 1.058-13.76 13.76-1.058-1.058z" fill="#000"/></svg><svg viewBox="0 0 11 19" id="fb" xmlns="http://www.w3.org/2000/svg"><path d="M3.258 10.686H.925c-.377 0-.494-.138-.494-.48V7.436c0-.366.141-.48.494-.48h2.333V4.944c0-.915.165-1.784.636-2.585C4.389 1.536 5.095.987 5.99.667A5.383 5.383 0 017.805.369h2.308c.33 0 .472.137.472.458v2.607c0 .32-.142.458-.472.458-.636 0-1.272 0-1.908.023-.636 0-.966.297-.966.938-.023.686 0 1.35 0 2.058h2.733c.377 0 .518.138.518.504v2.767c0 .366-.117.48-.518.48H7.239v7.458c0 .389-.118.526-.542.526H3.752c-.353 0-.494-.137-.494-.48v-7.48z"/></svg><svg viewBox="0 0 16 16" id="filter" xmlns="http://www.w3.org/2000/svg"><g clip-path="url(#dclip0_3704_1267)"><path d="M.5 2.82h7.613a2.333 2.333 0 002.274 1.829 2.333 2.333 0 002.274-1.828H15.5a.5.5 0 000-1h-2.839a2.335 2.335 0 00-2.274-1.829c-1.11 0-2.044.785-2.274 1.829H.5a.5.5 0 000 1zm8.559-.498v-.006A1.33 1.33 0 0110.387.992c.73 0 1.325.593 1.328 1.323v.008a1.33 1.33 0 01-1.328 1.326 1.33 1.33 0 01-1.328-1.325v-.002zM15.5 13.179h-2.839a2.335 2.335 0 00-2.274-1.828c-1.11 0-2.044.784-2.274 1.828H.5a.5.5 0 000 1h7.613a2.332 2.332 0 002.274 1.829 2.333 2.333 0 002.274-1.829H15.5a.5.5 0 100-1zm-5.113 1.829a1.33 1.33 0 01-1.328-1.326v-.001-.006a1.33 1.33 0 011.328-1.324c.73 0 1.325.593 1.328 1.323v.007a1.33 1.33 0 01-1.328 1.327zM15.5 7.5H7.887a2.332 2.332 0 00-2.274-1.828A2.333 2.333 0 003.339 7.5H.5a.5.5 0 000 1h2.839a2.335 2.335 0 002.274 1.828c1.11 0 2.044-.784 2.274-1.828H15.5a.5.5 0 000-1zm-8.559.499v.005a1.33 1.33 0 01-1.328 1.324c-.73 0-1.325-.593-1.328-1.323v-.007a1.33 1.33 0 011.328-1.326 1.33 1.33 0 011.328 1.325v.002z"/></g><defs><clipPath id="dclip0_3704_1267"><path fill="#fff" d="M0 0h16v16H0z"/></clipPath></defs></svg><svg viewBox="0 0 16 14" id="heart" xmlns="http://www.w3.org/2000/svg"><path d="M11.375 0A4.632 4.632 0 008 1.465a4.625 4.625 0 00-8 3.16c0 4.606 7.428 9.126 7.75 9.304a.5.5 0 00.515 0C8.572 13.75 16 9.23 16 4.625A4.63 4.63 0 0011.375 0zM8 12.911c-1.293-.825-7-4.68-7-8.286a3.625 3.625 0 016.59-2.082.5.5 0 00.818 0A3.625 3.625 0 0115 4.625c0 3.603-5.707 7.458-7 8.286z"/></svg><svg viewBox="0 0 20 20" id="ig" xmlns="http://www.w3.org/2000/svg"><path d="M14.424.37H5.576A5.228 5.228 0 00.354 5.59v8.848a5.228 5.228 0 005.222 5.222h8.848a5.228 5.228 0 005.222-5.222V5.591A5.228 5.228 0 0014.424.37zM10 15.29a5.281 5.281 0 01-5.275-5.275A5.281 5.281 0 0110 4.74a5.281 5.281 0 015.275 5.275A5.281 5.281 0 0110 15.29zm5.401-9.306c-.86 0-1.558-.699-1.558-1.558 0-.86.699-1.56 1.558-1.56a1.56 1.56 0 010 3.118z"/><path d="M10 5.871a4.149 4.149 0 00-4.144 4.144A4.149 4.149 0 0010 14.16a4.149 4.149 0 004.144-4.144A4.149 4.149 0 0010 5.871zM15.401 3.998a.428.428 0 10.002.856.428.428 0 00-.002-.856z"/></svg><svg viewBox="0 0 27 18" id="q" xmlns="http://www.w3.org/2000/svg"><path d="M12.074 6.226c-.034 1.325-.17 2.529-.408 3.61a12.963 12.963 0 01-1.07 2.983 13.6 13.6 0 01-1.68 2.616A29.624 29.624 0 016.673 18l-3.77-1.831c.238-.28.475-.61.713-.995.441-.697.866-1.656 1.274-2.877-1.427-.28-2.599-.96-3.516-2.041C.458 9.139 0 7.795 0 6.225c0-.871.153-1.674.458-2.406.34-.768.782-1.43 1.325-1.989A5.955 5.955 0 013.668.522 5.476 5.476 0 016.01 0c.85 0 1.63.174 2.344.523A5.81 5.81 0 0110.29 1.83c.543.559.967 1.221 1.273 1.989.34.732.51 1.535.51 2.407zm14.926 0c0 1.29-.119 2.46-.357 3.506a12.008 12.008 0 01-1.07 2.93 15.124 15.124 0 01-1.68 2.668A32.32 32.32 0 0121.548 18l-3.719-1.831c.238-.28.476-.61.713-.995.442-.697.866-1.656 1.274-2.877a6.209 6.209 0 01-3.566-2.041c-.917-1.116-1.376-2.46-1.376-4.03 0-.871.153-1.674.459-2.406.34-.768.781-1.43 1.325-1.989A5.81 5.81 0 0118.593.522 5.476 5.476 0 0120.938 0c.849 0 1.63.174 2.343.523a5.81 5.81 0 011.936 1.308c.543.559.968 1.221 1.274 1.989.34.732.509 1.535.509 2.407z"/></svg><svg viewBox="0 0 24 24" id="question" xmlns="http://www.w3.org/2000/svg"><circle cx="12" cy="12" r="12"/><path d="M11.178 13.216c0-.296.048-.556.144-.78.097-.224.22-.424.373-.6.152-.176.312-.34.48-.492.175-.152.34-.3.491-.444.152-.144.277-.296.373-.456.095-.16.143-.34.143-.54a.98.98 0 00-.408-.816c-.271-.208-.635-.312-1.091-.312-.44 0-.825.08-1.152.24-.32.16-.588.388-.805.684l-1.164-.756a3.41 3.41 0 011.32-1.068c.545-.264 1.188-.396 1.933-.396.584 0 1.096.088 1.536.264.44.168.783.416 1.031.744.248.32.373.712.373 1.176 0 .32-.053.6-.157.84-.096.24-.224.452-.384.636a5.838 5.838 0 01-.492.504c-.175.152-.343.304-.503.456a2.155 2.155 0 00-.372.492 1.284 1.284 0 00-.144.624h-1.524zm.768 2.868a.944.944 0 01-.695-.276.921.921 0 01-.264-.66c0-.256.088-.472.264-.648a.944.944 0 01.696-.276c.28 0 .508.092.684.276a.881.881 0 01.264.648.921.921 0 01-.948.936z" fill="#fff"/></svg><svg viewBox="0 0 11 14" id="range" xmlns="http://www.w3.org/2000/svg"><path d="M7.104 14c.183 0 .357-.105.486-.293.13-.187.202-.442.202-.707V6c0-.265-.073-.52-.202-.707C7.461 5.105 7.287 5 7.104 5c-.182 0-.357.105-.486.293A1.266 1.266 0 006.417 6v7c0 .265.072.52.201.707.129.188.304.293.486.293zM.688 14a.671.671 0 00.486-.211.741.741 0 00.201-.511V8.222a.741.741 0 00-.201-.51.671.671 0 00-.486-.212.671.671 0 00-.487.212.741.741 0 00-.201.51v5.056c0 .191.072.375.201.51A.671.671 0 00.687 14zM10.313 14a.636.636 0 00.486-.24.909.909 0 00.201-.581V3.32a.909.909 0 00-.201-.58.636.636 0 00-.486-.241.636.636 0 00-.487.24.909.909 0 00-.201.581v9.858c0 .217.072.426.201.58.13.155.304.241.486.241zM3.896 14c.182 0 .357-.105.486-.293.129-.187.201-.442.201-.707V1c0-.265-.072-.52-.201-.707C4.253.105 4.078 0 3.896 0c-.183 0-.357.105-.486.293A1.266 1.266 0 003.208 1v12c0 .265.073.52.202.707.129.188.303.293.486.293z"/></svg><svg viewBox="0 0 24 24" id="search" xmlns="http://www.w3.org/2000/svg"><g clip-path="url(#jclip0_2351_1528)"><path d="M22.49 22.562l-6.113-6.113a9.219 9.219 0 002.15-5.923c0-5.108-4.156-9.263-9.264-9.263S0 5.418 0 10.526s4.155 9.263 9.263 9.263a9.22 9.22 0 005.923-2.149l6.113 6.113a.84.84 0 001.191 0 .842.842 0 000-1.19zM1.684 10.526c0-4.179 3.4-7.579 7.58-7.579 4.179 0 7.578 3.4 7.578 7.58 0 4.178-3.4 7.578-7.579 7.578-4.18 0-7.579-3.4-7.579-7.579z"/></g><defs><clipPath id="jclip0_2351_1528"><path d="M0 0h24v24H0z"/></clipPath></defs></svg><svg viewBox="0 0 16 8" id="str" xmlns="http://www.w3.org/2000/svg"><path d="M15.354 4.354a.5.5 0 000-.707L12.172.465a.5.5 0 10-.708.707L14.293 4 11.464 6.83a.5.5 0 10.708.707l3.182-3.182zM0 4.5h15v-1H0v1z"/></svg><svg viewBox="0 0 22 19" id="tg" xmlns="http://www.w3.org/2000/svg"><path d="M.793 9.392l4.905 1.71 11.644-7.306c.169-.106.342.13.196.267L8.723 12.39l-.328 4.661c-.025.355.391.552.638.303l2.715-2.739 4.962 3.855c.534.415 1.309.122 1.453-.55l3.455-16.098c.197-.919-.68-1.693-1.535-1.357L.768 8.055C.163 8.291.18 9.177.793 9.391z"/></svg><svg viewBox="0 0 23 23" id="type1" xmlns="http://www.w3.org/2000/svg"><path d="M0 0h9.533v9.533H0zM0 13h9.533v9.533H0zM13 0h9.533v9.533H13zM13 13h9.533v9.533H13z"/></svg><svg viewBox="0 0 26 23" id="type2" xmlns="http://www.w3.org/2000/svg"><path d="M0 0h4.875v5.2H0zM8.125 0H26v5.2H8.125zM0 8.667h4.875v5.2H0zM8.125 8.667H26v5.2H8.125zM0 17.333h4.875v5.2H0zM8.125 17.333H26v5.2H8.125z"/></svg><svg fill="none" viewBox="0 0 14 16" id="user" xmlns="http://www.w3.org/2000/svg"><path d="M3.571 4.255c0 1.798 1.535 3.256 3.429 3.256s3.429-1.458 3.429-3.256C10.429 2.458 8.894 1 7 1S3.571 2.458 3.571 4.255zM1 12.341c0-.7.464-1.325 1.158-1.56a15.118 15.118 0 019.684 0c.694.235 1.158.86 1.158 1.56v1.07c0 .967-.902 1.71-1.909 1.573l-.818-.111a24.36 24.36 0 00-6.546 0l-.818.11C1.901 15.12 1 14.379 1 13.413V12.34z"/></svg><svg viewBox="0 0 26 15" id="vk" xmlns="http://www.w3.org/2000/svg"><path d="M25.558 13.253a1.693 1.693 0 00-.086-.162c-.44-.779-1.283-1.734-2.525-2.867l-.026-.026-.013-.013-.014-.013h-.013c-.564-.527-.92-.882-1.07-1.064-.274-.346-.335-.696-.186-1.05.106-.269.503-.835 1.19-1.7.361-.458.648-.826.859-1.103 1.524-1.989 2.185-3.26 1.983-3.813l-.08-.13c-.052-.078-.189-.149-.409-.214-.22-.065-.502-.075-.846-.032l-3.806.026a.503.503 0 00-.265.006l-.171.04-.067.032-.052.039a.584.584 0 00-.146.136.885.885 0 00-.132.227A21.01 21.01 0 0118.27 4.49a27.643 27.643 0 01-.899 1.395c-.273.393-.502.683-.687.87a4.775 4.775 0 01-.502.447c-.15.112-.265.16-.344.142a9.868 9.868 0 01-.225-.052.868.868 0 01-.297-.317 1.405 1.405 0 01-.152-.506 5.493 5.493 0 01-.046-.526 10.82 10.82 0 01.006-.623c.01-.268.014-.45.014-.544 0-.329.006-.686.02-1.07l.033-.915c.009-.225.013-.463.013-.714 0-.25-.016-.447-.046-.59a1.991 1.991 0 00-.139-.415.703.703 0 00-.27-.311 1.544 1.544 0 00-.444-.176c-.467-.103-1.061-.16-1.784-.168C10.88.4 9.828.503 9.36.728a1.776 1.776 0 00-.502.39c-.159.19-.18.294-.066.31.528.078.903.264 1.123.558l.08.156c.061.113.123.312.185.597.061.285.101.601.119.947a9.907 9.907 0 010 1.621c-.045.45-.086.8-.126 1.051-.04.25-.1.454-.178.61-.08.155-.133.25-.16.285a.226.226 0 01-.065.065 1.007 1.007 0 01-.357.065c-.124 0-.273-.06-.45-.182a3.149 3.149 0 01-.548-.5 6.68 6.68 0 01-.641-.888c-.238-.38-.485-.83-.74-1.349l-.211-.376a32.143 32.143 0 01-.542-1.057c-.23-.463-.432-.91-.608-1.343a.857.857 0 00-.317-.415l-.067-.04a.91.91 0 00-.211-.11 1.423 1.423 0 00-.304-.084l-3.621.026c-.37 0-.621.082-.754.247l-.053.077a.413.413 0 00-.04.208c0 .095.027.212.08.35a42.472 42.472 0 001.725 3.529c.62 1.133 1.16 2.045 1.619 2.737a32.32 32.32 0 001.4 1.959c.476.614.791 1.007.946 1.18.154.173.275.303.363.39l.33.31c.212.208.523.457.932.746.41.29.864.576 1.362.857a7.47 7.47 0 001.738.687c.66.178 1.304.249 1.93.214h1.52c.308-.026.541-.12.7-.285l.052-.065a.849.849 0 00.1-.24c.03-.108.046-.227.046-.356a4.2 4.2 0 01.085-1.006c.066-.298.141-.523.225-.674.084-.152.179-.28.284-.383.106-.104.181-.166.226-.188a.892.892 0 01.105-.045c.211-.07.46-.002.747.2.286.204.555.455.806.753.251.299.553.634.905 1.006.353.372.661.648.925.83l.265.155c.176.104.405.2.687.286.282.086.529.108.74.065l3.384-.052c.334 0 .595-.054.78-.162.184-.108.294-.227.33-.357a.987.987 0 00.007-.441 1.61 1.61 0 00-.093-.344z"/></svg><svg viewBox="0 0 115 210" id="word.color" xmlns="http://www.w3.org/2000/svg"><path d="M64.18 115.476c0 .96-.156 1.854-.468 2.682a6.697 6.697 0 01-1.35 2.142 6.325 6.325 0 01-2.07 1.404 6.569 6.569 0 01-2.592.504c-.936 0-1.8-.168-2.592-.504a6.003 6.003 0 01-2.052-1.422 6.307 6.307 0 01-1.35-2.142c-.324-.816-.486-1.71-.486-2.682 0-1.032.18-1.974.54-2.826a5.515 5.515 0 011.566-2.16l1.422 1.512a4.464 4.464 0 00-1.098 1.53 4.449 4.449 0 00-.378 1.836c0 .66.108 1.266.324 1.818.216.54.522 1.014.918 1.422.396.396.864.708 1.404.936.54.216 1.134.324 1.782.324.648 0 1.242-.108 1.782-.324a4.361 4.361 0 001.404-.936c.396-.408.702-.882.918-1.422a4.948 4.948 0 00.324-1.818c0-.66-.12-1.272-.36-1.836a4.58 4.58 0 00-1.134-1.53l1.44-1.512a5.764 5.764 0 011.566 2.16c.36.852.54 1.8.54 2.844zm0-15.587c0 .985-.162 1.891-.486 2.719a6.65 6.65 0 01-1.35 2.16 6.242 6.242 0 01-2.052 1.422 6.569 6.569 0 01-2.592.504c-.936 0-1.794-.168-2.574-.504a6.003 6.003 0 01-2.052-1.422 6.498 6.498 0 01-1.368-2.16 7.346 7.346 0 01-.486-2.7c0-.984.162-1.885.486-2.7a6.498 6.498 0 011.368-2.16 6.003 6.003 0 012.052-1.422c.78-.337 1.638-.505 2.574-.505.936 0 1.8.169 2.592.505.792.335 1.476.81 2.052 1.421a6.65 6.65 0 011.35 2.16c.324.817.486 1.71.486 2.683zm-2.052.019c0-.636-.108-1.225-.324-1.764a4.13 4.13 0 00-.918-1.404 4.377 4.377 0 00-1.404-.918 4.536 4.536 0 00-1.782-.343c-.648 0-1.236.115-1.764.343a4.13 4.13 0 00-1.404.918c-.408.395-.72.864-.936 1.404a4.707 4.707 0 00-.324 1.763c0 .637.108 1.225.324 1.765.216.528.528.996.936 1.404.396.396.864.708 1.404.936a4.619 4.619 0 001.764.324c.636 0 1.224-.108 1.764-.324a4.577 4.577 0 001.422-.936 4.13 4.13 0 00.918-1.404c.216-.54.324-1.128.324-1.764zM64 87.94H51.4v-2.34h10.62v-6.588H64v8.928zm.18-19.15c0 .983-.162 1.89-.486 2.717a6.65 6.65 0 01-1.35 2.16 6.242 6.242 0 01-2.052 1.422 6.569 6.569 0 01-2.592.504c-.936 0-1.794-.168-2.574-.504a6.003 6.003 0 01-2.052-1.422 6.498 6.498 0 01-1.368-2.16 7.345 7.345 0 01-.486-2.7c0-.984.162-1.884.486-2.7a6.498 6.498 0 011.368-2.16 6.003 6.003 0 012.052-1.422c.78-.336 1.638-.504 2.574-.504.936 0 1.8.168 2.592.504.792.336 1.476.81 2.052 1.422a6.65 6.65 0 011.35 2.16c.324.816.486 1.71.486 2.682zm-2.052.017c0-.636-.108-1.224-.324-1.764a4.13 4.13 0 00-.918-1.404 4.377 4.377 0 00-1.404-.918 4.536 4.536 0 00-1.782-.342c-.648 0-1.236.114-1.764.342a4.13 4.13 0 00-1.404.918c-.408.396-.72.864-.936 1.404a4.707 4.707 0 00-.324 1.764c0 .636.108 1.224.324 1.764.216.528.528.996.936 1.404.396.396.864.708 1.404.936a4.619 4.619 0 001.764.324c.636 0 1.224-.108 1.764-.324a4.577 4.577 0 001.422-.936 4.13 4.13 0 00.918-1.404c.216-.54.324-1.128.324-1.764zM64 56.842H51.4v-5.184c0-1.116.18-2.07.54-2.862.36-.804.876-1.422 1.548-1.854.672-.432 1.47-.648 2.394-.648.924 0 1.722.216 2.394.648.66.432 1.17 1.05 1.53 1.854.348.792.522 1.746.522 2.862v3.888l-1.062-1.044H64v2.34zm0-8.244l-4.572 3.186v-2.502L64 46.078v2.52zm-4.482 5.904l-1.116 1.044v-3.78c0-1.032-.222-1.806-.666-2.322-.444-.528-1.062-.792-1.854-.792-.804 0-1.422.264-1.854.792-.432.516-.648 1.29-.648 2.322v3.78l-1.152-1.044h7.29z"/><path opacity=".5" d="M64.18 146.476c0 .96-.156 1.854-.468 2.682a6.697 6.697 0 01-1.35 2.142 6.325 6.325 0 01-2.07 1.404 6.569 6.569 0 01-2.592.504c-.936 0-1.8-.168-2.592-.504a6.003 6.003 0 01-2.052-1.422 6.307 6.307 0 01-1.35-2.142c-.324-.816-.486-1.71-.486-2.682 0-1.032.18-1.974.54-2.826a5.515 5.515 0 011.566-2.16l1.422 1.512a4.464 4.464 0 00-1.098 1.53 4.449 4.449 0 00-.378 1.836c0 .66.108 1.266.324 1.818.216.54.522 1.014.918 1.422.396.396.864.708 1.404.936.54.216 1.134.324 1.782.324.648 0 1.242-.108 1.782-.324a4.361 4.361 0 001.404-.936c.396-.408.702-.882.918-1.422a4.948 4.948 0 00.324-1.818c0-.66-.12-1.272-.36-1.836a4.58 4.58 0 00-1.134-1.53l1.44-1.512a5.764 5.764 0 011.566 2.16c.36.852.54 1.8.54 2.844z"/><path opacity=".2" d="M64.18 174.476c0 .96-.156 1.854-.468 2.682a6.697 6.697 0 01-1.35 2.142 6.325 6.325 0 01-2.07 1.404 6.569 6.569 0 01-2.592.504c-.936 0-1.8-.168-2.592-.504a6.003 6.003 0 01-2.052-1.422 6.307 6.307 0 01-1.35-2.142c-.324-.816-.486-1.71-.486-2.682 0-1.032.18-1.974.54-2.826a5.515 5.515 0 011.566-2.16l1.422 1.512a4.464 4.464 0 00-1.098 1.53 4.449 4.449 0 00-.378 1.836c0 .66.108 1.266.324 1.818.216.54.522 1.014.918 1.422.396.396.864.708 1.404.936.54.216 1.134.324 1.782.324.648 0 1.242-.108 1.782-.324a4.361 4.361 0 001.404-.936c.396-.408.702-.882.918-1.422a4.948 4.948 0 00.324-1.818c0-.66-.12-1.272-.36-1.836a4.58 4.58 0 00-1.134-1.53l1.44-1.512a5.764 5.764 0 011.566 2.16c.36.852.54 1.8.54 2.844z"/><path opacity=".1" d="M64.18 202.476c0 .96-.156 1.854-.468 2.682a6.697 6.697 0 01-1.35 2.142 6.325 6.325 0 01-2.07 1.404 6.569 6.569 0 01-2.592.504c-.936 0-1.8-.168-2.592-.504a6.003 6.003 0 01-2.052-1.422 6.307 6.307 0 01-1.35-2.142c-.324-.816-.486-1.71-.486-2.682 0-1.032.18-1.974.54-2.826a5.515 5.515 0 011.566-2.16l1.422 1.512a4.464 4.464 0 00-1.098 1.53 4.449 4.449 0 00-.378 1.836c0 .66.108 1.266.324 1.818.216.54.522 1.014.918 1.422.396.396.864.708 1.404.936.54.216 1.134.324 1.782.324.648 0 1.242-.108 1.782-.324a4.361 4.361 0 001.404-.936c.396-.408.702-.882.918-1.422a4.948 4.948 0 00.324-1.818c0-.66-.12-1.272-.36-1.836a4.58 4.58 0 00-1.134-1.53l1.44-1.512a5.764 5.764 0 011.566 2.16c.36.852.54 1.8.54 2.844z"/><rect x="52" width="12" height="12" rx="6" fill="#D2286F"/></svg><svg viewBox="0 0 115 198" id="word.paint" xmlns="http://www.w3.org/2000/svg"><path d="M51 88.692h12.6v5.184c0 1.116-.18 2.07-.54 2.862-.36.804-.876 1.422-1.548 1.854-.672.432-1.47.648-2.394.648-.924 0-1.722-.216-2.394-.648-.672-.432-1.188-1.05-1.548-1.854-.36-.792-.54-1.746-.54-2.862v-3.888l1.098 1.044H51v-2.34zm4.482 2.34l1.134-1.044v3.78c0 1.032.216 1.806.648 2.322.444.528 1.062.792 1.854.792.804 0 1.422-.264 1.854-.792.432-.516.648-1.29.648-2.322v-3.78l1.152 1.044h-7.29zM51 101.862l12.6 5.67v2.304L51 115.524v-2.448l11.358-4.878v.936L51 104.274v-2.412zm2.916 2.61l1.836.63v6.804l-1.836.63v-8.064zM51 119.826h12.6v2.34H51v-2.34zm0 8.448h12.6v1.926l-9.702 7.902v-.954H63.6v2.322H51v-1.926l9.702-7.902v.954H51v-2.322zm0 19.829h10.62v-4.176h1.98v10.692h-1.98v-4.176H51v-2.34z"/><path opacity=".5" d="M51 57.692h12.6v5.184c0 1.116-.18 2.07-.54 2.862-.36.804-.876 1.422-1.548 1.854-.672.432-1.47.648-2.394.648-.924 0-1.722-.216-2.394-.648-.672-.432-1.188-1.05-1.548-1.854-.36-.792-.54-1.746-.54-2.862v-3.888l1.098 1.044H51v-2.34zm4.482 2.34l1.134-1.044v3.78c0 1.032.216 1.806.648 2.322.444.528 1.062.792 1.854.792.804 0 1.422-.264 1.854-.792.432-.516.648-1.29.648-2.322v-3.78l1.152 1.044h-7.29z"/><path opacity=".2" d="M51 29.692h12.6v5.184c0 1.116-.18 2.07-.54 2.862-.36.804-.876 1.422-1.548 1.854-.672.432-1.47.648-2.394.648-.924 0-1.722-.216-2.394-.648-.672-.432-1.188-1.05-1.548-1.854-.36-.792-.54-1.746-.54-2.862v-3.888l1.098 1.044H51v-2.34zm4.482 2.34l1.134-1.044v3.78c0 1.032.216 1.806.648 2.322.444.528 1.062.792 1.854.792.804 0 1.422-.264 1.854-.792.432-.516.648-1.29.648-2.322v-3.78l1.152 1.044h-7.29z"/><path opacity=".1" d="M51 1.692h12.6v5.184c0 1.116-.18 2.07-.54 2.862-.36.804-.876 1.422-1.548 1.854-.672.432-1.47.648-2.394.648-.924 0-1.722-.216-2.394-.648-.672-.432-1.188-1.05-1.548-1.854-.36-.792-.54-1.746-.54-2.862V2.988l1.098 1.044H51v-2.34zm4.482 2.34l1.134-1.044v3.78c0 1.032.216 1.806.648 2.322.444.528 1.062.792 1.854.792.804 0 1.422-.264 1.854-.792.432-.516.648-1.29.648-2.322v-3.78l1.152 1.044h-7.29z"/><rect x="52" y="186" width="12" height="12" rx="6" fill="#D2286F"/></svg><svg viewBox="0 0 115 198" id="word.style" xmlns="http://www.w3.org/2000/svg"><path d="M50.82 92.598c0-.984.138-1.926.414-2.826.288-.9.654-1.614 1.098-2.142l1.818.81c-.396.504-.726 1.128-.99 1.872a6.788 6.788 0 00-.396 2.286c0 .66.072 1.194.216 1.602.144.408.336.708.576.9.252.192.534.288.846.288.384 0 .69-.138.918-.414.24-.276.426-.636.558-1.08.144-.432.276-.918.396-1.458.12-.528.258-1.062.414-1.602a7.632 7.632 0 01.63-1.458 3.269 3.269 0 011.044-1.062c.432-.276.984-.414 1.656-.414.684 0 1.308.18 1.872.54.576.372 1.032.93 1.368 1.674.348.756.522 1.71.522 2.862a8.97 8.97 0 01-.288 2.25c-.192.744-.468 1.392-.828 1.944l-1.818-.738a6.693 6.693 0 00.738-1.746c.168-.6.252-1.176.252-1.728 0-.648-.078-1.176-.234-1.584-.156-.396-.36-.69-.612-.882a1.45 1.45 0 00-.864-.27c-.384 0-.696.132-.936.396-.228.276-.408.63-.54 1.062-.132.444-.264.936-.396 1.476-.12.54-.258 1.074-.414 1.602a6.414 6.414 0 01-.612 1.458 2.903 2.903 0 01-1.026 1.062c-.432.276-.978.414-1.638.414a3.385 3.385 0 01-1.872-.558c-.564-.36-1.02-.918-1.368-1.674-.336-.756-.504-1.71-.504-2.862zm.18 12.494h10.62v-4.176h1.98v10.692h-1.98v-4.176H51v-2.34zm0 13.875h4.986l-1.44.522 9.054-5.472v2.502l-7.29 4.392v-1.404l7.29 4.428v2.304l-9.054-5.472 1.44.54H51v-2.34zm0 11.346h12.6v2.34H52.98v6.588H51v-8.928zm7.362 15.636v6.264h-1.926v-6.264h1.926zm-5.4.18v7.11H51v-9.45h12.6v9.198h-1.962v-6.858h-8.676z"/><path opacity=".5" d="M50.82 61.598c0-.984.138-1.926.414-2.826.288-.9.654-1.614 1.098-2.142l1.818.81c-.396.504-.726 1.128-.99 1.872a6.788 6.788 0 00-.396 2.286c0 .66.072 1.194.216 1.602.144.408.336.708.576.9.252.192.534.288.846.288.384 0 .69-.138.918-.414.24-.276.426-.636.558-1.08.144-.432.276-.918.396-1.458.12-.528.258-1.062.414-1.602a7.632 7.632 0 01.63-1.458 3.269 3.269 0 011.044-1.062c.432-.276.984-.414 1.656-.414.684 0 1.308.18 1.872.54.576.372 1.032.93 1.368 1.674.348.756.522 1.71.522 2.862a8.97 8.97 0 01-.288 2.25c-.192.744-.468 1.392-.828 1.944l-1.818-.738a6.693 6.693 0 00.738-1.746c.168-.6.252-1.176.252-1.728 0-.648-.078-1.176-.234-1.584-.156-.396-.36-.69-.612-.882a1.45 1.45 0 00-.864-.27c-.384 0-.696.132-.936.396-.228.276-.408.63-.54 1.062-.132.444-.264.936-.396 1.476-.12.54-.258 1.074-.414 1.602a6.414 6.414 0 01-.612 1.458 2.903 2.903 0 01-1.026 1.062c-.432.276-.978.414-1.638.414a3.385 3.385 0 01-1.872-.558c-.564-.36-1.02-.918-1.368-1.674-.336-.756-.504-1.71-.504-2.862z"/><path opacity=".2" d="M50.82 33.598c0-.984.138-1.926.414-2.826.288-.9.654-1.614 1.098-2.142l1.818.81c-.396.504-.726 1.128-.99 1.872a6.788 6.788 0 00-.396 2.286c0 .66.072 1.194.216 1.602.144.408.336.708.576.9.252.192.534.288.846.288.384 0 .69-.138.918-.414.24-.276.426-.636.558-1.08.144-.432.276-.918.396-1.458.12-.528.258-1.062.414-1.602a7.632 7.632 0 01.63-1.458 3.269 3.269 0 011.044-1.062c.432-.276.984-.414 1.656-.414.684 0 1.308.18 1.872.54.576.372 1.032.93 1.368 1.674.348.756.522 1.71.522 2.862a8.97 8.97 0 01-.288 2.25c-.192.744-.468 1.392-.828 1.944l-1.818-.738a6.693 6.693 0 00.738-1.746c.168-.6.252-1.176.252-1.728 0-.648-.078-1.176-.234-1.584-.156-.396-.36-.69-.612-.882a1.45 1.45 0 00-.864-.27c-.384 0-.696.132-.936.396-.228.276-.408.63-.54 1.062-.132.444-.264.936-.396 1.476-.12.54-.258 1.074-.414 1.602a6.414 6.414 0 01-.612 1.458 2.903 2.903 0 01-1.026 1.062c-.432.276-.978.414-1.638.414a3.385 3.385 0 01-1.872-.558c-.564-.36-1.02-.918-1.368-1.674-.336-.756-.504-1.71-.504-2.862z"/><path opacity=".1" d="M50.82 5.598c0-.984.138-1.926.414-2.826.288-.9.654-1.614 1.098-2.142l1.818.81c-.396.504-.726 1.128-.99 1.872a6.788 6.788 0 00-.396 2.286c0 .66.072 1.194.216 1.602.144.408.336.708.576.9.252.192.534.288.846.288.384 0 .69-.138.918-.414.24-.276.426-.636.558-1.08.144-.432.276-.918.396-1.458.12-.528.258-1.062.414-1.602a7.632 7.632 0 01.63-1.458 3.269 3.269 0 011.044-1.062c.432-.276.984-.414 1.656-.414.684 0 1.308.18 1.872.54.576.372 1.032.93 1.368 1.674.348.756.522 1.71.522 2.862a8.97 8.97 0 01-.288 2.25c-.192.744-.468 1.392-.828 1.944l-1.818-.738a6.693 6.693 0 00.738-1.746c.168-.6.252-1.176.252-1.728 0-.648-.078-1.176-.234-1.584-.156-.396-.36-.69-.612-.882a1.45 1.45 0 00-.864-.27c-.384 0-.696.132-.936.396-.228.276-.408.63-.54 1.062-.132.444-.264.936-.396 1.476-.12.54-.258 1.074-.414 1.602a6.414 6.414 0 01-.612 1.458 2.903 2.903 0 01-1.026 1.062c-.432.276-.978.414-1.638.414a3.385 3.385 0 01-1.872-.558c-.564-.36-1.02-.918-1.368-1.674-.336-.756-.504-1.71-.504-2.862z"/><rect x="53" y="186" width="12" height="12" rx="6" fill="#D2286F"/></svg></svg>