<svg width="14" height="16" viewBox="0 0 14 16" fill="none" xmlns="http://www.w3.org/2000/svg">
<path d="M3.57143 4.25547C3.57143 6.05342 5.10645 7.51094 7 7.51094C8.89355 7.51094 10.4286 6.05342 10.4286 4.25547C10.4286 2.45752 8.89355 1 7 1C5.10645 1 3.57143 2.45752 3.57143 4.25547Z" stroke-width="1.2"/>
<path d="M1 12.341C1 11.6408 1.46359 11.0161 2.15808 10.7806C5.28918 9.71884 8.71082 9.71884 11.8419 10.7806C12.5364 11.0161 13 11.6408 13 12.341V13.4116C13 14.3781 12.0985 15.1204 11.091 14.9837L10.2729 14.8728C8.10198 14.5783 5.89801 14.5783 3.72711 14.8728L2.90903 14.9837C1.90146 15.1204 1 14.3781 1 13.4116V12.341Z" stroke-width="1.2"/>
</svg>