<svg width="26" height="15" viewBox="0 0 26 15" xmlns="http://www.w3.org/2000/svg"><path d="M25.558 13.253a1.693 1.693 0 00-.086-.162c-.44-.779-1.283-1.734-2.525-2.867l-.026-.026-.013-.013-.014-.013h-.013c-.564-.527-.92-.882-1.07-1.064-.274-.346-.335-.696-.186-1.05.106-.269.503-.835 1.19-1.7.361-.458.648-.826.859-1.103 1.524-1.989 2.185-3.26 1.983-3.813l-.08-.13c-.052-.078-.189-.149-.409-.214-.22-.065-.502-.075-.846-.032l-3.806.026a.503.503 0 00-.265.006l-.171.04-.067.032-.052.039a.584.584 0 00-.146.136.885.885 0 00-.132.227A21.01 21.01 0 0118.27 4.49a27.643 27.643 0 01-.899 1.395c-.273.393-.502.683-.687.87a4.775 4.775 0 01-.502.447c-.15.112-.265.16-.344.142a9.868 9.868 0 01-.225-.052.868.868 0 01-.297-.317 1.405 1.405 0 01-.152-.506 5.493 5.493 0 01-.046-.526 10.82 10.82 0 01.006-.623c.01-.268.014-.45.014-.544 0-.329.006-.686.02-1.07l.033-.915c.009-.225.013-.463.013-.714 0-.25-.016-.447-.046-.59a1.991 1.991 0 00-.139-.415.703.703 0 00-.27-.311 1.544 1.544 0 00-.444-.176c-.467-.103-1.061-.16-1.784-.168C10.88.4 9.828.503 9.36.728a1.776 1.776 0 00-.502.39c-.159.19-.18.294-.066.31.528.078.903.264 1.123.558l.08.156c.061.113.123.312.185.597.061.285.101.601.119.947a9.907 9.907 0 010 1.621c-.045.45-.086.8-.126 1.051-.04.25-.1.454-.178.61a2.59 2.59 0 01-.16.285.226.226 0 01-.065.065 1.007 1.007 0 01-.357.065c-.124 0-.273-.06-.45-.182a3.149 3.149 0 01-.548-.5 6.68 6.68 0 01-.641-.888 15.14 15.14 0 01-.74-1.349l-.211-.376a32.143 32.143 0 01-.542-1.057c-.23-.463-.432-.91-.608-1.343a.857.857 0 00-.317-.415l-.067-.04a.91.91 0 00-.211-.11 1.423 1.423 0 00-.304-.084l-3.621.026c-.37 0-.621.082-.754.247l-.053.077a.413.413 0 00-.04.208c0 .095.027.212.08.35a42.472 42.472 0 001.725 3.529c.62 1.133 1.16 2.045 1.619 2.737a32.32 32.32 0 001.4 1.959c.476.614.791 1.007.946 1.18.154.173.275.303.363.39l.33.31c.212.208.523.457.932.746.41.29.864.576 1.362.857a7.47 7.47 0 001.738.687 6.08 6.08 0 001.93.214h1.52c.308-.026.541-.12.7-.285l.052-.065a.849.849 0 00.1-.24c.03-.108.046-.227.046-.356a4.2 4.2 0 01.085-1.006c.066-.298.141-.523.225-.674a1.651 1.651 0 01.51-.571.892.892 0 01.105-.045c.211-.07.46-.002.747.2.286.204.555.455.806.753.251.299.553.634.905 1.006.353.372.661.648.925.83l.265.155c.176.104.405.2.687.286.282.086.529.108.74.065l3.384-.052c.334 0 .595-.054.78-.162.184-.108.294-.227.33-.357a.987.987 0 00.007-.441 1.61 1.61 0 00-.093-.344z"/></svg>