<svg width="115" height="198" viewBox="0 0 115 198" xmlns="http://www.w3.org/2000/svg"><path d="M51 88.692h12.6v5.184c0 1.116-.18 2.07-.54 2.862-.36.804-.876 1.422-1.548 1.854-.672.432-1.47.648-2.394.648-.924 0-1.722-.216-2.394-.648-.672-.432-1.188-1.05-1.548-1.854-.36-.792-.54-1.746-.54-2.862v-3.888l1.098 1.044H51v-2.34zm4.482 2.34l1.134-1.044v3.78c0 1.032.216 1.806.648 2.322.444.528 1.062.792 1.854.792.804 0 1.422-.264 1.854-.792.432-.516.648-1.29.648-2.322v-3.78l1.152 1.044h-7.29zM51 101.862l12.6 5.67v2.304L51 115.524v-2.448l11.358-4.878v.936L51 104.274v-2.412zm2.916 2.61l1.836.63v6.804l-1.836.63v-8.064zM51 119.826h12.6v2.34H51v-2.34zm0 8.448h12.6v1.926l-9.702 7.902v-.954H63.6v2.322H51v-1.926l9.702-7.902v.954H51v-2.322zm0 19.829h10.62v-4.176h1.98v10.692h-1.98v-4.176H51v-2.34z"/><path opacity=".5" d="M51 57.692h12.6v5.184c0 1.116-.18 2.07-.54 2.862-.36.804-.876 1.422-1.548 1.854-.672.432-1.47.648-2.394.648-.924 0-1.722-.216-2.394-.648-.672-.432-1.188-1.05-1.548-1.854-.36-.792-.54-1.746-.54-2.862v-3.888l1.098 1.044H51v-2.34zm4.482 2.34l1.134-1.044v3.78c0 1.032.216 1.806.648 2.322.444.528 1.062.792 1.854.792.804 0 1.422-.264 1.854-.792.432-.516.648-1.29.648-2.322v-3.78l1.152 1.044h-7.29z"/><path opacity=".2" d="M51 29.692h12.6v5.184c0 1.116-.18 2.07-.54 2.862-.36.804-.876 1.422-1.548 1.854-.672.432-1.47.648-2.394.648-.924 0-1.722-.216-2.394-.648-.672-.432-1.188-1.05-1.548-1.854-.36-.792-.54-1.746-.54-2.862v-3.888l1.098 1.044H51v-2.34zm4.482 2.34l1.134-1.044v3.78c0 1.032.216 1.806.648 2.322.444.528 1.062.792 1.854.792.804 0 1.422-.264 1.854-.792.432-.516.648-1.29.648-2.322v-3.78l1.152 1.044h-7.29z"/><path opacity=".1" d="M51 1.692h12.6v5.184c0 1.116-.18 2.07-.54 2.862-.36.804-.876 1.422-1.548 1.854-.672.432-1.47.648-2.394.648-.924 0-1.722-.216-2.394-.648-.672-.432-1.188-1.05-1.548-1.854-.36-.792-.54-1.746-.54-2.862V2.988l1.098 1.044H51v-2.34zm4.482 2.34l1.134-1.044v3.78c0 1.032.216 1.806.648 2.322.444.528 1.062.792 1.854.792.804 0 1.422-.264 1.854-.792.432-.516.648-1.29.648-2.322v-3.78l1.152 1.044h-7.29z"/><rect x="52" y="186" width="12" height="12" rx="6" fill="#D2286F"/></svg>