<svg width="115" height="210" viewBox="0 0 115 210" xmlns="http://www.w3.org/2000/svg"><path d="M64.18 115.476c0 .96-.156 1.854-.468 2.682a6.697 6.697 0 01-1.35 2.142 6.325 6.325 0 01-2.07 1.404 6.569 6.569 0 01-2.592.504c-.936 0-1.8-.168-2.592-.504a6.003 6.003 0 01-2.052-1.422 6.307 6.307 0 01-1.35-2.142c-.324-.816-.486-1.71-.486-2.682 0-1.032.18-1.974.54-2.826a5.515 5.515 0 011.566-2.16l1.422 1.512a4.464 4.464 0 00-1.098 1.53 4.449 4.449 0 00-.378 1.836c0 .66.108 1.266.324 1.818.216.54.522 1.014.918 1.422.396.396.864.708 1.404.936.54.216 1.134.324 1.782.324.648 0 1.242-.108 1.782-.324a4.361 4.361 0 001.404-.936c.396-.408.702-.882.918-1.422a4.948 4.948 0 00.324-1.818c0-.66-.12-1.272-.36-1.836a4.58 4.58 0 00-1.134-1.53l1.44-1.512a5.764 5.764 0 011.566 2.16c.36.852.54 1.8.54 2.844zm0-15.587c0 .985-.162 1.891-.486 2.719a6.65 6.65 0 01-1.35 2.16 6.242 6.242 0 01-2.052 1.422 6.569 6.569 0 01-2.592.504c-.936 0-1.794-.168-2.574-.504a6.003 6.003 0 01-2.052-1.422 6.498 6.498 0 01-1.368-2.16 7.346 7.346 0 01-.486-2.7c0-.984.162-1.885.486-2.7a6.498 6.498 0 011.368-2.16 6.003 6.003 0 012.052-1.422c.78-.337 1.638-.505 2.574-.505.936 0 1.8.169 2.592.505a6 6 0 012.052 1.421 6.65 6.65 0 011.35 2.16c.324.817.486 1.71.486 2.683zm-2.052.019c0-.636-.108-1.225-.324-1.764a4.13 4.13 0 00-.918-1.404 4.377 4.377 0 00-1.404-.918 4.536 4.536 0 00-1.782-.343c-.648 0-1.236.115-1.764.343a4.13 4.13 0 00-1.404.918c-.408.395-.72.864-.936 1.404a4.707 4.707 0 00-.324 1.763c0 .637.108 1.225.324 1.765.216.528.528.996.936 1.404.396.396.864.708 1.404.936a4.619 4.619 0 001.764.324c.636 0 1.224-.108 1.764-.324a4.577 4.577 0 001.422-.936 4.13 4.13 0 00.918-1.404c.216-.54.324-1.128.324-1.764zM64 87.94H51.4V85.6h10.62v-6.588H64v8.928zm.18-19.15c0 .983-.162 1.89-.486 2.717a6.65 6.65 0 01-1.35 2.16 6.242 6.242 0 01-2.052 1.422 6.569 6.569 0 01-2.592.504c-.936 0-1.794-.168-2.574-.504a6.003 6.003 0 01-2.052-1.422 6.498 6.498 0 01-1.368-2.16 7.345 7.345 0 01-.486-2.7c0-.984.162-1.884.486-2.7a6.498 6.498 0 011.368-2.16 6.003 6.003 0 012.052-1.422c.78-.336 1.638-.504 2.574-.504.936 0 1.8.168 2.592.504.792.336 1.476.81 2.052 1.422a6.65 6.65 0 011.35 2.16c.324.816.486 1.71.486 2.682zm-2.052.017c0-.636-.108-1.224-.324-1.764a4.13 4.13 0 00-.918-1.404 4.377 4.377 0 00-1.404-.918 4.536 4.536 0 00-1.782-.342c-.648 0-1.236.114-1.764.342a4.13 4.13 0 00-1.404.918c-.408.396-.72.864-.936 1.404a4.707 4.707 0 00-.324 1.764c0 .636.108 1.224.324 1.764.216.528.528.996.936 1.404.396.396.864.708 1.404.936a4.619 4.619 0 001.764.324c.636 0 1.224-.108 1.764-.324a4.577 4.577 0 001.422-.936 4.13 4.13 0 00.918-1.404c.216-.54.324-1.128.324-1.764zM64 56.842H51.4v-5.184c0-1.116.18-2.07.54-2.862.36-.804.876-1.422 1.548-1.854.672-.432 1.47-.648 2.394-.648.924 0 1.722.216 2.394.648.66.432 1.17 1.05 1.53 1.854.348.792.522 1.746.522 2.862v3.888l-1.062-1.044H64v2.34zm0-8.244l-4.572 3.186v-2.502L64 46.078v2.52zm-4.482 5.904l-1.116 1.044v-3.78c0-1.032-.222-1.806-.666-2.322-.444-.528-1.062-.792-1.854-.792-.804 0-1.422.264-1.854.792-.432.516-.648 1.29-.648 2.322v3.78l-1.152-1.044h7.29z"/><path opacity=".5" d="M64.18 146.476c0 .96-.156 1.854-.468 2.682a6.697 6.697 0 01-1.35 2.142 6.325 6.325 0 01-2.07 1.404 6.569 6.569 0 01-2.592.504c-.936 0-1.8-.168-2.592-.504a6.003 6.003 0 01-2.052-1.422 6.307 6.307 0 01-1.35-2.142c-.324-.816-.486-1.71-.486-2.682 0-1.032.18-1.974.54-2.826a5.515 5.515 0 011.566-2.16l1.422 1.512a4.464 4.464 0 00-1.098 1.53 4.449 4.449 0 00-.378 1.836c0 .66.108 1.266.324 1.818.216.54.522 1.014.918 1.422.396.396.864.708 1.404.936.54.216 1.134.324 1.782.324.648 0 1.242-.108 1.782-.324a4.361 4.361 0 001.404-.936c.396-.408.702-.882.918-1.422a4.948 4.948 0 00.324-1.818c0-.66-.12-1.272-.36-1.836a4.58 4.58 0 00-1.134-1.53l1.44-1.512a5.764 5.764 0 011.566 2.16c.36.852.54 1.8.54 2.844z"/><path opacity=".2" d="M64.18 174.476c0 .96-.156 1.854-.468 2.682a6.697 6.697 0 01-1.35 2.142 6.325 6.325 0 01-2.07 1.404 6.569 6.569 0 01-2.592.504c-.936 0-1.8-.168-2.592-.504a6.003 6.003 0 01-2.052-1.422 6.307 6.307 0 01-1.35-2.142c-.324-.816-.486-1.71-.486-2.682 0-1.032.18-1.974.54-2.826a5.515 5.515 0 011.566-2.16l1.422 1.512a4.464 4.464 0 00-1.098 1.53 4.449 4.449 0 00-.378 1.836c0 .66.108 1.266.324 1.818.216.54.522 1.014.918 1.422.396.396.864.708 1.404.936.54.216 1.134.324 1.782.324.648 0 1.242-.108 1.782-.324a4.361 4.361 0 001.404-.936c.396-.408.702-.882.918-1.422a4.948 4.948 0 00.324-1.818c0-.66-.12-1.272-.36-1.836a4.58 4.58 0 00-1.134-1.53l1.44-1.512a5.764 5.764 0 011.566 2.16c.36.852.54 1.8.54 2.844z"/><path opacity=".1" d="M64.18 202.476c0 .96-.156 1.854-.468 2.682a6.697 6.697 0 01-1.35 2.142 6.325 6.325 0 01-2.07 1.404 6.569 6.569 0 01-2.592.504c-.936 0-1.8-.168-2.592-.504a6.003 6.003 0 01-2.052-1.422 6.307 6.307 0 01-1.35-2.142c-.324-.816-.486-1.71-.486-2.682 0-1.032.18-1.974.54-2.826a5.515 5.515 0 011.566-2.16l1.422 1.512a4.464 4.464 0 00-1.098 1.53 4.449 4.449 0 00-.378 1.836c0 .66.108 1.266.324 1.818.216.54.522 1.014.918 1.422.396.396.864.708 1.404.936.54.216 1.134.324 1.782.324.648 0 1.242-.108 1.782-.324a4.361 4.361 0 001.404-.936c.396-.408.702-.882.918-1.422a4.948 4.948 0 00.324-1.818c0-.66-.12-1.272-.36-1.836a4.58 4.58 0 00-1.134-1.53l1.44-1.512a5.764 5.764 0 011.566 2.16c.36.852.54 1.8.54 2.844z"/><rect x="52" width="12" height="12" rx="6" fill="#D2286F"/></svg>