<svg width="115" height="198" viewBox="0 0 115 198" xmlns="http://www.w3.org/2000/svg"><path d="M50.82 92.598c0-.984.138-1.926.414-2.826.288-.9.654-1.614 1.098-2.142l1.818.81c-.396.504-.726 1.128-.99 1.872a6.788 6.788 0 00-.396 2.286c0 .66.072 1.194.216 1.602.144.408.336.708.576.9.252.192.534.288.846.288.384 0 .69-.138.918-.414.24-.276.426-.636.558-1.08.144-.432.276-.918.396-1.458.12-.528.258-1.062.414-1.602a7.632 7.632 0 01.63-1.458 3.269 3.269 0 011.044-1.062c.432-.276.984-.414 1.656-.414.684 0 1.308.18 1.872.54.576.372 1.032.93 1.368 1.674.348.756.522 1.71.522 2.862a8.97 8.97 0 01-.288 2.25c-.192.744-.468 1.392-.828 1.944l-1.818-.738a6.693 6.693 0 00.738-1.746c.168-.6.252-1.176.252-1.728 0-.648-.078-1.176-.234-1.584-.156-.396-.36-.69-.612-.882a1.45 1.45 0 00-.864-.27c-.384 0-.696.132-.936.396-.228.276-.408.63-.54 1.062-.132.444-.264.936-.396 1.476-.12.54-.258 1.074-.414 1.602a6.414 6.414 0 01-.612 1.458 2.903 2.903 0 01-1.026 1.062c-.432.276-.978.414-1.638.414a3.385 3.385 0 01-1.872-.558c-.564-.36-1.02-.918-1.368-1.674-.336-.756-.504-1.71-.504-2.862zm.18 12.494h10.62v-4.176h1.98v10.692h-1.98v-4.176H51v-2.34zm0 13.875h4.986l-1.44.522 9.054-5.472v2.502l-7.29 4.392v-1.404l7.29 4.428v2.304l-9.054-5.472 1.44.54H51v-2.34zm0 11.346h12.6v2.34H52.98v6.588H51v-8.928zm7.362 15.636v6.264h-1.926v-6.264h1.926zm-5.4.18v7.11H51v-9.45h12.6v9.198h-1.962v-6.858h-8.676z"/><path opacity=".5" d="M50.82 61.598c0-.984.138-1.926.414-2.826.288-.9.654-1.614 1.098-2.142l1.818.81c-.396.504-.726 1.128-.99 1.872a6.788 6.788 0 00-.396 2.286c0 .66.072 1.194.216 1.602.144.408.336.708.576.9.252.192.534.288.846.288.384 0 .69-.138.918-.414.24-.276.426-.636.558-1.08.144-.432.276-.918.396-1.458.12-.528.258-1.062.414-1.602a7.632 7.632 0 01.63-1.458 3.269 3.269 0 011.044-1.062c.432-.276.984-.414 1.656-.414.684 0 1.308.18 1.872.54.576.372 1.032.93 1.368 1.674.348.756.522 1.71.522 2.862a8.97 8.97 0 01-.288 2.25c-.192.744-.468 1.392-.828 1.944l-1.818-.738a6.693 6.693 0 00.738-1.746c.168-.6.252-1.176.252-1.728 0-.648-.078-1.176-.234-1.584-.156-.396-.36-.69-.612-.882a1.45 1.45 0 00-.864-.27c-.384 0-.696.132-.936.396-.228.276-.408.63-.54 1.062-.132.444-.264.936-.396 1.476-.12.54-.258 1.074-.414 1.602a6.414 6.414 0 01-.612 1.458 2.903 2.903 0 01-1.026 1.062c-.432.276-.978.414-1.638.414a3.385 3.385 0 01-1.872-.558c-.564-.36-1.02-.918-1.368-1.674-.336-.756-.504-1.71-.504-2.862z"/><path opacity=".2" d="M50.82 33.598c0-.984.138-1.926.414-2.826.288-.9.654-1.614 1.098-2.142l1.818.81c-.396.504-.726 1.128-.99 1.872a6.788 6.788 0 00-.396 2.286c0 .66.072 1.194.216 1.602.144.408.336.708.576.9.252.192.534.288.846.288.384 0 .69-.138.918-.414.24-.276.426-.636.558-1.08.144-.432.276-.918.396-1.458.12-.528.258-1.062.414-1.602a7.632 7.632 0 01.63-1.458 3.269 3.269 0 011.044-1.062c.432-.276.984-.414 1.656-.414.684 0 1.308.18 1.872.54.576.372 1.032.93 1.368 1.674.348.756.522 1.71.522 2.862a8.97 8.97 0 01-.288 2.25c-.192.744-.468 1.392-.828 1.944l-1.818-.738a6.693 6.693 0 00.738-1.746c.168-.6.252-1.176.252-1.728 0-.648-.078-1.176-.234-1.584-.156-.396-.36-.69-.612-.882a1.45 1.45 0 00-.864-.27c-.384 0-.696.132-.936.396-.228.276-.408.63-.54 1.062-.132.444-.264.936-.396 1.476-.12.54-.258 1.074-.414 1.602a6.414 6.414 0 01-.612 1.458 2.903 2.903 0 01-1.026 1.062c-.432.276-.978.414-1.638.414a3.385 3.385 0 01-1.872-.558c-.564-.36-1.02-.918-1.368-1.674-.336-.756-.504-1.71-.504-2.862z"/><path opacity=".1" d="M50.82 5.598c0-.984.138-1.926.414-2.826.288-.9.654-1.614 1.098-2.142l1.818.81c-.396.504-.726 1.128-.99 1.872a6.788 6.788 0 00-.396 2.286c0 .66.072 1.194.216 1.602.144.408.336.708.576.9.252.192.534.288.846.288.384 0 .69-.138.918-.414.24-.276.426-.636.558-1.08.144-.432.276-.918.396-1.458.12-.528.258-1.062.414-1.602a7.632 7.632 0 01.63-1.458 3.269 3.269 0 011.044-1.062c.432-.276.984-.414 1.656-.414.684 0 1.308.18 1.872.54.576.372 1.032.93 1.368 1.674.348.756.522 1.71.522 2.862a8.97 8.97 0 01-.288 2.25c-.192.744-.468 1.392-.828 1.944l-1.818-.738a6.693 6.693 0 00.738-1.746c.168-.6.252-1.176.252-1.728 0-.648-.078-1.176-.234-1.584-.156-.396-.36-.69-.612-.882a1.45 1.45 0 00-.864-.27c-.384 0-.696.132-.936.396-.228.276-.408.63-.54 1.062-.132.444-.264.936-.396 1.476-.12.54-.258 1.074-.414 1.602a6.414 6.414 0 01-.612 1.458 2.903 2.903 0 01-1.026 1.062c-.432.276-.978.414-1.638.414a3.385 3.385 0 01-1.872-.558c-.564-.36-1.02-.918-1.368-1.674-.336-.756-.504-1.71-.504-2.862z"/><rect x="53" y="186" width="12" height="12" rx="6" fill="#D2286F"/></svg>