<svg width="458" height="632" viewBox="0 0 458 632" fill="none" xmlns="http://www.w3.org/2000/svg"><path opacity=".05" fill-rule="evenodd" clip-rule="evenodd" d="M0 519h190.343C376.953 519 458 398.891 458 259.5 458 143.099 404.467 0 190.343 0H0v519zm145.73-127.586V127.58a3.022 3.022 0 01.889-2.136 3.049 3.049 0 012.142-.887h13.293c144.214 0 145.73 106.028 145.73 134.943 0 26.692-1.489 134.937-145.73 134.937h-13.293a3.045 3.045 0 01-2.142-.888 3.02 3.02 0 01-.889-2.135z" fill="#000"/><path d="M218.717 482.683c.364-.543.679-.967.945-1.273.896-1.154.964-2.653.026-3.737-.987-.965-1.687-1.95-1.738-3.498.009-.69-.435-1.291-1.027-1.537-1.183-.492-2.219-1.339-2.871-2.442-.187-.217-.71-.295-.739.109-.226.878-.827 1.322-1.359 1.934-.679.966-1.073 1.913-.805 3.274.149 1.311.544 2.03 1.776 2.403.996.276 1.065.443.721 1.272-.295.71.208.502.444.601.119.049.355.147.306.265.288 1.647 1.569 1.902 2.831 1.871.543.364 1.016.561 1.49.758zm3.87 6.049c-.08-1.143-.111-2.405-.191-3.549-.011-.976-.77-1.152-1.263-1.635-.375-.433-.849-.63-1.519-.354-.384.257-.739.11-.996-.275l-.049.119c-.768.513-1.32.839-1.615 1.549-.246.592-.63.849-1.251 1.007-.789.227-.769.513-.039 1.094.306.266.612.532.415 1.006-.127.641.297.956.839 1.32.829.344 1.568.235 2.307.126 1.193-.198 2.376.293 3.362-.408zm-57.647 17.822a3.065 3.065 0 001.883-.19c.552-.325.916-.868 1.823-1.046.266-.306.246-.592.176-.76-.848-.63-.72-1.271-.258-2.05.365-.543.492-1.184.501-1.874-.02-.286-.207-.502-.493-.482-.808-.059-1.617-.117-2.356-.008-.572.04-1.005.415-1.251 1.007-.325 1.114-.698 2.347-1.022 3.461-.394.947.001 1.666.997 1.942zm162.436-26.184c-.255 1.282.495 2.149.624 3.174.089.454 1.016.561 1.282.256.63-.849 1.26-1.697 1.723-2.477.462-.779-.209-2.169-.899-2.178-.927-.107-2.022-.146-2.73 1.225zm30.721-8.468c-.384.256-.601.444-.985.701-1.773.928-1.901 1.569-.588 3.086.069.168.187.217.542.364.473.197.829.345.976-.01.394-.947.689-1.657 1.506-2.289.601-.444.492-1.184-.001-1.666-.326-.552-.849-.631-1.45-.186zm-19.902 23.513c.06.857.79 1.438 1.598 1.497a1.889 1.889 0 001.626-.574c.68-.966.62-1.824.057-2.474-.562-.65-1.302-.541-1.923-.383-1.074.248-1.537 1.027-1.358 1.934zm-118.928 6.65c.817-.632.787-1.894-.111-2.405-.779-.463-1.568-.236-2.385.396-.68.967-.571 1.706.209 2.169.611.532 1.636.403 2.287-.16zm3.521 1.88c.512-.898.117-1.617-.859-1.606-1.045-.157-2.051.258-2.178.899-.099.237-.009.69.06.857.158.621.75.867 1.391.995.906-.178 1.222-.603 1.586-1.145zm-79.959-6.303c.148-.355.058-.808-.317-1.242-.306-.265-.424-.315-.542-.364-.543-.364-1.065-.442-1.499-.067-.601.444-.492 1.183-.333 1.804.158.621.888 1.202 1.578 1.211.404.029.887-.464 1.113-1.342zM157.1 471.65c.483-.493.729-1.085.689-1.657.029-.404-.109-.739-.75-.867-.621.159-1.124.366-1.508.623-.719.395-.778 1.203-.334 1.804.494.483 1.302.541 1.903.097zm-12.715 12.898c-.592-.246-1.115-.324-1.756-.452.348 2.504.348 2.504 2.32 2.768.688-1.657.55-1.992-.564-2.316zm52.995-26c.266-.306.414-.661.325-1.114-.326-.552-.987-.965-1.559-.925-.739.109-.748.799-.757 1.489.868.916 1.509 1.044 1.991.55zm93.422-19.748c.878.226 1.36-.267 1.37-.958.176-.759-.484-1.172-1.273-.945-.621.159-.699.681-.097 1.903zm5.095 40.841l-.099.237c-.828-.344-1.636-.403-2.592-.106-2.918 1.008-3.233 1.433-3.013 4.578.011.976.307 1.932 1.54 2.305l-.049.118c.542.365.75.867.839 1.321.02.286.109.739.513.768 1.331.137 1.036.847.692 1.676-.197.473.06.857.533 1.054l-.098.237c-.443 1.065-.265 1.972.466 2.553l-.148.355c-.029.404-.009.69.06.858 1.342 1.112 2.782 1.988 4.734 1.967 1.143-.08 2.356.007 3.154-.91.532-.612 1.3-1.125 1.644-1.954.02.286.09.454.228.789.276.67.799.748 1.371.708.453-.089.976-.011 1.429-.1.858-.06 1.439-.79 1.261-1.697-.11-.739-.603-1.222-1.165-1.872-.651.563-1.35 1.244-2.326 1.254-.167.07-.384.257-.433.376.029-.405.058-.809-.149-1.312-.139-.335.176-.759.206-1.163.029-.404.058-.809-.317-1.242l.118.049c-.06-.858-.533-1.054-.986-.965-.119-.049-.188-.217-.188-.217a6.264 6.264 0 00-1.105-1.014l.049-.119c-.257-.384-.493-.482-.759-.176l-.237-.099c-.237-.098-.237-.098-.522-.078l-.119-.049.168-.069c-.355-.148-.523-.079-.74.109-.118-.049-.167.069-.335.138-.118-.049-.236-.098-.404-.029l-.069-.168c-.592-.246-1.016-.561-1.342-1.112.049-.119.168-.07.217-.188 1.299-2.791.982-4.033-.29-4.979.196-.473.058-.808-.317-1.242-.297-.956-1.105-1.014-1.42-.59zm-108.145-61.042c.482-.494.847-1.036.501-1.874-.612-.532-1.114-.324-1.548.051-.433.375-.512.898-.353 1.519.207.502.966.679 1.4.304zm-22.577 20.597c.196-.473-.11-.739-.701-.985-.641-.128-.927-.108-1.311.149-.266.306-.177.759-.039 1.095.139.335.326.551.514.768.069.168.473.197.64.128.572-.04.818-.632.897-1.155zm72.883 42.364c.208.503.799.748 1.371.709.572-.04.887-.465.798-.918-.02-.286-.04-.572-.248-1.075-.828-.344-1.331-.136-1.813.357-.099.237-.128.641-.108.927zm27.024-30.964c-.078.523.06.858.317 1.242.305.266.661.414 1.045.157a.986.986 0 00.61-1.134c-.089-.454-.277-.67-.75-.867-.404-.029-.907.178-1.222.602zm73.582 18.643c.049-.119-.069-.168-.069-.168l.118.049c.147-.355.128-.641-.109-.739-.355-.148-.454.089-.601.444-.118-.049-.118-.049-.286.02-.355-.147-.473-.197-.878-.226l.099-.237c-.444-.6-.918-.797-1.51-1.043-.828-.344-1.498-.068-2.059.948l-.119-.049c-.866.75-1.092 1.628-1.486 2.575l-.473-.197c.049-.118.098-.237.029-.404.197-.474.413-.661.275-.996-.138-.335-.562-.65-.967-.68-1.163-.206-2.818.772-3.31 1.956-.197.473.198 1.192.77 1.152.739-.109 1.577-.455 2.523-.061l-.098.237c.138.335.208.502.326.551.306.266.661.414 1.163.206.741 1.557 2.161 2.148 3.68 2.501 1.233.373 3.735-1.64 3.872-2.971-.02-.286.009-.69-.179-.907-.069-.168-.138-.335-.158-.621l.118.049c.592.246.976-.011 1.39-.672.098-.236.029-.404-.06-.857-.306-.266-.493-.483-.612-.532-.857.06-1.36.267-1.389.672zm-164.156-.07c.079-.523-.178-.907-.602-1.222-.355-.148-.759-.177-1.144.08-.384.256-.295.71-.206 1.163.089.454.228.789.869.916.739-.109 1.123-.366 1.083-.937zm25.052-52.603c.365-.542.492-1.183-.238-1.764-.69-.009-1.074.247-1.389.672-.315.424-.275.996.149 1.311.424.315 1.163.206 1.478-.219zm181.027 46.638c-.552.326-.512.898.001 1.666.07.168.237.099.592.246.454-.089.739-.109.887-.464.197-.473.108-.927-.267-1.36-.139-.335-.661-.414-1.213-.088zm-70.261 33.815c-.315.424-.108.927.198 1.193l.592.246c.572-.04.956-.297.985-.701.029-.405-.04-.572-.346-.838-.542-.364-1.232-.374-1.429.1zm-81.456 5.983c.266-.306.295-.71.206-1.163.029-.404-.277-.67-.869-.916-.571.04-.907.178-.985.701-.078.522-.038 1.094.504 1.458.306.266.927.108 1.144-.08zm64.438-73.57c-.454.089-.907.178-1.291.435-.434.375-.512.897-.206 1.163.256.384.661.414 1.045.157.552-.326.985-.701 1.586-1.145-.355-.148-.661-.414-1.134-.61zm-109.585 35.932c.295-.71.422-1.351.027-2.07-.187-.217-.473-.197-.641-.128-.216.188-.265.306-.581.73-.246.592-.344.829-.136 1.331.256.385 1.016.561 1.331.137zm180.447 6.285c.04.572.178.907.652 1.104.355.148.808.058 1.143-.08.385-.257.414-.661.157-1.045-.444-.601-.848-.63-1.854-.215l-.098.236zm-175.034-37.346c.05-.118.05-.118.03-.404-.208-.503-.445-.601-.73-.581-.286.02-.621.158-.72.395-.266.306-.157 1.045.198 1.193.326.551.829.344 1.222-.603zm116.61 34.997c-.295.71-.088 1.212.839 1.32.61-1.134.472-1.47-.12-1.715-.286.02-.739.109-.719.395zm-139.222-20.66a.986.986 0 00-1.134-.61c-.454.089-.651.562-.492 1.183.069.168.256.385.611.532a1.77 1.77 0 00.621-.158c.335-.139.483-.494.394-.947zm10.559 11.328c-.395-.72-.799-.749-1.41.386.514.768 1.135.61 1.894.787-.257-.385-.346-.838-.484-1.173zm39.15 44.722c-.04-.571-.514-.768-.967-.679-.454.089-.72.395-.68.967.326.552.681.699 1.016.561.335-.138.552-.326.631-.849zm141.082-36.583c.02.286.158.621.395.719.355.148.572-.04 1.005-.415.099-.237.079-.523.128-.641-.089-.453-.395-.719-.848-.63-.454.089-.651.562-.68.967zm-62.34-26.324c-.147.355-.127.641.06.858.188.217.592.246.878.226.167-.069.384-.257.531-.612-.039-.572-.345-.837-.75-.867-.236-.098-.571.04-.719.395zm-26.284-11.894a1.77 1.77 0 00.621-.158c.434-.375.512-.898.206-1.164-.306-.266-.71-.295-1.094-.038-.67.276-.532.611.267 1.36zm-66.107 59.553c.069.167.257.384.612.531.572-.039.838-.345.749-.799-.09-.453-.395-.719-.849-.63-.384.257-.601.444-.512.898zm153.48-41.703c.07.168.306.266.543.364.404.03.739-.109.818-.631a1.006 1.006 0 00-.277-.671c-.404-.029-.641-.127-.858.06-.453.09-.482.494-.226.878zm-182.937 9.058c.147-.355.009-.69-.228-.789-.118-.049-.404-.029-.69-.009-.335.139-.433.375-.344.829.02.286.207.502.73.581.384-.257.433-.375.532-.612zm189.485 13.927c.216-.187.196-.473-.04-.572-.425-.315-.76-.176-1.026.129 0 0-.049.119-.029.405.424.315.661.413 1.095.038zm-69.309 62.247c.512-.897.679-.966 1.41-.385.66.413.571-.04.67-.277.049-.118.266-.306.384-.257 1.617.117 2.109-1.067 2.482-2.299.197-.474.443-1.066.758-1.49-.493-.482-.75-.867-1.007-1.251-.888-1.202-2.239-1.625-3.678-.834-1.271.72-2.325 1.254-3.844.9a1.648 1.648 0 00-1.675.692 7.417 7.417 0 01-3.005 2.221c-.335.139-.532.612-.058.809.779.462 1.056 1.133 1.618 1.783.868.916 1.598 1.497 3.097 1.564 1.449.186 2.238-.041 2.848-1.176zm6.108-4.679l.119.05c.345.837.622 1.507 1.165 1.872.542.364.631.817.671 1.389.06.858.178.907 1.115.324.384-.256.6-.444 1.074-.247.592.246.976-.011 1.458-.504.581-.73.64-1.539.649-2.229.039-1.094.767-2.18.234-3.234l-3.491-.618c-.877-.226-1.34.554-1.892.879-.552.326-.867.751-.708 1.372.207.502.06.857-.394.946zm10.247 57.834c.245-.592.491-1.184.215-1.854-.159-.621-.652-1.104-.594-1.912-.256-.384-.542-.364-.71-.295-.817.632-1.458.504-2.09-.314-.493-.482-1.036-.847-1.726-.856-.237-.098-.453.089-.552.326-.177.759-.472 1.47-.53 2.278-.078.523.08 1.144.672 1.389 1.016.561 2.101 1.29 3.117 1.851.897.512 1.686.284 2.198-.613zm12.516-167.044c-.275.996-.55 1.992.555 3.006 1.183.492 2.189.077 3.283.115.404.029.748-.799.492-1.183-.632-.818-1.264-1.636-1.945-2.335-.73-.581-2.208-.363-2.385.397zm9.615 24.954c-.69-.01-1.36.267-2.079.662.345.838.908 1.488.702 2.652.297.956.868.916 1.558.925.621-.159.936-.583 1.015-1.105.078-.523.226-.878.304-1.401-.08-1.143-.642-1.793-1.5-1.733zm-6.81-51.409c.168-.069.217-.187.483-.493.315-.425.581-.73.275-.996-.73-.581-1.46-1.162-1.924-2.049-.277-.67-.967-.68-1.637-.403-.168.069-.217.188-.384.257-.069-.168-.188-.217-.257-.384-.375-.434-.799-.749-1.292-1.232-.434.376-.68.967-1.044 1.51-.148.355-.177.759-.088 1.213.109.739.366 1.123 1.056 1.132.809.059 1.36-.267 1.606-.859l.346.838c.663 2.079 1.136 2.276 2.86 1.466zm13.407 20.839c.011.976.574 1.626 1.619 1.783.808.058 1.528-.337 1.872-1.165.246-.592.157-1.045-.238-1.765-.75-.866-1.628-1.092-2.515-.628-.788.227-.847 1.036-.738 1.775zM263.464 525.29c-.344.829-.423 1.351.14 2.001.306.266.661.414 1.203.778 1.115.324 1.696-.406 2.109-1.067a1.383 1.383 0 00-.011-.976c-.345-.837-.839-1.32-1.766-1.428-.759-.176-1.429.1-1.675.692zm8.351-42.471c.326.552.701.985 1.194 1.468.306.266.661.414 1.065.443.809.058 1.144-.08 1.39-.672.344-.829.186-1.449-.475-1.863-.543-.364-1.065-.443-1.617-.117-.572.04-.956.297-1.557.741zm35.609-65.981c.02.286-.079.523-.108.927-.029.404-.128.641-.108.927.031 1.262.337 1.528 1.55 1.615.404.029.808.058 1.262-.031.571-.04.817-.631.659-1.252-.435-1.292-1.737-1.833-2.704-2.512-.355-.147-.571.04-.551.326zm8.385 115.077c-.699.681-.59 1.42-.126 2.307.75.867 1.44.876 2.209.363.601-.445.639-1.539.363-2.209-.534-1.055-1.697-1.261-2.446-.461zm3.124-2.172c-.443 1.065-.265 1.972.396 2.385.237.099.592.246.927.108.572-.04.887-.464 1.3-1.125.108-.927-.267-1.361-.761-1.843-.73-.581-1.469-.472-1.862.475zm-57.734-2.341c.216-.187.364-.542.225-.878-.247-1.074-.928-1.773-1.776-2.403-.424-.316-.976.01-1.055.533-.029.404.109.739.149 1.311.346.838.721 1.271 1.313 1.517.424.315.878.226 1.144-.08zm33.858 80.832c.69.009 1.341-.554 1.636-1.264.196-.473-.129-1.025-.909-1.488-.355-.147-.759-.176-1.262.031-.216.188-.384.257-.482.494-.434.375-.68.966-.472 1.469.277.67.918.798 1.489.758zm20.587-225.871c.109.739.77 1.153 2.032 1.122.433-.375.699-.681.61-1.135-.06-.857-.859-1.606-1.598-1.497-.454.09-1.035.82-1.044 1.51zm-41.705 203.215c-.325-.552-.868-.916-1.509-1.044-.404-.029-.808-.058-1.054.534-.01.69.08 1.143.169 1.597.227.788.937 1.083 1.657.688.719-.395 1.063-1.223.737-1.775zm34.753-172.793c.129 1.025.553 1.34 2.081 1.003.364-.542.442-1.065.186-1.449-.277-.67-1.105-1.015-1.776-.738-.502.208-.531.612-.491 1.184zm-22.938 188.113c-1.391-.995-1.677-.975-2.405.11-.365.543-.561 1.016-.807 1.608 2.425.175 2.425.175 3.212-1.718zm-17.255-56.999c-.009.69.632.818 1.223 1.064.936-.583 1.301-1.125.906-1.845-.139-.335-.563-.65-1.016-.561-.503.208-1.035.82-1.113 1.342zm4.545-97.766c-.71-.296-1.311.149-1.251 1.006.06.858.533 1.055 1.824.62.512-.898.137-1.331-.573-1.626zm41.471 6.408c.326.551.967.679 1.469.472.503-.208.699-.681.709-1.372-.464-.886-1.036-.846-1.706-.57-.552.326-.847 1.036-.472 1.47zm-84.968 90.577c-.326-.552-.819-1.034-1.677-.974-.768.513-.679.967-.353 1.518.325.552.799.749 1.371.709.739-.109.985-.701.659-1.253zm15.326 28.577c.168-.069.316-.424.365-.543-.04-.572-.464-.887-1.007-1.251-.473-.197-.69-.009-1.173.484-.246.592-.393.947-.087 1.213.256.384.661.413 1.114.324.286-.02.572-.04.788-.227zm57.013-64.72c-.581.73-.541 1.302-.048 1.784.188.217.543.365.829.345.453-.09.936-.583 1.014-1.106.079-.522-.178-.906-.701-.985-.355-.147-.641-.127-1.094-.038zm-22.812-31.271c.474.197.878.226 1.262-.031.385-.257.532-.612.561-1.016-.04-.572-.464-.887-.986-.965a1.156 1.156 0 00-1.006.415c-.364.543-.275.996.169 1.597zm35.212-68.367c-.295.71-.087 1.213.554 1.34.473.197.926.108 1.291-.435.315-.424.275-.996-.386-1.409-.237-.098-.523-.078-.808-.058-.336.138-.552.325-.651.562zM276.3 569.21c.01-.69-.08-1.144-.671-1.39-.474-.196-.927-.107-1.36.268-.266.306-.296.71-.206 1.163.256.385.611.532 1.065.443.404.029.808.058 1.172-.484zm-47.661-38.267c-.128.641-.039 1.094.336 1.528.257.384.898.512 1.282.255s.561-1.016.186-1.449c-.493-.483-1.036-.847-1.804-.334zm90.076-164.653c.277.67.799.748 1.637.402.167-.069.217-.187.364-.542.079-.523.059-.809-.247-1.075-.424-.315-.878-.226-1.331-.136-.552.325-.63.848-.423 1.351zm16.443 74.982c-.482.493-.728 1.085-.304 1.4.375.434.828.344 1.213.088.167-.07.216-.188.364-.543.078-.523-.011-.976-.484-1.173-.237-.098-.523-.078-.789.228zm-15.876 81.954c-.079.522.01.976.365 1.123.474.197.996.275 1.597-.169.217-.188.345-.828.157-1.045-.306-.266-.661-.414-1.016-.561-.572.04-.907.178-1.103.652zm-45.19 34.934c-.493-.483-1.204-.778-1.992-.55-.168.069-.315.424-.246.592.069.167.257.384.563.65.424.315.779.462 1.232.373.572-.04.749-.799.443-1.065zm-28.413-11.114c.434-.375.394-.946-.336-1.527-.119-.05-.119-.05-.405-.03-.453.09-.788.228-.817.632.02.286.04.572.178.907.306.266.996.275 1.38.018zm69.099-130.205l.237.098c.286-.02.453-.089.621-.158.384-.257.699-.681.492-1.184-.326-.552-.8-.748-1.351-.422a1.387 1.387 0 00-.7.681l-.355-.148c-.424-.315-.612-.532-1.016-.561-.453.089-.719.395-.867.75-.442 1.065.151 2.977 1.118 3.657.424.315 1.212.087 1.34-.554.078-.522-.031-1.262.481-2.159zm-8.112 22.861c-.148.355-.128.641.059.858.543.364 1.115.324 1.577-.455-.868-.917-1.272-.946-1.636-.403zm-51.993 132.457c-.02-.286.079-.523.01-.691-.09-.453-.395-.719-.849-.63-.453.089-.887.465-.847 1.036-.029.405.395.72 1.085.729.119.049.335-.138.601-.444zm13.853-8.956c-.453.089-.857.06-1.311.149-.907.179-.817.632.1 1.43.907-.178.847-1.036 1.211-1.579zm50.551-26.46c-.029.404.227.788.75.866.621-.158.768-.513.798-.917.029-.405-.228-.789-.632-.818-.523-.078-.838.346-.916.869zm-.321-146.841c.266-.306.128-.641-.129-1.025l-.592-.246c-.404-.029-.788.227-.817.632-.03.404.276.67.631.817.355.148.69.01.907-.178zm-40.36 54.707a.62.62 0 00.344-.828c-.069-.168-.257-.385-.395-.72-.641-.127-.858.06-1.055.534-.147.355-.009.69.179.907.355.147.591.245.927.107zm-20.032 22.488c.158.621.562.65 1.498.068-.02-.286.079-.523-.04-.572-.326-.552-.799-.749-1.065-.443-.503.208-.532.612-.393.947zm44.345 77.972c.079-.522-.06-.857-.582-.936-.404-.029-.739.109-.818.632-.078.523.228.789.681.699.286-.02.335-.138.719-.395zm-5.823-158.981c.09.453.445.601.898.512a.984.984 0 00.483-.494c.147-.355.058-.808-.465-.887-.236-.098-.404-.029-.739.109-.147.356-.246.592-.177.76zm-33.147 180.955c-.139-.335-.208-.503-.395-.719-.306-.266-.641-.128-.858.06-.168.069-.197.473-.128.641.02.285.326.551.612.531.286-.02.572-.04.769-.513zm6.254-38.762c.543.364.829.344 1.094.038.266-.305.128-.641-.059-.857-.306-.266-.661-.414-.996-.275-.503.207-.365.542-.039 1.094zm51.628-142.601c-.187-.217-.424-.315-.641-.128-.384.257-.413.661-.157 1.045l.356.148c.601-.444.699-.681.442-1.065zm2.231 68.104c.335-.138.433-.375.295-.71-.138-.335-.473-.197-.858.06-.127.641.06.857.563.65zm-39.666-27.449c.364-.543.679-.967.945-1.273.896-1.154.845-2.702-.141-3.667a6.01 6.01 0 01-.938-1.084l.098-.237c.375.434.918.798 1.579 1.211.592.246 1.085.729 1.677.975.424.315.877.226 1.262-.031.265-.306.531-.612.846-1.036l.119.049c.04.572.533 1.055 1.105 1.015.286-.02.453-.089.719-.395-.049.118-.098.236-.029.404-.423 1.351-.057 2.475.476 3.529.208.503.563.65 1.401.304.167-.069.384-.256.65-.562l-.099.236.07.168c.562.65 1.174 1.182 2.011.836.168-.069.503-.207.74-.109 1.42.59 2.119-.091 2.611-1.274.148-.356.463-.78.66-1.253l.118.049c.118.049.286-.02.335-.138l.118.049c.896-1.155 1.27-2.387 1.762-3.571.246-.592.206-1.163-.337-1.528-.987-.965-1.52-2.019-1.955-3.31-.138-.335-.375-.434-.799-.749 0 0 .049-.118.167-.069-.986-.965-1.893-.787-2.898-.372l-3.371 1.098c-.503.207-.976.01-1.331-.137-.828-.344-1.056-1.133-.287-1.646.768-.514 1.182-1.175 1.575-2.122l.237.099c1.664-1.668-.102-3.096-.202-4.525-.059-.858-.75-.867-1.44-.876-.522-.079-.542-.365-.799-.749-.444-.601-.967-.679-1.4-.304-.936.582-1.803 1.332-2.739 1.915-.985.701-1.428 1.766-1.111 3.008-.119-.049-.168.069-.286.02-.345.829-.925 1.559-.314 2.091.75.866.337 1.527.111 2.405 0 0-.119-.049-.168.069-.315.424-.531.612-.63.849-.246.591-.443 1.065-.472 1.469-.236-.098-.404-.029-.69-.009-.138-.335-.444-.601-.799-.749-1.184-.491-2.219-1.338-3.039-2.373-.187-.216-.71-.295-.739.109-.226.878-.827 1.322-1.24 1.983-.68.967-.955 1.963-.687 3.323.267 1.361.662 2.08 1.944 2.335.996.275 1.114.325.839 1.321-.295.71.207.502.444.601.119.049.355.147.306.265.337 1.528 1.618 1.783 2.88 1.753.139.335.661.413 1.135.61zm-1.444 6.479c.829.344 1.568.235 2.357.007 1.074-.247 2.307.126 3.173-.624-.079-1.144-.278-2.336-.308-3.598-.06-.858-.82-1.035-1.313-1.517-.493-.483-1.016-.561-1.568-.235-.384.256-.788.227-.996-.276l-.049.119c-.768.513-1.251 1.007-1.546 1.717-.246.592-.63.848-1.251 1.007-.838.345-.769.513-.039 1.094.306.266.612.532.464.887.06.858.485 1.173 1.076 1.419zm-52.55 17.579c-.275.996.238 1.765 1.284 1.921.641.128 1.212.088 1.813-.356.552-.326.847-1.036 1.705-1.096.266-.306.246-.592.009-.69-.848-.631-.839-1.321-.258-2.051.364-.542.492-1.183.383-1.923-.02-.286-.208-.502-.494-.482a11.328 11.328 0 00-2.405.11c-.572.04-1.005.416-1.251 1.007-.206 1.164-.58 2.397-.786 3.56zm162.472-30.61c-.137 1.331.494 2.149.791 3.105.089.454 1.016.561 1.164.206.63-.848 1.26-1.697 1.772-2.595.462-.779-.209-2.168-.948-2.059-1.095-.039-2.12.091-2.779 1.343zm-22.041 14.297c-.769.514-.729 1.085-.452 1.756.277.67.799.748 1.42.59.454-.089.976-.011 1.43-.1.906-.179 1.32-.839 1.142-1.746-.109-.74-.603-1.222-1.165-1.872-.651.562-1.35 1.243-2.375 1.372zm52.396-23.889c-.384.257-.65.563-.867.75-1.704 1.096-1.782 1.619-.47 3.136.069.167.188.216.543.364.473.197.828.344.976-.011.275-.996.688-1.657 1.388-2.338.601-.444.491-1.183-.12-1.715-.326-.552-.849-.63-1.45-.186zm-18.985 24.311c.109.739.79 1.438 1.648 1.379.522.078 1.025-.13 1.675-.692.679-.967.619-1.825-.061-2.524-.563-.65-1.302-.541-1.972-.264-1.006.415-1.419 1.076-1.29 2.101zm-56.685-73.662c.246-.592.374-1.233-.021-1.952-.967-.68-1.706-.57-2.475-.057-.601.444-.896 1.154-1.023 1.795-.108.927.149 1.311 1.026 1.537 1.519.354 1.903.097 2.493-1.323zm-72.008 31.006a6.302 6.302 0 00-.423 1.351c.031 1.262.79 1.439 1.549 1.616.237.098.69.009.907-.178.65-.563 1.064-1.224.885-2.131-.109-.739-.434-1.291-1.075-1.419-.927-.107-1.381-.018-1.843.761zm116.966 15.436c1.153-.77 1.29-2.101 1.663-3.334.099-.236-.256-.384-.542-.364-.286.02-.454.089-.907.178-.454.09-.69-.009-.858.06-1.291.435-1.438.791-1.191 1.865.089.453.228.788.366 1.123.346.838.917.798 1.469.472zm-109.099 38.772c.661.413 1.568.235 2.218-.328.817-.631.668-1.943-.229-2.454-.898-.512-1.568-.235-2.317.564-.63.848-.521 1.588.328 2.218zm5.837 1.315c.512-.897.068-1.498-.977-1.655-1.095-.038-1.932.307-2.109 1.067-.098.236-.009.69.06.857.207.503.799.749 1.44.876.976-.01 1.34-.553 1.586-1.145zm-14.969-58.824c-.029.404.06.857.415 1.005.355.148.641.128.976-.011 1.054-.533 1.517-1.312 1.841-2.427.197-.473-.296-.956-.868-.916-.454.089-.67.277-1.222.603-.699.681-1.015 1.105-1.142 1.746zm156.656 14.441c-.277-.67-1.105-1.014-1.775-.737-.67.276-.965.987-.53 2.278.542.364.897.512 1.232.373.838-.346 1.35-1.243 1.073-1.914zm-208.624 14.762c.483-.494.61-1.135.57-1.706.03-.405-.109-.74-.75-.867-.621.158-1.123.366-1.507.622-.72.395-.778 1.204-.216 1.854.494.483 1.421.59 1.903.097zm176.882-11.852c.601-.445.659-1.253.215-1.854-.375-.433-.828-.344-1.282-.255-1.005.415-1.083.937-.412 2.327.592.246 1.046.157 1.479-.218zm-189.104 25.232c-.641-.127-1.164-.206-1.805-.333.515 2.434.515 2.434 2.487 2.699.738-1.776.55-1.992-.682-2.366zm50.125-28.442c.917.798 1.44.876 2.041.432.266-.306.413-.661.157-1.045-.326-.552-.987-.965-1.608-.807-.739.109-.699.681-.59 1.42zm96.001-23.95c.058-.809-.485-1.173-1.273-.946-.789.228-.867.75-.097 1.903.878.226 1.242-.316 1.37-.957zm5.136 43.079c.375.433.779.462 1.4.304.699-.681.541-1.302.047-1.784-.375-.434-1.183-.492-1.498-.068-.315.424-.324 1.114.051 1.548zm-110.371-58.359c.364-.543.728-1.085.383-1.923-.73-.581-1.115-.324-1.597.169-.315.425-.561 1.016-.235 1.568.325.552.966.679 1.449.186zm52.867 60.139c-.098.237-.246.592-.108.927.208.503.8.748 1.371.708.572-.04.769-.513.847-1.036-.02-.285-.158-.621-.247-1.074-.947-.393-1.45-.186-1.863.475zm26.866-31.584c-.523-.079-.858.06-1.341.553-.078.523.06.858.317 1.242.306.266.661.413 1.045.157a.986.986 0 00.61-1.135c.029-.404-.109-.739-.631-.817zm72.919 16.562c-.079.523.178.907.652 1.104.591.246.976-.011 1.271-.721.098-.237.029-.405-.06-.858-.306-.266-.494-.483-.78-.463-.69-.009-1.123.366-1.083.938zm-165.699 4.98c-.384.256-.295.71-.206 1.163.089.454.228.789.869.916.621-.158 1.005-.415 1.083-.938.079-.522-.178-.906-.602-1.221-.306-.266-.76-.177-1.144.08zm24.767-52.583c.245-.592.491-1.183-.239-1.764-.69-.01-1.074.247-1.271.721-.315.424-.157 1.045.149 1.311.257.384.996.275 1.361-.268zm182.784 39.735c-.551.326-.512.898.051 1.548.069.167.237.098.592.246.404.029.739-.109.887-.464.196-.474-.011-.977-.268-1.361s-.947-.393-1.262.031zm-92.764-38.273c.04.572.7.985 1.223 1.064.286-.02.621-.159.769-.514.245-.592.038-1.094-.554-1.34-.118-.049-.118-.049-.404-.029-.69-.009-1.025.129-1.034.819zm23.728 74.817c-.315.425-.107.927.317 1.242l.592.246c.62-.158.956-.296.985-.701.029-.404-.159-.621-.346-.837-.612-.532-1.351-.423-1.548.05zm-82.212 9.14c.187.216.927.107 1.074-.248.266-.306.177-.759.206-1.164-.089-.453-.276-.67-.868-.916-.572.04-.956.297-.985.701-.059.809.03 1.262.573 1.627zm62.258-74.338c.552-.326.986-.701 1.587-1.145-.474-.197-.78-.463-1.253-.66-.454.09-.907.179-1.173.485-.433.375-.512.897-.206 1.163.375.434.71.295 1.045.157zm-107.857 38.455c.295-.71.423-1.351.028-2.071-.188-.216-.474-.196-.691-.009-.216.188-.315.424-.581.73-.245.592-.225.878-.087 1.213.375.433 1.183.492 1.331.137zm180.786-1.208l-.148.355c.04.572.297.956.701.985a.964.964 0 001.074-.247c.385-.257.414-.661.157-1.046-.375-.433-.898-.512-1.784-.047zm-176.418-30.01c.05-.119.05-.119.03-.404-.208-.503-.445-.601-.849-.631-.286.02-.67.277-.768.514-.266.306-.157 1.045.316 1.242.425.315.809.058 1.271-.721zm142.742 31.56l-.098.237c.138.335.207.503.326.552.424.315.779.462 1.212.087.434-.375.561-1.016.068-1.498-.188-.217-.543-.365-.898-.512.049-.119-.02-.286.029-.404.197-.474.296-.711.157-1.046-.187-.216-.493-.482-.897-.511-1.164-.206-2.75.939-3.193 2.004-.196.473.317 1.242.889 1.202.739-.109 1.458-.504 2.405-.111zm-25.022-1.238c-.177.759.031 1.262.957 1.37.492-1.184.472-1.47-.119-1.716-.405-.029-.691-.009-.838.346zm-139.819-15.217c-.069-.167-.256-.384-.375-.433.119.049.405.029.523.078.404.029.71.295 1.016.561 1.085.729 2.061.718 3.046.017.65-.563 1.419-1.076 1.881-1.855.561-1.016 1.31-1.816 2.503-2.014.167-.069.216-.187.266-.306.098-.237-.139-.335-.375-.433-1.47-.472-1.47-.472-1.096-1.705.246-.592.492-1.183.619-1.824-.404-.03-.572.04-.857.06-1.075.247-1.193.198-1.371-.709-.09-.453-.011-.976-.505-1.459-.739.11-1.695.406-2.425-.175-.967-.679-1.972-.264-3.046-.017-.789.228-1.222.603-1.586 1.146l.049-.119c.078-.522-.228-.788-.701-.985-.523-.078-.927-.108-1.193.198s-.177.76-.038 1.095c.138.335.326.552.513.768.069.168.473.197.641.128.335-.139.503-.208.601-.444-.049.118-.098.236-.078.522a3.561 3.561 0 01-.886 2.131c-.63.848-1.023 1.795-1.013 2.771 1.657.689 1.706.57 2.171 1.457.207.503.582.936.937 1.084-.118-.05-.286.02-.286.02-.453.089-.532.611-.373 1.232.069.168.306.266.611.532a1.77 1.77 0 00.621-.158c.148-.355.295-.71.206-1.164zm10.993 10.953c-.395-.719-.849-.63-1.41.386.514.768 1.184.492 1.894.787l-.484-1.173zm40.765 43.173c-.04-.572-.514-.768-.967-.679-.453.089-.601.444-.679.967.326.552.73.581 1.065.442.404.03.67-.276.581-.73zm139.658-42.172c.02.286.158.621.513.768.355.148.572-.04.887-.464.098-.237.078-.523.128-.641-.09-.453-.395-.719-.849-.63-.503.207-.65.563-.679.967zm-99.928-22.373c-.453.089-.719.395-.63.848.02.286.208.503.681.699.335-.138.621-.158.789-.227.216-.188.364-.543.176-.759.405.029.74-.11 1.006-.416a.994.994 0 00.156-1.045c-.138-.335-.562-.65-.946-.393-.671.276-.818.632-.64 1.538-.256-.384-.424-.315-.592-.245zm36.555-1.465c-.148.355-.128.641.06.858.306.266.591.246.927.107.167-.069.384-.256.531-.612-.04-.571-.345-.837-.75-.866-.286.02-.502.207-.768.513zm-26.018-12.2c-.306-.266-.71-.295-1.095-.039-.551.326-.581.73.386 1.41.286-.02.454-.089.621-.159.315-.424.394-.946.088-1.212zm-63.038 63.187c-.089-.453-.395-.719-.848-.63-.454.089-.72.395-.512.898.069.167.257.384.612.532.571-.04.837-.346.748-.8zm151.681-47.724c-.02-.286-.09-.454-.395-.72-.405-.029-.572.04-.74.109-.384.257-.413.661-.157 1.046.07.167.425.315.543.364.453-.089.67-.277.749-.799zM237.69 402.294c.148-.356.01-.691-.227-.789-.118-.049-.404-.029-.69-.009-.335.138-.364.542-.344.828.02.286.207.503.73.581.216-.187.433-.375.531-.611zm189.734 5.98c-.424-.315-.759-.177-1.025.129-.049.119-.049.119-.029.404.375.434.779.463 1.045.157.148-.355.246-.592.009-.69zm-64.466 20.539c-.572.04-.719.395-.463.779.188.217.592.246.809.059.266-.306.078-.523-.346-.838zM208.591 470.98c-.02-.286.246-.592.324-1.115.394-.946-.05-1.547-.278-2.336-.138-.335-.011-.976-.415-1.005-.641-.128-.364.542-.512.897-.098.237-.265.306-.502.208-.355-.148-.592-.246-.927-.108-.503.208-.956.297-1.114-.324-.089-.453.176-.759.561-1.016.216-.187.384-.257.601-.444.266-.306.176-.759-.179-.907-.66-.413-1.42-.59-2.021-.146-1.034.819-2.651.703-2.935 2.389-.05.118-.266.306-.601.444-.887.464-1.113 1.342-1.221 2.269-.107.927.238 1.764 1.018 2.227.118.049.187.217.256.384.465.887 1.125 1.301 2.101 1.29a1.362 1.362 0 011.322.827c.257.384.612.531.996.275 1.676-.692 3.213-1.719 3.526-3.809zm1.229-47.374c.601-.444 1.271-.721 2.039-1.234.463-.78.758-1.49 1.004-2.082.197-.473.108-.927-.267-1.36-.425-.315-.75-.867-.958-1.369-.207-.503-.75-.867-1.223-1.064-1.845-.905-4.427-.035-5.352 1.523-.679.967-1.24 1.983-1.161 3.127.06.857 1.056 1.133 1.451 1.852.464.887 1.677.974 2.506 1.319.69.009 1.291-.435 1.961-.712zm24.454 59.712c-.167.07-.286.02-.404-.029-1.479.219-2.533.752-3.123 2.172-.591 1.421-.629 2.515.693 3.342.356 1.814 1.717 1.546 3.028 1.397.906-.178 1.744-.524 2.749-.939.168-.069.434-.375.365-.543.058-.808.353-1.519.579-2.396.148-.355-.109-.74-.366-1.124l-.75-.867c-.256-.384-.493-.482-.562-.65-.661-.413-1.322-.827-2.209-.363zm9.219-30.867c-.335.138-.601.444-.581.73.317 1.242-.412 2.327-.618 3.491-.029.404-.009.69.415 1.005l-.098.237c.306.265.493.482.898.511l-.099.237c.188.217.375.434.612.532-.049.118.02.286.02.286.227.788.435 1.291 1.145 1.586l1.775.738c.78.462 1.519.353 2.238-.042l.355.148c.878.226 1.38.018 1.843-.761 0 0-.049.118.069.167 1.41-.385 2.089-1.352 2.768-2.319.68-.967.836-2.012.185-3.116-.188-.217-.257-.384-.444-.601.049-.118-.02-.286.029-.404.127-.641-.178-.907-.603-1.222l.168-.069c-.069-.168-.02-.286-.04-.572.335-.138.552-.326.748-.799.66-1.253.571-1.706-.584-2.602-.542-.365-1.134-.611-1.991-.551a2.32 2.32 0 00-.926 1.559c-.641-.128-1.4-.304-2.09-.314-1.213-.087-2.405.111-3.252 1.147-.601.444-1.271.721-1.942.998zm-30.303 12.806c.482-.493 1.083-.938 1.093-1.628l.335-.138c.364-.543.561-1.016.807-1.608l.236.099c1.242-.317 2.228-1.018 3.025-1.936l.049-.118.119.049c.393-.947.639-1.538 1.408-2.052.936-.582.797-.918.264-1.972-.069-.168-.257-.384-.375-.433l.098-.237c.345-.829.758-1.49-.139-2.001l.049-.119c.058-.808-.435-1.291-1.145-1.586l.167-.069s.168-.069.099-.237c.127-.641.156-1.045-.386-1.409l-.069-.168-.069-.167s-.119-.05-.07-.168l.119.049c-.02-.286-.139-.335-.257-.384.049-.118-.069-.168-.02-.286-.326-.552-.582-.936-.957-1.369l.049-.119c-.069-.167-.306-.266-.474-.196.05-.119.05-.119-.02-.286-.444-.601-.966-.68-1.657-.689-1.094-.038-2.257-.244-3.49-.618l.098-.236c-.118-.05-.069-.168-.187-.217.601-.444.896-1.154 1.191-1.865.197-.473-.297-.956-.75-.867-.453.09-.788.228-1.291.436-.65.562-.965.986-1.093 1.627-.029.405.06.858.415 1.006l.118.049c-.531.611-1.271.721-2.059.948-.286.02-.621.159-.956.297l-.069-.168c-.375-.433-.514-.768-.011-.976l.167-.069.119.049c.522.079 1.005-.415 1.231-1.292a.708.708 0 00-.109-.74c.344-.828.215-1.853 1.22-2.268.621-.159.512-.898.354-1.519-.277-.67-.603-1.222-1.53-1.33l.099-.236c.087-1.213.087-1.213-.958-1.37l-.138-.335c-.592-.246-1.016-.561-1.657-.688 0 0 .049-.119-.069-.168-.828-.344-1.469-.472-2.11-.599 0 0-.07-.168-.188-.217-.404-.029-.808-.058-1.025.129-.601.444-1.291.435-2.169.209l-.049.119.049-.119c-1.488.909-1.792 2.309-2.096 3.709l-.335.139c-1.104.651-.472 1.469-.245 2.257-.049.119-.167.07-.216.188-1.408 2.052.624 3.174.96 4.702.02.286.543.364.829.344.67-.277 1.143-.08 1.755.452.306.266.779.463 1.371.708l-.049.119c.444.601.759.177.906-.178l.168-.07.168-.069s-.05.119.069.168c.404.029.69.009.926.107.927.108 1.046.157 1.195 1.468-.119-.049-.237-.098-.286.02-.552.326-1.055.534-1.606.859l.049-.118c-1.124.366-1.222.603-.492 1.184-.049.118.02.285.089.453.138.335.326.552.681.699l-.148.355c-.491 1.184-.885 2.131-1.16 3.127-.295.71-.226.878.672 1.389.118.05.069.168.187.217l.069.168-.118-.05c-.128.641.178.907.582.936.119.05.07.168.188.217.187.217.424.315.612.532l-.049.118-.119-.049c-.078.523-.177.759-.038 1.095-.049.118.02.285.02.285.02.286.089.454.276.671l.119.049-.119-.049c.109.739.583.936.938 1.083.71.295 1.469.472 1.746 1.142.395.72 1.056 1.133 1.884 1.477.355.148.71.295 1.016.561.306.266.346.838.799.749.483-.494 1.104-.652 1.37-.958zm-7.015-16.517c.119.049.069.168 0 0-.049.118-.049.118 0 0zm-.067 1.499c-.119-.049-.119-.049 0 0zm5.783 7.122l.237.099-.118-.05-.119-.049zm.563.65c.118.05.118.05 0 0 .118.05.069.168 0 0zm15.807 15.73c.671-.276.414-.661.325-1.114-.643-1.794-1.846-2.572-3.847-2.432-1.843.761-2.67 2.083-3.122 3.838-.147.356.158.621.513.769.829.344 1.391.994 2.072 1.694.188.217.375.433.543.364.759.177 1.478-.218 2.267-.446.453-.089.532-.612.679-.967.128-.641-.218-1.478.57-1.706zm90.23-7.056c.699-.681 1.941-.998 2.147-2.162-.02-.285.009-.69-.011-.976-.138-.335-.276-.67-.366-1.123-.435-1.291-1.263-1.636-2.594-1.772-1.331-.137-2.385.396-3.065 1.363-.413.661-.59 1.42-.934 2.249-.128.641.346.838.888 1.202.779.463 1.224 1.063 1.934 1.359.641.127 1.518.353 2.001-.14zm43.927-2.842c-.217.187-.552.326-.768.513-.385.257-.532.612-.561 1.016.039.572-.039 1.095-.117 1.617.01.976.642 1.794 1.52 2.02 1.232.373 2.633.678 3.884-.329.216-.188.384-.257.65-.563.433-.375.532-.612.512-.898-.159-.621-.435-1.291-.475-1.862-.06-.858-.603-1.222-1.264-1.636-1.203-.778-2.416-.865-3.381.122zm-99.534-12.633c.118.049.118.049 0 0 .927.107 1.005-.415 1.084-.938.049-.118.167-.069.216-.187.532-.612 1.37-.958 1.448-1.481.206-1.163 1.152-2.436.667-3.609.385-.256.532-.611.394-.947-.158-.621-.366-1.123-.643-1.793-.265.306-.482.493-.699.681-.533-1.055-1.549-1.616-2.733-2.108-1.42-.59-1.538-.639-2.868.891 0 0-.118-.05-.069-.168-.522-.078-.927-.108-1.193.198-.118-.049-.118-.049-.285.02-.336.139-.552.326-.7.681-.335.139-.788.228-1.054.534-.286.02-.503.207-.719.395l-.148.355c.02.286-.078.522-.009.69-.246.592-.255 1.282-.265 1.972-.049.118-.098.237-.315.424-.147.355-.177.76-.087 1.213.109.739.365 1.124.888 1.202.237.098.404.029.572-.04.375.433.701.985 1.076 1.419.444.601.917.797 1.607.806 1.499.068 2.642-.012 3.835-.21zm-1.611-4.139l.168-.07c-.049.119-.168.07-.168.07zm-1.511-57.813l1.82-4.379c.492-1.183.077-2.188-1.225-2.729l-.71-.296c-1.184-.491-2.879-.086-3.44.93-.561 1.016-.372 2.899.378 3.766.375.434.897.512 1.538.64 1.046.156 1.115.324.909 1.487-.099.237-.197.474-.177.76-.029.404-.009.69.444.601.049-.119.197-.474.463-.78zm76.092 69.375c-.424-.315-1.016-.561-1.587-.521-.454.089-.601.444-.986.701-.551.326-1.103.652-1.704 1.096.366 1.123.209 2.169.624 3.174.276.67.819 1.034 1.362 1.399-.168.069-.454.089-.621.158-.956.297-1.202.888-.412 2.327.591.246 1.045.157 1.478-.218.552-.326.66-1.253.265-1.972-.119-.05-.07-.168-.188-.217.523.078.858-.06 1.291-.435.266-.306.789-.228 1.005-.415 1.055-.534 1.743-2.191 1.112-3.008a3.452 3.452 0 00-1.639-2.069zm-58.5-53.597c.06.858.297.956.71.295.118.049.118.049.286-.02l.049-.118.069.167c.119.049.237.099.405.029l-.05.119c.927.107 1.528-.337 2.247-.732 0 0 .07.168.237.098.858-.06 1.104-.651 1.3-1.125.325-1.114.955-1.963 2.197-2.279.167-.07.433-.375.581-.73l.237.098a3.845 3.845 0 011.143-.08l.118.049-.049.118c.71.296 1.164.206 1.36-.267.168-.069.286-.02.336-.138.404.029.69.009.857-.06 1.517-1.313 2.157-2.852 1.613-4.882a8.944 8.944 0 01-.455-1.577c-.317-1.242-1.284-1.921-2.496-2.009-1.381-.018-2.899-.372-4.407.251l.049-.119c-1.025.129-1.083.938-1.162 1.461-.049.118-.216.187-.216.187l-.345.829-.118-.05c-.65.563-.394.947.031 1.262-.05.119.069.168.02.286l.069.168-.119-.049c-.304 1.4-.304 1.4-1.517 1.312-.69-.009-1.192.199-1.438.79l-.237-.098c-.355-.148-.641-.128-.808-.058-.07-.168-.07-.168-.188-.217-.375-.434-.641-.128-1.074.247-.197.474-.177.76.01.976-.63.849-.856 1.727-.845 2.703-.304 1.4.229 2.454 1.6 3.163zm-50.556 9.109l.236.098c.552-.326.581-.73.66-1.253l.118.049c.413-.66.324-1.114-.149-1.311.049-.118-.02-.286.029-.404.148-.355.079-.523.059-.808l-.119-.05c.119.05.168-.069.286-.02.088-1.212-.957-1.369-1.451-1.852-.917-.797-1.371-.708-2.307-.126-.433.375-.936.583-1.369.958-.385.257-.581.73-.896 1.154-.266.306-1.026.13-1.202.889.493.482 1.44.876 1.451 1.852.099 1.429 1.381 1.685 2.377 1.96.829.344 1.666-.002 2.277-1.136zm27.866-69.06c1.331.137 1.716-.12 2.277-1.136.462-.779.688-1.657.51-2.564-.178-.907-.623-1.508-1.451-1.852-1.42-.59-3.194.338-4.07 1.779-.049.118.02.285-.009.69.227.788.435 1.291.524 1.744.178.907.553 1.341 1.411 1.281.404.029.69.009.808.058zm5.691 24.711c.78.463 1.391.995 2.22 1.339.236.098.502-.208.65-.563l.237.099c.69.009 1.143-.08 1.458-.505.364-.542.729-1.085 1.162-1.46 1.015-1.105.955-1.963-.032-2.928-.493-.483-1.036-.847-1.411-1.28-1.293-1.231-1.293-1.231-2.85-.49-.384.256-.956.296-1.201.888l-.05.118-.069-.167c-.295.71-.827 1.322-.501 1.873-.049.119.02.286.02.286l.069.168-.118-.049c.02.286.04.572-.009.69-.05.118-.05.118.02.286l.118.049-.049.118c-.059.809-.088 1.213.336 1.528zm-22.173 31.314c.641.128 1.075-.248 1.202-.888.177-.76-.218-1.479-.11-2.406.353-1.519-1.087-2.395-2.358-1.674-.67.277-1.271.721-1.921 1.284-.609 2.8-.491 2.849 2.024 3.478.453-.089.808.058 1.163.206z" fill="#D2286F"/><path d="M297.481 411.041c1.943.668 3.5-.073 4.168-2.016.59-1.42.155-2.711-1.166-3.538-.425-.315-.829-.344-1.47-.472l-.069-.167c-1.183-.492-2.278-.531-3.006.555a5.948 5.948 0 00-1.161 3.126c-.038 1.094.357 1.814 1.57 1.901.118.05.069.168.187.217l.947.394zm27.195 59.463c.897.512 1.686.284 2.197-.613l.394-.947c.148-.355.177-.759-.011-.976.168-.069.286-.02.335-.139 1.153-.77 1.408-2.052 1.782-3.284.098-.237-.257-.385-.543-.365-.286.02-.453.09-.907.179-.404-.029-.69-.009-.857.06-1.291.435-1.439.79-1.192 1.864.07.168.139.335.159.621-.237-.098-.306-.266-.543-.364-.424-.315-.927-.108-1.548.051-.65.562-.491 1.183-.688 1.657-.295.71-.088 1.212.573 1.626.306.266.494.482.849.63zm-61.651-92.103c.561-1.016 1.526-2.003.401-3.304-.897-.511-1.607-.807-2.356-.007a2.496 2.496 0 00-.738 1.775c-.078.523.129 1.025.484 1.173.543.364 1.204.778 1.992.55.049-.118.217-.187.217-.187zm24.098 123.688c-.316-1.242-1.174-1.182-2.081-1.004l-.098.237c.049-.118-.02-.286.029-.404-1.371-.709-2.327-.412-3.194.338-.916.868-1.289 2.101-1.545 3.383-.049.118.09.454.277.67.257.385.681.7.888 1.202.741 1.557 2.22 1.339 3.551 1.476 1.331.136 2.079-.663 2.571-1.846.385-.257.483-.494.295-.711.05-.118.05-.118-.02-.285l-.069-.168.119.049c.246-.592.324-1.114-.337-1.528l.118.05c-.02-.286-.158-.621-.227-.789l-.277-.67zM257.24 369.612c.098-.237-.208-.503-.513-.769.107-.927-.366-1.123-.909-1.488l.168-.069c-.484-1.173-.603-1.222-1.47-.472l-.236-.098s-.119-.049-.168.069l-.069-.167c-1.311.149-1.941.997-2.266 2.112-.196.473-.107.927.268 1.36.868.916 1.933 1.359 3.284 1.781l-.049.119c1.005-.415 1.517-1.313 1.96-2.378zm-17.474 16.333c-.188-.216-.355-.147-.572.04-.049.119-.217.188-.266.306l.118.049c.237.099.237.099.404.029.286-.02.503-.207.316-.424zm8.02 103.266c-.079.523-.088 1.213.504 1.459.069.167.02.286.138.335.158.621.415 1.005.888 1.202.356.147.858-.06 1.164.206 1.411 1.28 3.028 1.397 4.772.873.168-.07.286-.02.405.029.571-.04.65-.563.777-1.204l.119.049c.453-.089.621-.158.857-.059 1.025-.13 1.124-.366.492-1.184.049-.118-.02-.286.029-.404.394-.947.689-1.657.866-2.417.246-.591.157-1.045-.435-1.291.049-.118.098-.236-.02-.286.018-1.38.018-1.38 1.043-1.509.119.049.07.167.188.217.543.364.75.867.908 1.488 0 0-.118-.05-.167.069.227.788.346.837.759.176.118.05.286-.02.404.03 1.222-.603 2.297-.85 3.578-.595.405.029.621-.159.936-.583l.237.098c.503-.207.838-.345 1.222-.602l-.049.118c.572-.04.907-.178.818-.632.049-.118.167-.069.216-.187.581-.73 1.577-.455 1.991-1.116 0 0 .118.049.167-.069.345-.829.758-1.49 1.428-1.766.552-.326.749-.8.59-1.421-.267-1.36-.702-2.651-.684-4.031a.961.961 0 00-.582-.936c-1.065-.443-1.579-1.212-2.21-2.029-.326-.552-.869-.916-1.46-1.162-.592-.246-1.184-.492-1.943-.669l.049-.118a.706.706 0 00-.739.109l-.119-.049c-.788.227-1.389.672-2.148.495-.641-.128-1.193.198-1.488.908l-.118-.049a1.001 1.001 0 01-.671.277l-.335.138c-.118-.049-.167.069-.286.02-1.331-.137-1.842.761-2.493 1.324-.699.681-1.043 1.509-1.082 2.604.089.453.179.906.169 1.597 0 0-.118-.05-.167.069-.414.661-.66 1.252-.905 1.844-.246.592-.177.76.651 1.104.71.295 1.204.777 1.431 1.566l-.118-.049c-.345.828-.847 1.036-1.537 1.027-.119-.05-.069-.168-.188-.217l-3.077-1.279c-.828-.344-1.568-.235-2.148.495-1.281 1.411-2.985 2.507-2.54 4.774.355.148-.009.691-.087 1.213zm5.39-2.618c.118.05.286-.02.286-.02l-.168.07-.049.118-.069-.168zm34.006 4c-.395-.719-1.076-1.418-1.954-1.644-1.114-.325-2.297-.817-3.49-.618-1.193.198-1.755-.452-2.682-.56.049-.118-.069-.167-.02-.285-.543-.365-.898-.512-1.44-.877l.118.05c-.395-.72-.464-.887-.878-.226-.118-.049-.285.02-.404-.029-.808-.059-1.449-.186-2.09-.314-.286.02-.641-.128-.976.011-1.222.602-2.138 1.471-2.748 2.605-.443 1.065-.816 2.298-.165 3.402.326.552.129 1.025-.442 1.065-1.311.149-2.741.249-4.052.398-1.143.08-1.409.386-1.399 1.362-.029.404.297.956-.038 1.094-1.084.938-.747 2.466-1.19 3.531a.981.981 0 00-.009.69c.79 1.439 1.58 2.878 2.902 3.705 1.085.728 2.436 1.151 3.807 1.859l-.118-.049c.345.838.464.887.759.177.118.049.167-.069.286-.02l.167-.069-.049.118c.641.128 1.164.206 1.409-.386.463-.779 1.084-.937 1.942-.997 2.76.036 3.626-2.38 2.983-4.174-.366-1.123-.446-2.267-.693-3.341-.158-.621.088-1.213-.524-1.745-.188-.217.029-.404.246-.592.216-.187.552-.325.768-.513.217-.188.621-.158.69.009.435 1.291 2.22 1.339 2.655 2.63.138.335.661.413 1.016.561 0 0-.05.118.069.168l.237.098.069.167c.73.581 1.262-.03 1.833-.07.858-.06 1.785.047 2.622-.299.838-.345.738-1.775 1.625-2.239.168-.069.217-.188.315-.424.148-.355.344-.829.206-1.164-.395-.719-.711-1.961-1.363-3.065zm-13.195 6.037c-.119-.049-.168.069-.168.069l.168-.069zm2.843-6.175c.069.168.02.286.089.454-.118-.05-.069-.168-.138-.335 0 0-.069-.168.049-.119zm-2.978-1.515c-.05.118-.05.118 0 0l.049-.119-.049.119z" fill="#D2286F"/></svg>