<svg width="458" height="632" viewBox="0 0 458 632" fill="none" xmlns="http://www.w3.org/2000/svg">
<path opacity="0.05" fill-rule="evenodd" clip-rule="evenodd" d="M0 519H190.343C376.953 519 458 398.891 458 259.5C458 143.099 404.467 0 190.343 0H0V519ZM145.73 391.414V127.58C145.731 126.778 146.051 126.011 146.619 125.444C147.188 124.878 147.958 124.559 148.761 124.557H162.054C306.268 124.557 307.784 230.585 307.784 259.5C307.784 286.192 306.295 394.437 162.054 394.437H148.761C147.958 394.435 147.188 394.116 146.619 393.549C146.051 392.983 145.731 392.215 145.73 391.414Z" fill="black"/>
<path d="M218.717 482.683C219.081 482.14 219.396 481.716 219.662 481.41C220.558 480.256 220.626 478.757 219.688 477.673C218.701 476.708 218.001 475.723 217.95 474.175C217.959 473.485 217.515 472.884 216.923 472.638C215.74 472.146 214.704 471.299 214.052 470.196C213.865 469.979 213.342 469.901 213.313 470.305C213.087 471.183 212.486 471.627 211.954 472.239C211.275 473.205 210.881 474.152 211.149 475.513C211.298 476.824 211.693 477.543 212.925 477.916C213.921 478.192 213.99 478.359 213.646 479.188C213.351 479.898 213.854 479.69 214.09 479.789C214.209 479.838 214.445 479.936 214.396 480.054C214.684 481.701 215.965 481.956 217.227 481.925C217.77 482.289 218.243 482.486 218.717 482.683Z" fill="#D2286F"/>
<path d="M222.587 488.732C222.507 487.589 222.476 486.327 222.396 485.183C222.385 484.207 221.626 484.031 221.133 483.548C220.758 483.115 220.284 482.918 219.614 483.194C219.23 483.451 218.875 483.304 218.618 482.919C218.618 482.919 218.618 482.919 218.569 483.038C217.801 483.551 217.249 483.877 216.954 484.587C216.708 485.179 216.324 485.436 215.703 485.594C214.914 485.821 214.934 486.107 215.664 486.688C215.97 486.954 216.276 487.22 216.079 487.694C215.952 488.335 216.376 488.65 216.918 489.014C217.747 489.358 218.486 489.249 219.225 489.14C220.418 488.942 221.601 489.433 222.587 488.732Z" fill="#D2286F"/>
<path d="M164.94 506.554C165.581 506.681 166.153 506.641 166.823 506.364C167.375 506.039 167.739 505.496 168.646 505.318C168.912 505.012 168.892 504.726 168.822 504.558C167.974 503.928 168.102 503.287 168.564 502.508C168.929 501.965 169.056 501.324 169.065 500.634C169.045 500.348 168.858 500.132 168.572 500.152C167.764 500.093 166.955 500.035 166.216 500.144C165.644 500.184 165.211 500.559 164.965 501.151C164.64 502.265 164.267 503.498 163.943 504.612C163.549 505.559 163.944 506.278 164.94 506.554Z" fill="#D2286F"/>
<path d="M327.376 480.37C327.121 481.652 327.871 482.519 328 483.544C328.089 483.998 329.016 484.105 329.282 483.8C329.912 482.951 330.542 482.103 331.005 481.323C331.467 480.544 330.796 479.154 330.106 479.145C329.179 479.038 328.084 478.999 327.376 480.37Z" fill="#D2286F"/>
<path d="M358.097 471.902C357.713 472.158 357.496 472.346 357.112 472.603C355.339 473.531 355.211 474.172 356.524 475.689C356.593 475.857 356.711 475.906 357.066 476.053C357.539 476.25 357.895 476.398 358.042 476.043C358.436 475.096 358.731 474.386 359.548 473.754C360.149 473.31 360.04 472.57 359.547 472.088C359.221 471.536 358.698 471.457 358.097 471.902Z" fill="#D2286F"/>
<path d="M338.195 495.415C338.255 496.272 338.985 496.853 339.793 496.912C340.316 496.99 340.937 496.832 341.419 496.338C342.099 495.372 342.039 494.514 341.476 493.864C340.914 493.214 340.174 493.323 339.553 493.481C338.479 493.729 338.016 494.508 338.195 495.415Z" fill="#D2286F"/>
<path d="M219.267 502.065C220.084 501.433 220.054 500.171 219.156 499.66C218.377 499.197 217.588 499.424 216.771 500.056C216.091 501.023 216.2 501.762 216.98 502.225C217.591 502.757 218.616 502.628 219.267 502.065Z" fill="#D2286F"/>
<path d="M222.788 503.945C223.3 503.047 222.905 502.328 221.929 502.339C220.884 502.182 219.878 502.597 219.751 503.238C219.652 503.475 219.742 503.928 219.811 504.095C219.969 504.716 220.561 504.962 221.202 505.09C222.108 504.912 222.424 504.487 222.788 503.945Z" fill="#D2286F"/>
<path d="M142.829 497.642C142.977 497.287 142.887 496.834 142.512 496.4C142.206 496.135 142.088 496.085 141.97 496.036C141.427 495.672 140.905 495.594 140.471 495.969C139.87 496.413 139.979 497.152 140.138 497.773C140.296 498.394 141.026 498.975 141.716 498.984C142.12 499.013 142.603 498.52 142.829 497.642Z" fill="#D2286F"/>
<path d="M157.1 471.65C157.583 471.157 157.829 470.565 157.789 469.993C157.818 469.589 157.68 469.254 157.039 469.126C156.418 469.285 155.915 469.492 155.531 469.749C154.812 470.144 154.753 470.952 155.197 471.553C155.691 472.036 156.499 472.094 157.1 471.65Z" fill="#D2286F"/>
<path d="M144.385 484.548C143.793 484.302 143.27 484.224 142.629 484.096C142.977 486.6 142.977 486.6 144.949 486.864C145.637 485.207 145.499 484.872 144.385 484.548Z" fill="#D2286F"/>
<path d="M197.38 458.548C197.646 458.242 197.794 457.887 197.705 457.434C197.379 456.882 196.718 456.469 196.146 456.509C195.407 456.618 195.398 457.308 195.389 457.998C196.257 458.914 196.898 459.042 197.38 458.548Z" fill="#D2286F"/>
<path d="M290.802 438.8C291.68 439.026 292.162 438.533 292.172 437.842C292.348 437.083 291.688 436.67 290.899 436.897C290.278 437.056 290.2 437.578 290.802 438.8Z" fill="#D2286F"/>
<path d="M295.897 479.641C295.848 479.76 295.848 479.76 295.798 479.878C294.97 479.534 294.162 479.475 293.206 479.772C290.288 480.78 289.973 481.205 290.193 484.35C290.204 485.326 290.5 486.282 291.733 486.655L291.684 486.773C292.226 487.138 292.434 487.64 292.523 488.094C292.543 488.38 292.632 488.833 293.036 488.862C294.367 488.999 294.072 489.709 293.728 490.538C293.531 491.011 293.788 491.395 294.261 491.592C294.212 491.71 294.212 491.71 294.163 491.829C293.72 492.894 293.898 493.801 294.629 494.382C294.579 494.5 294.53 494.619 294.481 494.737C294.452 495.141 294.472 495.427 294.541 495.595C295.883 496.707 297.323 497.583 299.275 497.562C300.418 497.482 301.631 497.569 302.429 496.652C302.961 496.04 303.729 495.527 304.073 494.698C304.093 494.984 304.163 495.152 304.301 495.487C304.577 496.157 305.1 496.235 305.672 496.195C306.125 496.106 306.648 496.184 307.101 496.095C307.959 496.035 308.54 495.305 308.362 494.398C308.252 493.659 307.759 493.176 307.197 492.526C306.546 493.089 305.847 493.77 304.871 493.78C304.704 493.85 304.487 494.037 304.438 494.156C304.467 493.751 304.496 493.347 304.289 492.844C304.15 492.509 304.465 492.085 304.495 491.681C304.524 491.277 304.553 490.872 304.178 490.439L304.296 490.488C304.236 489.63 303.763 489.434 303.31 489.523C303.191 489.474 303.122 489.306 303.122 489.306C302.747 488.873 302.441 488.607 302.017 488.292C302.017 488.292 302.017 488.292 302.066 488.173C301.809 487.789 301.573 487.691 301.307 487.997C301.189 487.947 301.189 487.947 301.07 487.898C300.833 487.8 300.833 487.8 300.548 487.82L300.429 487.771L300.597 487.702C300.242 487.554 300.074 487.623 299.857 487.811C299.739 487.762 299.69 487.88 299.522 487.949C299.404 487.9 299.286 487.851 299.118 487.92C299.118 487.92 299.118 487.92 299.049 487.752C298.457 487.506 298.033 487.191 297.707 486.64C297.756 486.521 297.875 486.57 297.924 486.452C299.223 483.661 298.906 482.419 297.634 481.473C297.83 481 297.692 480.665 297.317 480.231C297.02 479.275 296.212 479.217 295.897 479.641Z" fill="#D2286F"/>
<path d="M187.752 418.599C188.234 418.105 188.599 417.563 188.253 416.725C187.641 416.193 187.139 416.401 186.705 416.776C186.272 417.151 186.193 417.674 186.352 418.295C186.559 418.797 187.318 418.974 187.752 418.599Z" fill="#D2286F"/>
<path d="M165.175 439.196C165.371 438.723 165.065 438.457 164.474 438.211C163.833 438.083 163.547 438.103 163.163 438.36C162.897 438.666 162.986 439.119 163.124 439.455C163.263 439.79 163.45 440.006 163.638 440.223C163.707 440.391 164.111 440.42 164.278 440.351C164.85 440.311 165.096 439.719 165.175 439.196Z" fill="#D2286F"/>
<path d="M238.058 481.56C238.266 482.063 238.857 482.308 239.429 482.269C240.001 482.229 240.316 481.804 240.227 481.351C240.207 481.065 240.187 480.779 239.979 480.276C239.151 479.932 238.648 480.14 238.166 480.633C238.067 480.87 238.038 481.274 238.058 481.56Z" fill="#D2286F"/>
<path d="M265.082 450.596C265.004 451.119 265.142 451.454 265.399 451.838C265.704 452.104 266.06 452.252 266.444 451.995C266.946 451.788 267.143 451.314 267.054 450.861C266.965 450.407 266.777 450.191 266.304 449.994C265.9 449.965 265.397 450.172 265.082 450.596Z" fill="#D2286F"/>
<path d="M338.664 469.239C338.713 469.12 338.595 469.071 338.595 469.071L338.713 469.12C338.86 468.765 338.841 468.479 338.604 468.381C338.249 468.233 338.15 468.47 338.003 468.825C337.885 468.776 337.885 468.776 337.717 468.845C337.362 468.698 337.244 468.648 336.839 468.619C336.889 468.501 336.889 468.501 336.938 468.382C336.494 467.782 336.02 467.585 335.428 467.339C334.6 466.995 333.93 467.271 333.369 468.287L333.25 468.238C332.384 468.988 332.158 469.866 331.764 470.813C331.646 470.764 331.527 470.714 331.291 470.616C331.34 470.498 331.389 470.379 331.32 470.212C331.517 469.738 331.733 469.551 331.595 469.216C331.457 468.881 331.033 468.566 330.628 468.536C329.465 468.33 327.81 469.308 327.318 470.492C327.121 470.965 327.516 471.684 328.088 471.644C328.827 471.535 329.665 471.189 330.611 471.583C330.562 471.701 330.562 471.701 330.513 471.82C330.651 472.155 330.721 472.322 330.839 472.371C331.145 472.637 331.5 472.785 332.002 472.577C332.743 474.134 334.163 474.725 335.682 475.078C336.915 475.451 339.417 473.438 339.554 472.107C339.534 471.821 339.563 471.417 339.375 471.2C339.306 471.032 339.237 470.865 339.217 470.579L339.335 470.628C339.927 470.874 340.311 470.617 340.725 469.956C340.823 469.72 340.754 469.552 340.665 469.099C340.359 468.833 340.172 468.616 340.053 468.567C339.196 468.627 338.693 468.834 338.664 469.239Z" fill="#D2286F"/>
<path d="M174.508 469.169C174.587 468.646 174.33 468.262 173.906 467.947C173.551 467.799 173.147 467.77 172.762 468.027C172.378 468.283 172.467 468.737 172.556 469.19C172.645 469.644 172.784 469.979 173.425 470.106C174.164 469.997 174.548 469.74 174.508 469.169Z" fill="#D2286F"/>
<path d="M199.56 416.566C199.925 416.024 200.052 415.383 199.322 414.802C198.632 414.793 198.248 415.049 197.933 415.474C197.618 415.898 197.658 416.47 198.082 416.785C198.506 417.1 199.245 416.991 199.56 416.566Z" fill="#D2286F"/>
<path d="M380.587 463.204C380.035 463.53 380.075 464.102 380.588 464.87C380.658 465.038 380.825 464.969 381.18 465.116C381.634 465.027 381.919 465.007 382.067 464.652C382.264 464.179 382.175 463.725 381.8 463.292C381.661 462.957 381.139 462.878 380.587 463.204Z" fill="#D2286F"/>
<path d="M310.326 497.019C310.011 497.443 310.218 497.946 310.524 498.212C310.642 498.261 310.761 498.31 311.116 498.458C311.688 498.418 312.072 498.161 312.101 497.757C312.13 497.352 312.061 497.185 311.755 496.919C311.213 496.555 310.523 496.545 310.326 497.019Z" fill="#D2286F"/>
<path d="M228.87 503.002C229.136 502.696 229.165 502.292 229.076 501.839C229.105 501.435 228.799 501.169 228.207 500.923C227.636 500.963 227.3 501.101 227.222 501.624C227.144 502.146 227.184 502.718 227.726 503.082C228.032 503.348 228.653 503.19 228.87 503.002Z" fill="#D2286F"/>
<path d="M293.308 429.432C292.854 429.521 292.401 429.61 292.017 429.867C291.583 430.242 291.505 430.764 291.811 431.03C292.067 431.414 292.472 431.444 292.856 431.187C293.408 430.861 293.841 430.486 294.442 430.042C294.087 429.894 293.781 429.628 293.308 429.432Z" fill="#D2286F"/>
<path d="M183.723 465.364C184.018 464.654 184.145 464.013 183.75 463.294C183.563 463.077 183.277 463.097 183.109 463.166C182.893 463.354 182.844 463.472 182.528 463.896C182.282 464.488 182.184 464.725 182.392 465.227C182.648 465.612 183.408 465.788 183.723 465.364Z" fill="#D2286F"/>
<path d="M364.17 471.649C364.21 472.221 364.348 472.556 364.822 472.753C365.177 472.901 365.63 472.811 365.965 472.673C366.35 472.416 366.379 472.012 366.122 471.628C365.678 471.027 365.274 470.998 364.268 471.413C364.318 471.294 364.268 471.413 364.17 471.649Z" fill="#D2286F"/>
<path d="M189.136 434.303C189.186 434.185 189.186 434.185 189.166 433.899C188.958 433.396 188.721 433.298 188.436 433.318C188.15 433.338 187.815 433.476 187.716 433.713C187.45 434.019 187.559 434.758 187.914 434.906C188.24 435.457 188.743 435.25 189.136 434.303Z" fill="#D2286F"/>
<path d="M305.746 469.3C305.451 470.01 305.658 470.512 306.585 470.62C307.195 469.486 307.057 469.15 306.465 468.905C306.179 468.925 305.726 469.014 305.746 469.3Z" fill="#D2286F"/>
<path d="M166.524 448.64C166.316 448.137 165.843 447.941 165.39 448.03C164.936 448.119 164.739 448.592 164.898 449.213C164.967 449.381 165.154 449.598 165.509 449.745C165.795 449.725 165.963 449.656 166.13 449.587C166.465 449.448 166.613 449.093 166.524 448.64Z" fill="#D2286F"/>
<path d="M177.083 459.968C176.688 459.248 176.284 459.219 175.673 460.354C176.187 461.122 176.808 460.964 177.567 461.141C177.31 460.756 177.221 460.303 177.083 459.968Z" fill="#D2286F"/>
<path d="M216.233 504.69C216.193 504.119 215.719 503.922 215.266 504.011C214.812 504.1 214.546 504.406 214.586 504.978C214.912 505.53 215.267 505.677 215.602 505.539C215.937 505.401 216.154 505.213 216.233 504.69Z" fill="#D2286F"/>
<path d="M357.315 468.107C357.335 468.393 357.473 468.728 357.71 468.826C358.065 468.974 358.282 468.786 358.715 468.411C358.814 468.174 358.794 467.888 358.843 467.77C358.754 467.317 358.448 467.051 357.995 467.14C357.541 467.229 357.344 467.702 357.315 468.107Z" fill="#D2286F"/>
<path d="M294.975 441.783C294.828 442.138 294.848 442.424 295.035 442.641C295.223 442.858 295.627 442.887 295.913 442.867C296.08 442.798 296.297 442.61 296.444 442.255C296.405 441.683 296.099 441.418 295.694 441.388C295.458 441.29 295.123 441.428 294.975 441.783Z" fill="#D2286F"/>
<path d="M268.691 429.889C268.977 429.869 269.145 429.8 269.312 429.731C269.746 429.356 269.824 428.833 269.518 428.567C269.212 428.301 268.808 428.272 268.424 428.529C267.754 428.805 267.892 429.14 268.691 429.889Z" fill="#D2286F"/>
<path d="M202.584 489.442C202.653 489.609 202.841 489.826 203.196 489.973C203.768 489.934 204.034 489.628 203.945 489.174C203.855 488.721 203.55 488.455 203.096 488.544C202.712 488.801 202.495 488.988 202.584 489.442Z" fill="#D2286F"/>
<path d="M356.064 447.739C356.134 447.907 356.37 448.005 356.607 448.103C357.011 448.133 357.346 447.994 357.425 447.472C357.405 447.186 357.335 447.018 357.148 446.801C356.744 446.772 356.507 446.674 356.29 446.861C355.837 446.951 355.808 447.355 356.064 447.739Z" fill="#D2286F"/>
<path d="M173.127 456.797C173.274 456.442 173.136 456.107 172.899 456.008C172.781 455.959 172.495 455.979 172.209 455.999C171.874 456.138 171.776 456.374 171.865 456.828C171.885 457.114 172.072 457.33 172.595 457.409C172.979 457.152 173.028 457.034 173.127 456.797Z" fill="#D2286F"/>
<path d="M362.612 470.724C362.828 470.537 362.808 470.251 362.572 470.152C362.147 469.837 361.812 469.976 361.546 470.281C361.546 470.281 361.497 470.4 361.517 470.686C361.941 471.001 362.178 471.099 362.612 470.724Z" fill="#D2286F"/>
<path d="M293.303 532.971C293.815 532.074 293.982 532.005 294.713 532.586C295.373 532.999 295.284 532.546 295.383 532.309C295.432 532.191 295.649 532.003 295.767 532.052C297.384 532.169 297.876 530.985 298.249 529.753C298.446 529.279 298.692 528.687 299.007 528.263C298.514 527.781 298.257 527.396 298 527.012C297.112 525.81 295.761 525.387 294.322 526.178C293.051 526.898 291.997 527.432 290.478 527.078C289.837 526.951 289.167 527.228 288.803 527.77C287.956 528.806 286.971 529.507 285.798 529.991C285.463 530.13 285.266 530.603 285.74 530.8C286.519 531.262 286.796 531.933 287.358 532.583C288.226 533.499 288.956 534.08 290.455 534.147C291.904 534.333 292.693 534.106 293.303 532.971Z" fill="#D2286F"/>
<path d="M299.411 528.292C299.411 528.292 299.411 528.292 299.53 528.342C299.875 529.179 300.152 529.849 300.695 530.214C301.237 530.578 301.326 531.031 301.366 531.603C301.426 532.461 301.544 532.51 302.481 531.927C302.865 531.671 303.081 531.483 303.555 531.68C304.147 531.926 304.531 531.669 305.013 531.176C305.594 530.446 305.653 529.637 305.662 528.947C305.701 527.853 306.429 526.767 305.896 525.713C304.732 525.507 303.569 525.301 302.405 525.095C301.528 524.869 301.065 525.649 300.513 525.974C299.961 526.3 299.646 526.725 299.805 527.346C300.012 527.848 299.865 528.203 299.411 528.292Z" fill="#D2286F"/>
<path d="M309.658 586.126C309.903 585.534 310.149 584.942 309.873 584.272C309.714 583.651 309.221 583.168 309.279 582.36C309.023 581.976 308.737 581.996 308.569 582.065C307.752 582.697 307.111 582.569 306.479 581.751C305.986 581.269 305.443 580.904 304.753 580.895C304.516 580.797 304.3 580.984 304.201 581.221C304.024 581.98 303.729 582.691 303.671 583.499C303.593 584.022 303.751 584.643 304.343 584.888C305.359 585.449 306.444 586.178 307.46 586.739C308.357 587.251 309.146 587.023 309.658 586.126Z" fill="#D2286F"/>
<path d="M322.174 419.082C321.899 420.078 321.624 421.074 322.729 422.088C323.912 422.58 324.918 422.165 326.012 422.203C326.416 422.232 326.76 421.404 326.504 421.02C325.872 420.202 325.24 419.384 324.559 418.685C323.829 418.104 322.351 418.322 322.174 419.082Z" fill="#D2286F"/>
<path d="M331.789 444.036C331.099 444.026 330.429 444.303 329.71 444.698C330.055 445.536 330.618 446.186 330.412 447.35C330.709 448.306 331.28 448.266 331.97 448.275C332.591 448.116 332.906 447.692 332.985 447.17C333.063 446.647 333.211 446.292 333.289 445.769C333.209 444.626 332.647 443.976 331.789 444.036Z" fill="#D2286F"/>
<path d="M324.979 392.627C325.147 392.558 325.196 392.44 325.462 392.134C325.777 391.709 326.043 391.404 325.737 391.138C325.007 390.557 324.277 389.976 323.813 389.089C323.536 388.419 322.846 388.409 322.176 388.686C322.008 388.755 321.959 388.874 321.792 388.943C321.723 388.775 321.604 388.726 321.535 388.559C321.16 388.125 320.736 387.81 320.243 387.327C319.809 387.703 319.563 388.294 319.199 388.837C319.051 389.192 319.022 389.596 319.111 390.05C319.22 390.789 319.477 391.173 320.167 391.182C320.976 391.241 321.527 390.915 321.773 390.323C321.912 390.658 321.981 390.826 322.119 391.161C322.782 393.24 323.255 393.437 324.979 392.627Z" fill="#D2286F"/>
<path d="M338.386 413.466C338.397 414.442 338.96 415.092 340.005 415.249C340.813 415.307 341.533 414.912 341.877 414.084C342.123 413.492 342.034 413.039 341.639 412.319C340.889 411.453 340.011 411.227 339.124 411.691C338.336 411.918 338.277 412.727 338.386 413.466Z" fill="#D2286F"/>
<path d="M263.464 525.29C263.12 526.119 263.041 526.641 263.604 527.291C263.91 527.557 264.265 527.705 264.807 528.069C265.922 528.393 266.503 527.663 266.916 527.002C267.014 526.766 267.044 526.361 266.905 526.026C266.56 525.189 266.066 524.706 265.139 524.598C264.38 524.422 263.71 524.698 263.464 525.29Z" fill="#D2286F"/>
<path d="M271.815 482.819C272.141 483.371 272.516 483.804 273.009 484.287C273.315 484.553 273.67 484.701 274.074 484.73C274.883 484.788 275.218 484.65 275.464 484.058C275.808 483.229 275.65 482.609 274.989 482.195C274.446 481.831 273.924 481.752 273.372 482.078C272.8 482.118 272.416 482.375 271.815 482.819Z" fill="#D2286F"/>
<path d="M307.424 416.838C307.444 417.124 307.345 417.361 307.316 417.765C307.287 418.169 307.188 418.406 307.208 418.692C307.239 419.954 307.545 420.22 308.758 420.307C309.162 420.336 309.566 420.365 310.02 420.276C310.591 420.236 310.837 419.645 310.679 419.024C310.244 417.732 308.942 417.191 307.975 416.512C307.62 416.365 307.404 416.552 307.424 416.838Z" fill="#D2286F"/>
<path d="M315.809 531.915C315.11 532.596 315.219 533.335 315.683 534.222C316.433 535.089 317.123 535.098 317.892 534.585C318.493 534.14 318.531 533.046 318.255 532.376C317.721 531.321 316.558 531.115 315.809 531.915Z" fill="#D2286F"/>
<path d="M318.933 529.743C318.49 530.808 318.668 531.715 319.329 532.128C319.566 532.227 319.921 532.374 320.256 532.236C320.828 532.196 321.143 531.772 321.556 531.111C321.664 530.184 321.289 529.75 320.795 529.268C320.065 528.687 319.326 528.796 318.933 529.743Z" fill="#D2286F"/>
<path d="M261.199 527.402C261.415 527.215 261.563 526.86 261.424 526.524C261.177 525.45 260.496 524.751 259.648 524.121C259.224 523.805 258.672 524.131 258.593 524.654C258.564 525.058 258.702 525.393 258.742 525.965C259.088 526.803 259.463 527.236 260.055 527.482C260.479 527.797 260.933 527.708 261.199 527.402Z" fill="#D2286F"/>
<path d="M295.057 608.234C295.747 608.243 296.398 607.68 296.693 606.97C296.889 606.497 296.564 605.945 295.784 605.482C295.429 605.335 295.025 605.306 294.522 605.513C294.306 605.701 294.138 605.77 294.04 606.007C293.606 606.382 293.36 606.973 293.568 607.476C293.845 608.146 294.486 608.274 295.057 608.234Z" fill="#D2286F"/>
<path d="M315.644 382.363C315.753 383.102 316.414 383.516 317.676 383.485C318.109 383.11 318.375 382.804 318.286 382.35C318.226 381.493 317.427 380.744 316.688 380.853C316.234 380.943 315.653 381.673 315.644 382.363Z" fill="#D2286F"/>
<path d="M273.939 585.578C273.614 585.026 273.071 584.662 272.43 584.534C272.026 584.505 271.622 584.476 271.376 585.068C271.366 585.758 271.456 586.211 271.545 586.665C271.772 587.453 272.482 587.748 273.202 587.353C273.921 586.958 274.265 586.13 273.939 585.578Z" fill="#D2286F"/>
<path d="M308.692 412.785C308.821 413.81 309.245 414.125 310.773 413.788C311.137 413.246 311.215 412.723 310.959 412.339C310.682 411.669 309.854 411.324 309.183 411.601C308.681 411.809 308.652 412.213 308.692 412.785Z" fill="#D2286F"/>
<path d="M285.754 600.898C284.363 599.903 284.077 599.923 283.349 601.008C282.984 601.551 282.788 602.024 282.542 602.616C284.967 602.791 284.967 602.791 285.754 600.898Z" fill="#D2286F"/>
<path d="M268.499 543.899C268.49 544.589 269.131 544.717 269.722 544.963C270.658 544.38 271.023 543.838 270.628 543.118C270.489 542.783 270.065 542.468 269.612 542.557C269.109 542.765 268.577 543.377 268.499 543.899Z" fill="#D2286F"/>
<path d="M273.044 446.133C272.334 445.837 271.733 446.282 271.793 447.139C271.853 447.997 272.326 448.194 273.617 447.759C274.129 446.861 273.754 446.428 273.044 446.133Z" fill="#D2286F"/>
<path d="M314.515 452.541C314.841 453.092 315.482 453.22 315.984 453.013C316.487 452.805 316.683 452.332 316.693 451.641C316.229 450.755 315.657 450.795 314.987 451.071C314.435 451.397 314.14 452.107 314.515 452.541Z" fill="#D2286F"/>
<path d="M229.547 543.118C229.221 542.566 228.728 542.084 227.87 542.144C227.102 542.657 227.191 543.111 227.517 543.662C227.842 544.214 228.316 544.411 228.888 544.371C229.627 544.262 229.873 543.67 229.547 543.118Z" fill="#D2286F"/>
<path d="M244.873 571.695C245.041 571.626 245.189 571.271 245.238 571.152C245.198 570.58 244.774 570.265 244.231 569.901C243.758 569.704 243.541 569.892 243.058 570.385C242.812 570.977 242.665 571.332 242.971 571.598C243.227 571.982 243.632 572.011 244.085 571.922C244.371 571.902 244.657 571.882 244.873 571.695Z" fill="#D2286F"/>
<path d="M301.886 506.975C301.305 507.705 301.345 508.277 301.838 508.759C302.026 508.976 302.381 509.124 302.667 509.104C303.12 509.014 303.603 508.521 303.681 507.998C303.76 507.476 303.503 507.092 302.98 507.013C302.625 506.866 302.339 506.886 301.886 506.975Z" fill="#D2286F"/>
<path d="M279.074 475.704C279.548 475.901 279.952 475.93 280.336 475.673C280.721 475.416 280.868 475.061 280.897 474.657C280.857 474.085 280.433 473.77 279.911 473.692C279.506 473.663 279.171 473.801 278.905 474.107C278.541 474.65 278.63 475.103 279.074 475.704Z" fill="#D2286F"/>
<path d="M314.286 407.337C313.991 408.047 314.199 408.55 314.84 408.677C315.313 408.874 315.766 408.785 316.131 408.242C316.446 407.818 316.406 407.246 315.745 406.833C315.508 406.735 315.222 406.755 314.937 406.775C314.601 406.913 314.385 407.1 314.286 407.337Z" fill="#D2286F"/>
<path d="M276.3 569.21C276.31 568.52 276.22 568.066 275.629 567.82C275.155 567.624 274.702 567.713 274.269 568.088C274.003 568.394 273.973 568.798 274.063 569.251C274.319 569.636 274.674 569.783 275.128 569.694C275.532 569.723 275.936 569.752 276.3 569.21Z" fill="#D2286F"/>
<path d="M228.639 530.943C228.511 531.584 228.6 532.037 228.975 532.471C229.232 532.855 229.873 532.983 230.257 532.726C230.641 532.469 230.818 531.71 230.443 531.277C229.95 530.794 229.407 530.43 228.639 530.943Z" fill="#D2286F"/>
<path d="M318.715 366.29C318.992 366.96 319.514 367.038 320.352 366.692C320.519 366.623 320.569 366.505 320.716 366.15C320.795 365.627 320.775 365.341 320.469 365.075C320.045 364.76 319.591 364.849 319.138 364.939C318.586 365.264 318.508 365.787 318.715 366.29Z" fill="#D2286F"/>
<path d="M335.158 441.272C334.676 441.765 334.43 442.357 334.854 442.672C335.229 443.106 335.682 443.016 336.067 442.76C336.234 442.69 336.283 442.572 336.431 442.217C336.509 441.694 336.42 441.241 335.947 441.044C335.71 440.946 335.424 440.966 335.158 441.272Z" fill="#D2286F"/>
<path d="M319.282 523.226C319.203 523.748 319.292 524.202 319.647 524.349C320.121 524.546 320.643 524.624 321.244 524.18C321.461 523.992 321.589 523.352 321.401 523.135C321.095 522.869 320.74 522.721 320.385 522.574C319.813 522.614 319.478 522.752 319.282 523.226Z" fill="#D2286F"/>
<path d="M274.092 558.16C273.599 557.677 272.888 557.382 272.1 557.61C271.932 557.679 271.785 558.034 271.854 558.202C271.923 558.369 272.111 558.586 272.417 558.852C272.841 559.167 273.196 559.314 273.649 559.225C274.221 559.185 274.398 558.426 274.092 558.16Z" fill="#D2286F"/>
<path d="M245.679 547.046C246.113 546.671 246.073 546.1 245.343 545.519C245.224 545.469 245.224 545.469 244.938 545.489C244.485 545.579 244.15 545.717 244.121 546.121C244.141 546.407 244.161 546.693 244.299 547.028C244.605 547.294 245.295 547.303 245.679 547.046Z" fill="#D2286F"/>
<path d="M314.778 416.841C314.896 416.89 314.896 416.89 315.015 416.939C315.301 416.919 315.468 416.85 315.636 416.781C316.02 416.524 316.335 416.1 316.128 415.597C315.802 415.045 315.328 414.849 314.777 415.175C314.442 415.313 314.176 415.619 314.077 415.856C313.959 415.806 313.841 415.757 313.722 415.708C313.298 415.393 313.11 415.176 312.706 415.147C312.253 415.236 311.987 415.542 311.839 415.897C311.397 416.962 311.99 418.874 312.957 419.554C313.381 419.869 314.169 419.641 314.297 419C314.375 418.478 314.266 417.738 314.778 416.841Z" fill="#D2286F"/>
<path d="M306.666 439.702C306.518 440.057 306.538 440.343 306.725 440.56C307.268 440.924 307.84 440.884 308.302 440.105C307.434 439.188 307.03 439.159 306.666 439.702Z" fill="#D2286F"/>
<path d="M254.673 572.159C254.653 571.873 254.752 571.636 254.683 571.468C254.593 571.015 254.288 570.749 253.834 570.838C253.381 570.927 252.947 571.303 252.987 571.874C252.958 572.279 253.382 572.594 254.072 572.603C254.191 572.652 254.407 572.465 254.673 572.159Z" fill="#D2286F"/>
<path d="M268.526 563.203C268.073 563.292 267.669 563.263 267.215 563.352C266.308 563.531 266.398 563.984 267.315 564.782C268.222 564.604 268.162 563.746 268.526 563.203Z" fill="#D2286F"/>
<path d="M319.077 536.743C319.048 537.147 319.304 537.531 319.827 537.609C320.448 537.451 320.595 537.096 320.625 536.692C320.654 536.287 320.397 535.903 319.993 535.874C319.47 535.796 319.155 536.22 319.077 536.743Z" fill="#D2286F"/>
<path d="M318.756 389.902C319.022 389.596 318.884 389.261 318.627 388.877C318.39 388.779 318.154 388.68 318.035 388.631C317.631 388.602 317.247 388.858 317.218 389.263C317.188 389.667 317.494 389.933 317.849 390.08C318.204 390.228 318.539 390.09 318.756 389.902Z" fill="#D2286F"/>
<path d="M278.396 444.609C278.731 444.471 278.878 444.116 278.74 443.781C278.671 443.613 278.483 443.396 278.345 443.061C277.704 442.934 277.487 443.121 277.29 443.595C277.143 443.95 277.281 444.285 277.469 444.502C277.824 444.649 278.06 444.747 278.396 444.609Z" fill="#D2286F"/>
<path d="M258.364 467.097C258.522 467.718 258.926 467.747 259.862 467.165C259.842 466.879 259.941 466.642 259.822 466.593C259.496 466.041 259.023 465.844 258.757 466.15C258.254 466.358 258.225 466.762 258.364 467.097Z" fill="#D2286F"/>
<path d="M302.709 545.069C302.788 544.547 302.649 544.212 302.127 544.133C301.723 544.104 301.388 544.242 301.309 544.765C301.231 545.288 301.537 545.554 301.99 545.464C302.276 545.444 302.325 545.326 302.709 545.069Z" fill="#D2286F"/>
<path d="M296.886 386.088C296.976 386.541 297.331 386.689 297.784 386.6C297.952 386.53 298.168 386.343 298.267 386.106C298.414 385.751 298.325 385.298 297.802 385.219C297.566 385.121 297.398 385.19 297.063 385.328C296.916 385.684 296.817 385.92 296.886 386.088Z" fill="#D2286F"/>
<path d="M263.739 567.043C263.6 566.708 263.531 566.54 263.344 566.324C263.038 566.058 262.703 566.196 262.486 566.384C262.318 566.453 262.289 566.857 262.358 567.025C262.378 567.31 262.684 567.576 262.97 567.556C263.256 567.536 263.542 567.516 263.739 567.043Z" fill="#D2286F"/>
<path d="M269.993 528.281C270.536 528.645 270.822 528.625 271.087 528.319C271.353 528.014 271.215 527.678 271.028 527.462C270.722 527.196 270.367 527.048 270.032 527.187C269.529 527.394 269.667 527.729 269.993 528.281Z" fill="#D2286F"/>
<path d="M321.621 385.68C321.434 385.463 321.197 385.365 320.98 385.552C320.596 385.809 320.567 386.213 320.823 386.597C320.823 386.597 320.942 386.647 321.179 386.745C321.78 386.301 321.878 386.064 321.621 385.68Z" fill="#D2286F"/>
<path d="M323.852 453.784C324.187 453.646 324.285 453.409 324.147 453.074C324.009 452.739 323.674 452.877 323.289 453.134C323.162 453.775 323.349 453.991 323.852 453.784Z" fill="#D2286F"/>
<path d="M284.186 426.335C284.55 425.792 284.865 425.368 285.131 425.062C286.027 423.908 285.976 422.36 284.99 421.395C284.684 421.129 284.309 420.695 284.052 420.311C284.052 420.311 284.101 420.193 284.15 420.074C284.525 420.508 285.068 420.872 285.729 421.285C286.321 421.531 286.814 422.014 287.406 422.26C287.83 422.575 288.283 422.486 288.668 422.229C288.933 421.923 289.199 421.617 289.514 421.193C289.514 421.193 289.514 421.193 289.633 421.242C289.673 421.814 290.166 422.297 290.738 422.257C291.024 422.237 291.191 422.168 291.457 421.862C291.408 421.98 291.359 422.098 291.428 422.266C291.005 423.617 291.371 424.741 291.904 425.795C292.112 426.298 292.467 426.445 293.305 426.099C293.472 426.03 293.689 425.843 293.955 425.537C293.906 425.655 293.906 425.655 293.856 425.773C293.856 425.773 293.856 425.773 293.926 425.941C294.488 426.591 295.1 427.123 295.937 426.777C296.105 426.708 296.44 426.57 296.677 426.668C298.097 427.258 298.796 426.577 299.288 425.394C299.436 425.038 299.751 424.614 299.948 424.141C299.948 424.141 299.948 424.141 300.066 424.19C300.184 424.239 300.352 424.17 300.401 424.052L300.519 424.101C301.415 422.946 301.789 421.714 302.281 420.53C302.527 419.938 302.487 419.367 301.944 419.002C300.957 418.037 300.424 416.983 299.989 415.692C299.851 415.357 299.614 415.258 299.19 414.943C299.19 414.943 299.239 414.825 299.357 414.874C298.371 413.909 297.464 414.087 296.459 414.502C295.335 414.868 294.212 415.234 293.088 415.6C292.585 415.807 292.112 415.61 291.757 415.463C290.929 415.119 290.701 414.33 291.47 413.817C292.238 413.303 292.652 412.642 293.045 411.695C293.163 411.745 293.163 411.745 293.282 411.794C294.946 410.126 293.18 408.698 293.08 407.269C293.021 406.411 292.33 406.402 291.64 406.393C291.118 406.314 291.098 406.028 290.841 405.644C290.397 405.043 289.874 404.965 289.441 405.34C288.505 405.922 287.638 406.672 286.702 407.255C285.717 407.956 285.274 409.021 285.591 410.263C285.472 410.214 285.423 410.332 285.305 410.283C284.96 411.112 284.38 411.842 284.991 412.374C285.741 413.24 285.328 413.901 285.102 414.779C285.102 414.779 284.983 414.73 284.934 414.848C284.619 415.272 284.403 415.46 284.304 415.697C284.058 416.288 283.861 416.762 283.832 417.166C283.596 417.068 283.428 417.137 283.142 417.157C283.004 416.822 282.698 416.556 282.343 416.408C281.159 415.917 280.124 415.07 279.304 414.035C279.117 413.819 278.594 413.74 278.565 414.144C278.339 415.022 277.738 415.466 277.325 416.127C276.645 417.094 276.37 418.09 276.638 419.45C276.905 420.811 277.3 421.53 278.582 421.785C279.578 422.06 279.696 422.11 279.421 423.106C279.126 423.816 279.628 423.608 279.865 423.707C279.984 423.756 280.22 423.854 280.171 423.972C280.508 425.5 281.789 425.755 283.051 425.725C283.19 426.06 283.712 426.138 284.186 426.335Z" fill="#D2286F"/>
<path d="M282.742 432.814C283.571 433.158 284.31 433.049 285.099 432.821C286.173 432.574 287.406 432.947 288.272 432.197C288.193 431.053 287.994 429.861 287.964 428.599C287.904 427.741 287.144 427.564 286.651 427.082C286.158 426.599 285.635 426.521 285.083 426.847C284.699 427.103 284.295 427.074 284.087 426.571C284.087 426.571 284.087 426.571 284.038 426.69C283.27 427.203 282.787 427.697 282.492 428.407C282.246 428.999 281.862 429.255 281.241 429.414C280.403 429.759 280.472 429.927 281.202 430.508C281.508 430.774 281.814 431.04 281.666 431.395C281.726 432.253 282.151 432.568 282.742 432.814Z" fill="#D2286F"/>
<path d="M230.192 450.393C229.917 451.389 230.43 452.158 231.476 452.314C232.117 452.442 232.688 452.402 233.289 451.958C233.841 451.632 234.136 450.922 234.994 450.862C235.26 450.556 235.24 450.27 235.003 450.172C234.155 449.541 234.164 448.851 234.745 448.121C235.109 447.579 235.237 446.938 235.128 446.198C235.108 445.912 234.92 445.696 234.634 445.716C233.826 445.657 232.968 445.717 232.229 445.826C231.657 445.866 231.224 446.242 230.978 446.833C230.772 447.997 230.398 449.23 230.192 450.393Z" fill="#D2286F"/>
<path d="M392.664 419.783C392.527 421.114 393.158 421.932 393.455 422.888C393.544 423.342 394.471 423.449 394.619 423.094C395.249 422.246 395.879 421.397 396.391 420.499C396.853 419.72 396.182 418.331 395.443 418.44C394.348 418.401 393.323 418.531 392.664 419.783Z" fill="#D2286F"/>
<path d="M370.623 434.08C369.854 434.594 369.894 435.165 370.171 435.836C370.448 436.506 370.97 436.584 371.591 436.426C372.045 436.337 372.567 436.415 373.021 436.326C373.927 436.147 374.341 435.487 374.163 434.58C374.054 433.84 373.56 433.358 372.998 432.708C372.347 433.27 371.648 433.951 370.623 434.08Z" fill="#D2286F"/>
<path d="M423.019 410.191C422.635 410.448 422.369 410.754 422.152 410.941C420.448 412.037 420.37 412.56 421.682 414.077C421.751 414.244 421.87 414.293 422.225 414.441C422.698 414.638 423.053 414.785 423.201 414.43C423.476 413.434 423.889 412.773 424.589 412.092C425.19 411.648 425.08 410.909 424.469 410.377C424.143 409.825 423.62 409.747 423.019 410.191Z" fill="#D2286F"/>
<path d="M404.034 434.502C404.143 435.241 404.824 435.94 405.682 435.881C406.204 435.959 406.707 435.751 407.357 435.189C408.036 434.222 407.976 433.364 407.296 432.665C406.733 432.015 405.994 432.124 405.324 432.401C404.318 432.816 403.905 433.477 404.034 434.502Z" fill="#D2286F"/>
<path d="M347.349 360.84C347.595 360.248 347.723 359.607 347.328 358.888C346.361 358.208 345.622 358.318 344.853 358.831C344.252 359.275 343.957 359.985 343.83 360.626C343.722 361.553 343.979 361.937 344.856 362.163C346.375 362.517 346.759 362.26 347.349 360.84Z" fill="#D2286F"/>
<path d="M275.341 391.846C275.193 392.201 275.046 392.557 274.918 393.197C274.949 394.459 275.708 394.636 276.467 394.813C276.704 394.911 277.157 394.822 277.374 394.635C278.024 394.072 278.438 393.411 278.259 392.504C278.15 391.765 277.825 391.213 277.184 391.085C276.257 390.978 275.803 391.067 275.341 391.846Z" fill="#D2286F"/>
<path d="M392.307 407.282C393.46 406.512 393.597 405.181 393.97 403.948C394.069 403.712 393.714 403.564 393.428 403.584C393.142 403.604 392.974 403.673 392.521 403.762C392.067 403.852 391.831 403.753 391.663 403.822C390.372 404.257 390.225 404.613 390.472 405.687C390.561 406.14 390.7 406.475 390.838 406.81C391.184 407.648 391.755 407.608 392.307 407.282Z" fill="#D2286F"/>
<path d="M283.208 446.054C283.869 446.467 284.776 446.289 285.426 445.726C286.243 445.095 286.094 443.783 285.197 443.272C284.299 442.76 283.629 443.037 282.88 443.836C282.25 444.684 282.359 445.424 283.208 446.054Z" fill="#D2286F"/>
<path d="M289.045 447.369C289.557 446.472 289.113 445.871 288.068 445.714C286.973 445.676 286.136 446.021 285.959 446.781C285.861 447.017 285.95 447.471 286.019 447.638C286.226 448.141 286.818 448.387 287.459 448.514C288.435 448.504 288.799 447.961 289.045 447.369Z" fill="#D2286F"/>
<path d="M274.076 388.545C274.047 388.949 274.136 389.402 274.491 389.55C274.846 389.698 275.132 389.678 275.467 389.539C276.521 389.006 276.984 388.227 277.308 387.112C277.505 386.639 277.012 386.156 276.44 386.196C275.986 386.285 275.77 386.473 275.218 386.799C274.519 387.48 274.203 387.904 274.076 388.545Z" fill="#D2286F"/>
<path d="M430.732 402.986C430.455 402.316 429.627 401.972 428.957 402.249C428.287 402.525 427.992 403.236 428.427 404.527C428.969 404.891 429.324 405.039 429.659 404.9C430.497 404.554 431.009 403.657 430.732 402.986Z" fill="#D2286F"/>
<path d="M222.108 417.748C222.591 417.254 222.718 416.613 222.678 416.042C222.708 415.637 222.569 415.302 221.928 415.175C221.307 415.333 220.805 415.541 220.421 415.797C219.701 416.192 219.643 417.001 220.205 417.651C220.699 418.134 221.626 418.241 222.108 417.748Z" fill="#D2286F"/>
<path d="M398.99 405.896C399.591 405.451 399.649 404.643 399.205 404.042C398.83 403.609 398.377 403.698 397.923 403.787C396.918 404.202 396.84 404.724 397.511 406.114C398.103 406.36 398.557 406.271 398.99 405.896Z" fill="#D2286F"/>
<path d="M209.886 431.128C209.245 431.001 208.722 430.922 208.081 430.795C208.596 433.229 208.596 433.229 210.568 433.494C211.306 431.718 211.118 431.502 209.886 431.128Z" fill="#D2286F"/>
<path d="M260.011 402.686C260.928 403.484 261.451 403.562 262.052 403.118C262.318 402.812 262.465 402.457 262.209 402.073C261.883 401.521 261.222 401.108 260.601 401.266C259.862 401.375 259.902 401.947 260.011 402.686Z" fill="#D2286F"/>
<path d="M356.012 378.736C356.07 377.927 355.527 377.563 354.739 377.79C353.95 378.018 353.872 378.54 354.642 379.693C355.52 379.919 355.884 379.377 356.012 378.736Z" fill="#D2286F"/>
<path d="M361.148 421.815C361.523 422.248 361.927 422.277 362.548 422.119C363.247 421.438 363.089 420.817 362.595 420.335C362.22 419.901 361.412 419.843 361.097 420.267C360.782 420.691 360.773 421.381 361.148 421.815Z" fill="#D2286F"/>
<path d="M250.777 363.456C251.141 362.913 251.505 362.371 251.16 361.533C250.43 360.952 250.045 361.209 249.563 361.702C249.248 362.127 249.002 362.718 249.328 363.27C249.653 363.822 250.294 363.949 250.777 363.456Z" fill="#D2286F"/>
<path d="M303.644 423.595C303.546 423.832 303.398 424.187 303.536 424.522C303.744 425.025 304.336 425.27 304.907 425.23C305.479 425.19 305.676 424.717 305.754 424.194C305.734 423.909 305.596 423.573 305.507 423.12C304.56 422.727 304.057 422.934 303.644 423.595Z" fill="#D2286F"/>
<path d="M330.51 392.011C329.987 391.932 329.652 392.071 329.169 392.564C329.091 393.087 329.229 393.422 329.486 393.806C329.792 394.072 330.147 394.219 330.531 393.963C331.034 393.755 331.23 393.282 331.141 392.828C331.17 392.424 331.032 392.089 330.51 392.011Z" fill="#D2286F"/>
<path d="M403.429 408.573C403.35 409.096 403.607 409.48 404.081 409.677C404.672 409.923 405.057 409.666 405.352 408.956C405.45 408.719 405.381 408.551 405.292 408.098C404.986 407.832 404.798 407.615 404.512 407.635C403.822 407.626 403.389 408.001 403.429 408.573Z" fill="#D2286F"/>
<path d="M237.73 413.553C237.346 413.809 237.435 414.263 237.524 414.716C237.613 415.17 237.752 415.505 238.393 415.632C239.014 415.474 239.398 415.217 239.476 414.694C239.555 414.172 239.298 413.788 238.874 413.473C238.568 413.207 238.114 413.296 237.73 413.553Z" fill="#D2286F"/>
<path d="M262.497 360.97C262.742 360.378 262.988 359.787 262.258 359.206C261.568 359.196 261.184 359.453 260.987 359.927C260.672 360.351 260.83 360.972 261.136 361.238C261.393 361.622 262.132 361.513 262.497 360.97Z" fill="#D2286F"/>
<path d="M445.281 400.705C444.73 401.031 444.769 401.603 445.332 402.253C445.401 402.42 445.569 402.351 445.924 402.499C446.328 402.528 446.663 402.39 446.811 402.035C447.007 401.561 446.8 401.058 446.543 400.674C446.286 400.29 445.596 400.281 445.281 400.705Z" fill="#D2286F"/>
<path d="M352.517 362.432C352.557 363.004 353.217 363.417 353.74 363.496C354.026 363.476 354.361 363.337 354.509 362.982C354.754 362.39 354.547 361.888 353.955 361.642C353.837 361.593 353.837 361.593 353.551 361.613C352.861 361.604 352.526 361.742 352.517 362.432Z" fill="#D2286F"/>
<path d="M376.245 437.249C375.93 437.674 376.138 438.176 376.562 438.491C376.68 438.541 376.799 438.59 377.154 438.737C377.774 438.579 378.11 438.441 378.139 438.036C378.168 437.632 377.98 437.415 377.793 437.199C377.181 436.667 376.442 436.776 376.245 437.249Z" fill="#D2286F"/>
<path d="M294.033 446.389C294.22 446.605 294.96 446.496 295.107 446.141C295.373 445.835 295.284 445.382 295.313 444.977C295.224 444.524 295.037 444.307 294.445 444.061C293.873 444.101 293.489 444.358 293.46 444.762C293.401 445.571 293.49 446.024 294.033 446.389Z" fill="#D2286F"/>
<path d="M356.291 372.051C356.843 371.725 357.277 371.35 357.878 370.906C357.404 370.709 357.098 370.443 356.625 370.246C356.171 370.336 355.718 370.425 355.452 370.731C355.019 371.106 354.94 371.628 355.246 371.894C355.621 372.328 355.956 372.189 356.291 372.051Z" fill="#D2286F"/>
<path d="M248.434 410.506C248.729 409.796 248.857 409.155 248.462 408.435C248.274 408.219 247.988 408.239 247.771 408.426C247.555 408.614 247.456 408.85 247.19 409.156C246.945 409.748 246.965 410.034 247.103 410.369C247.478 410.802 248.286 410.861 248.434 410.506Z" fill="#D2286F"/>
<path d="M429.22 409.298C429.22 409.298 429.17 409.416 429.072 409.653C429.112 410.225 429.369 410.609 429.773 410.638C430.128 410.786 430.581 410.696 430.847 410.391C431.232 410.134 431.261 409.73 431.004 409.345C430.629 408.912 430.106 408.833 429.22 409.298Z" fill="#D2286F"/>
<path d="M252.802 379.288C252.852 379.169 252.852 379.169 252.832 378.884C252.624 378.381 252.387 378.283 251.983 378.253C251.697 378.273 251.313 378.53 251.215 378.767C250.949 379.073 251.058 379.812 251.531 380.009C251.956 380.324 252.34 380.067 252.802 379.288Z" fill="#D2286F"/>
<path d="M395.544 410.848C395.495 410.967 395.495 410.967 395.446 411.085C395.584 411.42 395.653 411.588 395.772 411.637C396.196 411.952 396.551 412.099 396.984 411.724C397.418 411.349 397.545 410.708 397.052 410.226C396.864 410.009 396.509 409.861 396.154 409.714C396.203 409.595 396.134 409.428 396.183 409.31C396.38 408.836 396.479 408.599 396.34 408.264C396.153 408.048 395.847 407.782 395.443 407.753C394.279 407.547 392.693 408.692 392.25 409.757C392.054 410.23 392.567 410.999 393.139 410.959C393.878 410.85 394.597 410.455 395.544 410.848Z" fill="#D2286F"/>
<path d="M370.522 409.61C370.345 410.369 370.553 410.872 371.479 410.98C371.971 409.796 371.951 409.51 371.36 409.264C370.955 409.235 370.669 409.255 370.522 409.61Z" fill="#D2286F"/>
<path d="M230.703 394.393C230.634 394.226 230.447 394.009 230.328 393.96C230.447 394.009 230.733 393.989 230.851 394.038C231.255 394.067 231.561 394.333 231.867 394.599C232.952 395.328 233.928 395.317 234.913 394.616C235.563 394.053 236.332 393.54 236.794 392.761C237.355 391.745 238.104 390.945 239.297 390.747C239.464 390.678 239.513 390.56 239.563 390.441C239.661 390.204 239.424 390.106 239.188 390.008C237.718 389.536 237.718 389.536 238.092 388.303C238.338 387.711 238.584 387.12 238.711 386.479C238.307 386.449 238.139 386.519 237.854 386.539C236.779 386.786 236.661 386.737 236.483 385.83C236.393 385.377 236.472 384.854 235.978 384.371C235.239 384.481 234.283 384.777 233.553 384.196C232.586 383.517 231.581 383.932 230.507 384.179C229.718 384.407 229.285 384.782 228.921 385.325L228.97 385.206C229.048 384.684 228.742 384.418 228.269 384.221C227.746 384.143 227.342 384.113 227.076 384.419C226.81 384.725 226.899 385.179 227.038 385.514C227.176 385.849 227.364 386.066 227.551 386.282C227.62 386.45 228.024 386.479 228.192 386.41C228.527 386.271 228.695 386.202 228.793 385.966C228.744 386.084 228.695 386.202 228.715 386.488C228.656 387.297 228.361 388.007 227.829 388.619C227.199 389.467 226.806 390.414 226.816 391.39C228.473 392.079 228.522 391.96 228.987 392.847C229.194 393.35 229.569 393.783 229.924 393.931C229.806 393.881 229.638 393.951 229.638 393.951C229.185 394.04 229.106 394.562 229.265 395.183C229.334 395.351 229.571 395.449 229.876 395.715C230.162 395.695 230.33 395.626 230.497 395.557C230.645 395.202 230.792 394.847 230.703 394.393Z" fill="#D2286F"/>
<path d="M241.696 405.346C241.301 404.627 240.847 404.716 240.286 405.732C240.8 406.5 241.47 406.224 242.18 406.519C241.972 406.016 241.834 405.681 241.696 405.346Z" fill="#D2286F"/>
<path d="M282.461 448.519C282.421 447.947 281.947 447.751 281.494 447.84C281.041 447.929 280.893 448.284 280.815 448.807C281.141 449.359 281.545 449.388 281.88 449.249C282.284 449.279 282.55 448.973 282.461 448.519Z" fill="#D2286F"/>
<path d="M422.119 406.347C422.139 406.633 422.277 406.968 422.632 407.115C422.987 407.263 423.204 407.075 423.519 406.651C423.617 406.414 423.597 406.128 423.647 406.01C423.557 405.557 423.252 405.291 422.798 405.38C422.295 405.587 422.148 405.943 422.119 406.347Z" fill="#D2286F"/>
<path d="M322.191 383.974C321.738 384.063 321.472 384.369 321.561 384.822C321.581 385.108 321.769 385.325 322.242 385.521C322.577 385.383 322.863 385.363 323.031 385.294C323.247 385.106 323.395 384.751 323.207 384.535C323.612 384.564 323.947 384.425 324.213 384.119C324.479 383.814 324.508 383.409 324.369 383.074C324.231 382.739 323.807 382.424 323.423 382.681C322.752 382.957 322.605 383.313 322.783 384.219C322.527 383.835 322.359 383.904 322.191 383.974Z" fill="#D2286F"/>
<path d="M358.746 382.509C358.598 382.864 358.618 383.15 358.806 383.367C359.112 383.633 359.397 383.613 359.733 383.474C359.9 383.405 360.117 383.218 360.264 382.862C360.224 382.291 359.919 382.025 359.514 381.996C359.228 382.016 359.012 382.203 358.746 382.509Z" fill="#D2286F"/>
<path d="M332.728 370.309C332.422 370.043 332.018 370.014 331.633 370.27C331.082 370.596 331.052 371 332.019 371.68C332.305 371.66 332.473 371.591 332.64 371.521C332.955 371.097 333.034 370.575 332.728 370.309Z" fill="#D2286F"/>
<path d="M269.69 433.496C269.601 433.043 269.295 432.777 268.842 432.866C268.388 432.955 268.122 433.261 268.33 433.764C268.399 433.931 268.587 434.148 268.942 434.296C269.513 434.256 269.779 433.95 269.69 433.496Z" fill="#D2286F"/>
<path d="M421.371 385.772C421.351 385.486 421.281 385.318 420.976 385.052C420.571 385.023 420.404 385.092 420.236 385.161C419.852 385.418 419.823 385.822 420.079 386.207C420.149 386.374 420.504 386.522 420.622 386.571C421.075 386.482 421.292 386.294 421.371 385.772Z" fill="#D2286F"/>
<path d="M237.69 402.294C237.838 401.938 237.7 401.603 237.463 401.505C237.345 401.456 237.059 401.476 236.773 401.496C236.438 401.634 236.409 402.038 236.429 402.324C236.449 402.61 236.636 402.827 237.159 402.905C237.375 402.718 237.592 402.53 237.69 402.294Z" fill="#D2286F"/>
<path d="M427.424 408.274C427 407.959 426.665 408.097 426.399 408.403C426.35 408.522 426.35 408.522 426.37 408.807C426.745 409.241 427.149 409.27 427.415 408.964C427.563 408.609 427.661 408.372 427.424 408.274Z" fill="#D2286F"/>
<path d="M362.958 428.813C362.386 428.853 362.239 429.208 362.495 429.592C362.683 429.809 363.087 429.838 363.304 429.651C363.57 429.345 363.382 429.128 362.958 428.813Z" fill="#D2286F"/>
<path d="M208.591 470.98C208.571 470.694 208.837 470.388 208.915 469.865C209.309 468.919 208.865 468.318 208.637 467.529C208.499 467.194 208.626 466.553 208.222 466.524C207.581 466.396 207.858 467.066 207.71 467.421C207.612 467.658 207.445 467.727 207.208 467.629C206.853 467.481 206.616 467.383 206.281 467.521C205.778 467.729 205.325 467.818 205.167 467.197C205.078 466.744 205.343 466.438 205.728 466.181C205.944 465.994 206.112 465.924 206.329 465.737C206.595 465.431 206.505 464.978 206.15 464.83C205.49 464.417 204.73 464.24 204.129 464.684C203.095 465.503 201.478 465.387 201.194 467.073C201.144 467.191 200.928 467.379 200.593 467.517C199.706 467.981 199.48 468.859 199.372 469.786C199.265 470.713 199.61 471.55 200.39 472.013C200.508 472.062 200.577 472.23 200.646 472.397C201.111 473.284 201.771 473.698 202.747 473.687C203.319 473.647 203.862 474.011 204.069 474.514C204.326 474.898 204.681 475.045 205.065 474.789C206.741 474.097 208.278 473.07 208.591 470.98Z" fill="#D2286F"/>
<path d="M209.82 423.606C210.421 423.162 211.091 422.885 211.859 422.372C212.322 421.592 212.617 420.882 212.863 420.29C213.06 419.817 212.971 419.363 212.596 418.93C212.171 418.615 211.846 418.063 211.638 417.561C211.431 417.058 210.888 416.694 210.415 416.497C208.57 415.592 205.988 416.462 205.063 418.02C204.384 418.987 203.823 420.003 203.902 421.147C203.962 422.004 204.958 422.28 205.353 422.999C205.817 423.886 207.03 423.973 207.859 424.318C208.549 424.327 209.15 423.883 209.82 423.606Z" fill="#D2286F"/>
<path d="M234.274 483.318C234.107 483.388 233.988 483.338 233.87 483.289C232.391 483.508 231.337 484.041 230.747 485.461C230.156 486.882 230.118 487.976 231.44 488.803C231.796 490.617 233.157 490.349 234.468 490.2C235.374 490.022 236.212 489.676 237.217 489.261C237.385 489.192 237.651 488.886 237.582 488.718C237.64 487.91 237.935 487.199 238.161 486.322C238.309 485.967 238.052 485.582 237.795 485.198C237.608 484.981 237.42 484.765 237.045 484.331C236.789 483.947 236.552 483.849 236.483 483.681C235.822 483.268 235.161 482.854 234.274 483.318Z" fill="#D2286F"/>
<path d="M243.493 452.451C243.158 452.589 242.892 452.895 242.912 453.181C243.229 454.423 242.5 455.508 242.294 456.672C242.265 457.076 242.285 457.362 242.709 457.677C242.66 457.795 242.66 457.795 242.611 457.914C242.917 458.179 243.104 458.396 243.509 458.425C243.459 458.544 243.459 458.544 243.41 458.662C243.598 458.879 243.785 459.096 244.022 459.194C243.973 459.312 244.042 459.48 244.042 459.48C244.269 460.268 244.477 460.771 245.187 461.066C245.779 461.312 246.371 461.558 246.962 461.804C247.742 462.266 248.481 462.157 249.2 461.762C249.318 461.811 249.437 461.861 249.555 461.91C250.433 462.136 250.935 461.928 251.398 461.149C251.398 461.149 251.349 461.267 251.467 461.316C252.877 460.931 253.556 459.964 254.235 458.997C254.915 458.03 255.071 456.985 254.42 455.881C254.232 455.664 254.163 455.497 253.976 455.28C254.025 455.162 253.956 454.994 254.005 454.876C254.132 454.235 253.827 453.969 253.402 453.654L253.57 453.585C253.501 453.417 253.55 453.299 253.53 453.013C253.865 452.875 254.082 452.687 254.278 452.214C254.938 450.961 254.849 450.508 253.694 449.612C253.152 449.247 252.56 449.001 251.703 449.061C251.102 449.506 250.856 450.097 250.777 450.62C250.136 450.492 249.377 450.316 248.687 450.306C247.474 450.219 246.282 450.417 245.435 451.453C244.834 451.897 244.164 452.174 243.493 452.451Z" fill="#D2286F"/>
<path d="M213.19 465.257C213.672 464.764 214.273 464.319 214.283 463.629C214.45 463.56 214.45 463.56 214.618 463.491C214.982 462.948 215.179 462.475 215.425 461.883C215.543 461.932 215.543 461.932 215.661 461.982C216.903 461.665 217.889 460.964 218.686 460.046C218.686 460.046 218.686 460.046 218.735 459.928L218.854 459.977C219.247 459.03 219.493 458.439 220.262 457.925C221.198 457.343 221.059 457.007 220.526 455.953C220.457 455.785 220.269 455.569 220.151 455.52C220.2 455.401 220.2 455.401 220.249 455.283C220.594 454.454 221.007 453.793 220.11 453.282L220.159 453.163C220.217 452.355 219.724 451.872 219.014 451.577L219.181 451.508C219.181 451.508 219.349 451.439 219.28 451.271C219.407 450.63 219.436 450.226 218.894 449.862L218.825 449.694C218.825 449.694 218.825 449.694 218.756 449.527C218.756 449.527 218.637 449.477 218.686 449.359L218.805 449.408C218.785 449.122 218.666 449.073 218.548 449.024C218.597 448.906 218.479 448.856 218.528 448.738C218.202 448.186 217.946 447.802 217.571 447.369L217.62 447.25C217.551 447.083 217.314 446.984 217.146 447.054C217.196 446.935 217.196 446.935 217.126 446.768C216.682 446.167 216.16 446.088 215.469 446.079C214.375 446.041 213.212 445.835 211.979 445.461C212.028 445.343 212.028 445.343 212.077 445.225C211.959 445.175 212.008 445.057 211.89 445.008C212.491 444.564 212.786 443.854 213.081 443.143C213.278 442.67 212.784 442.187 212.331 442.276C211.878 442.366 211.543 442.504 211.04 442.712C210.39 443.274 210.075 443.698 209.947 444.339C209.918 444.744 210.007 445.197 210.362 445.345L210.48 445.394C209.949 446.005 209.209 446.115 208.421 446.342C208.135 446.362 207.8 446.501 207.465 446.639L207.396 446.471C207.021 446.038 206.882 445.703 207.385 445.495L207.552 445.426L207.671 445.475C208.193 445.554 208.676 445.06 208.902 444.183C209 443.946 208.98 443.66 208.793 443.443C209.137 442.615 209.008 441.59 210.013 441.175C210.634 441.016 210.525 440.277 210.367 439.656C210.09 438.986 209.764 438.434 208.837 438.326C208.887 438.208 208.936 438.09 208.936 438.09C209.023 436.877 209.023 436.877 207.978 436.72C207.909 436.553 207.909 436.553 207.84 436.385C207.248 436.139 206.824 435.824 206.183 435.697C206.183 435.697 206.232 435.578 206.114 435.529C205.286 435.185 204.645 435.057 204.004 434.93C204.004 434.93 203.934 434.762 203.816 434.713C203.412 434.684 203.008 434.655 202.791 434.842C202.19 435.286 201.5 435.277 200.622 435.051C200.622 435.051 200.622 435.051 200.573 435.17L200.622 435.051C199.134 435.96 198.83 437.36 198.526 438.76C198.358 438.829 198.358 438.829 198.191 438.899C197.087 439.55 197.719 440.368 197.946 441.156C197.897 441.275 197.779 441.226 197.73 441.344C196.322 443.396 198.354 444.518 198.69 446.046C198.71 446.332 199.233 446.41 199.519 446.39C200.189 446.113 200.662 446.31 201.274 446.842C201.58 447.108 202.053 447.305 202.645 447.55L202.596 447.669C203.04 448.27 203.355 447.846 203.502 447.491L203.67 447.421C203.67 447.421 203.67 447.421 203.838 447.352C203.838 447.352 203.788 447.471 203.907 447.52C204.311 447.549 204.597 447.529 204.833 447.627C205.76 447.735 205.879 447.784 206.028 449.095C205.909 449.046 205.791 448.997 205.742 449.115C205.19 449.441 204.687 449.649 204.136 449.974L204.185 449.856C203.061 450.222 202.963 450.459 203.693 451.04C203.644 451.158 203.713 451.325 203.782 451.493C203.92 451.828 204.108 452.045 204.463 452.192C204.414 452.311 204.365 452.429 204.315 452.547C203.824 453.731 203.43 454.678 203.155 455.674C202.86 456.384 202.929 456.552 203.827 457.063C203.945 457.113 203.896 457.231 204.014 457.28C204.014 457.28 204.014 457.28 204.083 457.448L203.965 457.398C203.837 458.039 204.143 458.305 204.547 458.334C204.666 458.384 204.617 458.502 204.735 458.551C204.922 458.768 205.159 458.866 205.347 459.083L205.298 459.201L205.179 459.152C205.101 459.675 205.002 459.911 205.141 460.247C205.092 460.365 205.161 460.532 205.161 460.532C205.181 460.818 205.25 460.986 205.437 461.203C205.437 461.203 205.437 461.203 205.556 461.252L205.437 461.203C205.546 461.942 206.02 462.139 206.375 462.286C207.085 462.581 207.844 462.758 208.121 463.428C208.516 464.148 209.177 464.561 210.005 464.905C210.36 465.053 210.715 465.2 211.021 465.466C211.327 465.732 211.367 466.304 211.82 466.215C212.303 465.721 212.924 465.563 213.19 465.257ZM206.175 448.74C206.294 448.789 206.244 448.908 206.175 448.74C206.126 448.858 206.126 448.858 206.175 448.74ZM206.108 450.239C205.989 450.19 205.989 450.19 206.108 450.239V450.239ZM211.891 457.361C212.01 457.41 212.128 457.46 212.128 457.46C212.128 457.46 212.128 457.46 212.01 457.41L211.891 457.361ZM212.454 458.011C212.572 458.061 212.572 458.061 212.454 458.011C212.572 458.061 212.523 458.179 212.454 458.011Z" fill="#D2286F"/>
<path d="M228.261 473.741C228.932 473.465 228.675 473.08 228.586 472.627C227.943 470.833 226.74 470.055 224.739 470.195C222.896 470.956 222.069 472.278 221.617 474.033C221.47 474.389 221.775 474.654 222.13 474.802C222.959 475.146 223.521 475.796 224.202 476.496C224.39 476.713 224.577 476.929 224.745 476.86C225.504 477.037 226.223 476.642 227.012 476.414C227.465 476.325 227.544 475.802 227.691 475.447C227.819 474.806 227.473 473.969 228.261 473.741Z" fill="#D2286F"/>
<path d="M318.491 466.685C319.19 466.004 320.432 465.687 320.638 464.523C320.618 464.238 320.647 463.833 320.627 463.547C320.489 463.212 320.351 462.877 320.261 462.424C319.826 461.133 318.998 460.788 317.667 460.652C316.336 460.515 315.282 461.048 314.602 462.015C314.189 462.676 314.012 463.435 313.668 464.264C313.54 464.905 314.014 465.102 314.556 465.466C315.335 465.929 315.78 466.529 316.49 466.825C317.131 466.952 318.008 467.178 318.491 466.685Z" fill="#D2286F"/>
<path d="M362.418 463.843C362.201 464.03 361.866 464.169 361.65 464.356C361.265 464.613 361.118 464.968 361.089 465.372C361.128 465.944 361.05 466.467 360.972 466.989C360.982 467.965 361.614 468.783 362.492 469.009C363.724 469.382 365.125 469.687 366.376 468.68C366.592 468.492 366.76 468.423 367.026 468.117C367.459 467.742 367.558 467.505 367.538 467.219C367.379 466.598 367.103 465.928 367.063 465.357C367.003 464.499 366.46 464.135 365.799 463.721C364.596 462.943 363.383 462.856 362.418 463.843Z" fill="#D2286F"/>
<path d="M262.884 451.21C263.002 451.259 263.002 451.259 262.884 451.21C263.811 451.317 263.889 450.795 263.968 450.272C264.017 450.154 264.135 450.203 264.184 450.085C264.716 449.473 265.554 449.127 265.632 448.604C265.838 447.441 266.784 446.168 266.299 444.995C266.684 444.739 266.831 444.384 266.693 444.048C266.535 443.427 266.327 442.925 266.05 442.255C265.785 442.561 265.568 442.748 265.351 442.936C264.818 441.881 263.802 441.32 262.618 440.828C261.198 440.238 261.08 440.189 259.75 441.719C259.75 441.719 259.632 441.669 259.681 441.551C259.159 441.473 258.754 441.443 258.488 441.749C258.37 441.7 258.37 441.7 258.203 441.769C257.867 441.908 257.651 442.095 257.503 442.45C257.168 442.589 256.715 442.678 256.449 442.984C256.163 443.004 255.946 443.191 255.73 443.379C255.68 443.497 255.68 443.497 255.582 443.734C255.602 444.02 255.504 444.256 255.573 444.424C255.327 445.016 255.318 445.706 255.308 446.396C255.259 446.514 255.21 446.633 254.993 446.82C254.846 447.175 254.816 447.58 254.906 448.033C255.015 448.772 255.271 449.157 255.794 449.235C256.031 449.333 256.198 449.264 256.366 449.195C256.741 449.628 257.067 450.18 257.442 450.614C257.886 451.215 258.359 451.411 259.049 451.42C260.548 451.488 261.691 451.408 262.884 451.21ZM261.273 447.071C261.441 447.001 261.441 447.001 261.441 447.001C261.392 447.12 261.273 447.071 261.273 447.071Z" fill="#D2286F"/>
<path d="M259.762 389.258C260.401 387.72 260.991 386.3 261.582 384.879C262.074 383.696 261.659 382.691 260.357 382.15C260.12 382.051 259.883 381.953 259.647 381.854C258.463 381.363 256.768 381.768 256.207 382.784C255.646 383.8 255.835 385.683 256.585 386.55C256.96 386.984 257.482 387.062 258.123 387.19C259.169 387.346 259.238 387.514 259.032 388.677C258.933 388.914 258.835 389.151 258.855 389.437C258.826 389.841 258.846 390.127 259.299 390.038C259.348 389.919 259.496 389.564 259.762 389.258Z" fill="#D2286F"/>
<path d="M335.854 458.633C335.43 458.318 334.838 458.072 334.267 458.112C333.813 458.201 333.666 458.556 333.281 458.813C332.73 459.139 332.178 459.465 331.577 459.909C331.943 461.032 331.786 462.078 332.201 463.083C332.477 463.753 333.02 464.117 333.563 464.482C333.395 464.551 333.109 464.571 332.942 464.64C331.986 464.937 331.74 465.528 332.53 466.967C333.121 467.213 333.575 467.124 334.008 466.749C334.56 466.423 334.668 465.496 334.273 464.777C334.154 464.727 334.203 464.609 334.085 464.56C334.608 464.638 334.943 464.5 335.376 464.125C335.642 463.819 336.165 463.897 336.381 463.71C337.436 463.176 338.124 461.519 337.493 460.702C337.265 459.913 336.752 459.145 335.854 458.633Z" fill="#D2286F"/>
<path d="M277.354 405.036C277.414 405.894 277.651 405.992 278.064 405.331C278.182 405.38 278.182 405.38 278.35 405.311C278.35 405.311 278.35 405.311 278.399 405.193L278.468 405.36C278.587 405.409 278.705 405.459 278.873 405.389L278.823 405.508C279.75 405.615 280.351 405.171 281.07 404.776C281.07 404.776 281.14 404.944 281.307 404.874C282.165 404.814 282.411 404.223 282.607 403.749C282.932 402.635 283.562 401.786 284.804 401.47C284.971 401.4 285.237 401.095 285.385 400.74C285.503 400.789 285.503 400.789 285.622 400.838C286.075 400.749 286.361 400.729 286.765 400.758C286.765 400.758 286.765 400.758 286.883 400.807L286.834 400.925C287.544 401.221 287.998 401.131 288.194 400.658C288.362 400.589 288.48 400.638 288.53 400.52C288.934 400.549 289.22 400.529 289.387 400.46C290.904 399.147 291.544 397.608 291 395.578C290.792 395.075 290.634 394.454 290.545 394.001C290.228 392.759 289.261 392.08 288.049 391.992C286.668 391.974 285.15 391.62 283.642 392.243L283.691 392.124C282.666 392.253 282.608 393.062 282.529 393.585C282.48 393.703 282.313 393.772 282.313 393.772C282.165 394.127 282.116 394.246 281.968 394.601L281.85 394.551C281.2 395.114 281.456 395.498 281.881 395.813C281.831 395.932 281.95 395.981 281.901 396.099C281.901 396.099 281.901 396.099 281.97 396.267L281.851 396.218C281.547 397.618 281.547 397.618 280.334 397.53C279.644 397.521 279.142 397.729 278.896 398.32C278.777 398.271 278.777 398.271 278.659 398.222C278.304 398.074 278.018 398.094 277.851 398.164C277.781 397.996 277.781 397.996 277.663 397.947C277.288 397.513 277.022 397.819 276.589 398.194C276.392 398.668 276.412 398.954 276.599 399.17C275.969 400.019 275.743 400.897 275.754 401.873C275.45 403.273 275.983 404.327 277.354 405.036Z" fill="#D2286F"/>
<path d="M226.798 414.145C226.916 414.194 226.916 414.194 227.034 414.243C227.586 413.917 227.615 413.513 227.694 412.99L227.812 413.039C228.225 412.379 228.136 411.925 227.663 411.728C227.712 411.61 227.643 411.442 227.692 411.324C227.84 410.969 227.771 410.801 227.751 410.516C227.751 410.516 227.751 410.516 227.632 410.466C227.751 410.516 227.8 410.397 227.918 410.446C228.006 409.234 226.961 409.077 226.467 408.594C225.55 407.797 225.096 407.886 224.16 408.468C223.727 408.843 223.224 409.051 222.791 409.426C222.406 409.683 222.21 410.156 221.895 410.58C221.629 410.886 220.869 410.71 220.693 411.469C221.186 411.951 222.133 412.345 222.144 413.321C222.243 414.75 223.525 415.006 224.521 415.281C225.35 415.625 226.187 415.279 226.798 414.145Z" fill="#D2286F"/>
<path d="M254.664 345.085C255.995 345.222 256.38 344.965 256.941 343.949C257.403 343.17 257.629 342.292 257.451 341.385C257.273 340.478 256.828 339.877 256 339.533C254.58 338.943 252.806 339.871 251.93 341.312C251.881 341.43 251.95 341.597 251.921 342.002C252.148 342.79 252.356 343.293 252.445 343.746C252.623 344.653 252.998 345.087 253.856 345.027C254.26 345.056 254.546 345.036 254.664 345.085Z" fill="#D2286F"/>
<path d="M260.355 369.796C261.135 370.259 261.746 370.791 262.575 371.135C262.811 371.233 263.077 370.927 263.225 370.572C263.343 370.621 263.343 370.621 263.462 370.671C264.152 370.68 264.605 370.591 264.92 370.166C265.284 369.624 265.649 369.081 266.082 368.706C267.097 367.601 267.037 366.743 266.05 365.778C265.557 365.295 265.014 364.931 264.639 364.498C263.346 363.267 263.346 363.267 261.789 364.008C261.405 364.264 260.833 364.304 260.588 364.896L260.538 365.014L260.469 364.847C260.174 365.557 259.642 366.169 259.968 366.72C259.919 366.839 259.988 367.006 259.988 367.006C259.988 367.006 259.988 367.006 260.057 367.174L259.939 367.125C259.959 367.411 259.979 367.697 259.93 367.815C259.88 367.933 259.88 367.933 259.95 368.101C259.95 368.101 259.95 368.101 260.068 368.15L260.019 368.268C259.96 369.077 259.931 369.481 260.355 369.796Z" fill="#D2286F"/>
<path d="M238.182 401.11C238.823 401.238 239.257 400.862 239.384 400.222C239.561 399.462 239.166 398.743 239.274 397.816C239.627 396.297 238.187 395.421 236.916 396.142C236.246 396.419 235.645 396.863 234.995 397.426C234.386 400.226 234.504 400.275 237.019 400.904C237.472 400.815 237.827 400.962 238.182 401.11Z" fill="#D2286F"/>
<path d="M297.481 411.041C299.424 411.709 300.981 410.968 301.649 409.025C302.239 407.605 301.804 406.314 300.483 405.487C300.058 405.172 299.654 405.143 299.013 405.015L298.944 404.848C297.761 404.356 296.666 404.317 295.938 405.403C295.308 406.251 294.865 407.316 294.777 408.529C294.739 409.623 295.134 410.343 296.347 410.43C296.465 410.48 296.416 410.598 296.534 410.647C297.126 410.893 297.363 410.991 297.481 411.041Z" fill="#D2286F"/>
<path d="M324.676 470.504C325.573 471.016 326.362 470.788 326.873 469.891C326.972 469.654 327.119 469.299 327.267 468.944C327.415 468.589 327.444 468.185 327.256 467.968C327.424 467.899 327.542 467.948 327.591 467.829C328.744 467.059 328.999 465.777 329.373 464.545C329.471 464.308 329.116 464.16 328.83 464.18C328.544 464.2 328.377 464.27 327.923 464.359C327.519 464.33 327.233 464.35 327.066 464.419C325.775 464.854 325.627 465.209 325.874 466.283C325.944 466.451 326.013 466.618 326.033 466.904C325.796 466.806 325.727 466.638 325.49 466.54C325.066 466.225 324.563 466.432 323.942 466.591C323.292 467.153 323.451 467.774 323.254 468.248C322.959 468.958 323.166 469.46 323.827 469.874C324.133 470.14 324.321 470.356 324.676 470.504Z" fill="#D2286F"/>
<path d="M263.025 378.401C263.586 377.385 264.551 376.398 263.426 375.097C262.529 374.586 261.819 374.29 261.07 375.09C260.587 375.583 260.341 376.175 260.332 376.865C260.254 377.388 260.461 377.89 260.816 378.038C261.359 378.402 262.02 378.816 262.808 378.588C262.857 378.47 263.025 378.401 263.025 378.401Z" fill="#D2286F"/>
<path d="M287.123 502.089C286.807 500.847 285.949 500.907 285.042 501.085C284.993 501.204 284.993 501.204 284.944 501.322C284.993 501.204 284.924 501.036 284.973 500.918C283.602 500.209 282.646 500.506 281.779 501.256C280.863 502.124 280.49 503.357 280.234 504.639C280.185 504.757 280.324 505.093 280.511 505.309C280.768 505.694 281.192 506.009 281.399 506.511C282.14 508.068 283.619 507.85 284.95 507.987C286.281 508.123 287.029 507.324 287.521 506.141C287.906 505.884 288.004 505.647 287.816 505.43C287.866 505.312 287.866 505.312 287.796 505.145C287.796 505.145 287.796 505.145 287.727 504.977L287.846 505.026C288.092 504.434 288.17 503.912 287.509 503.498L287.627 503.548C287.607 503.262 287.469 502.927 287.4 502.759C287.262 502.424 287.192 502.256 287.123 502.089Z" fill="#D2286F"/>
<path d="M257.24 369.612C257.338 369.375 257.032 369.109 256.727 368.843C256.834 367.916 256.361 367.72 255.818 367.355L255.986 367.286C255.502 366.113 255.383 366.064 254.516 366.814C254.398 366.765 254.398 366.765 254.28 366.716C254.28 366.716 254.161 366.667 254.112 366.785L254.043 366.618C252.732 366.767 252.102 367.615 251.777 368.73C251.581 369.203 251.67 369.657 252.045 370.09C252.913 371.006 253.978 371.449 255.329 371.871L255.28 371.99C256.285 371.575 256.797 370.677 257.24 369.612Z" fill="#D2286F"/>
<path d="M239.766 385.945C239.578 385.729 239.411 385.798 239.194 385.985C239.145 386.104 238.977 386.173 238.928 386.291C238.928 386.291 238.928 386.291 239.046 386.34C239.283 386.439 239.283 386.439 239.45 386.369C239.736 386.349 239.953 386.162 239.766 385.945Z" fill="#D2286F"/>
<path d="M247.786 489.211C247.707 489.734 247.698 490.424 248.29 490.67C248.359 490.837 248.31 490.956 248.428 491.005C248.586 491.626 248.843 492.01 249.316 492.207C249.672 492.354 250.174 492.147 250.48 492.413C251.891 493.693 253.508 493.81 255.252 493.286C255.42 493.216 255.538 493.266 255.657 493.315C256.228 493.275 256.307 492.752 256.434 492.111L256.553 492.16C257.006 492.071 257.174 492.002 257.41 492.101C258.435 491.971 258.534 491.735 257.902 490.917C257.951 490.799 257.882 490.631 257.931 490.513C258.325 489.566 258.62 488.856 258.797 488.096C259.043 487.505 258.954 487.051 258.362 486.805C258.411 486.687 258.46 486.569 258.342 486.519C258.36 485.139 258.36 485.139 259.385 485.01C259.504 485.059 259.455 485.177 259.573 485.227C260.116 485.591 260.323 486.094 260.481 486.715C260.481 486.715 260.363 486.665 260.314 486.784C260.541 487.572 260.66 487.621 261.073 486.96C261.191 487.01 261.359 486.94 261.477 486.99C262.699 486.387 263.774 486.14 265.055 486.395C265.46 486.424 265.676 486.236 265.991 485.812C266.11 485.861 266.11 485.861 266.228 485.91C266.731 485.703 267.066 485.565 267.45 485.308C267.45 485.308 267.45 485.308 267.401 485.426C267.973 485.386 268.308 485.248 268.219 484.794C268.268 484.676 268.386 484.725 268.435 484.607C269.016 483.877 270.012 484.152 270.426 483.491C270.426 483.491 270.544 483.54 270.593 483.422C270.938 482.593 271.351 481.932 272.021 481.656C272.573 481.33 272.77 480.856 272.611 480.235C272.344 478.875 271.909 477.584 271.927 476.204C271.957 475.799 271.7 475.415 271.345 475.268C270.28 474.825 269.766 474.056 269.135 473.239C268.809 472.687 268.266 472.323 267.675 472.077C267.083 471.831 266.491 471.585 265.732 471.408L265.781 471.29C265.544 471.192 265.258 471.212 265.042 471.399L264.923 471.35C264.135 471.577 263.534 472.022 262.775 471.845C262.134 471.717 261.582 472.043 261.287 472.753L261.169 472.704C260.952 472.892 260.784 472.961 260.498 472.981C260.331 473.05 260.163 473.119 260.163 473.119C260.045 473.07 259.996 473.188 259.877 473.139C258.546 473.002 258.035 473.9 257.384 474.463C256.685 475.144 256.341 475.972 256.302 477.067C256.391 477.52 256.481 477.973 256.471 478.664C256.471 478.664 256.353 478.614 256.304 478.733C255.89 479.394 255.644 479.985 255.399 480.577C255.153 481.169 255.222 481.337 256.05 481.681C256.76 481.976 257.254 482.458 257.481 483.247L257.363 483.198C257.018 484.026 256.516 484.234 255.826 484.225C255.707 484.175 255.757 484.057 255.638 484.008C254.455 483.516 253.508 483.123 252.561 482.729C251.733 482.385 250.993 482.494 250.413 483.224C249.132 484.635 247.428 485.731 247.873 487.998C248.228 488.146 247.864 488.689 247.786 489.211ZM253.176 486.593C253.294 486.643 253.462 486.573 253.462 486.573L253.294 486.643C253.294 486.643 253.294 486.643 253.245 486.761L253.176 486.593Z" fill="#D2286F"/>
<path d="M287.182 490.593C286.787 489.874 286.106 489.175 285.228 488.949C284.114 488.624 282.931 488.132 281.738 488.331C280.545 488.529 279.983 487.879 279.056 487.771C279.105 487.653 278.987 487.604 279.036 487.486C278.493 487.121 278.138 486.974 277.596 486.609L277.714 486.659C277.319 485.939 277.25 485.772 276.836 486.433C276.718 486.384 276.551 486.453 276.432 486.404C275.624 486.345 274.983 486.218 274.342 486.09C274.056 486.11 273.701 485.962 273.366 486.101C272.144 486.703 271.228 487.572 270.618 488.706C270.175 489.771 269.802 491.004 270.453 492.108C270.779 492.66 270.582 493.133 270.011 493.173C268.7 493.322 267.27 493.422 265.959 493.571C264.816 493.651 264.55 493.957 264.56 494.933C264.531 495.337 264.857 495.889 264.522 496.027C263.438 496.965 263.775 498.493 263.332 499.558C263.234 499.795 263.254 500.081 263.323 500.248C264.113 501.687 264.903 503.126 266.225 503.953C267.31 504.681 268.661 505.104 270.032 505.812C270.032 505.812 270.032 505.812 269.914 505.763C270.259 506.601 270.378 506.65 270.673 505.94C270.791 505.989 270.84 505.871 270.959 505.92C270.959 505.92 270.959 505.92 271.126 505.851L271.077 505.969C271.718 506.097 272.241 506.175 272.486 505.583C272.949 504.804 273.57 504.646 274.428 504.586C277.188 504.622 278.054 502.206 277.411 500.412C277.045 499.289 276.965 498.145 276.718 497.071C276.56 496.45 276.806 495.858 276.194 495.326C276.006 495.109 276.223 494.922 276.44 494.734C276.656 494.547 276.992 494.409 277.208 494.221C277.425 494.033 277.829 494.063 277.898 494.23C278.333 495.521 280.118 495.569 280.553 496.86C280.691 497.195 281.214 497.273 281.569 497.421C281.569 497.421 281.519 497.539 281.638 497.589C281.756 497.638 281.875 497.687 281.875 497.687L281.944 497.854C282.674 498.435 283.206 497.824 283.777 497.784C284.635 497.724 285.562 497.831 286.399 497.485C287.237 497.14 287.137 495.71 288.024 495.246C288.192 495.177 288.241 495.058 288.339 494.822C288.487 494.467 288.683 493.993 288.545 493.658C288.15 492.939 287.834 491.697 287.182 490.593ZM273.987 496.63C273.868 496.581 273.819 496.699 273.819 496.699L273.987 496.63ZM276.83 490.455C276.899 490.623 276.85 490.741 276.919 490.909C276.801 490.859 276.85 490.741 276.781 490.574C276.781 490.574 276.712 490.406 276.83 490.455ZM273.852 488.94C273.802 489.058 273.802 489.058 273.852 488.94C273.901 488.821 273.901 488.821 273.901 488.821C273.852 488.94 273.852 488.94 273.852 488.94Z" fill="#D2286F"/>
</svg>
