<svg width="576" height="519" viewBox="0 0 576 519" fill="none" xmlns="http://www.w3.org/2000/svg"><path opacity=".05" fill-rule="evenodd" clip-rule="evenodd" d="M117.998 519h190.343c186.61 0 267.657-120.109 267.657-259.5C575.998 143.099 522.465 0 308.341 0H117.998v519zm145.73-127.586V127.58a3.023 3.023 0 01.89-2.136 3.045 3.045 0 012.141-.887h13.293c144.214 0 145.73 106.028 145.73 134.943 0 26.692-1.489 134.937-145.73 134.937h-13.293a3.041 3.041 0 01-2.141-.888 3.02 3.02 0 01-.89-2.135z" fill="#000"/><path d="M168.464 360.407a13.57 13.57 0 01-1.538-.385c-1.409-.384-2.819.128-3.46 1.41-.513 1.282-1.154 2.307-2.563 2.948-.641.256-1.026.897-1.026 1.538 0 1.281-.384 2.563-1.153 3.588-.129.256 0 .769.384.641.897-.128 1.538.256 2.307.512 1.154.257 2.179.257 3.333-.512 1.153-.641 1.666-1.282 1.538-2.563-.129-1.026 0-1.154.897-1.154.769 0 .384-.384.384-.641 0-.128 0-.384.128-.384 1.41-.897 1.154-2.179.641-3.332.128-.641.128-1.154.128-1.666zm4.102-5.896c-1.025.513-2.179 1.026-3.204 1.538-.898.385-.769 1.154-1.026 1.794-.256.513-.256 1.026.257 1.538.384.257.384.641.128 1.026h.128c.769.512 1.282.897 2.051.897.641 0 1.025.256 1.41.769.512.641.769.512 1.025-.385.128-.384.256-.769.769-.769.641-.128.769-.641.897-1.281 0-.897-.384-1.538-.769-2.179-.641-1.025-.641-2.307-1.666-2.948zm38.579 46.394c-.128-.641-.385-1.153-.897-1.666-.513-.384-1.154-.512-1.667-1.281-.384-.129-.64 0-.769.128-.256 1.025-.897 1.153-1.794 1.025-.641-.128-1.282 0-1.923.256-.256.129-.384.385-.256.641.256.769.513 1.538.897 2.179.257.513.769.769 1.41.769 1.154-.128 2.435-.256 3.589-.385 1.025 0 1.538-.64 1.41-1.666zm-86.514-139.951c1.281-.256 1.794-1.281 2.691-1.794.385-.256.128-1.153-.256-1.282-1.025-.256-2.051-.512-2.948-.64-.897-.129-1.922 1.025-1.666 1.666.256.897.641 1.922 2.179 2.05zm-19.61-25.119c.384.256.641.384 1.025.641 1.538 1.281 2.179 1.153 3.076-.641.128-.128.128-.257.128-.641 0-.513 0-.897-.384-.897-1.025 0-1.794 0-2.692-.513-.64-.384-1.281 0-1.538.641-.384.513-.256 1.025.385 1.41zm29.351 9.355c.769-.384 1.025-1.281.769-2.05a1.894 1.894 0 00-1.154-1.282c-1.153-.256-1.922.128-2.307.897-.384.769 0 1.41.385 1.923.64.897 1.538 1.025 2.307.512zm51.78 107.271c-.897-.513-2.051 0-2.179 1.025-.128.897.384 1.538 1.282 2.051 1.153.256 1.794-.129 1.922-1.026.256-.769-.256-1.666-1.025-2.05zm.384-3.973c-1.025-.128-1.538.512-1.153 1.409.256 1.026 1.025 1.795 1.666 1.667.256 0 .641-.257.769-.385.513-.384.513-1.025.384-1.666-.512-.769-1.025-.897-1.666-1.025zm24.865 76.255c-.384 0-.769.256-1.025.769-.128.385-.128.513-.128.641-.129.641 0 1.153.512 1.41.641.384 1.282 0 1.795-.385.512-.384.769-1.281.512-1.922-.128-.385-.769-.641-1.666-.513zm-29.479-3.204c-.641-.256-1.281-.256-1.794 0-.385.128-.641.385-.513 1.025.385.513.769.898 1.154 1.154.641.512 1.41.256 1.794-.385.256-.64 0-1.409-.641-1.794zm16.79 6.793c0 .64.129 1.153.257 1.794 2.179-1.282 2.179-1.282 1.666-3.204-1.794 0-2.051.256-1.923 1.41zm-44.346-38.961c-.385-.128-.769-.128-1.154.128-.384.513-.512 1.282-.256 1.794.385.641 1.025.385 1.666.128.513-1.153.385-1.794-.256-2.05zm-54.087-78.691c-.129-.897-.77-1.153-1.41-.897-.77.128-.897.897-.385 1.538.385.513.897.385 1.795-.641zm35.759-20.377h.256c0 .897.256 1.666.897 2.435 2.051 2.307 2.564 2.435 5.383 1.025.898-.384 1.667-1.025 1.538-2.307h.129c.128-.64.512-1.025.897-1.281.256-.128.641-.385.512-.769-.384-1.282.385-1.282 1.282-1.282.513 0 .769-.384.769-.897h.256c1.154 0 1.923-.513 2.179-1.41h.385c.384-.128.641-.256.769-.384.513-1.666.769-3.332 0-5.127-.513-1.025-.897-2.178-2.051-2.563-.769-.256-1.538-.769-2.435-.769.256-.128.384-.256.641-.512.512-.513.384-1.026.128-1.538-.256-.385-.385-.897-.641-1.282-.384-.769-1.282-1.025-2.051-.513-.64.385-.897 1.026-1.281 1.795.769.384 1.666.769 2.05 1.666.129.128.385.256.513.256-.384.128-.769.256-1.153.641-.257.256-.769.128-1.154.256-.384.128-.769.257-1.025.769v-.128c-.769.384-.769.897-.513 1.282 0 .128-.128.256-.128.256a6.258 6.258 0 00-.513 1.41h-.128c-.256.384-.256.64.128.769v.256c0 .256 0 .256.128.513v.128l-.128-.128c0 .384.128.512.385.64 0 .129.128.129.256.257 0 .128 0 .256.128.384l-.128.128c0 .641-.128 1.154-.513 1.666-.128 0-.128-.128-.256-.128-3.076-.128-4.101.641-4.486 2.179-.513 0-.769.256-1.025.769-.769.641-.513 1.41 0 1.538zm-14.868 123.29c-.641-.256-1.282-.384-1.922.256-.257.769.128 1.154.64 1.41.513.257 1.026.128 1.538-.256.385-.385.257-1.154-.256-1.41zm27.685 12.944c-.513 0-.641.385-.641 1.026.128.64.256.897.641 1.153.384.128.769-.128 1.025-.384.256-.257.385-.513.513-.769.128-.128 0-.513-.129-.641-.256-.513-.897-.513-1.409-.385zm11.15-83.56c.385-.385.385-1.025.129-1.538-.257-.513-.769-.641-1.154-.385-.256.129-.513.257-.897.641 0 .897.384 1.282 1.025 1.538.256 0 .641-.128.897-.256zm-38.963-13.073c.513-.128.769-.384 1.025-.768.129-.385.129-.769-.256-1.026a.987.987 0 00-1.282-.128c-.384.256-.512.513-.512 1.025.128.385.512.769 1.025.897zm-11.023-75.101c-.128 0-.128.128-.128.128v-.128c-.384 0-.641.128-.641.384 0 .384.257.384.641.384 0 .129 0 .129.128.257 0 .384 0 .512.129.897h-.257c-.384.641-.384 1.153-.384 1.794 0 .897.512 1.41 1.666 1.538v.128c1.025.513 1.923.385 2.948.385v.512c-.128 0-.256 0-.385.129-.512 0-.769-.129-1.025.128-.256.256-.384.769-.256 1.153.256 1.154 1.794 2.307 3.076 2.307.512 0 1.025-.641.769-1.153-.385-.641-1.026-1.282-1.026-2.307h.257c.256-.257.384-.385.384-.513.128-.384.128-.769-.256-1.153 1.153-1.282 1.153-2.82.897-4.358-.128-1.281-2.948-2.819-4.229-2.435-.257.128-.641.256-.77.513-.128.128-.256.256-.512.384v-.128c0-.641-.385-.897-1.154-1.025-.256 0-.384.128-.769.384-.128.385-.256.641-.256.769.384.769.769 1.154 1.153 1.026zm62.931 151.613c-.512.128-.769.513-.897 1.025 0 .385.128.769.513 1.026.384.256.769 0 1.153-.257.385-.256.641-.512.513-1.153-.384-.641-.769-.897-1.282-.641zm-58.188-2.947c-.641-.129-1.282 0-1.538.897.256.64.641.897 1.153 1.025.513.128 1.026-.128 1.154-.641.128-.513-.257-1.153-.769-1.281zM88.359 218.405c.513.384 1.025.128 1.538-.641.128-.128 0-.256 0-.641-.256-.384-.385-.64-.77-.64-.512 0-.896.256-1.153.769-.256.256-.128.768.385 1.153zm58.189 51.905c.512.128.897-.256 1.025-.641v-.641c-.256-.512-.641-.769-1.025-.64-.385.128-.513.256-.641.64-.128.641.128 1.282.641 1.282zm36.784 72.923c-.384-.128-.769 0-1.153.256-.385.129-.513.513-.513 1.154.256.513.513.769 1.025.641.513-.128 1.026-.385 1.154-1.026.128-.384-.257-.897-.513-1.025zm-92.666-31.271c.256.385.513.769.897 1.025.513.257 1.025.128 1.154-.256.256-.384.128-.769-.257-1.025-.512-.385-1.025-.641-1.666-1.026 0 .385-.128.769-.128 1.282zm75.235 87.405c-.769 0-1.41.129-1.922.769-.129.257 0 .513.128.641.256.128.384.128.897.256.641 0 .897 0 1.282-.384.256-.384.128-1.153-.385-1.282zm-63.443-169.043c.512-.256.769-.513.769-1.025 0-.385-.257-.769-.513-1.026-.385-.256-.769-.128-1.026.257-.384.64-.256 1.025.513 1.794h.257zm32.683 175.964c-.129 0-.129 0-.385.128-.384.385-.384.641-.256.897.128.257.384.513.641.513.384.128 1.025-.256 1.025-.641.384-.512 0-.897-1.025-.897zm-12.433-121.111c.769 0 1.154-.385.897-1.282-1.281-.128-1.538.128-1.538.769.129.256.385.641.641.513zm34.349 136.49a.987.987 0 00-.128 1.282c.257.384.769.384 1.282 0 .128-.128.256-.385.256-.769a1.774 1.774 0 00-.384-.513c-.257-.256-.641-.256-1.026 0zm6.409-14.097c-.513.64-.385 1.025.897 1.153.513-.769.128-1.282 0-2.05-.256.384-.641.64-.897.897zm26.275-53.315c-.513.256-.513.769-.257 1.153.257.385.641.513 1.154.257.384-.513.384-.897.128-1.154-.256-.256-.513-.384-1.025-.256zm-87.924-116.241c.256-.129.512-.385.512-.641 0-.385-.256-.513-.769-.769-.256 0-.512.128-.641.128-.384.256-.512.641-.256 1.025.256.385.769.385 1.154.257zm-.385 67.668c.385 0 .641-.128.769-.384.128-.257 0-.641-.128-.897-.128-.129-.385-.257-.769-.257-.513.257-.641.641-.513 1.026 0 .256.257.512.641.512zm-.897 28.836a1.75 1.75 0 00-.385-.512c-.512-.257-1.025-.129-1.153.256-.128.384 0 .769.385 1.025.512.513.768.257 1.153-.769zm80.362 38.192c.128-.128.256-.384.256-.769-.256-.513-.641-.641-1.025-.384-.385.256-.513.64-.256 1.025.384.256.64.384 1.025.128zM83.489 246.985c.128-.128.128-.385.128-.641-.129-.385-.385-.641-.898-.513a1.002 1.002 0 00-.512.513c.128.384.128.641.384.769.257.384.641.256.898-.128zm78.567 165.455c-.384 0-.641.256-.641.512 0 .129.128.385.257.641.256.256.512.256.897 0 .256-.128.384-.384.256-.897-.384-.256-.513-.256-.769-.256zm-59.855-180.322c-.256-.128-.513 0-.513.256-.128.513.129.769.513.898 0 0 .128 0 .385-.129.128-.512.128-.769-.385-1.025zm84.079 40.114c-1.025-.128-1.154-.256-.897-1.153.128-.769-.257-.513-.513-.513-.128 0-.384-.128-.384-.256-.513-1.538-1.795-1.538-3.076-1.41-.513 0-1.154 0-1.667-.128-.256.641-.512 1.025-.769 1.41-.769 1.281-.641 2.691.641 3.716 1.154.898 2.051 1.666 2.307 3.204a1.646 1.646 0 001.282 1.282 7.412 7.412 0 013.204 1.922c.256.257.769.257.769-.256.128-.897.641-1.41 1.025-2.179.513-1.153.77-2.05.257-3.46-.385-1.41-.897-2.051-2.179-2.179zm-6.665-3.844v-.129c.641-.64 1.154-1.153 1.282-1.794.128-.641.513-.897 1.025-1.153.769-.385.769-.513-.128-1.154-.384-.256-.641-.384-.641-.897 0-.641-.384-.897-1.025-1.153-.897-.257-1.666 0-2.307.256-1.026.384-2.307.128-3.076 1.025l.769 3.461c.128.897 1.025 1.025 1.538 1.409.512.385 1.025.513 1.538.129.384-.385.769-.385 1.025 0zm49.473-31.656c-.64 0-1.281 0-1.794.513-.513.384-.769 1.025-1.538 1.281-.256.385-.128.641 0 .769.897.513 1.025 1.154.513 2.051-.257.64-.385 1.281-.129 1.922 0 .256.257.385.513.385.769-.129 1.538-.129 2.307-.385.513-.128 1.026-.513 1.026-1.153.128-1.154.384-2.435.512-3.589.128-1.025-.384-1.666-1.41-1.794zM70.03 289.278c1.026-.129 2.052-.257 2.564-1.666 0-1.282-.769-2.051-1.153-3.076-.129-.385-1.026-.385-1.282 0-.513.897-1.025 1.794-1.41 2.691-.256.897.513 2.179 1.282 2.051zm19.354-18.455c.257.64.77 1.153 1.41 1.666.641-.641 1.026-1.41 2.179-1.666.769-.641.513-1.154.256-1.795-.384-.512-.897-.64-1.41-.512-.512.128-.897.128-1.41.256-1.025.513-1.41 1.282-1.025 2.051zm-44.859 26.016c-.128-.128-.256-.128-.64-.256-.513-.128-.898-.257-1.026.128-.256.897-.513 1.794-1.154 2.563-.512.513-.256 1.154.257 1.666.128.128.256.128.384.257-.128.128-.128.256-.256.384-.256.513-.385 1.025-.64 1.666.512.256 1.153.256 1.793.385.385 0 .77-.129 1.154-.385.64-.384.897-.769.64-1.41-.255-.769-.768-1.153-1.409-1.153l.64-.641c1.667-1.41 1.667-1.922.257-3.204zm14.099-20.377c.897-.385 1.281-1.154 1.025-2.179-.256-.769-.897-1.282-1.794-1.282-.641 0-1.026.257-1.538.897-.513 1.026-.385 1.923.384 2.564.513.64 1.282.384 1.923 0zm132.014 26.272c.897 0 1.41-.128 1.794-.897.128-.384.128-.769.256-1.409-.128-1.154-1.025-1.41-1.794-1.538-.256 0-.641.128-.897.384-.641.641-.897 1.282-.641 2.179.128.769.641 1.281 1.282 1.281zm-42.424 8.587c.384-.512.641-1.025.897-1.666a1.779 1.779 0 000-1.153c-.256-.769-.513-1.026-1.154-1.026-.897 0-1.409.385-1.538 1.154-.128.641 0 1.153.513 1.538.256.512.641.769 1.282 1.153zM73.62 303.76c.256-.128.512-.128.897-.257.384-.128.64-.128.897-.256 1.153-.513 1.282-.897.897-2.05-.128-.385-.256-.769-.513-1.154-.256-.513-.897-.513-1.41-.128-1.025.897-1.025 2.307-1.281 3.46 0 .385.256.513.513.385zm103.047-51.905c.897.384 1.538 0 2.179-.769.513-1.025.257-1.666-.513-2.179-.64-.384-1.666 0-2.178.513-.769.897-.513 2.05.512 2.435zm-3.204-2.051c1.154 0 1.923-.512 2.051-1.281 0-.257 0-.641-.257-.897-.256-.513-.769-.641-1.538-.769-.897.256-1.153.769-1.409 1.409-.257.897.128 1.538 1.153 1.538zm19.994 54.212c-.256-.128-.64-.128-.897.128-.897.641-1.281 1.538-1.538 2.563-.128.513.385.898.897.769.385-.128.641-.384 1.154-.64.641-.641.897-1.154.897-1.795.128-.512-.128-.897-.513-1.025zm61.65-62.286c-.257-.641-1.026-1.025-1.795-1.025-.512 0-.897.513-1.025 1.41 0 .384.128.769.513 1.153.256.128.384.256.64.256.513.257 1.154.257 1.538-.128.513-.512.385-1.153.129-1.666zM38.63 309.399c.64-.385.768-1.154.256-2.307-.513-.256-.897-.385-1.282-.128-.769.384-1.154 1.41-.769 2.05.256.385 1.154.641 1.794.385zm203.66-39.474c-.385.513-.513 1.154-.385 1.795.128.384.257.769.897.769.641-.257 1.026-.513 1.41-.769.641-.513.641-1.282 0-1.795-.641-.512-1.538-.512-1.922 0zm-172.9 34.219c.897-.512 1.025-1.025.128-2.307-.64-.128-1.153 0-1.41.385-.512.512-.512 1.41 0 1.922.385.385.77.257 1.282 0zm182.512-51.008c-.384 1.667-.256 1.923 1.026 2.179.641.128 1.153.128 1.794.128-.769-2.307-.769-2.307-2.82-2.307zm-46.012 37.808c.641-.257.512-.897.512-1.538-.897-.641-1.538-.769-2.05-.128-.257.256-.385.769-.128 1.153.384.385 1.153.641 1.666.513zm-92.025 33.321c0 .769.64 1.154 1.409.769.769-.384.769-.897-.128-1.922-1.025-.128-1.281.384-1.281 1.153zm-9.998-40.755c.385-.512.257-1.153-.128-1.537-.384-.385-.897-.385-1.538-.129-.641.769-.384 1.282.128 1.795.513.384 1.282.384 1.538-.129zm116.25 43.703c-.385.513-.641 1.154-.257 1.923.769.512 1.154.256 1.538-.257.385-.512.385-1.025.128-1.538-.384-.641-1.025-.641-1.409-.128zm20.507-25.119c-.129-.128-.513-.128-.641-.128-.513.256-.641.768-.769 1.409 0 .513.256.641.897.897.641 0 1.025 0 1.153-.384.257-.385.129-.769-.128-1.154-.128-.256-.256-.512-.512-.64zm-81.644-27.811c.897.256 1.41 0 1.666-.641a1.096 1.096 0 000-.897c-.256-.385-.897-.641-1.41-.513-.512.128-.769.513-.641 1.026 0 .384.129.64.385 1.025zm-20.123 33.065c0-.512-.128-.897-.512-1.153-.385-.257-.769-.257-1.154-.128-.512.256-.641.769-.512 1.281.128.385.384.641.769.769.64.128 1.025-.128 1.409-.769zm-76.645-6.28c.77 0 1.154-.384 1.026-1.025 0-.513-.257-.897-.897-1.025-.513-.128-1.026.128-1.154.897 0 .256.128.513.257.769.256.256.512.384.768.384zm164.057-27.041c-.641.256-1.026.512-1.026 1.153 0 .513.257.897.769 1.153.385.129.769 0 1.154-.256.256-.384.256-.769 0-1.153-.128-.385-.256-.769-.897-.897zm-17.047 58.697c.641-.128 1.026-.384 1.282-.897.256-.385.128-1.025-.256-1.282-.385-.256-1.154-.128-1.41.385-.257.641-.385 1.281.384 1.794zM22.608 312.731c.513-.513.385-1.025-.256-1.666-.128-.128-.256-.128-.64-.128-.514.128-.77.256-.898.641-.128.512.128.897.384 1.281.513.385 1.026.256 1.41-.128zm62.932-43.959c.64.256 1.28.256 1.41-.256.255-.513 0-.897-.385-1.154-.129-.128-.257-.128-.641-.128-.513.128-.898.385-.898.897 0 .257.129.513.513.641zm81.771-16.789c.513-.128.897-.384.897-.769 0-.513-.128-1.025-.769-1.41-.256-.128-.897 0-1.025.257-.128.384-.128.769-.128 1.153.256.513.512.769 1.025.769zm49.601 28.323c-.256.641-.256 1.41.257 2.051.128.128.512.128.641 0 .128-.128.256-.385.384-.769.128-.513.128-.897-.128-1.282-.256-.512-1.026-.384-1.154 0zm.641 30.503c-.513-.257-1.025 0-1.282.897 0 .128 0 .128.129.384.256.385.512.641.897.513.256-.128.513-.256.769-.513.128-.384-.128-1.025-.513-1.281zM70.8 296.967v-.256a1.774 1.774 0 00-.385-.513c-.384-.256-.897-.384-1.281 0-.385.513-.385 1.026.128 1.41.256.256.64.385.897.385v.384c-.128.513-.256.769-.128 1.153.256.385.64.513 1.025.513 1.154 0 2.692-1.281 2.948-2.435.128-.513-.385-1.153-1.025-1.025-.513.128-1.154.512-2.18.384zm24.224-1.281c.384 0 .64-.128.769-.385.128-.641-.128-1.153-1.026-1.281-.512 1.153-.384 1.537.257 1.666zm142.267-2.82c-.256.128-.512.128-.641.256-.384.257-.512.641-.256 1.026.256.384.769.641 1.282.384.384-.128.512-.641.256-1.281 0-.129-.256-.257-.641-.385zm-13.586-9.356c.257.385.385.769.641 1.154.513.769.897.513 1.282-.641-.513-.769-1.282-.384-1.923-.513zm-43.833-36.525c.384-.128.64-.513.512-1.026-.384-.512-.769-.512-1.153-.384-.385.128-.641.513-.513.897.128.513.641.641 1.154.513zM44.397 303.632c-.384-.129-.64.128-.897.512v.641c.128.385.513.641.897.513.385-.128.513-.513.513-.897 0-.385-.257-.641-.513-.769zm66.007 16.276a.62.62 0 00-.897 0c-.128.128-.257.384-.513.641.128.641.385.769.897.769.385 0 .641-.257.769-.513 0-.384 0-.641-.256-.897zm28.453 9.868c.513-.384.385-.769-.512-1.409-.257.128-.513.128-.513.256-.384.513-.384 1.025 0 1.153.385.385.769.257 1.025 0zm54.985-70.872c-.513.128-.769.384-.641.897.128.384.385.641.897.512.513-.128.641-.512.385-.897-.128-.256-.257-.256-.641-.512zM49.267 325.291c.385-.257.385-.641.129-1.026a.98.98 0 00-.641-.256c-.385 0-.77.256-.641.769 0 .256.128.385.384.641.385 0 .641 0 .77-.128zm179.821-38.833c-.256.256-.384.385-.512.641-.128.384.128.641.384.769.128.128.513 0 .641-.128.256-.128.385-.513.256-.769-.128-.257-.256-.513-.769-.513zm-38.194 9.099c.128-.64 0-.897-.384-1.025-.385-.128-.641.128-.769.385-.129.384-.129.769.128 1.025.384.384.641.128 1.025-.385zm-151.496 7.049c-.128.257-.128.513.129.641.384.256.769.128 1.025-.256v-.385c-.64-.384-.897-.384-1.154 0zm62.034-28.195c-.256-.256-.513-.256-.769 0s0 .513.385.769c.64-.128.769-.384.384-.769zm-10.125 47.163a13.317 13.317 0 01-1.538-.384c-1.41-.385-2.82.256-3.333 1.537a5.969 5.969 0 01-.64 1.282h-.257c.257-.513.385-1.153.513-1.922 0-.641.256-1.282.256-1.923.128-.512-.128-.897-.512-1.153a16.72 16.72 0 00-1.282-.385v-.128c.513-.256.769-.897.513-1.41-.129-.256-.257-.384-.641-.512.128 0 .256 0 .384-.128 1.41-.129 2.307-.897 3.076-1.795.385-.384.385-.769-.256-1.409-.128-.129-.385-.257-.77-.385h.257l.128-.128c.385-.769.641-1.538 0-2.179-.128-.128-.384-.384-.384-.641 0-1.537-.897-1.922-2.179-1.922-.385 0-.897-.128-1.41-.128v-.128c0-.128-.128-.257-.256-.257v-.128c-1.41-.384-2.692-.256-3.973-.256-.641 0-1.154.256-1.282.897-.513 1.282-1.282 2.179-2.307 3.076-.257.256-.257.513-.385 1.025 0 0-.128 0-.128-.128-.513 1.282 0 2.051.77 2.82l2.306 2.691c.385.384.385.897.385 1.282 0 .897-.641 1.409-1.41.897-.77-.513-1.538-.641-2.564-.641v-.256c-2.178-.898-2.82 1.281-4.1 1.922-.77.384-.514 1.025-.257 1.666.128.513-.128.641-.385 1.025-.384.641-.256 1.154.257 1.41.897.641 1.922 1.154 2.82 1.794 1.025.641 2.178.641 3.204-.128 0 .128.128.128.128.256.897 0 1.794.257 2.05-.512.513-1.025 1.282-.897 2.18-1.025 0 0 0 .128.127.128.513.128.77.256 1.026.256.64 0 1.153 0 1.538-.128 0 .256.128.384.256.641-.256.256-.384.64-.384 1.025 0 1.282-.385 2.563-1.026 3.717-.128.256 0 .769.385.64.897-.128 1.538.257 2.307.385 1.153.256 2.179.128 3.332-.641 1.154-.769 1.666-1.41 1.41-2.691-.128-1.026-.128-1.154.897-1.282.77 0 .385-.384.385-.641 0-.128 0-.384.128-.384 1.282-.897 1.025-2.179.513-3.332.256-.257.128-.769.128-1.282zm6.536-1.153c0-.898-.384-1.538-.897-2.179-.64-.897-.769-2.179-1.794-2.691-1.026.512-2.05 1.153-3.204 1.666-.77.384-.641 1.153-.897 1.794-.257.641-.129 1.153.384 1.538.385.256.513.641.128 1.025h.128c.77.513 1.41.769 2.18.769.64 0 1.025.256 1.41.769.64.641.768.513 1.024-.385.129-.384.257-.768.641-.768.77-.385.897-.898.897-1.538zm36.4 41.78c1.026-.128 1.538-.897 1.282-1.923-.128-.64-.384-1.153-1.025-1.537-.513-.385-1.282-.385-1.666-1.154-.385-.128-.641 0-.641.256-.257 1.026-.897 1.282-1.795 1.026-.641-.128-1.281 0-1.922.384-.257.128-.385.385-.257.641a11.38 11.38 0 001.026 2.179c.256.512.769.769 1.41.769 1.153-.257 2.435-.385 3.588-.641zM43.628 223.916c1.282-.385 1.794-1.282 2.563-1.923.385-.256.128-1.153-.256-1.153-1.025-.256-2.05-.513-3.076-.641-.897-.128-1.923 1.025-1.538 1.666.385 1.026.897 1.923 2.307 2.051zm21.66 14.866c.77.513 1.282.257 1.795-.256.513-.512.384-1.025 0-1.538-.256-.384-.385-.897-.641-1.281-.513-.769-1.282-.898-2.05-.385-.641.385-.898 1.025-1.282 1.794.769.385 1.666.769 2.178 1.666zm-42.167-39.217c.385.257.769.385 1.025.513 1.666 1.153 2.18 1.025 3.076-.769.128-.128.128-.256.128-.641 0-.512 0-.897-.384-.897-1.025.128-1.794 0-2.692-.384-.64-.385-1.281 0-1.538.769-.384.512-.256 1.025.385 1.409zm29.735 8.203c.641-.385 1.026-1.282.641-2.051-.128-.513-.513-.897-1.282-1.282-1.153-.256-1.922.129-2.307 1.026-.384.769 0 1.41.513 1.922.769.769 1.538.897 2.435.385zM6.587 288.381c-.64 0-1.282.128-1.794.768-.257 1.154.128 1.795.897 2.307.64.385 1.41.385 2.05.257.898-.257 1.154-.641 1.026-1.538-.256-1.538-.64-1.794-2.179-1.794zm56.266 54.596c.385 0 .77 0 1.41-.128 1.154-.513 1.025-1.282.897-2.051 0-.256-.256-.641-.512-.769-.77-.384-1.538-.513-2.307 0-.641.385-1.026.897-.898 1.538.257.897.513 1.282 1.41 1.41zM32.221 229.042c-1.154-.769-2.435-.384-3.717-.256-.256 0-.256.384-.128.641.128.256.256.384.513.769.256.384.256.641.384.769.897 1.025 1.282 1.025 2.179.384.384-.256.64-.512.897-.769.641-.641.385-1.153-.128-1.538zm77.67 85.868c.128-.769-.384-1.538-1.153-1.923-.897-.512-2.051.128-2.179 1.154-.128 1.025.384 1.538 1.41 1.922 1.025.256 1.666-.128 1.922-1.153zm-1.025-5.896c-1.025-.128-1.41.513-1.154 1.538.385 1.026 1.026 1.666 1.795 1.538.256 0 .641-.256.769-.384.384-.385.384-1.026.256-1.666-.384-.897-1.025-1.026-1.666-1.026zM60.29 345.412c.384-.128.769-.385.769-.769 0-.385-.128-.641-.385-.897-.897-.769-1.794-.897-2.947-.769-.513 0-.77.641-.513 1.153.256.385.513.513 1.025.897.897.385 1.41.513 2.05.385zM13.508 195.208c-.512.513-.512 1.41 0 1.922.513.513 1.282.513 2.307-.384.129-.641.129-1.025-.128-1.282-.64-.641-1.666-.769-2.179-.256zM107.2 382.194c-.641-.256-1.282-.128-1.795.128-.384.128-.64.385-.512 1.025.384.513.769.897 1.153 1.154.641.512 1.41.256 1.795-.513.256-.641 0-1.538-.641-1.794zM28.376 223.403c-.641-.384-1.41-.128-1.795.513-.256.513 0 .897.257 1.281.769.769 1.282.641 2.307-.512 0-.641-.256-1.025-.77-1.282zm95.87 164.943c.128.64.257 1.153.385 1.794 2.05-1.41 2.05-1.41 1.538-3.332-1.923 0-2.051.256-1.923 1.538zm-45.5-35.373c.385-1.153.257-1.666-.384-2.05-.385-.128-.77-.128-1.026.256-.384.513-.512 1.282-.128 1.794.385.641.897.385 1.538 0zm-58.957-79.459c-.77.256-.898.897-.385 1.538s1.025.512 1.794-.641c-.128-.897-.769-1.025-1.41-.897zm37.809-21.275c.257-.512.129-.897-.256-1.409-.897-.385-1.41 0-1.666.64-.257.513 0 1.282.512 1.41.513.128 1.154-.128 1.41-.641zM46.063 376.555c-.64-.128-1.282-.256-1.922.384-.257.897.128 1.154.769 1.41.512.128 1.153.128 1.538-.384.384-.513.256-1.154-.385-1.41zm35.247-71.898c.256 0 .64 0 .897-.256.384-.385.384-1.026.128-1.538-.256-.513-.769-.513-1.282-.385-.256.128-.512.385-.897.641 0 1.025.385 1.41 1.154 1.538zm-39.476-12.688c.128.513.384.769 1.025 1.025.513-.128.769-.384 1.025-.769.129-.384.129-.769-.256-1.025a.987.987 0 00-1.282-.128c-.384.128-.64.384-.512.897zm-12.689-73.692c.513-.128.769-.513.769-1.025 0-.641-.385-.898-1.154-.898-.256 0-.384.129-.769.385-.128.384-.256.641-.128.897.257.641.77.897 1.282.641zM97.33 369.378c.385.256.77 0 1.154-.256.385-.257.641-.513.513-1.154-.385-.513-.77-.769-1.282-.641s-.769.513-.897 1.026c-.128.384.128.769.513 1.025zm-58.06-2.692c-.64 0-1.281 0-1.538.898.257.64.641.897 1.154.897.512.128 1.025-.257 1.153-.641.257-.385-.128-1.025-.769-1.154zM5.818 182.648c.513.385 1.026.128 1.41-.641.128-.128 0-.256 0-.64-.128-.385-.384-.641-.769-.641-.513 0-.897.384-1.154.769-.256.384 0 1.025.513 1.153zm.256 100.35c.513-.257.641-1.025.513-1.538-.128-.256-.384-.513-.769-.513-.64 0-1.025.385-1.025 1.026 0 .128 0 .128.128.384.256.641.513.897 1.153.641zm59.984-50.624c.512.129.897-.256 1.025-.769v-.64c-.385-.513-.641-.769-1.025-.641-.385.128-.513.384-.641.641-.257.769.128 1.409.64 1.409zm39.988 72.411c.128-.256-.256-.897-.641-.897-.384-.128-.769.128-1.153.256-.385.257-.513.513-.513 1.154.257.512.641.769 1.026.64.769-.256 1.153-.512 1.281-1.153zm-92.538-28.964c-.512-.385-1.025-.641-1.666-1.025 0 .512-.128.897-.128 1.409.256.385.513.769.897.897.513.257 1.025.129 1.154-.256.256-.513 0-.769-.257-1.025zm76.902 84.842c-.77 0-1.41.128-1.923.769-.128.256 0 .513.256.641.257.128.513.128.898.256.64 0 .897-.128 1.153-.384.257-.513 0-1.282-.384-1.282zm-70.493-166.48h.384c.513-.257.77-.641.641-1.026a.964.964 0 00-.64-.897c-.385-.256-.77-.128-1.026.257-.256.512-.128 1.025.64 1.666zm39.988 174.426c-.128 0-.128 0-.384.128-.385.385-.385.641-.256 1.025.128.257.512.513.769.513.384.128 1.025-.256 1.025-.769.128-.513-.256-.769-1.154-.897zM34.272 224.685h.256c.256-.256.385-.385.385-.513.128-.512.128-.897-.385-1.153-.513-.257-1.154-.128-1.41.512-.128.257-.128.641-.128 1.026-.128 0-.256.128-.385.128-.512 0-.769 0-1.025.256-.128.256-.256.641-.128 1.025.256 1.154 1.922 2.179 3.076 2.179.513 0 1.025-.769.769-1.281-.384-.641-1.025-1.154-1.025-2.179zm8.458 23.581c.77-.128 1.154-.512.898-1.409-1.282 0-1.538.128-1.538.769.128.384.256.64.64.64zm39.605 134.953c-.128.128-.256.385-.256.513 0-.128-.128-.385-.128-.513-.129-.384 0-.769.128-1.153.256-1.282-.128-2.179-1.154-2.82-.769-.384-1.538-.897-2.435-1.025-1.154-.128-2.179-.513-2.82-1.538-.128-.128-.256-.128-.384-.128-.257 0-.257.256-.257.512.129 1.538.129 1.538-1.153 1.667-.641 0-1.282 0-1.923.128.129.384.257.512.385.769.64.897.64 1.025-.128 1.538-.385.256-.897.384-1.154 1.025.385.641 1.026 1.41.77 2.307-.257 1.153.512 1.922 1.153 2.819.512.641 1.025.897 1.666 1.026h-.128c-.513.128-.641.512-.641 1.025.128.513.256.897.64 1.025.385.128.77-.128 1.026-.384.256-.257.385-.513.513-.769.128-.128 0-.513-.129-.641-.256-.256-.384-.385-.64-.385.128 0 .256 0 .512-.128a3.561 3.561 0 012.307 0c1.026.257 2.051.257 2.948-.128 0-1.794-.128-1.794.513-2.563.385-.385.64-.897.64-1.282 0 .128.129.257.129.257.256.384.769.256 1.282-.129.128-.128.128-.384.256-.769a1.75 1.75 0 00-.385-.512c-.384 0-.769 0-1.153.256zm5.895-14.354c-.512.641-.256 1.026.898 1.154.513-.769 0-1.282 0-2.051l-.897.897zm24.225-54.212c-.513.257-.513.769-.257 1.154.257.384.641.384 1.154.256.384-.512.256-.897 0-1.153-.128-.385-.513-.513-.897-.257zM19.917 201.872c.256-.128.512-.384.512-.769 0-.384-.256-.512-.769-.64-.256 0-.512.128-.64.128-.385.256-.513.64-.257 1.025.385.384.77.384 1.154.256zm17.687 100.862c.256.385.64.513 1.025.257.257-.128.385-.385.385-.897-.256-.257-.385-.513-.513-.641-.256-.128-.64-.128-.769.128a1.156 1.156 0 00-.769-.769.998.998 0 00-1.025.256c-.257.257-.385.769 0 1.026.512.512.897.512 1.666 0-.256.384-.128.512 0 .64zm-15.38-33.193c.384 0 .64-.128.769-.385.128-.384 0-.64-.256-.897-.129-.128-.385-.256-.77-.256-.512.256-.64.641-.512 1.025.128.257.384.385.769.513zm-1.282 28.708c-.128.384 0 .769.385 1.025.512.385.897.256 1.153-.897-.128-.256-.256-.384-.384-.513-.513-.128-1.026 0-1.154.385zm82.541 33.962c-.385.257-.513.641-.256 1.026.256.384.64.512 1.025.128.128-.128.256-.385.256-.769-.256-.513-.641-.641-1.025-.385zM1.204 210.459c-.256.128-.384.256-.513.641.129.384.257.512.385.641.384.256.769.128 1.025-.257.128-.128.128-.512.128-.64-.256-.385-.512-.513-1.025-.385zM86.95 373.735c-.385 0-.642.257-.642.513 0 .128.128.384.257.641.256.256.64.128.897 0 .256-.128.384-.385.256-.897-.256-.129-.513-.257-.769-.257zM19.66 196.233c-.128.513.129.769.513.897.128 0 .128 0 .385-.128.256-.512.128-.897-.257-1.025-.384 0-.64 0-.64.256zm43.706 51.649c.256.512.64.512.897.128.128-.256 0-.641-.256-.769-.385-.128-.513.128-.641.641zm98.177 126.366c-.256.128-.64 0-1.153.128-1.026 0-1.41.641-2.051 1.154-.256.256-.897.384-.769.769.128.64.641.128 1.025.128.257 0 .385.128.385.384 0 .385 0 .641.256.897.385.385.641.769.129 1.154-.385.256-.77.128-1.154-.128-.256-.129-.385-.257-.641-.385-.384-.128-.769.128-.769.513-.128.769 0 1.538.641 1.922 1.153.641 1.666 2.179 3.332 1.794.129 0 .385.129.641.385.769.641 1.666.512 2.564.256.897-.256 1.538-.897 1.666-1.794 0-.128.128-.256.256-.385.641-.769.769-1.537.385-2.435-.257-.512-.129-1.153.256-1.538.256-.384.256-.768-.128-1.025-1.282-1.281-2.82-2.307-4.871-1.794zm-44.218 17.045c-.641-.384-1.153-.897-1.922-1.409-.898-.129-1.667-.129-2.307-.129-.513 0-.898.257-1.154.769-.128.513-.513 1.026-.897 1.41-.385.385-.513 1.025-.513 1.538-.128 2.051 1.666 4.101 3.461 4.357 1.153.257 2.307.385 3.332-.128.769-.384.641-1.409 1.154-2.05.64-.769.256-1.923.256-2.82-.256-.641-.897-1.025-1.41-1.538zm45.756-45.497c.129.129.129.257.129.385.769 1.281 1.666 2.05 3.204 2.05 1.538 0 2.563-.384 2.82-1.922 1.538-1.025.769-2.179.128-3.332-.513-.769-1.154-1.41-1.923-2.179-.128-.128-.513-.256-.641-.128-.769.256-1.538.256-2.435.384-.384 0-.641.385-.897.769l-.513 1.026c-.256.384-.256.64-.384.769-.128.769-.257 1.538.512 2.178zm-32.042 3.333c.257.256.641.384.897.256 1.026-.769 2.307-.513 3.461-.769.384-.128.641-.256.769-.769h.256c.128-.385.257-.641.128-1.025h.257c.128-.257.256-.513.256-.769.128 0 .256-.128.256-.128.641-.513 1.026-.898 1.026-1.667v-1.922c.128-.897-.257-1.538-.897-2.051v-.384c-.129-.897-.513-1.282-1.41-1.41 0 0 .128 0 .128-.128-.897-1.153-2.051-1.41-3.204-1.666-1.154-.256-2.179 0-2.948 1.025-.128.257-.257.385-.385.641-.128 0-.256.128-.384.128-.641.128-.769.513-.897 1.025l-.129-.128c-.128.128-.256.128-.512.257-.257-.257-.513-.385-1.026-.385-1.409-.128-1.794.128-2.178 1.538-.129.641-.129 1.282.256 2.051a2.318 2.318 0 001.794.256c.128.641.257 1.41.513 2.051.384 1.153 1.025 2.178 2.307 2.563.641.384 1.153.897 1.666 1.41zm23.455 23.068c-.641-.256-1.282-.64-1.922-.384l-.257-.256c-.641-.129-1.153-.129-1.794-.129v-.256c-.769-1.025-1.795-1.666-2.948-2.05h-.128v-.129c-1.026 0-1.666 0-2.435-.512-.898-.641-1.154-.385-1.923.512-.128.129-.256.385-.256.513h-.257c-.897 0-1.666-.128-1.794.897h-.128c-.769.256-1.026.897-1.026 1.666l-.128-.128s-.128-.128-.256 0c-.641.128-1.025.256-1.154.897l-.128.128-.128.129s0 .128-.128.128v-.128c-.256.128-.256.256-.256.384-.129 0-.129.128-.257.128-.384.513-.641.897-.897 1.41h-.128c-.128.128-.128.384 0 .513-.128 0-.128 0-.256.128-.385.641-.257 1.153 0 1.794.384 1.025.64 2.179.769 3.46h-.257c0 .128-.128.128-.128.257-.641-.385-1.41-.385-2.179-.385-.512 0-.769.641-.512 1.025.256.385.512.641.897 1.026.769.384 1.281.512 1.922.384.385-.128.769-.384.769-.769v-.128c.769.256 1.154.897 1.666 1.538.129.256.385.513.641.769l-.128.128c-.256.513-.513.769-.897.385l-.128-.129v-.128c-.128-.512-.769-.769-1.666-.641a.705.705 0 00-.641.385c-.897 0-1.795.513-2.564-.256-.384-.513-1.025-.129-1.538.256-.512.513-.897 1.025-.64 1.922h-.257c-1.153.385-1.153.385-.897 1.41l-.256.256c0 .641-.129 1.154 0 1.795 0 0-.129 0-.129.128 0 .897.129 1.538.257 2.179 0 0-.128.128-.128.256.128.384.256.769.512.897.641.384.898 1.025 1.026 1.922h.128-.128c1.41 1.026 2.819.769 4.229.513l.257.256c1.025.769 1.538-.128 2.178-.64.129 0 .129.128.257.128 2.435.512 2.691-1.795 3.973-2.692.256-.128.128-.64 0-.897-.513-.512-.513-1.025-.256-1.794.128-.384.128-.897.128-1.538h.128c.385-.641-.128-.769-.513-.769l-.128-.128-.128-.128s.128 0 .128-.128c-.128-.385-.256-.641-.256-.897-.256-.898-.256-1.026.897-1.667 0 .129 0 .257.128.257.513.384.897.769 1.41 1.153h-.128c.769.897 1.025.897 1.282 0 .128 0 .256-.128.384-.256.256-.256.385-.513.385-.897h.384c1.282 0 2.307 0 3.332-.128.769 0 .898-.129 1.026-1.154 0-.128.128-.128.128-.256l.128-.128v.128c.641-.128.769-.513.641-.897 0-.128.128-.128.128-.257.128-.256.128-.512.257-.769h.128v.129c.512-.129.769-.129 1.025-.385.128 0 .256-.128.256-.128a.996.996 0 00.513-.513v-.128.128c.641-.384.641-.897.641-1.281 0-.769-.128-1.538.384-2.051.513-.641.641-1.41.641-2.307 0-.384 0-.769.128-1.153.129-.385.641-.641.385-1.025-.641-.257-1.025-.769-1.41-.898zm-12.56 12.816c0-.128.128-.128 0 0 .128 0 .128 0 0 0zm1.409-.512c0 .128 0 .128 0 0zm4.358-8.074v-.257.257zm.385-.769c0-.128 0-.128 0 0 0-.128.128-.128 0 0zm8.459-20.634c-.513-.513-.769-.128-1.154.128-1.41 1.282-1.666 2.691-.769 4.486 1.41 1.409 2.948 1.666 4.743 1.409.384 0 .512-.384.512-.769 0-.897.385-1.666.769-2.563.128-.256.257-.512.128-.641-.128-.768-.769-1.281-1.281-1.922-.257-.384-.769-.256-1.154-.256-.641.128-1.282.769-1.794.128zm-41.142-80.613c-.898-.384-1.667-1.41-2.82-1.153-.256.128-.641.256-.897.384-.257.256-.513.513-.898.769-1.025.897-1.025 1.794-.64 3.076.384 1.281 1.281 2.05 2.435 2.307.769.128 1.538 0 2.435 0 .641-.128.641-.641.769-1.282.128-.897.513-1.538.513-2.307-.128-.641-.257-1.538-.897-1.794zM95.92 234.938c.257.128.514.384.77.512.384.257.769.257 1.153.128.513-.256 1.026-.384 1.538-.512.898-.385 1.41-1.282 1.282-2.179-.128-1.282-.384-2.691-1.794-3.46-.257-.128-.385-.257-.77-.385-.512-.256-.768-.256-1.025-.128-.512.385-1.025.897-1.538 1.154-.769.384-.897 1.025-1.025 1.794-.256 1.41.128 2.563 1.41 3.076zm26.532 96.761c0-.128 0-.128 0 0-.256-.897-.769-.769-1.282-.641-.128 0-.128-.128-.256-.128-.769-.257-1.41-.897-1.923-.769-1.153.256-2.691-.128-3.588.769-.385-.257-.769-.257-1.026 0-.512.384-.897.769-1.41 1.281.385.129.641.257.898.385-.769.897-.898 2.05-.898 3.332 0 1.538 0 1.666 1.923 2.307 0 0 0 .128-.128.128.128.513.256.897.641 1.025 0 .128 0 .128.128.257.256.256.512.384.897.384.256.256.513.641.897.769.128.256.385.385.641.513h.384c.257-.128.513-.128.641-.257.641 0 1.282-.256 1.923-.512.128 0 .256 0 .512.128.385 0 .77-.128 1.154-.385.641-.384.897-.769.769-1.281 0-.256-.128-.385-.256-.513.256-.512.641-1.025.897-1.538.384-.641.384-1.153.128-1.794-.513-1.41-1.025-2.435-1.666-3.46zm-3.204 3.076l-.129-.129c.129 0 .129.129.129.129zm-52.806 23.581H61.7c-1.282 0-2.05.769-2.05 2.179v.769c0 1.281 1.024 2.691 2.178 2.819 1.153.128 2.82-.769 3.332-1.794.257-.513.129-1.025 0-1.666-.256-1.025-.128-1.153 1.026-1.41.256 0 .512 0 .769-.128.384-.128.64-.256.384-.641-.128 0-.512 0-.897-.128zm34.862-96.889c-.128.512-.128 1.153.128 1.666.256.384.641.384 1.026.641.512.384 1.025.769 1.666 1.153.897-.769 1.922-1.025 2.691-1.794.513-.513.641-1.154.769-1.794.128.128.257.384.385.512.641.769 1.281.769 2.307-.512 0-.641-.257-1.026-.769-1.282-.513-.384-1.41-.128-1.923.513 0 .128-.128.128-.128.256-.128-.513-.384-.769-.897-1.025-.385-.128-.513-.641-.769-.769-.897-.769-2.692-.769-3.204.128a3.452 3.452 0 00-1.282 2.307zM74.26 336.056c.77-.384.77-.641 0-.769 0-.128 0-.128-.128-.256h-.128l.128-.128c0-.128 0-.257-.128-.385h.128c-.256-.897-.897-1.281-1.538-1.794 0 0 .128-.128 0-.256-.384-.769-1.025-.769-1.538-.769-1.153.128-2.179-.128-2.948-1.154-.128-.128-.512-.256-.897-.256v-.256a3.84 3.84 0 01-.513-1.026v-.128h.129c0-.769-.257-1.153-.77-1.153-.128-.128-.128-.257-.256-.257-.128-.384-.256-.64-.384-.769-1.795-.897-3.46-.897-5.127.385a8.987 8.987 0 01-1.282 1.025c-1.025.769-1.281 1.923-.897 3.076.513 1.282.77 2.82 1.923 3.973h-.129c.513.897 1.282.641 1.795.513.128 0 .256.128.256.128h.897v.128c.77.384 1.026 0 1.154-.513.128 0 .128-.128.256-.128l.128-.128v.128c1.41-.256 1.41-.256 1.795.897.256.641.64 1.026 1.281 1.026v.256c0 .384.129.641.257.769-.128.128-.128.128-.128.256-.257.513.128.641.64.897.513 0 .77-.128.898-.384 1.025.256 1.922.128 2.82-.256 1.41-.257 2.178-1.154 2.306-2.692zm27.813 43.19v-.256c-.513-.385-.897-.256-1.41-.128v-.128c-.769-.129-1.153.128-1.153.64-.129 0-.257.129-.385.129-.384 0-.513.128-.769.256v.128c0-.128-.128-.128-.128-.256-1.154.384-.897 1.409-1.154 2.05-.384 1.154-.128 1.538.77 2.179.512.256.897.641 1.41.897.384.256.896.256 1.409.385.385.128.513.897 1.282.769.256-.641.256-1.667 1.153-2.051 1.282-.641 1.026-1.922.898-2.948 0-.897-.641-1.538-1.923-1.666zm-74.466.769c-.385-1.281-.77-1.538-1.923-1.666-.897-.128-1.794 0-2.563.513-.77.512-1.154 1.153-1.154 2.05 0 1.538 1.539 2.82 3.205 3.076.128 0 .256-.128.64-.256.641-.513 1.026-.897 1.41-1.154.77-.512 1.026-1.025.641-1.794-.128-.384-.256-.641-.256-.769zm20.635-14.738c.128-.897.385-1.666.385-2.563 0-.257-.385-.385-.77-.385v-.256c-.256-.641-.512-1.026-1.025-1.154-.64-.128-1.282-.256-1.794-.512-1.41-.513-2.179-.129-2.692 1.153-.256.641-.384 1.282-.64 1.794-.641 1.666-.641 1.666.64 2.82.385.256.641.769 1.282.769h.128l-.128.128c.769 0 1.538.256 1.922-.256.129 0 .257-.129.257-.129l.128-.128v.128c.256-.128.513-.256.64-.256.129 0 .129 0 .257-.128v-.128h.128c.77-.256 1.154-.385 1.282-.897zm37.425 8.458c-.128-.64-.64-.897-1.281-.769-.77.129-1.282.769-2.18 1.026-1.537.256-1.794 1.922-.64 2.819.513.513 1.153.897 1.922 1.282 2.82-.513 2.82-.641 2.436-3.204-.257-.385-.257-.769-.257-1.154z" fill="#D2286F"/><path d="M72.082 315.166c-.129-2.051-1.41-3.204-3.461-3.076-1.538 0-2.563.897-2.82 2.435-.128.513 0 .897.128 1.538l-.128.128c0 1.282.385 2.307 1.666 2.564a5.945 5.945 0 003.333-.129c1.025-.384 1.538-1.025 1.153-2.178 0-.129.129-.129.129-.257v-1.025zm44.474-47.932c.128-1.025-.384-1.666-1.41-1.794h-1.025c-.385 0-.769.128-.897.384-.128-.128-.128-.256-.257-.256-1.153-.769-2.435-.513-3.717-.384-.256 0-.256.384-.128.64.128.257.257.385.513.769.128.385.256.641.384.769.898 1.026 1.282 1.026 2.179.385.129-.128.257-.257.513-.385 0 .257-.128.385-.128.641-.128.513.256.897.641 1.41.769.384 1.281 0 1.794 0 .769 0 1.154-.385 1.282-1.154.128-.384.256-.64.256-1.025zM55.163 359.51c-1.153-.129-2.435-.641-3.204.897-.128 1.025-.128 1.794.897 2.178a2.495 2.495 0 001.923 0c.512-.128.897-.512.897-.897.128-.641.256-1.41-.257-2.05-.128 0-.256-.128-.256-.128zm104.971-69.72c-1.026.769-.641 1.538-.129 2.307h.257c-.128 0-.257.128-.385.128-.128 1.538.513 2.307 1.538 2.82 1.154.512 2.435.384 3.717.128.128 0 .385-.256.513-.513.256-.384.384-.897.769-1.281 1.153-1.282.384-2.563 0-3.845-.385-1.282-1.41-1.666-2.692-1.666-.384-.256-.641-.256-.769 0-.128 0-.128 0-.256.128l-.128.128v-.128c-.641 0-1.154.128-1.282.897v-.128c-.256.128-.513.384-.641.513l-.512.512zM49.267 368.224c-.256 0-.384.385-.512.769-.897.257-.897.769-1.026 1.41l-.128-.128c-.897.897-.897 1.025.128 1.538v.256s0 .128.129.128l-.129.129c.641 1.153 1.667 1.409 2.82 1.281.513 0 .897-.256 1.154-.769.512-1.153.512-2.307.384-3.716h.128c-.769-.769-1.794-.898-2.948-.898zm21.789 9.869c-.128.256 0 .384.257.512.128 0 .256.129.384.129v-.129c0-.256 0-.256-.128-.384-.128-.256-.385-.385-.513-.128zm92.282-47.035c.512-.128 1.153-.385 1.153-1.025.128-.129.257-.129.257-.257.512-.384.769-.769.769-1.281 0-.385-.385-.769-.257-1.154.641-1.794.128-3.332-1.025-4.742-.128-.128-.128-.256-.128-.384-.257-.513-.769-.385-1.41-.256v-.129c-.256-.384-.385-.512-.385-.769-.512-.897-.769-.897-1.281 0-.128 0-.257.129-.385.129-1.025 0-1.794 0-2.563.128-.641 0-1.026.256-1.026.897-.128 0-.256 0-.256.128-1.282.513-1.282.513-1.794-.384 0-.129.128-.129.128-.257.128-.641.513-1.025 1.025-1.41 0 0 0 .129.128.129.641-.513.641-.641-.128-.769 0-.129-.128-.257-.128-.385-1.025-.897-1.666-1.794-1.922-3.076-.129-.384-.385-.512-.898-.64v-.257c-.384-.384-.64-.641-1.025-.897h.128c-.256-.513-.512-.769-.897-.513-.128 0-.128-.128-.256-.128-.897-.256-1.026-1.281-1.795-1.41 0 0 0-.128-.128-.128-.897 0-1.666-.128-2.179-.64-.512-.385-1.025-.385-1.538 0-1.153.768-2.179 1.666-3.46 2.178a.963.963 0 00-.641.897c0 1.154-.513 1.923-1.026 2.82-.384.513-.512 1.153-.512 1.794s0 1.282.128 2.051h-.128c0 .256.128.512.384.641v.128c.513.64 1.154 1.025 1.282 1.794.128.641.641 1.025 1.41 1.025v.128c.256.129.384.257.513.513l.256.256c0 .129.128.129.128.257.385 1.281 1.41 1.409 2.179 1.794.897.384 1.794.384 2.82 0 .384-.256.769-.513 1.409-.769 0 0 .001.128.129.128.769.128 1.41.128 2.05.128.641 0 .769-.128.769-1.025 0-.769.257-1.41.898-1.922v.128c.897 0 1.281.384 1.538 1.025 0 .128-.129.128-.129.256v3.333c0 .897.385 1.537 1.282 1.794 1.794.641 3.461 1.794 5.383.512 0-.384.641-.256 1.154-.384zm-4.486-3.973c0-.128-.128-.256-.128-.256l.128.128h.128l-.128.128zm-9.357-32.937c-.512.641-.897 1.538-.769 2.435.129 1.153.129 2.435.769 3.46.641 1.025.257 1.794.513 2.691-.128 0-.128.129-.256.129-.128.64-.128 1.025-.257 1.666v-.128c-.512.64-.64.769.129.897 0 .128.128.256.128.384.256.769.384 1.41.512 2.051.129.256.129.641.385.897 1.025.897 2.179 1.41 3.461 1.538 1.153 0 2.435-.128 3.204-1.154.384-.512.897-.512 1.153 0 .641 1.154 1.282 2.435 1.923 3.589.513 1.025.897 1.153 1.794.769.385-.128.769-.641 1.026-.385 1.281.641 2.563-.256 3.716-.256a.978.978 0 00.641-.256c1.026-1.282 2.051-2.564 2.307-4.101.257-1.282.129-2.692.257-4.23v.128c.641-.64.641-.769-.128-.769 0-.128-.129-.128-.129-.256l-.128-.128h.128c-.128-.641-.256-1.153-.897-1.153-.897-.129-1.282-.641-1.666-1.41-1.025-2.563-3.589-2.435-4.999-1.154-.897.769-1.922 1.282-2.819 1.923-.513.384-1.154.384-1.41 1.153-.128.256-.385.128-.641 0s-.513-.384-.769-.512c-.256-.129-.385-.513-.256-.641 1.025-.897.384-2.563 1.409-3.461.257-.256.129-.769.129-1.153 0 0 .128 0 .128-.128v-.257l.128-.128c.256-.897-.513-1.153-.769-1.666-.385-.769-.641-1.666-1.282-2.307-.641-.64-1.922 0-2.691-.64-.128-.129-.257-.129-.513-.129-.384 0-.897 0-1.153.257-.513.64-1.539 1.409-2.308 2.435zm10.639 9.868c0 .128.128.128.128.128l-.128-.128zm-6.793-.256c.128-.128.256-.128.384-.257 0 .129-.128.129-.256.257 0 0-.128.128-.128 0zm-.257 3.332c.128 0 .128 0 0 0h-.128.128z" fill="#D2286F"/></svg>